<svg width="911" height="822" viewBox="0 0 911 822" fill="none" xmlns="http://www.w3.org/2000/svg">
<path d="M522.571 668.697C444.102 668.697 365.368 650.96 294.13 616.564C195.138 568.756 122.484 494.465 89.5747 407.382C57.3639 322.175 67.0498 234.26 116.839 159.822C168.95 81.8927 258.049 28.0305 367.709 8.1402C474.802 -11.2932 588.295 4.33832 687.269 52.1468C786.261 99.9553 858.915 174.246 891.824 261.329C924.035 346.536 914.349 434.452 864.56 508.889C812.449 586.819 723.35 640.681 613.69 660.571C583.669 666.021 553.138 668.713 522.589 668.713L522.571 668.697ZM458.111 4.95849C428.393 4.95849 398.523 7.53656 368.88 12.9211C260.825 32.5177 173.047 85.564 121.748 162.27C72.7708 235.5 63.2548 321.996 94.9558 405.864C152.901 559.178 334.196 663.737 523.288 663.737C553.006 663.737 582.876 661.158 612.538 655.774C720.593 636.177 808.371 583.131 859.67 506.425C908.647 433.195 918.163 346.699 886.462 262.831C828.517 109.517 647.222 4.95849 458.13 4.95849H458.111Z" fill="url(#paint0_linear_3960_3761)"/>
<path d="M522.571 668.697C444.102 668.697 365.368 650.96 294.13 616.564C195.138 568.756 122.484 494.465 89.5747 407.382C57.3639 322.175 67.0498 234.26 116.839 159.822C168.95 81.8927 258.049 28.0305 367.709 8.1402C474.802 -11.2932 588.295 4.33832 687.269 52.1468C786.261 99.9553 858.915 174.246 891.824 261.329C924.035 346.536 914.349 434.452 864.56 508.889C812.449 586.819 723.35 640.681 613.69 660.571C583.669 666.021 553.138 668.713 522.589 668.713L522.571 668.697ZM458.111 4.95849C428.393 4.95849 398.523 7.53656 368.88 12.9211C260.825 32.5177 173.047 85.564 121.748 162.27C72.7708 235.5 63.2548 321.996 94.9558 405.864C152.901 559.178 334.196 663.737 523.288 663.737C553.006 663.737 582.876 661.158 612.538 655.774C720.593 636.177 808.371 583.131 859.67 506.425C908.647 433.195 918.163 346.699 886.462 262.831C828.517 109.517 647.222 4.95849 458.13 4.95849H458.111Z" fill="url(#paint1_linear_3960_3761)"/>
<path d="M451.712 821.717C373.243 821.717 294.51 803.98 223.272 769.584C124.279 721.776 51.6257 647.485 18.7163 560.402C-13.4945 475.195 -3.80859 387.279 45.9803 312.842C98.0916 234.912 187.191 181.05 296.851 161.16C403.943 141.727 517.436 157.358 616.41 205.167C715.403 252.975 788.056 327.266 820.966 414.349C853.177 499.556 843.491 587.471 793.702 661.909C741.591 739.839 652.492 793.7 542.831 813.591C512.811 819.041 482.28 821.733 451.731 821.733L451.712 821.717ZM387.253 157.978C357.534 157.978 327.665 160.556 298.021 165.941C189.966 185.538 102.189 238.584 50.8893 315.289C1.91227 388.519 -7.60371 475.015 24.0973 558.884C91.1623 736.298 323.341 848.395 541.661 808.81C649.716 789.213 737.493 736.167 788.793 659.461C837.77 586.231 847.286 499.735 815.585 415.867C757.639 262.553 576.326 157.995 387.253 157.995V157.978Z" fill="url(#paint2_linear_3960_3761)"/>
<path d="M451.712 821.717C373.243 821.717 294.51 803.98 223.272 769.584C124.279 721.776 51.6257 647.485 18.7163 560.402C-13.4945 475.195 -3.80859 387.279 45.9803 312.842C98.0916 234.912 187.191 181.05 296.851 161.16C403.943 141.727 517.436 157.358 616.41 205.167C715.403 252.975 788.056 327.266 820.966 414.349C853.177 499.556 843.491 587.471 793.702 661.909C741.591 739.839 652.492 793.7 542.831 813.591C512.811 819.041 482.28 821.733 451.731 821.733L451.712 821.717ZM387.253 157.978C357.534 157.978 327.665 160.556 298.021 165.941C189.966 185.538 102.189 238.584 50.8893 315.289C1.91227 388.519 -7.60371 475.015 24.0973 558.884C91.1623 736.298 323.341 848.395 541.661 808.81C649.716 789.213 737.493 736.167 788.793 659.461C837.77 586.231 847.286 499.735 815.585 415.867C757.639 262.553 576.326 157.995 387.253 157.995V157.978Z" fill="url(#paint3_linear_3960_3761)"/>
<path d="M451.71 821.716C373.241 821.716 294.508 803.98 223.27 769.584C124.278 721.775 51.6239 647.485 18.7145 560.401C-8.07752 489.505 -6.07621 417.074 24.5486 350.942L95.4087 197.922C95.994 196.665 97.6367 196.062 99.0905 196.567C100.544 197.073 101.243 198.493 100.676 199.749C70.5614 264.788 68.579 336.061 94.9745 405.864C162.039 583.278 394.218 695.391 612.538 655.79C738.605 632.93 836.371 564.823 880.76 468.962C881.345 467.705 882.988 467.102 884.441 467.607C885.895 468.113 886.594 469.533 886.028 470.789L815.167 623.809C793.624 670.361 758.015 712.148 712.229 744.652C664.252 778.721 607.27 801.908 542.848 813.59C512.828 819.04 482.297 821.733 451.748 821.733L451.71 821.716ZM27.1731 351.855L29.7976 352.769C-0.31748 417.808 -2.30001 489.08 24.0955 558.884C82.041 712.197 263.335 816.756 452.428 816.756C482.146 816.756 512.016 814.178 541.678 808.793C667.745 785.933 765.511 717.827 809.881 621.965L857.8 518.467C837.806 545.879 812.543 570.665 783.051 591.599C735.075 625.669 678.092 648.855 613.671 660.538C583.65 665.988 553.12 668.68 522.57 668.68C444.101 668.68 365.368 650.944 294.13 616.548C195.138 568.739 122.484 494.449 89.5744 407.365C69.6173 354.548 65.6335 300.898 77.5662 249.63L29.8165 352.753L27.192 351.839L27.1731 351.855Z" fill="url(#paint4_linear_3960_3761)"/>
<path d="M21.4168 562.082C21.4168 562.082 21.3601 562.082 21.3224 562.082C20.1329 562.049 19.0944 561.38 18.7168 560.401C-13.494 475.195 -3.80811 387.279 45.9808 312.842C53.9863 300.865 62.8604 289.476 72.5463 278.674C77.2854 237.05 92.1068 196.78 116.822 159.822C168.933 81.8925 258.032 28.0303 367.693 8.13999C368.712 7.96051 369.769 8.27053 370.449 8.95584C371.129 9.64114 371.299 10.6039 370.902 11.436L300.042 164.456C299.684 165.223 298.928 165.778 298.003 165.941C207.11 182.421 130.586 222.577 78.0217 280.551C73.5846 321.669 79.1357 364.093 94.939 405.848C95.1467 406.386 95.1277 406.99 94.8823 407.512L24.0223 560.532C23.5881 561.462 22.5496 562.066 21.3979 562.066L21.4168 562.082ZM71.6777 287.779C64.2009 296.557 57.2527 305.744 50.8898 315.273C3.17778 386.594 -7.07457 470.544 21.7188 552.357L89.2558 406.517C74.4343 366.965 68.6379 326.858 71.6777 287.779ZM363.69 13.8836C258.013 34.2307 172.219 86.7875 121.75 162.253C98.9606 196.323 84.7244 233.28 79.1923 271.495C132.04 216.164 206.978 177.721 295.379 161.405L363.69 13.8672V13.8836Z" fill="url(#paint5_linear_3960_3761)"/>
<path d="M14.0335 388.78C13.6747 388.78 13.3349 388.731 12.9762 388.601C11.5223 388.095 10.8238 386.675 11.3902 385.419L82.2502 232.399C82.8355 231.143 84.4781 230.539 85.932 231.045C87.3858 231.551 88.0844 232.97 87.518 234.227L16.658 387.246C16.2237 388.209 15.1475 388.78 14.0335 388.78Z" fill="url(#paint6_linear_3960_3761)"/>
<path d="M451.712 821.716C373.243 821.716 294.509 803.98 223.272 769.584C124.279 721.775 51.6255 647.485 18.7161 560.401C18.5084 559.863 18.5272 559.259 18.7726 558.737L89.6327 405.717C90.067 404.755 91.1621 404.151 92.3516 404.183C93.5411 404.216 94.5795 404.885 94.9571 405.864C162.022 583.278 394.2 695.391 612.52 655.79C613.54 655.61 614.597 655.92 615.277 656.606C615.957 657.291 616.127 658.254 615.73 659.086L544.87 812.106C544.511 812.872 543.756 813.427 542.831 813.59C512.81 819.04 482.28 821.733 451.731 821.733L451.712 821.716ZM24.418 559.716C91.7473 736.232 322.642 847.84 540.188 809.054L608.536 661.468C580.177 666.298 551.403 668.697 522.591 668.697C444.122 668.697 365.388 650.96 294.151 616.564C197.556 569.914 126.054 498.055 92.0494 413.696L24.4369 559.732L24.418 559.716Z" fill="url(#paint7_linear_3960_3761)"/>
<path d="M137.591 715.656C137.232 715.656 136.893 715.607 136.534 715.477C135.08 714.971 134.381 713.552 134.948 712.295L205.808 559.275C206.393 558.019 208.036 557.415 209.49 557.921C210.943 558.427 211.642 559.846 211.076 561.103L140.216 714.123C139.781 715.085 138.705 715.656 137.591 715.656Z" fill="url(#paint8_linear_3960_3761)"/>
<path d="M324.436 805.905C324.077 805.905 323.737 805.856 323.379 805.726C321.925 805.22 321.226 803.8 321.793 802.544L392.653 649.524C393.238 648.268 394.88 647.664 396.334 648.17C397.788 648.676 398.487 650.095 397.92 651.352L327.06 804.371C326.626 805.334 325.55 805.905 324.436 805.905Z" fill="url(#paint9_linear_3960_3761)"/>
<path d="M542.245 813.639C541.415 813.639 540.621 813.329 540.074 812.758C539.394 812.073 539.224 811.11 539.621 810.278L610.481 657.258C610.84 656.491 611.595 655.936 612.52 655.773C703.413 639.293 779.937 599.154 832.501 541.164C836.938 500.045 831.387 457.621 815.584 415.85C815.376 415.311 815.395 414.708 815.641 414.185L886.501 261.166C886.935 260.203 888.049 259.583 889.22 259.632C890.409 259.664 891.448 260.334 891.825 261.313C924.036 346.519 914.35 434.435 864.561 508.872C856.556 520.849 847.682 532.238 837.996 543.04C833.257 584.664 818.435 624.934 793.72 661.892C741.609 739.822 652.51 793.684 542.85 813.574C542.661 813.606 542.453 813.623 542.264 813.623L542.245 813.639ZM615.163 660.277L546.852 807.814C652.529 787.467 738.305 734.91 788.792 659.445C811.581 625.375 825.818 588.417 831.35 550.203C778.502 605.55 703.564 643.976 615.163 660.293V660.277ZM821.286 415.181C836.108 454.733 841.904 494.84 838.864 533.919C846.341 525.14 853.289 515.954 859.652 506.425C907.364 435.104 917.617 351.153 888.823 269.341L821.286 415.181Z" fill="url(#paint10_linear_3960_3761)"/>
<path d="M726.636 732.952C726.277 732.952 725.937 732.903 725.579 732.773C724.125 732.267 723.426 730.847 723.993 729.591L794.853 576.571C795.438 575.315 797.081 574.711 798.535 575.217C799.988 575.723 800.687 577.142 800.121 578.399L729.261 731.418C728.826 732.381 727.75 732.952 726.636 732.952Z" fill="url(#paint11_linear_3960_3761)"/>
<path d="M451.71 821.716C373.241 821.716 294.508 803.98 223.27 769.584C124.278 721.775 51.6239 647.485 18.7145 560.401C-8.07752 489.505 -6.07621 417.074 24.5486 350.942L95.4087 197.922C95.994 196.665 97.6367 196.062 99.0905 196.567C100.544 197.073 101.243 198.493 100.676 199.749C70.5614 264.788 68.579 336.061 94.9745 405.864C162.039 583.278 394.218 695.391 612.538 655.79C738.605 632.93 836.371 564.823 880.76 468.962C881.345 467.705 882.988 467.102 884.441 467.607C885.895 468.113 886.594 469.533 886.028 470.789L815.167 623.809C793.624 670.361 758.015 712.148 712.229 744.652C664.252 778.721 607.27 801.908 542.848 813.59C512.828 819.04 482.297 821.733 451.748 821.733L451.71 821.716ZM27.1731 351.855L29.7976 352.769C-0.31748 417.808 -2.30001 489.08 24.0955 558.884C82.041 712.197 263.335 816.756 452.428 816.756C482.146 816.756 512.016 814.178 541.678 808.793C667.745 785.933 765.511 717.827 809.881 621.965L857.8 518.467C837.806 545.879 812.543 570.665 783.051 591.599C735.075 625.669 678.092 648.855 613.671 660.538C583.65 665.988 553.12 668.68 522.57 668.68C444.101 668.68 365.368 650.944 294.13 616.548C195.138 568.739 122.484 494.449 89.5744 407.365C69.6173 354.548 65.6335 300.898 77.5662 249.63L29.8165 352.753L27.192 351.839L27.1731 351.855Z" fill="url(#paint12_linear_3960_3761)"/>
<path d="M818.285 417.547C818.285 417.547 818.228 417.547 818.19 417.547C817.001 417.515 815.963 416.846 815.585 415.867C748.52 238.453 516.342 126.356 298.022 165.941C171.954 188.801 74.1886 256.908 29.7996 352.769C29.2142 354.026 27.5716 354.629 26.1178 354.124C24.6639 353.618 23.9654 352.198 24.5318 350.942L95.3918 197.922C116.935 151.37 152.544 109.582 198.331 77.079C246.307 43.0094 303.289 19.8231 367.711 8.1402C474.804 -11.2932 588.297 4.33832 687.27 52.1468C786.263 99.9553 858.917 174.246 891.826 261.329C892.034 261.868 892.015 262.472 891.769 262.994L820.909 416.013C820.475 416.943 819.437 417.547 818.285 417.547ZM387.97 153.002C466.439 153.002 545.192 170.738 616.41 205.134C713.005 251.784 784.507 323.644 818.512 408.002L886.124 261.966C818.644 85.0418 586.862 -26.6473 368.882 12.8885C242.814 35.7484 145.067 103.855 100.66 199.717L52.7398 303.215C72.7347 275.786 97.9974 251.017 127.489 230.083C175.466 196.013 232.448 172.827 296.87 161.144C326.891 155.694 357.421 153.002 387.97 153.002Z" fill="url(#paint13_linear_3960_3761)"/>
<path d="M818.285 417.547C818.285 417.547 818.229 417.547 818.191 417.547C817.001 417.515 815.963 416.846 815.585 415.867C748.52 238.453 516.342 126.356 298.022 165.941C297.002 166.121 295.945 165.811 295.265 165.125C294.586 164.44 294.416 163.477 294.812 162.645L365.672 9.62522C366.031 8.85832 366.786 8.30349 367.711 8.14032C474.804 -11.2931 588.297 4.33844 687.271 52.1469C786.263 99.9554 858.917 174.246 891.826 261.33C892.034 261.868 892.015 262.472 891.77 262.994L820.91 416.013C820.475 416.944 819.437 417.547 818.285 417.547ZM387.971 153.002C466.44 153.002 545.192 170.738 616.411 205.134C713.005 251.784 784.507 323.644 818.512 408.002L886.124 261.966C818.795 85.4498 587.919 -26.1415 370.355 12.6275L302.006 160.214C330.365 155.384 359.139 152.985 387.952 152.985L387.971 153.002Z" fill="url(#paint14_linear_3960_3761)"/>
<path d="M702.091 263.973C701.732 263.973 701.392 263.924 701.033 263.794C699.579 263.288 698.881 261.868 699.447 260.612L770.307 107.592C770.893 106.336 772.535 105.732 773.989 106.238C775.443 106.743 776.142 108.163 775.575 109.42L704.715 262.439C704.281 263.402 703.205 263.973 702.091 263.973Z" fill="url(#paint15_linear_3960_3761)"/>
<path d="M515.246 173.724C514.887 173.724 514.547 173.675 514.188 173.545C512.734 173.039 512.036 171.619 512.602 170.363L583.462 17.343C584.048 16.0866 585.69 15.483 587.144 15.9888C588.598 16.4946 589.296 17.9141 588.73 19.1705L517.87 172.19C517.435 173.153 516.359 173.724 515.246 173.724Z" fill="url(#paint16_linear_3960_3761)"/>
<path d="M21.4163 562.082C21.4163 562.082 21.3597 562.082 21.3219 562.082C20.1324 562.05 19.0939 561.381 18.7163 560.402C-13.4945 475.195 -3.80859 387.279 45.9803 312.842C53.9858 300.865 62.8599 289.476 72.5458 278.674C77.2849 237.05 92.1063 196.78 116.821 159.822C168.933 81.8927 258.032 28.0306 367.692 8.14027C368.712 7.96078 369.769 8.2708 370.449 8.95611C371.128 9.64142 371.298 10.6041 370.902 11.4363L300.042 164.456C299.683 165.223 298.928 165.778 298.003 165.941C207.11 182.421 130.586 222.577 78.0212 280.551C73.5842 321.669 79.1352 364.093 94.9385 405.848C95.1462 406.387 95.1273 406.99 94.8818 407.512L24.0218 560.532C23.5876 561.462 22.5491 562.066 21.3974 562.066L21.4163 562.082ZM71.6772 287.779C64.2004 296.558 57.2522 305.744 50.8893 315.273C3.17729 386.594 -7.07506 470.545 21.7183 552.357L89.2553 406.517C74.4338 366.965 68.6374 326.858 71.6772 287.779ZM363.689 13.8838C258.013 34.231 172.218 86.7878 121.749 162.253C98.9602 196.323 84.7239 233.281 79.1918 271.495C132.039 216.164 206.978 177.722 295.378 161.405L363.689 13.8675V13.8838Z" fill="url(#paint17_linear_3960_3761)"/>
<path d="M113.046 246.677C112.687 246.677 112.348 246.628 111.989 246.497C110.535 245.991 109.836 244.572 110.403 243.315L181.263 90.2955C181.848 89.0391 183.491 88.4355 184.945 88.9413C186.398 89.4471 187.097 90.8666 186.531 92.123L115.671 245.143C115.236 246.106 114.16 246.677 113.046 246.677Z" fill="url(#paint18_linear_3960_3761)"/>
<path d="M818.285 417.547C818.285 417.547 818.228 417.547 818.19 417.547C817.001 417.515 815.963 416.846 815.585 415.867C748.52 238.453 516.342 126.356 298.022 165.941C171.954 188.801 74.1886 256.908 29.7996 352.769C29.2142 354.026 27.5716 354.629 26.1178 354.124C24.6639 353.618 23.9654 352.198 24.5318 350.942L95.3918 197.922C116.935 151.37 152.544 109.582 198.331 77.079C246.307 43.0094 303.289 19.8231 367.711 8.1402C474.804 -11.2932 588.297 4.33832 687.27 52.1468C786.263 99.9553 858.917 174.246 891.826 261.329C892.034 261.868 892.015 262.472 891.769 262.994L820.909 416.013C820.475 416.943 819.437 417.547 818.285 417.547ZM387.97 153.002C466.439 153.002 545.192 170.738 616.41 205.134C713.005 251.784 784.507 323.644 818.512 408.002L886.124 261.966C818.644 85.0418 586.862 -26.6473 368.882 12.8885C242.814 35.7484 145.067 103.855 100.66 199.717L52.7398 303.215C72.7347 275.786 97.9974 251.017 127.489 230.083C175.466 196.013 232.448 172.827 296.87 161.144C326.891 155.694 357.421 153.002 387.97 153.002Z" fill="url(#paint19_linear_3960_3761)"/>
<path d="M812.505 625.326C812.147 625.326 811.807 625.277 811.448 625.147C809.994 624.641 809.295 623.221 809.862 621.965C839.977 556.926 841.959 485.653 815.564 415.85C815.356 415.311 815.375 414.708 815.621 414.185L886.481 261.166C886.915 260.203 888.029 259.583 889.199 259.632C890.389 259.665 891.427 260.334 891.805 261.313C918.597 332.21 916.596 404.64 885.971 470.773L815.111 623.792C814.677 624.755 813.6 625.326 812.486 625.326H812.505ZM821.285 415.181C840.978 467.721 844.848 521.077 832.972 572.068L880.722 468.945C909.912 405.929 912.668 337.056 888.803 269.341L821.266 415.181H821.285Z" fill="url(#paint20_linear_3960_3761)"/>
<path d="M542.244 813.639C541.413 813.639 540.62 813.329 540.072 812.758C539.393 812.073 539.223 811.11 539.619 810.278L610.479 657.258C610.838 656.492 611.593 655.937 612.518 655.774C703.411 639.293 779.935 599.154 832.5 541.164C836.937 500.045 831.386 457.621 815.583 415.85C815.375 415.311 815.394 414.708 815.639 414.186L886.499 261.166C886.934 260.203 888.048 259.583 889.218 259.632C890.408 259.665 891.446 260.334 891.824 261.313C924.035 346.52 914.349 434.435 864.56 508.873C856.554 520.849 847.68 532.238 837.994 543.04C833.255 584.665 818.434 624.935 793.719 661.892C741.607 739.822 652.508 793.684 542.848 813.574C542.659 813.607 542.452 813.623 542.263 813.623L542.244 813.639ZM615.162 660.277L546.851 807.814C652.527 787.467 738.303 734.91 788.791 659.445C811.58 625.375 825.816 588.418 831.348 550.203C778.501 605.55 703.562 643.976 615.162 660.293V660.277ZM821.285 415.181C836.106 454.733 841.903 494.84 838.863 533.919C846.34 525.14 853.288 515.954 859.651 506.425C907.363 435.104 917.615 351.154 888.822 269.341L821.285 415.181Z" fill="url(#paint21_linear_3960_3761)"/>
<path d="M825.665 590.849C825.306 590.849 824.966 590.8 824.608 590.669C823.154 590.163 822.455 588.744 823.022 587.488L893.882 434.468C894.467 433.211 896.11 432.608 897.564 433.113C899.017 433.619 899.716 435.039 899.149 436.295L828.289 589.315C827.855 590.278 826.779 590.849 825.665 590.849Z" fill="url(#paint22_linear_3960_3761)"/>
<path d="M812.505 625.326C812.147 625.326 811.807 625.277 811.448 625.147C809.994 624.641 809.295 623.221 809.862 621.965C839.977 556.926 841.959 485.653 815.564 415.85C815.356 415.311 815.375 414.708 815.621 414.185L886.481 261.166C886.915 260.203 888.029 259.583 889.199 259.632C890.389 259.665 891.427 260.334 891.805 261.313C918.597 332.21 916.596 404.64 885.971 470.773L815.111 623.792C814.677 624.755 813.6 625.326 812.486 625.326H812.505ZM821.285 415.181C840.978 467.721 844.848 521.077 832.972 572.068L880.722 468.945C909.912 405.929 912.668 337.056 888.803 269.341L821.266 415.181H821.285Z" fill="url(#paint23_linear_3960_3761)"/>
<defs>
<linearGradient id="paint0_linear_3960_3761" x1="695.911" y1="703.093" x2="1019.64" y2="422.342" gradientUnits="userSpaceOnUse">
<stop stop-color="#8824DC"/>
<stop offset="1" stop-color="#B1219D"/>
</linearGradient>
<linearGradient id="paint1_linear_3960_3761" x1="695.911" y1="703.093" x2="1019.64" y2="422.342" gradientUnits="userSpaceOnUse">
<stop stop-color="#8824DC"/>
<stop offset="1" stop-color="#B1219D"/>
</linearGradient>
<linearGradient id="paint2_linear_3960_3761" x1="625.053" y1="856.112" x2="948.783" y2="575.362" gradientUnits="userSpaceOnUse">
<stop stop-color="#8824DC"/>
<stop offset="1" stop-color="#B1219D"/>
</linearGradient>
<linearGradient id="paint3_linear_3960_3761" x1="625.053" y1="856.112" x2="948.783" y2="575.362" gradientUnits="userSpaceOnUse">
<stop stop-color="#8824DC"/>
<stop offset="1" stop-color="#B1219D"/>
</linearGradient>
<linearGradient id="paint4_linear_3960_3761" x1="659.719" y1="853.882" x2="965.46" y2="554.599" gradientUnits="userSpaceOnUse">
<stop stop-color="#8824DC"/>
<stop offset="1" stop-color="#B1219D"/>
</linearGradient>
<linearGradient id="paint5_linear_3960_3761" x1="276.273" y1="590.564" x2="482.758" y2="495.031" gradientUnits="userSpaceOnUse">
<stop stop-color="#8824DC"/>
<stop offset="1" stop-color="#B1219D"/>
</linearGradient>
<linearGradient id="paint6_linear_3960_3761" x1="68.1569" y1="396.899" x2="114.644" y2="381.339" gradientUnits="userSpaceOnUse">
<stop stop-color="#8824DC"/>
<stop offset="1" stop-color="#B1219D"/>
</linearGradient>
<linearGradient id="paint7_linear_3960_3761" x1="463.263" y1="843.199" x2="667.443" y2="641.433" gradientUnits="userSpaceOnUse">
<stop stop-color="#8824DC"/>
<stop offset="1" stop-color="#B1219D"/>
</linearGradient>
<linearGradient id="paint8_linear_3960_3761" x1="191.715" y1="723.775" x2="238.201" y2="708.216" gradientUnits="userSpaceOnUse">
<stop stop-color="#8824DC"/>
<stop offset="1" stop-color="#B1219D"/>
</linearGradient>
<linearGradient id="paint9_linear_3960_3761" x1="378.559" y1="814.024" x2="425.046" y2="798.464" gradientUnits="userSpaceOnUse">
<stop stop-color="#8824DC"/>
<stop offset="1" stop-color="#B1219D"/>
</linearGradient>
<linearGradient id="paint10_linear_3960_3761" x1="815.656" y1="842.122" x2="1022.15" y2="746.583" gradientUnits="userSpaceOnUse">
<stop stop-color="#8824DC"/>
<stop offset="1" stop-color="#B1219D"/>
</linearGradient>
<linearGradient id="paint11_linear_3960_3761" x1="780.76" y1="741.071" x2="827.247" y2="725.511" gradientUnits="userSpaceOnUse">
<stop stop-color="#8824DC"/>
<stop offset="1" stop-color="#B1219D"/>
</linearGradient>
<linearGradient id="paint12_linear_3960_3761" x1="659.719" y1="853.882" x2="965.46" y2="554.599" gradientUnits="userSpaceOnUse">
<stop stop-color="#8824DC"/>
<stop offset="1" stop-color="#B1219D"/>
</linearGradient>
<linearGradient id="paint13_linear_3960_3761" x1="670.215" y1="439.014" x2="861.765" y2="164.088" gradientUnits="userSpaceOnUse">
<stop stop-color="#8824DC"/>
<stop offset="1" stop-color="#B1219D"/>
</linearGradient>
<linearGradient id="paint14_linear_3960_3761" x1="739.291" y1="439.014" x2="943.469" y2="237.247" gradientUnits="userSpaceOnUse">
<stop stop-color="#8824DC"/>
<stop offset="1" stop-color="#B1219D"/>
</linearGradient>
<linearGradient id="paint15_linear_3960_3761" x1="756.214" y1="272.092" x2="802.701" y2="256.532" gradientUnits="userSpaceOnUse">
<stop stop-color="#8824DC"/>
<stop offset="1" stop-color="#B1219D"/>
</linearGradient>
<linearGradient id="paint16_linear_3960_3761" x1="569.369" y1="181.843" x2="615.856" y2="166.283" gradientUnits="userSpaceOnUse">
<stop stop-color="#8824DC"/>
<stop offset="1" stop-color="#B1219D"/>
</linearGradient>
<linearGradient id="paint17_linear_3960_3761" x1="276.272" y1="590.564" x2="482.758" y2="495.032" gradientUnits="userSpaceOnUse">
<stop stop-color="#8824DC"/>
<stop offset="1" stop-color="#B1219D"/>
</linearGradient>
<linearGradient id="paint18_linear_3960_3761" x1="167.17" y1="254.795" x2="213.657" y2="239.236" gradientUnits="userSpaceOnUse">
<stop stop-color="#8824DC"/>
<stop offset="1" stop-color="#B1219D"/>
</linearGradient>
<linearGradient id="paint19_linear_3960_3761" x1="670.215" y1="439.014" x2="861.765" y2="164.088" gradientUnits="userSpaceOnUse">
<stop stop-color="#8824DC"/>
<stop offset="1" stop-color="#B1219D"/>
</linearGradient>
<linearGradient id="paint20_linear_3960_3761" x1="884.743" y1="644.127" x2="950.491" y2="631.603" gradientUnits="userSpaceOnUse">
<stop stop-color="#8824DC"/>
<stop offset="1" stop-color="#B1219D"/>
</linearGradient>
<linearGradient id="paint21_linear_3960_3761" x1="815.655" y1="842.122" x2="1022.15" y2="746.584" gradientUnits="userSpaceOnUse">
<stop stop-color="#8824DC"/>
<stop offset="1" stop-color="#B1219D"/>
</linearGradient>
<linearGradient id="paint22_linear_3960_3761" x1="879.788" y1="598.967" x2="926.275" y2="583.408" gradientUnits="userSpaceOnUse">
<stop stop-color="#8824DC"/>
<stop offset="1" stop-color="#B1219D"/>
</linearGradient>
<linearGradient id="paint23_linear_3960_3761" x1="884.743" y1="644.127" x2="950.491" y2="631.603" gradientUnits="userSpaceOnUse">
<stop stop-color="#8824DC"/>
<stop offset="1" stop-color="#B1219D"/>
</linearGradient>
</defs>
</svg>
