<svg width="1240" height="415" viewBox="0 0 1240 415" fill="none" xmlns="http://www.w3.org/2000/svg">
<path d="M1240 414.019L767.112 0.29701L766.802 0.0427246H473.198L408.451 56.6859C407.855 55.5923 406.807 54.8038 405.258 54.8038C401.494 54.8038 400.589 59.5601 402.543 61.8493L0.000488281 414.044H1239.98L1240 414.019ZM117.943 411.678L229.858 292.008H313.949L226.904 411.678H117.943ZM785.836 108.853C787.265 108.853 788.266 108.166 788.862 107.199L798.795 120.858H749.96L735.834 93.6682H778.999L784.312 100.968C780.929 102.443 781.429 108.878 785.836 108.878V108.853ZM598.43 70.3699L596.262 91.3026H553.192L559.719 70.3699H598.43ZM560.433 68.0043L565.555 51.5481H600.359L598.644 68.0043H560.41H560.433ZM675.922 68.0043H641.381L639.665 51.5481H674.469L678.066 63.0701C676.184 63.8331 675.47 66.0967 675.922 68.0043ZM677.423 70.3699C677.971 70.7768 678.661 71.0057 679.519 71.0057C679.876 71.0057 680.21 70.9547 680.52 70.8784L686.88 91.3026H643.81L643.763 90.8955C643.763 90.8955 643.953 90.921 644.072 90.921C649.027 90.921 649.051 82.6802 644.072 82.6802C643.643 82.6802 643.286 82.7567 642.929 82.8584L641.619 70.3444H677.423V70.3699ZM694.431 120.807C695.003 120.807 695.528 120.68 695.956 120.476L696.076 120.832H646.859L645.049 103.46C646.359 101.705 646.168 98.7295 644.406 97.3561L644.025 93.6172H687.595L693.526 112.642C689.477 113.583 689.786 120.781 694.431 120.781V120.807ZM641.833 93.6427L642.143 96.6438C637.235 96.7201 637.259 104.859 642.214 104.859C642.5 104.859 642.762 104.834 643 104.783L644.668 120.832H606.744C606.815 118.721 605.576 116.559 603.027 116.559C600.478 116.559 599.239 118.721 599.311 120.832H595.38L598.215 93.6427H641.833ZM596 93.6427L593.165 120.832H543.949L552.43 93.6427H595.976H596ZM592.927 123.198L589.139 159.595H531.871L543.21 123.198H592.903H592.927ZM595.142 123.198H600.026C600.645 124.139 601.622 124.8 603.027 124.8C604.433 124.8 605.409 124.139 606.029 123.198H644.906L648.694 159.595H591.378L595.166 123.198H595.142ZM647.122 123.198H696.814L708.153 159.595H650.886L647.098 123.198H647.122ZM699.125 123.198H748.674L767.589 159.595H710.487L699.149 123.198H699.125ZM698.41 120.832L697.743 118.67C698.672 116.636 698.076 113.787 695.932 112.871L689.929 93.6427H733.333L747.459 120.832H698.41ZM689.191 91.2771L682.664 70.3444H721.231L732.094 91.2771H689.167H689.191ZM683.092 68.0043C683.569 65.8932 682.664 63.35 680.329 62.8667L676.803 51.5481H711.464L720.016 68.0043H683.092ZM676.065 49.2083L671.968 36.0329H703.412L710.249 49.2083H676.089H676.065ZM673.754 49.2083H639.427L638.069 36.0329H669.657L673.754 49.2083ZM640.88 84.5623C640.022 86.1901 640.189 88.454 641.428 89.7766L641.595 91.2771H598.477L600.645 70.3444H639.427L640.904 84.5623H640.88ZM600.621 49.2083H566.294L570.391 36.0329H601.979L600.621 49.2083ZM563.983 49.2083H529.823L536.659 36.0329H568.105L564.007 49.2083H563.983ZM563.245 51.5481L558.123 68.0043H520.032L528.584 51.5481H563.245ZM557.385 70.3699L550.858 91.3026H507.931L515.767 76.22C516.554 75.5841 517.006 74.6175 517.149 73.5747L518.793 70.3953H557.361L557.385 70.3699ZM550.119 93.6427L541.638 120.832H492.589L506.716 93.6427H550.119ZM540.9 123.198L529.56 159.595H472.46L491.374 123.198H540.924H540.9ZM528.822 161.935L513.028 212.626H444.897L471.221 161.935H528.822ZM531.157 161.935H588.901L583.636 212.626H515.339L531.133 161.935H531.157ZM591.116 161.935H648.932L654.197 212.626H585.852L591.116 161.935ZM651.147 161.935H708.891L724.686 212.626H656.388L651.123 161.935H651.147ZM711.226 161.935H768.828L795.15 212.626H727.02L711.226 161.935ZM771.328 161.935H828.692L865.568 212.626H797.676L771.328 161.935ZM770.113 159.595L751.199 123.198H800.51L826.977 159.595H770.09H770.113ZM734.619 91.2771L723.756 70.3444H762.086L777.308 91.2771H734.619ZM722.541 68.0043L713.99 51.5481H748.412L760.395 68.0043H722.541ZM712.751 49.2083L705.914 36.0329H737.121L746.697 49.2083H712.751ZM704.699 33.6928L699.149 23.0358H727.64L735.405 33.6928H704.699ZM702.174 33.6928H671.229L667.894 23.0358H696.623L702.174 33.6928ZM668.918 33.6928H637.831L636.711 23.0358H665.583L668.918 33.6928ZM639.165 68.0043H600.883L602.599 51.5481H637.474L639.189 68.0043H639.165ZM602.241 33.6928H571.153L574.489 23.0358H603.36L602.241 33.6928ZM568.819 33.6928H537.874L543.425 23.0358H572.154L568.819 33.6928ZM535.35 33.6928H504.643L512.409 23.0358H540.9L535.35 33.6928ZM534.135 36.0329L527.297 49.2083H493.351L496.686 44.6299C497.544 44.1212 498.116 43.2818 498.378 42.3153L502.928 36.0584H534.135V36.0329ZM526.059 51.5481L517.507 68.0043H479.654L491.636 51.5481H526.059ZM510.479 70.3699C509.026 72.6335 509.812 76.4741 512.885 76.9319L505.429 91.3026H462.74L477.962 70.3699H510.479ZM504.19 93.6427L490.064 120.832H441.229L461.001 93.6427H504.167H504.19ZM488.849 123.198L469.934 159.595H413.048L439.514 123.198H488.825H488.849ZM468.719 161.935L442.373 212.626H374.48L411.357 161.935H468.719ZM441.158 214.966L402.352 289.643H318.451L372.765 214.966H441.158ZM443.683 214.966H512.313L489.039 289.643H404.901L443.706 214.966H443.683ZM514.624 214.966H583.398L575.632 289.643H491.35L514.624 214.966ZM585.613 214.966H654.435L662.201 289.643H577.847L585.613 214.966ZM656.65 214.966H725.424L748.698 289.643H664.416L656.65 214.966ZM727.758 214.966H796.389L835.195 289.643H751.056L727.782 214.966H727.758ZM798.89 214.966H867.283L921.597 289.643H837.696L798.89 214.966ZM870.07 214.966H938.153L1007.97 289.643H924.36L870.047 214.966H870.07ZM868.355 212.626L831.479 161.935H888.556L935.961 212.626H868.355ZM829.787 159.595L803.322 123.198H852.347L886.388 159.595H829.811H829.787ZM801.606 120.832L789.529 104.249C789.386 102.723 788.552 101.324 787.027 100.815L781.81 93.6427H824.69L850.131 120.832H801.606ZM780.095 91.2771L764.873 70.3444H802.916L822.474 91.2771H780.095ZM763.182 68.0043L751.199 51.5481H761.8C761.085 53.9389 762.252 57.0675 765.325 57.0675C768.398 57.0675 769.542 53.9644 768.851 51.5481H785.336L800.725 68.0043H763.182ZM766.969 49.2083C766.493 48.9794 765.945 48.8522 765.325 48.8522C764.706 48.8522 764.158 48.9794 763.682 49.2083H749.508L739.931 36.0329H770.828L783.144 49.2083H766.993H766.969ZM738.192 33.6928L730.426 23.0358H758.632L768.613 33.6928H738.192ZM728.735 20.6703L722.398 11.9463H748.293L756.464 20.6703H728.759H728.735ZM725.948 20.6703H697.934L693.407 11.9463H719.611L725.971 20.6703H725.948ZM695.408 20.6703H667.156L664.44 11.9463H690.858L695.385 20.6703H695.408ZM664.845 20.6703H636.449L635.544 11.9463H662.129L664.845 20.6703ZM637.212 49.2083H602.836L604.195 36.0329H635.83L637.188 49.2083H637.212ZM603.575 20.6703H575.18L577.895 11.9463H604.48L603.575 20.6703ZM572.869 20.6703H544.616L549.142 11.9463H575.561L572.845 20.6703H572.869ZM542.115 20.6703H514.1L520.437 11.9463H546.641L542.115 20.6703ZM511.313 20.6703H483.608L491.779 11.9463H517.673L511.313 20.6703ZM509.598 23.0104L501.832 33.6674H471.411L481.393 23.0104H509.598ZM500.141 36.0329L498.068 38.8816C497.496 37.7371 496.425 36.8976 494.829 36.8976C490.302 36.8976 489.921 43.7651 493.661 44.9351L490.541 49.2083H456.904L469.22 36.0329H500.117H500.141ZM488.849 51.5481L476.867 68.0043H439.324L454.712 51.5481H488.849ZM475.152 70.3699L459.929 91.3026H417.55L437.108 70.3699H475.152ZM458.238 93.6427L438.466 120.832H389.941L415.382 93.6427H458.262H458.238ZM436.751 123.198L410.285 159.595H353.708L387.749 123.198H436.774H436.751ZM408.545 161.935L371.669 212.626H304.063L351.468 161.935H408.545ZM369.978 214.966L315.664 289.643H232.05L301.872 214.966H369.954H369.978ZM229.691 411.678L316.736 292.008H401.137L338.962 411.678H229.691ZM341.487 411.678L403.662 292.008H488.301L450.996 411.678H341.487ZM453.307 411.678L490.612 292.008H575.394L562.959 411.678H453.307ZM565.174 411.678L577.609 292.008H662.439L674.874 411.678H565.174ZM677.09 411.678L664.654 292.008H749.436L786.741 411.678H677.09ZM789.052 411.678L751.747 292.008H836.386L898.561 411.678H789.052ZM901.086 411.678L838.911 292.008H923.312L1010.36 411.678H901.086ZM1013.14 411.678L926.099 292.008H1010.19L1122.11 411.678H1013.14ZM1233.85 411.678H1125.23L1013.31 292.008H1097.07L1233.85 411.678ZM1094.38 289.643H1011.12L941.298 214.966H1009.05L1094.4 289.643H1094.38ZM1006.33 212.626H939.058L891.653 161.935H948.373L1006.31 212.626H1006.33ZM945.705 159.595H889.461L855.42 123.198H904.088L945.681 159.595H945.705ZM901.42 120.832H853.228L827.787 93.6427H870.308L901.396 120.832H901.42ZM867.641 91.2771H825.595L806.013 70.3444H843.7L867.617 91.2771H867.641ZM841.031 68.0043H803.822L788.433 51.5481H822.212L841.031 68.0043ZM819.544 49.2083H786.241L773.925 36.0329H804.489L819.544 49.2083ZM801.797 33.6928H771.734L761.752 23.0358H789.6L801.797 33.6928ZM786.932 20.6703H759.561L751.39 11.9463H776.951L786.932 20.6703ZM766.04 2.38283L774.258 9.58075H749.198L742.48 2.38283H766.04ZM739.36 2.38283L746.078 9.58075H720.659L715.419 2.38283H739.336H739.36ZM712.655 2.38283L717.896 9.58075H692.192L688.452 2.38283H712.655ZM685.927 2.38283L689.667 9.58075H663.725L661.486 2.38283H685.927ZM659.152 2.38283L661.391 9.58075H635.306L634.567 2.38283H659.176H659.152ZM607.696 2.38283H632.352L633.09 9.58075H606.958L607.696 2.38283ZM606.696 11.9463H633.329L634.234 20.6703H605.79L606.696 11.9463ZM634.496 23.0104L635.615 33.6674H604.457L605.576 23.0104H634.52H634.496ZM580.897 2.38283H605.481L604.742 9.58075H578.658L580.897 2.38283ZM578.562 2.38283L576.323 9.58075H550.381L554.121 2.38283H578.562ZM551.596 2.38283L547.856 9.58075H522.152L527.393 2.38283H551.596ZM524.606 2.38283L519.365 9.58075H493.947L500.665 2.38283H524.582H524.606ZM474.008 2.38283H497.568L490.85 9.58075H465.789L474.008 2.38283ZM463.098 11.9463H488.659L480.488 20.6703H453.116L463.098 11.9463ZM450.424 23.0104H478.272L468.291 33.6674H438.228L450.424 23.0104ZM435.559 36.0329H466.123L453.807 49.2083H420.504L435.559 36.0329ZM404.758 62.9937C404.925 62.9937 405.091 63.0446 405.282 63.0446C407.617 63.0446 408.832 61.2134 408.975 59.2803L417.812 51.5481H451.592L436.203 68.0043H398.993L404.734 62.9683L404.758 62.9937ZM396.325 70.3699H434.011L414.454 91.3026H372.408L396.325 70.3699ZM369.716 93.6427H412.238L386.796 120.832H338.605L369.692 93.6427H369.716ZM335.936 123.198H384.605L350.563 159.595H294.32L335.912 123.198H335.936ZM291.652 161.935H348.372L300.966 212.626H233.693L291.628 161.935H291.652ZM231.025 214.966H298.775L228.953 289.643H145.695L231.049 214.966H231.025ZM226.737 292.008L114.822 411.678H6.1944L142.979 292.008H226.737Z" fill="url(#paint0_linear_1253_3856)"/>
<defs>
<linearGradient id="paint0_linear_1253_3856" x1="923.075" y1="435.329" x2="1081.73" y2="107.1" gradientUnits="userSpaceOnUse">
<stop stop-color="#8824DC"/>
<stop offset="1" stop-color="#B1219D"/>
</linearGradient>
</defs>
</svg>
