<svg width="740" height="741" viewBox="0 0 740 741" fill="none" xmlns="http://www.w3.org/2000/svg">
<path d="M440.764 734.184C438.213 734.184 436.202 730.871 434.407 727.207L433.246 724.836L435.838 724.324C437.66 723.961 439.482 723.597 441.304 723.206C441.641 713.845 440.615 692.442 434.015 643.535C426.781 589.859 414.514 515.939 399.479 435.392L399.114 433.426L401.085 433.035C485.396 416.508 564.835 395.132 624.772 372.867C683.562 351.02 720.636 329.577 729.139 312.47C730.043 310.639 730.61 308.888 730.84 307.217C730.448 304.82 730.016 302.422 729.571 300.025L726.858 285.491L733.377 298.772C734.672 301.425 735.199 304.214 734.915 307.11C766.362 498.793 638.255 684.105 445.069 726.52C444.421 733.106 442.856 733.632 441.762 733.982C441.425 734.09 441.088 734.144 440.764 734.144V734.184ZM439.293 727.772C439.819 728.675 440.237 729.254 440.534 729.604C440.683 729.146 440.845 728.46 440.98 727.422C440.413 727.544 439.846 727.651 439.293 727.772ZM403.838 436.645C419.116 518.606 431.438 593.227 438.564 646.916C444.259 689.843 445.663 711.407 445.326 722.358C633.18 680.495 758.507 501.958 732.108 315.541C719.395 338.251 667.717 361.257 626.189 376.679C566.509 398.85 487.623 420.118 403.838 436.631V436.645Z" fill="url(#paint0_linear_1458_6115)"/>
<path d="M443.504 712.162L442.721 708.202C527.856 691.514 598.684 665.598 607.457 647.94C608.415 646.014 608.51 644.344 607.754 642.808L611.384 641.03C612.707 643.724 612.599 646.66 611.074 649.731C601.478 669.02 532.566 694.692 443.49 712.162H443.504Z" fill="url(#paint1_linear_1458_6115)"/>
<path d="M431.02 607.612L430.237 603.652C503.009 589.388 571.57 570.935 623.301 551.728C673.993 532.898 705.939 514.431 713.241 499.722C715.09 496.005 715.252 492.718 713.754 489.661L717.384 487.883C719.449 492.072 719.274 496.665 716.858 501.514C706.898 521.543 661.253 541.922 624.705 555.499C572.771 574.787 503.981 593.294 431.006 607.599L431.02 607.612Z" fill="url(#paint2_linear_1458_6115)"/>
<path d="M436.405 728.339L436.054 724.311C517.18 717.213 588.886 677.788 637.972 613.283C693.482 540.346 714.685 441.561 696.155 342.252L700.136 341.511C709.691 392.708 709.097 443.043 698.368 491.115C688.003 537.571 668.77 579.502 641.197 615.721C591.41 681.128 518.678 721.119 436.405 728.325V728.339Z" fill="url(#paint3_linear_1458_6115)"/>
<path d="M447.809 728.89C443.922 728.89 440.008 728.701 436.04 728.324L436.418 724.297C472.709 727.718 505.425 714.801 530.96 686.906C583.244 629.823 601.167 516.356 577.724 390.795L581.706 390.054C593.569 453.616 595.202 515.144 586.416 567.985C577.859 619.438 559.72 661.503 533.956 689.627C510.31 715.448 480.727 728.877 447.809 728.877V728.89Z" fill="url(#paint4_linear_1458_6115)"/>
<path d="M364.065 735.409C338.679 735.409 313.4 732.796 288.391 727.57C241.262 717.71 197.197 699.055 157.423 672.116C77.4443 617.943 23.7157 536.183 6.11658 441.911L3.40381 427.377L9.92229 440.658C17.8986 456.889 64.0157 465.509 136.396 464.311C210.572 463.085 304.573 451.986 401.085 433.062L403.096 432.671L403.474 434.678C418.914 517.42 431.385 592.795 438.565 646.915C449.78 731.368 444.368 733.16 441.776 734.022C439.091 734.911 436.985 732.123 435.123 728.607C411.464 733.146 387.724 735.423 364.065 735.423V735.409ZM11.6634 449.077C30.5312 538.945 82.8697 616.73 159.704 668.776C240.695 723.637 338.759 743.37 435.838 724.337L437.363 724.041L438.052 725.428C439.212 727.799 440.036 728.998 440.535 729.604C441.588 726.398 443.194 711.595 434.016 643.548C426.836 590.317 414.717 517.178 399.857 437.412C303.831 456.148 210.369 467.126 136.464 468.338C97.3108 468.984 32.8525 467.099 11.6634 449.063V449.077Z" fill="url(#paint5_linear_1458_6115)"/>
<path d="M302.373 728.002C270.428 728.002 247.605 723.907 242.909 714.344L246.539 712.566C253.922 727.584 334.508 729.416 442.721 708.188L443.504 712.148C393.824 721.887 341.324 727.988 302.373 727.988V728.002Z" fill="url(#paint6_linear_1458_6115)"/>
<path d="M191.164 634.86C134.56 634.86 96.7032 627.331 89.2397 612.137L92.8705 610.359C99.6996 624.273 139.406 631.654 201.799 630.631C265.825 629.567 346.952 619.99 430.251 603.665L431.033 607.625C338.759 625.714 253.571 634.874 191.177 634.874L191.164 634.86Z" fill="url(#paint7_linear_1458_6115)"/>
<path d="M395.458 739.881C383.594 739.881 371.556 737.174 359.611 731.759C328.273 717.535 298.068 685.37 272.263 638.712C245.851 590.977 225.229 530.014 212.61 462.411L216.591 461.67C229.129 528.856 249.603 589.401 275.813 636.759C301.199 682.636 330.756 714.222 361.298 728.082C386.779 739.639 411.653 738.467 435.218 724.58L437.283 728.055C423.921 735.921 409.818 739.881 395.471 739.881H395.458Z" fill="url(#paint8_linear_1458_6115)"/>
<path d="M358.721 740.447C312.874 740.447 267.621 727.947 226.525 703.366C147.477 656.088 90.9546 569.116 71.4795 464.742L75.4608 464.001C94.7335 567.244 150.554 653.219 228.603 699.904C292.063 737.848 365.591 746.549 435.623 724.392L436.851 728.244C411.06 736.406 384.796 740.447 358.735 740.447H358.721Z" fill="url(#paint9_linear_1458_6115)"/>
<path d="M364.065 735.41C338.678 735.41 313.4 732.797 288.391 727.571C241.262 717.712 197.197 699.057 157.423 672.118C77.5251 617.998 23.8101 536.346 6.157 442.168C3.94361 437.467 4.19976 432.349 6.88552 426.921C18.3709 403.821 71.1818 380.249 113.466 364.53C173.605 342.185 253.274 320.755 337.788 304.188L339.799 303.797L340.177 305.804C376.765 501.784 420.668 690.032 438.038 725.43L439.199 727.8L436.608 728.312C412.449 733.053 388.196 735.424 364.051 735.424L364.065 735.41ZM336.573 308.565C253.017 325.038 174.361 346.252 114.896 368.342C56.1065 390.176 19.0324 411.633 10.5298 428.739C8.34338 433.144 8.14067 437.036 9.92218 440.673L10.0438 440.915L10.0978 441.185C27.4945 534.393 80.6292 615.223 159.704 668.791C239.993 723.18 337.059 743.034 433.301 724.837C415.162 683.957 372.379 500.1 336.573 308.565Z" fill="url(#paint10_linear_1458_6115)"/>
<path d="M242.908 714.344C241.586 711.65 241.694 708.714 243.219 705.643C252.814 686.355 321.726 660.682 410.802 643.212L411.585 647.172C326.45 663.861 255.622 689.776 246.849 707.434C245.891 709.361 245.796 711.031 246.552 712.566L242.922 714.344H242.908Z" fill="url(#paint11_linear_1458_6115)"/>
<path d="M89.2398 612.124C87.1749 607.935 87.3505 603.342 89.7664 598.493C99.7266 578.464 145.371 558.072 181.919 544.508C233.853 525.22 302.643 506.713 375.618 492.408L376.4 496.368C303.628 510.632 235.067 529.072 183.336 548.293C132.644 567.123 100.698 585.59 93.3968 600.298C91.5478 604.016 91.3722 607.302 92.8838 610.36L89.2533 612.138L89.2398 612.124Z" fill="url(#paint12_linear_1458_6115)"/>
<path d="M409.359 729.511C237.038 729.511 74.5021 587.072 39.5332 399.712L43.5145 398.972C79.941 594.116 256.04 740.057 436.054 724.312L436.405 728.339C427.389 729.134 418.347 729.524 409.359 729.524V729.511Z" fill="url(#paint13_linear_1458_6115)"/>
<path d="M436.04 728.339C319.473 717.321 194.714 548.118 157.95 351.155L161.931 350.415C198.385 545.721 321.524 713.455 436.418 724.312L436.04 728.339Z" fill="url(#paint14_linear_1458_6115)"/>
<path d="M435.095 728.607L434.407 727.22C416.889 691.553 372.837 502.847 336.195 306.557L335.83 304.59L337.801 304.2C434.529 285.235 528.787 274.109 603.205 272.883C646.704 272.17 721.473 274.581 733.377 298.799L733.498 299.041L733.552 299.311C770.37 496.53 637.162 688.98 436.634 728.297L435.109 728.594L435.095 728.607ZM340.554 307.783C376.602 500.611 419.642 685.465 437.39 724.041C634.786 684.468 765.754 494.778 729.625 300.348C721.325 284.265 675.316 275.739 603.273 276.938C529.597 278.15 436.364 289.114 340.554 307.796V307.783Z" fill="url(#paint15_linear_1458_6115)"/>
<path d="M411.585 647.171L410.802 643.211C501.227 625.486 600.978 619.815 611.397 641.029L607.767 642.807C600.384 627.789 519.798 625.957 411.585 647.185V647.171Z" fill="url(#paint16_linear_1458_6115)"/>
<path d="M376.386 496.367L375.603 492.407C551.554 457.898 701.687 455.918 717.397 487.895L713.766 489.673C706.937 475.759 667.217 468.378 604.837 469.401C540.811 470.465 459.685 480.042 376.386 496.367Z" fill="url(#paint17_linear_1458_6115)"/>
<path d="M437.255 728.055L435.19 724.58C520.122 674.555 559.545 474.925 523.078 279.551L527.059 278.81C563.81 475.719 523.523 677.249 437.255 728.069V728.055Z" fill="url(#paint18_linear_1458_6115)"/>
<path d="M436.836 728.243L435.608 724.391C598.09 672.992 700.634 472.378 664.194 277.207L668.176 276.466C704.967 473.577 601.194 676.238 436.822 728.23L436.836 728.243Z" fill="url(#paint19_linear_1458_6115)"/>
<path d="M399.857 437.425L399.479 435.419C362.891 239.425 318.988 51.1903 301.618 15.7927L300.457 13.4221L303.049 12.9103C352.593 3.19884 402.462 3.44127 451.278 13.6511C498.407 23.5107 542.473 42.1658 582.246 69.1046C662.144 123.225 715.859 204.876 733.513 299.054C735.726 303.755 735.469 308.873 732.784 314.302C721.298 337.402 668.487 360.987 626.204 376.692C566.064 399.038 486.396 420.467 401.882 437.035L399.871 437.425H399.857ZM306.369 16.3988C324.508 57.2785 367.277 241.122 403.096 432.671C486.652 416.198 565.308 394.983 624.773 372.893C683.563 351.046 720.637 329.603 729.14 312.497C731.326 308.092 731.529 304.2 729.747 300.563L729.625 300.32L729.571 300.051C712.175 206.843 659.04 126.013 579.965 72.445C499.676 18.0555 402.611 -1.79835 306.369 16.3988Z" fill="url(#paint20_linear_1458_6115)"/>
<path d="M364.051 248.827L363.269 244.867C436.041 230.603 504.602 212.163 556.333 192.942C607.025 174.112 638.971 155.645 646.272 140.937C648.121 137.219 648.283 133.933 646.785 130.875L650.416 129.097C652.481 133.286 652.305 137.879 649.889 142.728C639.929 162.757 594.285 183.15 557.737 196.714C505.803 216.002 437.012 234.509 364.038 248.813L364.051 248.827Z" fill="url(#paint21_linear_1458_6115)"/>
<path d="M328.866 98.0103L328.083 94.0503C413.218 77.3483 484.047 51.4466 492.819 33.7882C493.777 31.8621 493.872 30.1919 493.116 28.6564L496.747 26.8784C498.07 29.5723 497.961 32.5086 496.436 35.5796C486.84 54.8678 417.928 80.5405 328.853 98.0103H328.866Z" fill="url(#paint22_linear_1458_6115)"/>
<path d="M696.154 342.25C659.728 147.106 483.642 1.15134 303.615 16.9105L303.264 12.8832C485.288 -3.06457 663.331 144.371 700.136 341.51L696.154 342.25Z" fill="url(#paint23_linear_1458_6115)"/>
<path d="M577.737 390.822C541.284 195.515 418.144 27.7807 303.25 16.9243L303.628 12.897C420.195 23.9149 544.955 193.118 581.719 390.081L577.737 390.822Z" fill="url(#paint24_linear_1458_6115)"/>
<path d="M123.966 468.445C79.9546 468.445 17.116 464.458 6.29197 442.422L6.17038 442.179L6.11668 441.91C-30.7012 244.691 102.507 52.2399 303.035 12.9228L304.56 12.6265L305.248 14.0139C322.766 49.6808 366.818 238.387 403.461 434.677L403.825 436.643L401.855 437.034C305.127 455.999 210.869 467.124 136.45 468.35C132.523 468.418 128.325 468.458 123.953 468.458L123.966 468.445ZM10.044 440.886C18.3442 456.955 64.3262 465.495 136.396 464.296C210.073 463.084 303.305 452.12 399.115 433.438C363.066 240.61 320.027 55.7555 302.279 17.1791C104.882 56.7522 -26.0856 246.442 10.044 440.873V440.886Z" fill="url(#paint25_linear_1458_6115)"/>
<path d="M124.196 276.074C67.606 276.074 29.7354 268.545 22.272 253.351L25.9024 251.574C32.7315 265.487 72.424 272.869 134.831 271.831C198.857 270.767 279.983 261.191 363.283 244.866L364.065 248.826C271.791 266.915 186.603 276.074 124.196 276.074Z" fill="url(#paint26_linear_1458_6115)"/>
<path d="M187.723 113.863C155.777 113.863 132.955 109.768 128.259 100.205L131.889 98.4269C139.272 113.445 219.858 115.277 328.071 94.0493L328.854 98.0093C279.174 107.748 226.673 113.849 187.723 113.849V113.863Z" fill="url(#paint27_linear_1458_6115)"/>
<path d="M212.596 462.41C175.846 265.501 216.132 63.9714 302.4 13.1514L304.465 16.6264C219.533 66.6518 180.11 266.282 216.577 461.656L212.596 462.396V462.41Z" fill="url(#paint28_linear_1458_6115)"/>
<path d="M71.4796 464.755C34.6887 267.643 138.462 64.9826 302.833 12.9907L304.061 16.843C141.579 68.2422 39.0345 268.856 75.4745 464.027L71.4931 464.768L71.4796 464.755Z" fill="url(#paint29_linear_1458_6115)"/>
<path d="M12.8114 455.717L6.2926 442.436C4.99696 439.783 4.47075 436.995 4.75417 434.099C-26.6922 242.416 101.415 57.1037 294.6 14.6886C295.248 8.10205 296.827 7.57669 297.907 7.22648C300.944 6.22975 303.238 9.90688 305.262 14.0285L306.423 16.3991L303.832 16.911C302.01 17.2747 300.188 17.6384 298.366 18.029C298.028 27.3902 299.054 48.793 305.654 97.7004C312.888 151.376 325.156 225.296 340.191 305.843L340.555 307.81L338.585 308.2C254.273 324.727 174.834 346.103 114.897 368.368C56.1074 390.202 19.0333 411.659 10.5306 428.765C9.62637 430.597 9.05951 432.334 8.83008 434.018C9.22147 436.415 9.65327 438.813 10.0986 441.211L12.8114 455.744V455.717ZM294.344 18.8775C106.489 60.7404 -18.8376 239.277 7.56117 425.694C20.2747 402.984 71.9519 379.979 113.48 364.556C173.161 342.386 252.046 321.117 335.831 304.604C320.554 222.629 308.231 148.022 301.105 94.3331C295.41 51.4196 294.006 29.8417 294.33 18.891L294.344 18.8775ZM299.135 11.6175C298.987 12.0755 298.825 12.7624 298.69 13.7996C299.257 13.6783 299.824 13.5706 300.377 13.4493C299.851 12.5469 299.432 11.9677 299.135 11.6175Z" fill="url(#paint30_linear_1458_6115)"/>
<path d="M22.258 253.341C20.1931 249.152 20.3684 244.559 22.7843 239.71C32.7445 219.681 78.389 199.288 114.937 185.724C166.871 166.436 235.661 147.929 308.636 133.625L309.419 137.585C236.647 151.849 168.085 170.288 116.354 189.509C65.6621 208.339 33.7162 226.806 26.4147 241.514C24.5657 245.232 24.4039 248.519 25.902 251.576L22.2716 253.354L22.258 253.341Z" fill="url(#paint31_linear_1458_6115)"/>
<path d="M128.272 100.205C126.95 97.5113 127.058 94.5749 128.583 91.5039C138.179 72.2157 207.091 46.5431 296.166 29.0732L296.949 33.0333C211.814 49.7353 140.986 75.637 132.213 93.2954C131.255 95.2215 131.161 96.8917 131.916 98.4272L128.286 100.205H128.272Z" fill="url(#paint32_linear_1458_6115)"/>
<path d="M39.5334 399.712C29.978 348.515 30.5716 298.179 41.3012 250.107C51.6663 203.651 70.8987 161.721 98.4716 125.502C148.259 60.0807 220.991 20.1036 303.264 12.8975L303.615 16.9248C222.489 24.0232 150.783 63.4481 101.697 127.953C46.1868 200.89 24.9844 299.675 43.5282 398.984L39.5469 399.725L39.5334 399.712Z" fill="url(#paint33_linear_1458_6115)"/>
<path d="M157.95 351.154C146.087 287.592 144.454 226.064 153.24 173.223C161.797 121.77 179.935 79.705 205.7 51.5809C232.126 22.7159 265.988 9.34084 303.615 12.8968L303.238 16.9241C266.946 13.5029 234.231 26.42 208.696 54.3152C156.411 111.399 138.488 224.865 161.931 350.427L157.95 351.167V351.154Z" fill="url(#paint34_linear_1458_6115)"/>
<path d="M736.265 313.858L729.747 300.577C721.77 284.347 675.667 275.726 603.273 276.925C529.097 278.151 435.095 289.25 338.584 308.174L336.573 308.565L336.195 306.558C320.755 223.815 308.284 148.441 301.104 94.3205C289.889 9.86729 295.301 8.0758 297.892 7.21376C300.578 6.32478 302.683 9.11297 304.546 12.6285C353.591 3.21337 402.947 3.55012 451.264 13.6522C498.393 23.5118 542.458 42.1669 582.232 69.1057C662.211 123.28 715.953 205.039 733.539 299.311L736.252 313.845L736.265 313.858ZM299.134 11.6183C298.068 14.824 296.475 29.6269 305.653 97.6743C312.833 150.905 324.952 224.044 339.812 303.81C435.838 285.074 529.313 274.097 603.205 272.884C642.345 272.238 706.816 274.124 728.005 292.159C709.138 202.291 656.799 124.505 579.965 72.4596C498.974 17.5987 400.909 -2.13401 303.831 16.8983L302.306 17.1946L301.617 15.8072C300.457 13.4366 299.633 12.2379 299.134 11.6318V11.6183Z" fill="url(#paint35_linear_1458_6115)"/>
<path d="M309.418 137.583L308.635 133.623C484.586 99.1148 634.719 97.1347 650.429 129.111L646.798 130.889C639.969 116.975 600.25 109.594 537.87 110.631C473.843 111.695 392.717 121.272 309.418 137.597V137.583Z" fill="url(#paint36_linear_1458_6115)"/>
<path d="M296.947 33.034L296.165 29.074C386.59 11.3483 486.341 5.67769 496.76 26.892L493.129 28.6699C485.747 13.6515 405.161 11.8197 296.947 33.0474V33.034Z" fill="url(#paint37_linear_1458_6115)"/>
<path d="M523.091 279.552C510.553 212.367 490.079 151.822 463.869 104.463C438.483 58.5732 408.926 27.0009 378.384 13.1409C352.903 1.58416 328.043 2.75596 304.465 16.6429L302.4 13.1679C326.828 -1.21745 353.686 -2.49704 380.057 9.46379C411.396 23.6875 441.6 55.8523 467.405 102.51C493.817 150.246 514.44 211.208 527.059 278.811L523.077 279.552H523.091Z" fill="url(#paint38_linear_1458_6115)"/>
<path d="M664.208 277.221C644.935 173.978 589.115 88.0026 511.066 41.3176C447.606 3.37434 374.078 -5.32689 304.046 16.8303L302.818 12.978C373.97 -9.52932 448.659 -0.706902 513.131 37.856C592.178 85.1336 648.701 172.106 668.176 276.48L664.194 277.221H664.208Z" fill="url(#paint39_linear_1458_6115)"/>
<defs>
<linearGradient id="paint0_linear_1458_6115" x1="652.621" y1="757.252" x2="833.085" y2="662.646" gradientUnits="userSpaceOnUse">
<stop stop-color="#8824DC"/>
<stop offset="1" stop-color="#B1219D"/>
</linearGradient>
<linearGradient id="paint1_linear_1458_6115" x1="568.96" y1="715.819" x2="599.826" y2="664.992" gradientUnits="userSpaceOnUse">
<stop stop-color="#8824DC"/>
<stop offset="1" stop-color="#B1219D"/>
</linearGradient>
<linearGradient id="paint2_linear_1458_6115" x1="645.057" y1="613.768" x2="696.747" y2="527.714" gradientUnits="userSpaceOnUse">
<stop stop-color="#8824DC"/>
<stop offset="1" stop-color="#B1219D"/>
</linearGradient>
<linearGradient id="paint3_linear_1458_6115" x1="637.664" y1="748.226" x2="785.95" y2="676.515" gradientUnits="userSpaceOnUse">
<stop stop-color="#8824DC"/>
<stop offset="1" stop-color="#B1219D"/>
</linearGradient>
<linearGradient id="paint4_linear_1458_6115" x1="552.129" y1="746.31" x2="647.812" y2="715.893" gradientUnits="userSpaceOnUse">
<stop stop-color="#8824DC"/>
<stop offset="1" stop-color="#B1219D"/>
</linearGradient>
<linearGradient id="paint5_linear_1458_6115" x1="332.418" y1="751.26" x2="483.054" y2="601.974" gradientUnits="userSpaceOnUse">
<stop stop-color="#8824DC"/>
<stop offset="1" stop-color="#B1219D"/>
</linearGradient>
<linearGradient id="paint6_linear_1458_6115" x1="392.235" y1="729.021" x2="394.95" y2="710.03" gradientUnits="userSpaceOnUse">
<stop stop-color="#8824DC"/>
<stop offset="1" stop-color="#B1219D"/>
</linearGradient>
<linearGradient id="paint7_linear_1458_6115" x1="343.676" y1="636.478" x2="347.642" y2="606.479" gradientUnits="userSpaceOnUse">
<stop stop-color="#8824DC"/>
<stop offset="1" stop-color="#B1219D"/>
</linearGradient>
<linearGradient id="paint8_linear_1458_6115" x1="379.86" y1="754.184" x2="495.622" y2="689.611" gradientUnits="userSpaceOnUse">
<stop stop-color="#8824DC"/>
<stop offset="1" stop-color="#B1219D"/>
</linearGradient>
<linearGradient id="paint9_linear_1458_6115" x1="343.468" y1="754.66" x2="478.098" y2="631.754" gradientUnits="userSpaceOnUse">
<stop stop-color="#8824DC"/>
<stop offset="1" stop-color="#B1219D"/>
</linearGradient>
<linearGradient id="paint10_linear_1458_6115" x1="328.139" y1="757.615" x2="526.014" y2="620.017" gradientUnits="userSpaceOnUse">
<stop stop-color="#8824DC"/>
<stop offset="1" stop-color="#B1219D"/>
</linearGradient>
<linearGradient id="paint11_linear_1458_6115" x1="368.239" y1="718.001" x2="399.104" y2="667.172" gradientUnits="userSpaceOnUse">
<stop stop-color="#8824DC"/>
<stop offset="1" stop-color="#B1219D"/>
</linearGradient>
<linearGradient id="paint12_linear_1458_6115" x1="302.642" y1="618.293" x2="354.331" y2="532.238" gradientUnits="userSpaceOnUse">
<stop stop-color="#8824DC"/>
<stop offset="1" stop-color="#B1219D"/>
</linearGradient>
<linearGradient id="paint13_linear_1458_6115" x1="334.971" y1="746.519" x2="493.829" y2="614.776" gradientUnits="userSpaceOnUse">
<stop stop-color="#8824DC"/>
<stop offset="1" stop-color="#B1219D"/>
</linearGradient>
<linearGradient id="paint14_linear_1458_6115" x1="365.246" y1="747.769" x2="514.666" y2="671.721" gradientUnits="userSpaceOnUse">
<stop stop-color="#8824DC"/>
<stop offset="1" stop-color="#B1219D"/>
</linearGradient>
<linearGradient id="paint15_linear_1458_6115" x1="636.454" y1="752.042" x2="834.944" y2="630.577" gradientUnits="userSpaceOnUse">
<stop stop-color="#8824DC"/>
<stop offset="1" stop-color="#B1219D"/>
</linearGradient>
<linearGradient id="paint16_linear_1458_6115" x1="560.128" y1="648.203" x2="562.844" y2="629.213" gradientUnits="userSpaceOnUse">
<stop stop-color="#8824DC"/>
<stop offset="1" stop-color="#B1219D"/>
</linearGradient>
<linearGradient id="paint17_linear_1458_6115" x1="630.039" y1="497.972" x2="634.005" y2="467.973" gradientUnits="userSpaceOnUse">
<stop stop-color="#8824DC"/>
<stop offset="1" stop-color="#B1219D"/>
</linearGradient>
<linearGradient id="paint18_linear_1458_6115" x1="513.706" y1="751.166" x2="583.134" y2="739.907" gradientUnits="userSpaceOnUse">
<stop stop-color="#8824DC"/>
<stop offset="1" stop-color="#B1219D"/>
</linearGradient>
<linearGradient id="paint19_linear_1458_6115" x1="614.253" y1="751.47" x2="757.14" y2="699.043" gradientUnits="userSpaceOnUse">
<stop stop-color="#8824DC"/>
<stop offset="1" stop-color="#B1219D"/>
</linearGradient>
<linearGradient id="paint20_linear_1458_6115" x1="623.94" y1="459.616" x2="821.815" y2="322.012" gradientUnits="userSpaceOnUse">
<stop stop-color="#8824DC"/>
<stop offset="1" stop-color="#B1219D"/>
</linearGradient>
<linearGradient id="paint21_linear_1458_6115" x1="578.088" y1="254.982" x2="629.778" y2="168.929" gradientUnits="userSpaceOnUse">
<stop stop-color="#8824DC"/>
<stop offset="1" stop-color="#B1219D"/>
</linearGradient>
<linearGradient id="paint22_linear_1458_6115" x1="454.323" y1="101.667" x2="485.189" y2="50.8401" gradientUnits="userSpaceOnUse">
<stop stop-color="#8824DC"/>
<stop offset="1" stop-color="#B1219D"/>
</linearGradient>
<linearGradient id="paint23_linear_1458_6115" x1="598.701" y1="359.244" x2="757.559" y2="227.502" gradientUnits="userSpaceOnUse">
<stop stop-color="#8824DC"/>
<stop offset="1" stop-color="#B1219D"/>
</linearGradient>
<linearGradient id="paint24_linear_1458_6115" x1="510.547" y1="410.251" x2="659.967" y2="334.204" gradientUnits="userSpaceOnUse">
<stop stop-color="#8824DC"/>
<stop offset="1" stop-color="#B1219D"/>
</linearGradient>
<linearGradient id="paint25_linear_1458_6115" x1="300.614" y1="491.893" x2="499.102" y2="370.434" gradientUnits="userSpaceOnUse">
<stop stop-color="#8824DC"/>
<stop offset="1" stop-color="#B1219D"/>
</linearGradient>
<linearGradient id="paint26_linear_1458_6115" x1="276.708" y1="277.679" x2="280.674" y2="247.679" gradientUnits="userSpaceOnUse">
<stop stop-color="#8824DC"/>
<stop offset="1" stop-color="#B1219D"/>
</linearGradient>
<linearGradient id="paint27_linear_1458_6115" x1="277.585" y1="114.881" x2="280.301" y2="95.8911" gradientUnits="userSpaceOnUse">
<stop stop-color="#8824DC"/>
<stop offset="1" stop-color="#B1219D"/>
</linearGradient>
<linearGradient id="paint28_linear_1458_6115" x1="277.508" y1="485.507" x2="346.936" y2="474.248" gradientUnits="userSpaceOnUse">
<stop stop-color="#8824DC"/>
<stop offset="1" stop-color="#B1219D"/>
</linearGradient>
<linearGradient id="paint29_linear_1458_6115" x1="242.723" y1="487.995" x2="385.616" y2="435.563" gradientUnits="userSpaceOnUse">
<stop stop-color="#8824DC"/>
<stop offset="1" stop-color="#B1219D"/>
</linearGradient>
<linearGradient id="paint30_linear_1458_6115" x1="253.517" y1="478.812" x2="433.98" y2="384.204" gradientUnits="userSpaceOnUse">
<stop stop-color="#8824DC"/>
<stop offset="1" stop-color="#B1219D"/>
</linearGradient>
<linearGradient id="paint31_linear_1458_6115" x1="235.66" y1="259.509" x2="287.349" y2="173.454" gradientUnits="userSpaceOnUse">
<stop stop-color="#8824DC"/>
<stop offset="1" stop-color="#B1219D"/>
</linearGradient>
<linearGradient id="paint32_linear_1458_6115" x1="253.603" y1="103.862" x2="284.468" y2="53.0328" gradientUnits="userSpaceOnUse">
<stop stop-color="#8824DC"/>
<stop offset="1" stop-color="#B1219D"/>
</linearGradient>
<linearGradient id="paint33_linear_1458_6115" x1="234.395" y1="419.613" x2="382.68" y2="347.902" gradientUnits="userSpaceOnUse">
<stop stop-color="#8824DC"/>
<stop offset="1" stop-color="#B1219D"/>
</linearGradient>
<linearGradient id="paint34_linear_1458_6115" x1="263.758" y1="368.587" x2="359.44" y2="338.169" gradientUnits="userSpaceOnUse">
<stop stop-color="#8824DC"/>
<stop offset="1" stop-color="#B1219D"/>
</linearGradient>
<linearGradient id="paint35_linear_1458_6115" x1="623.303" y1="329.695" x2="773.94" y2="180.409" gradientUnits="userSpaceOnUse">
<stop stop-color="#8824DC"/>
<stop offset="1" stop-color="#B1219D"/>
</linearGradient>
<linearGradient id="paint36_linear_1458_6115" x1="563.072" y1="139.202" x2="567.04" y2="109.191" gradientUnits="userSpaceOnUse">
<stop stop-color="#8824DC"/>
<stop offset="1" stop-color="#B1219D"/>
</linearGradient>
<linearGradient id="paint37_linear_1458_6115" x1="445.491" y1="34.0661" x2="448.206" y2="15.0756" gradientUnits="userSpaceOnUse">
<stop stop-color="#8824DC"/>
<stop offset="1" stop-color="#B1219D"/>
</linearGradient>
<linearGradient id="paint38_linear_1458_6115" x1="469.64" y1="293.855" x2="585.397" y2="229.288" gradientUnits="userSpaceOnUse">
<stop stop-color="#8824DC"/>
<stop offset="1" stop-color="#B1219D"/>
</linearGradient>
<linearGradient id="paint39_linear_1458_6115" x1="574.796" y1="291.433" x2="709.426" y2="168.532" gradientUnits="userSpaceOnUse">
<stop stop-color="#8824DC"/>
<stop offset="1" stop-color="#B1219D"/>
</linearGradient>
</defs>
</svg>
