<svg width="630" height="1128" viewBox="0 0 630 1128" fill="none" xmlns="http://www.w3.org/2000/svg">
<path d="M137.292 106.766L134.489 106.215C28.5939 85.6614 -53.3682 55.3406 -64.8297 32.5033C-66.7263 28.7514 -66.8503 24.9997 -65.2012 21.6761L-64.5414 20.3302L-63.0572 20.0243C11.2159 5.0169 87.1381 4.83337 162.607 19.4941L166.565 20.269L164.792 23.8577C158.299 36.928 149.311 63.9046 138.035 104.033L137.272 106.766H137.292ZM-60.0889 25.6929C-60.2744 26.6921 -60.171 28.0175 -59.2846 29.7914C-50.5854 47.1438 19.6472 77.4033 132.881 99.6697C142.962 63.966 151.249 38.8243 157.577 24.7752C84.7676 11.134 11.5663 11.44 -60.0682 25.6929H-60.0889Z" fill="url(#paint0_linear_771_457)"/>
<path d="M145.044 70.3076C73.0595 56.3401 17.2778 35.603 9.40312 19.8819C7.60968 16.3136 8.26909 13.4385 9.1555 11.6849L14.7006 14.3763C14.4326 14.9269 14.2061 15.7221 14.9482 17.1698C20.7821 28.7924 68.7719 49.2849 146.24 64.3127L145.044 70.3076Z" fill="url(#paint1_linear_771_457)"/>
<path d="M-41.4219 50.9158L-43.4214 45.125C24.5231 22.1449 93.7459 13.4992 162.309 19.4532L161.773 25.5499C94.0757 19.6979 25.7187 28.2212 -41.4219 50.9158Z" fill="url(#paint2_linear_771_457)"/>
<path d="M30.2496 79.2793L26.6421 74.3039C72.1789 42.0257 117.654 23.5723 161.748 19.4534L162.325 25.5501C119.324 29.567 74.8794 47.6536 30.2289 79.2793H30.2496Z" fill="url(#paint3_linear_771_457)"/>
<path d="M301.642 124.75C255.363 124.75 193.273 117.633 134.481 106.215L131.203 105.582L132.089 102.402C143.448 61.9062 152.601 34.583 159.239 21.166L160.29 19.0657L162.619 19.5143C238.088 34.175 308.589 62.7624 372.143 104.522L374.41 106.011L373.215 108.417C367.546 119.856 340.025 124.75 301.642 124.75ZM138.954 100.832C259.898 123.975 350.91 123.098 366.061 107.866C304.548 67.9212 236.521 40.3738 163.774 25.9577C157.548 39.3135 149.22 64.4753 138.933 100.832H138.954Z" fill="url(#paint4_linear_771_457)"/>
<path d="M258.303 82.9489C226.64 82.9489 184.442 77.9533 145.028 70.3069L146.224 64.3119C231.196 80.8078 296.625 79.7885 302.211 68.5737L307.757 71.2652C303.675 79.5029 284.628 82.9489 258.303 82.9489Z" fill="url(#paint5_linear_771_457)"/>
<path d="M244.17 120.631C220.34 75.7717 192.18 43.6363 160.476 25.1422L163.609 19.8815C196.324 38.967 225.287 71.8975 249.653 117.796L244.17 120.631Z" fill="url(#paint6_linear_771_457)"/>
<path d="M329.247 122.853C278.742 77.3417 222.177 44.5537 161.097 25.4274L162.973 19.5958C224.898 38.9871 282.267 72.2235 333.432 118.326L329.268 122.853H329.247Z" fill="url(#paint7_linear_771_457)"/>
<path d="M371.667 111.537L368.74 109.6C323.285 79.7483 274.244 56.6866 222.358 40.7208C206.773 36.969 190.076 33.3189 172.348 29.8729L169.957 29.404L169.874 27.1815C167.071 26.5902 164.267 26.0397 161.443 25.4892L157.485 24.7143L159.258 21.1256C162.247 15.09 165.669 9.66601 170.08 10.5632C173.317 11.2361 175.028 14.5803 175.729 22.1655C192.076 25.7135 208.155 29.9342 224.007 34.7871C304.671 54.2397 363.297 78.484 372.862 97.5492C374.759 101.301 374.883 105.053 373.234 108.376L371.688 111.496L371.667 111.537ZM293.065 60.948C318.915 72.6522 343.9 86.2731 367.915 101.749C367.771 101.301 367.585 100.832 367.317 100.302C362.246 90.1881 336.272 75.6904 293.065 60.948ZM166.699 20.3099C167.586 20.4934 168.472 20.6566 169.338 20.8401C169.111 19.2088 168.864 18.1281 168.637 17.4348C168.163 17.9853 167.524 18.8826 166.679 20.3099H166.699Z" fill="url(#paint8_linear_771_457)"/>
<path d="M307.773 71.2659L302.228 68.5744C302.496 68.0239 302.723 67.2284 301.98 65.7807C296.147 54.1581 248.157 33.6656 170.688 18.6378L171.884 12.6432C243.869 26.6107 299.651 47.3478 307.526 63.0688C309.319 66.6372 308.66 69.5123 307.773 71.2659Z" fill="url(#paint9_linear_771_457)"/>
<path d="M348.869 84.6828C292.386 51.3036 229.43 31.4025 161.774 25.5504L162.31 19.4536C230.914 25.3873 294.757 45.5739 352.043 79.4222L348.869 84.6828Z" fill="url(#paint10_linear_771_457)"/>
<path d="M277.797 55.7899C243.969 31.7291 205.112 21.5541 162.337 25.5506L161.76 19.4539C206.08 15.2942 246.34 25.8565 281.426 50.8145L277.818 55.7899H277.797Z" fill="url(#paint11_linear_771_457)"/>
<path d="M176.213 30.6277L172.358 29.8732C137.643 23.1444 105.341 18.373 76.5219 15.3348C30.1192 13.2346 -16.1594 16.8029 -61.7787 26.0194L-67.9424 27.2634L-65.1804 21.6765C-56.5636 4.30375 2.5376 1.99954 73.6567 9.09543C102.537 10.2373 131.459 13.561 160.34 19.046C163.061 13.9076 166.174 9.76828 170.09 10.5839C173.924 11.3791 175.594 15.9059 176.048 26.7333L176.213 30.6073V30.6277ZM165.575 22.3697C166.936 22.6144 168.256 22.8794 169.616 23.1241C169.348 20.1471 168.977 18.4138 168.667 17.4351C168.008 18.2303 166.977 19.6985 165.575 22.3493V22.3697ZM-5.68746 11.42C-25.5184 12.0113 -40.5671 14.1319 -49.8022 17.5167C-35.1455 14.9067 -20.4266 12.8677 -5.68746 11.42Z" fill="url(#paint12_linear_771_457)"/>
<path d="M170.69 18.6377C85.7182 2.14182 20.2883 3.14103 14.7018 14.3762L9.15674 11.6848C18.1652 -6.46279 99.715 -1.36522 171.885 12.6431L170.69 18.6377Z" fill="url(#paint13_linear_771_457)"/>
<path d="M160.465 25.1423C129.049 6.83163 95.9423 2.99809 62.0731 13.8051L60.1768 7.9734C95.7982 -3.3841 130.595 0.612596 163.598 19.8612L160.465 25.1219V25.1423Z" fill="url(#paint14_linear_771_457)"/>
<path d="M161.103 25.4278C100.064 6.32188 38.2008 1.97854 -22.7762 12.5204L-23.8481 6.48492C38.1389 -4.24048 100.971 0.163955 162.958 19.5757L161.082 25.4074L161.103 25.4278Z" fill="url(#paint15_linear_771_457)"/>
<path d="M100.082 253.924L97.1549 253.353C5.23599 235.511 -81.4053 212.429 -146.814 188.369C-192.928 171.404 -250.525 145.916 -263.12 120.794C-266.233 114.596 -266.459 108.723 -263.779 103.34L-263.409 102.606L-262.708 102.157C-201.916 62.1309 -134.735 34.5017 -63.0177 20.0245L-56.854 18.7807L-59.6165 24.3676C-60.1113 25.3872 -60.6263 27.0592 -59.2657 29.7712C-50.5047 47.2662 20.8203 77.8928 135.703 100.18L138.981 100.812L138.095 103.993C127.169 142.877 114.636 192.345 100.804 251.029L100.123 253.903L100.082 253.924ZM-258.565 106.786C-260.008 110.232 -259.677 113.943 -257.595 118.103C-248.463 136.311 -208.369 159.23 -144.671 182.659C-80.2514 206.353 4.90646 229.088 95.4236 246.787C108.637 190.856 120.676 143.387 131.21 105.563C26.9016 85.0293 -53.4936 55.0961 -64.8315 32.5034C-65.7591 30.6275 -66.2749 28.772 -66.3368 26.9573C-135.271 41.4549 -199.938 68.2889 -258.565 106.766V106.786Z" fill="url(#paint16_linear_771_457)"/>
<path d="M123.017 148.627C-13.882 122.059 -119.777 82.9905 -134.496 53.6486C-136.846 48.9791 -136.99 44.534 -134.97 40.4355L-129.425 43.127C-130.579 45.4515 -130.435 48.0209 -128.971 50.9367C-115.49 77.8114 -6.66692 117.226 124.192 142.633L122.996 148.627H123.017Z" fill="url(#paint17_linear_771_457)"/>
<path d="M110.555 197.769C-54.9979 165.633 -182.992 118.49 -200.72 83.133C-203.462 77.6684 -203.647 72.4689 -201.297 67.6975L-195.752 70.389C-197.256 73.4068 -197.071 76.6897 -195.195 80.4212C-187.362 96.0403 -152.833 115.758 -97.9578 135.924C-41.784 156.58 32.6952 176.42 111.73 191.753L110.534 197.748L110.555 197.769Z" fill="url(#paint18_linear_771_457)"/>
<path d="M-93.4881 204.192L-98.4766 200.562C-59.2683 147.812 -17.1741 105.338 26.6311 74.3041L30.2386 79.2796C-13.0513 109.926 -54.6715 151.951 -93.4881 204.192Z" fill="url(#paint19_linear_771_457)"/>
<path d="M398.916 287.263C320.293 287.263 213.182 275.885 97.1647 253.353L94.0312 252.741L94.7529 249.662C108.606 190.897 121.18 141.348 132.106 102.382L132.869 99.6495L135.672 100.2C263.749 125.056 359.027 123.119 367.665 105.705L369.211 102.586L372.138 104.523C433.527 144.835 485.908 195.668 527.838 255.616L528.868 257.085L528.064 258.695C518.582 277.801 470.571 287.263 398.896 287.263H398.916ZM101.514 247.97C309.162 287.956 499.101 292.156 521.674 257.533C480.961 199.726 430.373 150.524 371.252 111.272C351.503 132.886 239.815 126.381 137.321 106.766C126.767 144.529 114.749 191.998 101.514 247.99V247.97Z" fill="url(#paint20_linear_771_457)"/>
<path d="M339.919 172.729C280.056 172.729 199.392 163.451 123.037 148.627L124.233 142.632C290.528 174.91 414.378 172.137 425.716 149.279L431.261 151.971C424.046 166.509 388.981 172.749 339.919 172.749V172.729Z" fill="url(#paint21_linear_771_457)"/>
<path d="M373.401 227.029C301.025 227.029 203.169 215.753 110.57 197.789L111.766 191.794C313.373 230.923 463.609 227.355 477.441 199.481L482.987 202.173C474.35 219.566 432.296 227.029 373.401 227.029Z" fill="url(#paint22_linear_771_457)"/>
<path d="M297.865 280.003C285.372 217.792 267.314 164.165 244.185 120.611L249.668 117.756C273.086 161.84 291.33 216.018 303.946 278.8L297.885 279.983L297.865 280.003Z" fill="url(#paint23_linear_771_457)"/>
<path d="M451.539 283.327C419.236 220.83 378.111 166.836 329.275 122.854L333.44 118.327C382.811 162.819 424.389 217.384 457.042 280.534L451.539 283.327Z" fill="url(#paint24_linear_771_457)"/>
<path d="M525.776 263.385L522.786 259.103C512.191 243.974 500.936 229.415 489.021 215.468C469.623 204.008 442.597 191.794 408.975 179.417C343.876 155.479 257.564 132.499 165.954 114.718L163.13 114.168L163.481 111.354C168.366 70.8176 170.51 42.434 169.871 27.0188L169.706 23.1445L173.561 23.899C279.456 44.4526 361.418 74.7733 372.88 97.6107C374.282 100.425 374.715 103.218 374.158 105.848C418.788 135.415 458.615 170.568 493.082 210.778C509.511 220.606 522.271 230.985 527.445 241.282C530.558 247.481 530.764 253.353 528.105 258.736L525.776 263.406V263.385ZM506.893 227.498C512.665 234.757 518.252 242.179 523.673 249.724C523.488 247.889 522.89 245.992 521.88 243.953C519.303 238.815 514.252 233.289 506.893 227.478V227.498ZM169.953 109.254C260.821 127.014 346.37 149.871 411.119 173.688C432.496 181.538 456.326 191.244 477.002 201.867C445.071 166.836 408.852 135.945 368.736 109.6L366.469 108.112L367.664 105.706C368.159 104.686 368.675 103.014 367.314 100.302C358.635 83.011 288.794 52.8533 176.138 30.6277C176.344 46.5935 174.262 72.9789 169.953 109.254Z" fill="url(#paint25_linear_771_457)"/>
<path d="M431.265 151.951L425.72 149.26C426.874 146.935 426.73 144.366 425.267 141.451C411.785 114.576 302.962 75.1608 172.103 49.7542L173.299 43.7596C310.198 70.3284 416.093 109.396 430.812 138.738C433.162 143.408 433.306 147.853 431.286 151.951H431.265Z" fill="url(#paint26_linear_771_457)"/>
<path d="M482.986 202.152L477.441 199.461C478.946 196.443 478.76 193.16 476.884 189.429C469.051 173.81 434.522 154.092 379.647 133.926C323.473 113.27 248.994 93.4304 169.959 78.0967L171.155 72.1021C336.708 104.237 464.702 151.38 482.43 186.737C485.172 192.202 485.357 197.402 483.007 202.173L482.986 202.152Z" fill="url(#paint27_linear_771_457)"/>
<path d="M486.448 213.673C449.714 160.311 403.435 116.92 348.89 84.7034L352.064 79.4427C407.393 112.129 454.331 156.131 491.561 210.227L486.448 213.673Z" fill="url(#paint28_linear_771_457)"/>
<path d="M357.432 160.903C337.395 114.474 310.597 79.1168 277.799 55.7901L281.407 50.8147C315.132 74.7939 342.631 111.028 363.121 158.497L357.432 160.903Z" fill="url(#paint29_linear_771_457)"/>
<path d="M169.226 115.35L165.948 114.718C-6.98431 81.1549 -168.188 72.3463 -231.432 90.0656C-240.853 95.5099 -250.15 101.26 -259.303 107.275L-268.827 113.556L-263.776 103.381C-260.024 95.7954 -250.191 89.7393 -235.246 85.1923C-182.288 54.4841 -124.939 32.7072 -64.3743 20.3302C-48.254 -3.24124 68.0101 3.42646 173.555 23.8985L175.946 24.3675L176.049 26.7737C176.709 42.5151 174.545 71.2249 169.618 112.087L169.226 115.37V115.35ZM-134.607 74.8136C-56.7266 74.8136 49.1276 85.9874 163.866 108.091C168.237 71.2859 170.277 44.8599 169.948 29.4243C43.0875 5.05762 -51.0373 7.07634 -59.6334 24.3879L-60.2927 25.7337L-61.7769 26.0394C-115.209 36.826 -166.106 54.9941 -213.663 80.2375C-192.636 76.6284 -165.879 74.8136 -134.587 74.8136H-134.607Z" fill="url(#paint30_linear_771_457)"/>
<path d="M172.066 49.7535C5.77092 17.4754 -118.079 20.2688 -129.417 43.1062L-134.962 40.4148C-118.966 8.15699 34.3218 16.7822 173.262 43.7384L172.066 49.7331V49.7535Z" fill="url(#paint31_linear_771_457)"/>
<path d="M169.926 78.0963C-31.6808 38.9669 -181.917 42.5148 -195.749 70.409L-201.295 67.7176C-182.062 28.9348 3.15742 39.4972 171.122 72.1016L169.926 78.0963Z" fill="url(#paint32_linear_771_457)"/>
<path d="M-34.2215 84.6215L-38.9629 80.686C-7.2788 43.3102 26.0752 18.8416 60.1712 7.97342L62.0675 13.8051C29.0847 24.3062 -3.32077 48.1429 -34.2215 84.6215Z" fill="url(#paint33_linear_771_457)"/>
<path d="M57.2831 447.022L54.273 446.43C-65.4545 423.185 -178.317 393.129 -263.495 361.81C-323.421 339.767 -398.271 306.694 -414.536 274.212C-418.453 266.403 -418.741 259.042 -415.402 252.292L-415.196 251.925C-374.833 192.568 -323.524 142.184 -262.753 102.157L-253.209 95.8766L-258.259 106.051C-260.073 109.681 -259.846 113.637 -257.62 118.102C-248.488 136.311 -208.393 159.23 -144.695 182.659C-79.5954 206.597 6.71622 229.577 98.3259 247.358L101.459 247.969L100.738 251.048C86.8849 309.814 72.4754 374.757 57.8805 444.044L57.2625 447.001L57.2831 447.022ZM-409.918 255.167C-412.31 260.122 -412 265.485 -408.991 271.5C-396.993 295.438 -344.55 325.474 -261.331 356.08C-177.142 387.033 -65.8047 416.762 52.4799 439.865C66.6006 372.841 80.5769 309.936 94.0174 252.761C3.27347 235.001 -82.1516 212.184 -146.819 188.388C-192.933 171.423 -250.529 145.935 -263.124 120.814C-264.732 117.613 -265.557 114.493 -265.619 111.496C-322.906 150.34 -371.411 198.645 -409.898 255.167H-409.918Z" fill="url(#paint34_linear_771_457)"/>
<path d="M83.1361 314.096C-19.832 294.113 -116.904 268.258 -190.167 241.302C-241.765 222.318 -306.226 193.812 -320.284 165.775C-323.706 158.945 -323.954 152.461 -321.026 146.547L-315.481 149.239C-317.563 153.419 -317.316 157.946 -314.76 163.064C-304.494 183.536 -259.472 209.289 -188.023 235.572C-115.049 262.406 -18.327 288.159 84.3319 308.081L83.1361 314.076V314.096Z" fill="url(#paint35_linear_771_457)"/>
<path d="M68.819 378.59C-43.4461 356.793 -149.259 328.614 -229.139 299.231C-285.354 278.555 -355.566 247.52 -370.862 217.016C-374.552 209.635 -374.82 202.661 -371.666 196.299L-366.121 198.991C-368.43 203.64 -368.161 208.636 -365.337 214.304C-354.102 236.693 -304.979 264.832 -226.995 293.501C-147.424 322.761 -41.9411 350.86 69.9942 372.575L68.7984 378.57L68.819 378.59Z" fill="url(#paint36_linear_771_457)"/>
<path d="M447.909 490.495C441.724 490.495 435.787 490.434 430.221 490.352C324.821 488.639 191.302 473.04 54.3 446.431L51.2285 445.839L51.8677 442.801C66.4626 373.473 80.8926 308.489 94.7454 249.662L95.4258 246.787L98.3529 247.358C310.205 288.486 504.453 292.442 522.532 256.004L524.861 251.334L527.851 255.616C569.78 315.565 599.114 381.609 615.049 451.875L615.296 452.915L614.822 453.873C599.444 484.867 510.329 490.474 447.929 490.474L447.909 490.495ZM58.5673 441.027C194.147 467.188 326.078 482.542 430.345 484.235C531.376 485.907 596.228 474.203 608.762 452.12C593.28 384.464 565.224 320.805 525.335 262.814C494.888 298.396 312.741 294.929 100.085 253.944C86.6442 311.099 72.6674 374.004 58.5467 441.048L58.5673 441.027Z" fill="url(#paint37_linear_771_457)"/>
<path d="M421.425 352.124C333.361 352.124 213.262 339.36 83.145 314.096L84.3408 308.101C201.842 330.918 316.272 344.294 406.583 345.763C494.523 347.19 550.429 336.933 560.035 317.603L565.58 320.295C555.005 341.603 501.449 352.145 421.425 352.145V352.124Z" fill="url(#paint38_linear_771_457)"/>
<path d="M437.787 420.086C341.786 420.086 210.783 406.16 68.833 378.592L70.0288 372.597C198.146 397.473 322.945 412.053 421.44 413.663C517.42 415.213 578.5 403.978 589.013 382.792L594.558 385.484C583.076 408.627 524.82 420.086 437.807 420.086H437.787Z" fill="url(#paint39_linear_771_457)"/>
<path d="M322.679 481.299H316.494C316.639 410.034 310.351 342.297 297.859 280.004L303.919 278.821C316.494 341.501 322.823 409.626 322.679 481.299Z" fill="url(#paint40_linear_771_457)"/>
<path d="M516.406 485.01C505.666 413.704 483.835 345.845 451.533 283.307L457.037 280.513C489.648 343.622 511.685 412.134 522.528 484.092L516.406 484.989V485.01Z" fill="url(#paint41_linear_771_457)"/>
<path d="M610.933 461.703L609.016 453.221C606.893 443.841 604.522 434.523 601.904 425.306C582.589 403.142 533.403 376.858 460.738 350.127C375.848 318.909 263.336 288.955 143.938 265.771L141.011 265.2L141.485 262.284C151.174 202.805 158.574 152.033 163.481 111.354L163.872 108.071L167.149 108.703C259.068 126.545 345.71 149.627 411.119 173.688C457.233 190.652 514.829 216.141 527.425 241.262C530.208 246.808 530.682 252.109 528.827 257.023C564.345 308.122 590.731 363.625 607.491 422.37C610.17 425.571 612.335 428.773 613.943 431.974C617.859 439.784 618.148 447.145 614.809 453.894L610.933 461.703ZM148.061 260.327C266.696 283.49 378.405 313.301 462.902 344.376C511.119 362.116 569.024 386.992 598.276 412.97C581.455 358.425 556.14 306.817 522.786 259.103L521.756 257.635L522.56 256.024C524.374 252.395 524.147 248.439 521.921 243.973C512.789 225.765 472.694 202.846 408.996 179.417C344.659 155.764 259.625 133.029 169.252 115.35C164.428 154.867 157.316 203.6 148.081 260.327H148.061Z" fill="url(#paint42_linear_771_457)"/>
<path d="M565.576 320.276L560.03 317.584C562.112 313.404 561.865 308.877 559.309 303.759C549.043 283.287 504.042 257.534 432.572 231.251C359.598 204.417 262.876 178.664 160.217 158.722L161.413 152.727C264.381 172.709 361.453 198.565 434.716 225.521C486.314 244.504 550.775 273.01 564.834 301.047C568.256 307.878 568.503 314.362 565.576 320.276Z" fill="url(#paint43_linear_771_457)"/>
<path d="M594.551 385.484L589.006 382.792C591.315 378.143 591.047 373.147 588.223 367.479C576.988 345.09 527.864 316.951 449.881 288.282C370.31 259.022 264.826 230.924 152.891 209.208L154.087 203.213C266.352 225.01 372.165 253.19 452.045 282.573C508.26 303.249 578.472 334.283 593.768 364.787C597.458 372.169 597.726 379.142 594.572 385.504L594.551 385.484Z" fill="url(#paint44_linear_771_457)"/>
<path d="M561.668 393.966C548.496 327.718 523.181 267.056 486.447 213.674L491.559 210.228C528.768 264.303 554.412 325.719 567.749 392.784L561.689 393.966H561.668Z" fill="url(#paint45_linear_771_457)"/>
<path d="M393.912 325.474C389.851 262.896 377.586 207.515 357.446 160.882L363.135 158.476C383.523 205.741 395.953 261.795 400.076 325.066L393.912 325.454V325.474Z" fill="url(#paint46_linear_771_457)"/>
<path d="M147.068 266.362L143.935 265.75C7.26236 239.222 -125.864 223.664 -230.914 221.951C-325.699 220.401 -388.655 230.597 -406.424 250.09C-407.64 251.823 -408.836 253.577 -410.052 255.351L-415.391 252.292C-414.381 250.274 -413.062 248.357 -411.475 246.542C-371.833 189.734 -322.05 141.327 -263.402 102.605C-241.51 63.3537 -53.2198 65.9432 167.126 108.702L169.95 109.253L169.6 112.067C164.694 152.827 157.272 203.681 147.563 263.242L147.048 266.362H147.068ZM-248.478 215.691C-242.293 215.691 -236.356 215.752 -230.79 215.834C-126.194 217.547 6.08746 232.921 141.997 259.143C151.232 202.376 158.324 153.623 163.147 114.167C-47.6126 73.549 -240.211 69.797 -258.208 106.072L-258.578 106.806L-259.279 107.254C-312.464 142.265 -358.29 185.309 -395.787 235.409C-362.351 219.096 -297.251 215.671 -248.478 215.671V215.691Z" fill="url(#paint47_linear_771_457)"/>
<path d="M160.221 158.74C42.7196 135.923 -71.7102 122.547 -162.021 121.079C-249.941 119.652 -305.867 129.908 -315.473 149.259L-321.019 146.567C-298.817 101.83 -86.9026 104.542 161.417 152.745L160.221 158.74Z" fill="url(#paint48_linear_771_457)"/>
<path d="M152.856 209.187C24.7389 184.31 -100.06 169.731 -198.555 168.12C-294.534 166.55 -355.614 177.806 -366.128 198.992L-371.673 196.3C-347.534 147.628 -116.613 150.646 154.032 203.192L152.836 209.187H152.856Z" fill="url(#paint49_linear_771_457)"/>
<path d="M13.8108 665.424L10.7393 664.833C-119.192 639.61 -241.661 607.005 -334.096 572.994C-399.092 549.096 -480.251 513.229 -497.876 478.056C-502.019 469.818 -502.39 462.008 -498.989 454.872C-485.116 381.548 -456.895 313.26 -415.172 251.925L-409.832 254.984C-412.327 260 -412.038 265.403 -408.987 271.5C-396.99 295.438 -344.547 325.474 -261.327 356.08C-176.438 387.298 -63.9256 417.251 55.4927 440.435L58.5642 441.027L57.925 444.065C42.8148 515.839 28.179 589.286 14.3881 662.386L13.8108 665.424ZM-417.295 266.28C-454.669 324.189 -480.107 388.072 -492.99 456.401L-493.072 456.809L-493.258 457.176C-496 462.702 -495.691 468.635 -492.351 475.323C-479.302 501.362 -422.325 533.987 -331.952 567.244C-240.528 600.868 -119.604 633.146 8.86359 658.206C22.2834 587.084 36.5275 515.676 51.2048 445.818C-67.3889 422.655 -179.035 392.844 -263.492 361.789C-323.418 339.747 -398.268 306.674 -414.533 274.192C-415.893 271.5 -416.8 268.849 -417.295 266.26V266.28Z" fill="url(#paint50_linear_771_457)"/>
<path d="M39.3553 518.735C-86.0205 494.389 -204.202 462.926 -293.42 430.118C-356.149 407.056 -434.504 372.413 -451.531 338.463C-455.613 330.327 -455.901 322.66 -452.418 315.625L-446.873 318.317C-449.491 323.618 -449.202 329.307 -445.986 335.73C-433.412 360.831 -378.454 392.314 -291.256 424.368C-202.346 457.074 -84.5155 488.435 40.5511 512.72L39.3553 518.715V518.735Z" fill="url(#paint51_linear_771_457)"/>
<path d="M24.7981 591.692C-103.979 566.694 -225.376 534.354 -317.007 500.669C-381.426 476.975 -461.904 441.414 -479.365 406.567C-483.549 398.248 -483.858 390.377 -480.292 383.179L-474.747 385.871C-477.447 391.335 -477.159 397.208 -473.84 403.835C-460.915 429.629 -404.452 461.989 -314.863 494.919C-223.542 528.502 -102.475 560.74 25.9934 585.677L24.7981 591.672V591.692Z" fill="url(#paint52_linear_771_457)"/>
<path d="M437.901 712.649C431.16 712.649 424.728 712.587 418.688 712.485C304.299 710.609 159.423 693.685 10.7323 664.812L7.72266 664.221L8.27928 661.244C22.0702 588.103 36.7267 514.596 51.8369 442.801L52.4555 439.844L55.4651 440.436C192.137 466.964 325.264 482.521 430.315 484.234C532.747 485.906 597.97 473.876 609.226 451.202L613.101 443.392L615.018 451.875C631.53 524.648 632.87 598.788 619.017 672.275L618.935 672.683L618.749 673.05C602.114 706.572 505.556 712.628 437.901 712.628V712.649ZM14.9376 659.409C162.226 687.854 305.536 704.513 418.791 706.368C529.531 708.183 600.258 695.194 613.018 670.726C626.212 600.501 625.346 529.664 610.483 460.051C584.53 488.394 487.952 491.31 430.211 490.351C325.574 488.639 193.251 473.264 57.2794 447.022C42.602 516.879 28.3575 588.307 14.917 659.409H14.9376Z" fill="url(#paint53_linear_771_457)"/>
<path d="M451.551 564.899C445.057 564.899 438.853 564.838 433.019 564.736C322.65 562.921 182.823 546.588 39.3481 518.735L40.5439 512.74C183.689 540.532 323.103 556.824 433.121 558.619C540.48 560.372 608.816 547.73 620.628 523.934L626.174 526.626C610.095 559.026 516.857 564.879 451.551 564.879V564.899Z" fill="url(#paint54_linear_771_457)"/>
<path d="M448.203 639.1C441.524 639.1 435.154 639.039 429.155 638.937C315.777 637.082 172.178 620.3 24.7866 591.693L25.9819 585.698C173.023 614.245 316.251 630.985 429.259 632.82C539.545 634.594 609.798 621.626 621.94 597.137L627.485 599.828C610.994 633.065 515.261 639.08 448.203 639.08V639.1Z" fill="url(#paint55_linear_771_457)"/>
<path d="M301.644 703.473L295.563 702.351C309.313 629.476 316.342 555.091 316.487 481.277H322.671C322.527 555.458 315.456 630.21 301.644 703.473Z" fill="url(#paint56_linear_771_457)"/>
<path d="M518.569 707.021L512.488 705.899C526.196 633.167 527.516 558.843 516.384 485.009L522.507 484.112C533.741 558.619 532.402 633.615 518.569 707.021Z" fill="url(#paint57_linear_771_457)"/>
<path d="M608.82 693.135L612.964 671.154C613.644 667.504 614.304 663.854 614.923 660.204C614.572 657.656 613.727 655.005 612.325 652.212C599.276 626.173 542.298 593.548 451.926 560.291C359.78 526.402 237.661 493.879 108.059 468.718L105.05 468.126L105.606 465.149C119.377 392.09 131.457 323.823 141.496 262.243L142.011 259.124L145.144 259.735C264.872 282.981 377.735 313.036 462.913 344.356C522.839 366.398 597.689 399.471 613.953 431.953C617.664 439.376 618.118 446.41 615.273 452.874C630.672 521.386 632.651 591.122 621.148 660.368C621.56 664.772 620.777 669.013 618.777 673.051L608.82 693.135ZM112.244 463.314C241.063 488.455 362.336 520.836 454.07 554.561C517.912 578.051 597.4 613.082 616.881 647.644C626.219 582.7 623.58 517.41 609.027 453.2L608.78 452.16L609.254 451.202C611.748 446.186 611.459 440.782 608.408 434.686C596.411 410.747 543.968 380.712 460.749 350.106C376.601 319.153 265.325 289.444 147.082 266.362C137.27 326.331 125.561 392.559 112.244 463.314Z" fill="url(#paint58_linear_771_457)"/>
<path d="M626.199 526.647L620.653 523.956C623.271 518.654 622.983 512.965 619.767 506.542C607.192 481.441 552.234 449.958 465.036 417.905C376.127 385.198 258.296 353.817 133.229 329.553L134.425 323.558C259.801 347.904 377.982 379.366 467.201 412.175C529.93 435.236 608.285 469.88 625.312 503.83C629.394 511.966 629.683 519.633 626.199 526.667V526.647Z" fill="url(#paint59_linear_771_457)"/>
<path d="M627.539 599.849L621.994 597.157C624.715 591.693 624.406 585.82 621.087 579.193C608.162 553.399 551.699 521.04 462.11 488.109C370.789 454.526 249.721 422.288 121.253 397.351L122.449 391.356C251.226 416.355 372.623 448.694 464.254 482.379C528.673 506.073 609.151 541.634 626.611 576.481C630.796 584.801 631.105 592.671 627.539 599.869V599.849Z" fill="url(#paint60_linear_771_457)"/>
<path d="M567.696 608.046L561.615 606.924C575.324 534.232 575.344 462.58 561.677 393.946L567.738 392.763C581.549 462.152 581.528 534.579 567.676 608.046H567.696Z" fill="url(#paint61_linear_771_457)"/>
<path d="M385.662 534.15L379.581 533.029C393.31 460.194 398.133 390.377 393.907 325.474L400.071 325.087C404.338 390.479 399.473 460.826 385.662 534.15Z" fill="url(#paint62_linear_771_457)"/>
<path d="M-503.203 477.261L-499.06 455.28C-485.207 381.854 -457.027 313.505 -415.283 252.109C-398.07 218.22 -292.36 214.856 -230.806 215.835C-125.406 217.568 8.11246 233.167 145.135 259.756L148.062 260.327L147.588 263.243C137.549 324.883 125.449 393.191 111.678 466.291L111.101 469.329L108.03 468.738C-40.3104 439.947 -184.795 423.063 -298.833 421.188C-410.13 419.352 -481.001 432.484 -493.246 457.197L-503.203 477.282V477.261ZM-317.943 414.907C-311.202 414.907 -304.771 414.968 -298.731 415.07C-185.146 416.926 -41.4646 433.646 106.154 462.132C119.471 391.376 131.2 325.148 140.992 265.18C5.35013 238.998 -126.622 223.644 -230.909 221.932C-333.383 220.259 -398.586 232.29 -409.821 254.964L-410.027 255.331C-449.091 312.73 -476.157 376.288 -490.587 444.412C-461.335 419.699 -378.178 414.887 -317.943 414.887V414.907Z" fill="url(#paint63_linear_771_457)"/>
<path d="M133.213 329.532C-9.93216 301.74 -149.346 285.448 -259.364 283.653C-366.723 281.879 -435.059 294.542 -446.871 318.338L-452.417 315.646C-434.75 280.024 -323.825 276.496 -259.261 277.536C-148.893 279.351 -9.06619 295.684 134.409 323.537L133.213 329.532Z" fill="url(#paint64_linear_771_457)"/>
<path d="M121.22 397.331C-25.821 368.784 -169.028 352.043 -282.056 350.208C-392.384 348.393 -462.596 361.402 -474.738 385.871L-480.283 383.179C-462.163 346.64 -348.249 343.01 -281.953 344.091C-168.575 345.947 -24.9762 362.728 122.416 391.336L121.22 397.331Z" fill="url(#paint65_linear_771_457)"/>
<path d="M-22.0223 868.412L-25.1552 867.8C-144.883 844.555 -257.746 814.499 -342.924 783.18C-402.85 761.137 -477.7 728.064 -493.965 695.582C-497.675 688.16 -498.128 681.125 -495.284 674.661C-510.683 606.149 -512.662 536.414 -501.159 467.168C-501.571 462.763 -500.788 458.522 -498.788 454.484L-488.832 434.4L-492.975 456.401C-493.655 460.051 -494.315 463.701 -494.933 467.351C-494.604 469.9 -493.717 472.551 -492.336 475.344C-479.287 501.383 -422.309 534.008 -331.937 567.264C-239.791 601.154 -117.672 633.676 11.9297 658.838L14.9393 659.429L14.3828 662.407C0.612427 735.466 -11.4678 803.733 -21.507 865.313L-22.0223 868.432V868.412ZM-496.912 479.912C-506.251 544.855 -503.612 610.146 -489.058 674.355L-488.811 675.395L-489.285 676.354C-491.779 681.37 -491.491 686.773 -488.44 692.87C-476.442 716.808 -424 746.844 -340.78 777.45C-256.633 808.402 -145.357 838.112 -27.114 861.194C-17.3016 801.225 -5.59244 734.997 7.72437 664.242C-121.094 639.1 -242.368 606.72 -334.101 572.994C-397.943 549.504 -477.432 514.474 -496.912 479.912Z" fill="url(#paint66_linear_771_457)"/>
<path d="M368.477 911.864C362.293 911.864 356.356 911.803 350.79 911.722C245.389 910.009 111.871 894.41 -25.1515 867.8L-28.0791 867.229L-27.605 864.314C-17.5659 802.694 -5.46498 734.365 8.30533 661.265L8.88259 658.227L11.9541 658.818C160.294 687.61 304.779 704.493 418.817 706.369C530.093 708.184 600.985 695.072 613.23 670.359L623.187 650.274L619.043 672.276C605.191 745.702 577.011 814.051 535.267 875.447C519.621 906.277 430.732 911.864 368.477 911.864ZM-21.0081 862.377C114.634 888.558 246.606 903.912 350.893 905.625C453.367 907.297 518.57 895.266 529.804 872.592L530.01 872.225C569.074 814.826 596.141 751.269 610.571 683.144C578.062 710.61 478.928 713.485 418.714 712.506C305.129 710.651 161.448 693.931 13.8298 665.445C0.513008 736.2 -11.2163 802.428 -21.0081 862.397V862.377Z" fill="url(#paint67_linear_771_457)"/>
<path d="M420.986 783.628C414.307 783.628 407.937 783.567 401.938 783.465C288.56 781.609 144.941 764.828 -2.43066 736.22L-1.23538 730.225C145.806 758.772 289.013 775.513 402.041 777.348C512.389 779.142 582.581 766.153 594.723 741.665L600.268 744.356C583.776 777.592 488.044 783.608 420.986 783.608V783.628Z" fill="url(#paint68_linear_771_457)"/>
<path d="M397.793 850.183C391.299 850.183 385.094 850.122 379.26 850.02C268.892 848.205 129.065 831.873 -14.4097 804.019L-13.2144 798.024C129.931 825.817 269.345 842.109 379.364 843.903C486.723 845.657 555.059 833.014 566.871 809.219L572.416 811.91C556.337 844.311 463.099 850.163 397.793 850.163V850.183Z" fill="url(#paint69_linear_771_457)"/>
<path d="M243.001 903.83L237.291 901.485C262.234 842.21 281.838 775.207 295.588 702.352L301.669 703.473C287.858 776.757 268.109 844.167 243.001 903.83Z" fill="url(#paint70_linear_771_457)"/>
<path d="M442.667 907.521L437.39 904.361C473.526 845.392 498.82 778.633 512.528 705.921L518.61 707.042C504.757 780.489 479.216 847.94 442.688 907.542L442.667 907.521Z" fill="url(#paint71_linear_771_457)"/>
<path d="M535.103 875.63L529.764 872.572C532.258 867.556 531.969 862.152 528.918 856.055C516.921 832.117 464.478 802.082 381.259 771.476C296.369 740.258 183.857 710.304 64.4387 687.12L61.3672 686.529L62.0058 683.491C77.1161 611.716 91.7524 538.27 105.543 465.17L106.121 462.131L109.192 462.723C239.124 487.946 361.593 520.55 454.027 554.562C519.024 578.459 600.182 614.326 617.807 649.5C621.93 657.737 622.322 665.547 618.92 672.684C605.026 746.008 576.826 814.296 535.103 875.63ZM68.7055 681.717C187.299 704.88 298.946 734.691 383.403 765.746C443.328 787.788 518.179 820.861 534.443 853.344C535.804 856.035 536.711 858.686 537.205 861.275C574.579 803.387 600.017 739.483 612.901 671.154L612.983 670.747L613.169 670.379C615.911 664.854 615.602 658.92 612.262 652.232C599.213 626.193 542.235 593.568 451.863 560.312C360.438 526.688 239.515 494.409 111.047 469.35C97.6067 540.472 83.3828 611.9 68.7055 681.737V681.717Z" fill="url(#paint72_linear_771_457)"/>
<path d="M600.229 744.377L594.684 741.686C597.405 736.221 597.096 730.348 593.777 723.721C580.852 697.927 524.389 665.568 434.8 632.637C343.458 599.054 222.411 566.817 93.9429 541.879L95.1387 535.884C223.916 560.883 345.313 593.222 436.944 626.907C501.363 650.601 581.841 686.162 599.301 721.01C603.486 729.329 603.795 737.2 600.229 744.397V744.377Z" fill="url(#paint73_linear_771_457)"/>
<path d="M572.369 811.93L566.824 809.239C569.442 803.937 569.153 798.248 565.937 791.825C553.363 766.725 498.405 735.242 411.207 703.188C322.297 670.482 204.466 639.121 79.3999 614.836L80.5952 608.841C205.971 633.187 324.153 664.65 413.371 697.458C476.1 720.52 554.455 755.163 571.482 789.114C575.564 797.249 575.852 804.916 572.369 811.951V811.93Z" fill="url(#paint74_linear_771_457)"/>
<path d="M487.873 816.315L482.555 813.174C521.268 749.026 547.84 679.637 561.569 606.924L567.65 608.046C553.798 681.472 526.958 751.534 487.873 816.294V816.315Z" fill="url(#paint75_linear_771_457)"/>
<path d="M320.344 747.843L314.654 745.437C343.968 677.353 365.798 605.884 379.548 533.008L385.629 534.13C371.817 607.434 349.843 679.331 320.344 747.822V747.843Z" fill="url(#paint76_linear_771_457)"/>
<path d="M67.4855 687.711L64.476 687.12C-72.1965 660.592 -205.323 645.034 -310.374 643.321C-412.826 641.629 -478.05 653.679 -489.285 676.354L-493.16 684.163L-495.077 675.681C-511.589 602.927 -512.929 528.767 -499.076 455.28L-498.994 454.872L-498.808 454.505C-480.523 417.659 -365.62 414.009 -298.747 415.09C-184.359 416.966 -39.4818 433.89 109.209 462.763L112.218 463.354L111.662 466.331C97.8708 539.472 83.2143 612.98 68.1041 684.775L67.4855 687.731V687.711ZM-327.937 637.061C-321.753 637.061 -315.816 637.122 -310.25 637.204C-205.612 638.917 -73.2893 654.291 62.6823 680.534C77.3596 610.696 91.6041 539.268 105.045 468.146C-42.2441 439.701 -185.554 423.042 -298.809 421.187C-409.569 419.372 -480.276 432.361 -493.037 456.829C-506.23 527.054 -505.364 597.891 -490.501 667.504C-467.042 641.894 -385.925 637.041 -327.896 637.041L-327.937 637.061Z" fill="url(#paint77_linear_771_457)"/>
<path d="M93.9708 541.858C-53.0706 513.312 -196.277 496.571 -309.305 494.736C-419.633 492.942 -489.845 505.93 -501.987 530.419L-507.532 527.728C-489.412 491.188 -375.498 487.538 -309.202 488.639C-195.824 490.494 -52.2252 507.276 95.1666 535.884L93.9708 541.879V541.858Z" fill="url(#paint78_linear_771_457)"/>
<path d="M79.45 614.815C-63.6953 587.023 -203.11 570.731 -313.128 568.937C-420.466 567.183 -488.823 579.825 -500.635 603.621L-506.18 600.929C-488.514 565.307 -377.589 561.759 -313.025 562.819C-202.636 564.614 -62.8299 580.967 80.6453 608.821L79.45 614.815Z" fill="url(#paint79_linear_771_457)"/>
<path d="M254.565 1052.74C175.942 1052.74 68.81 1041.36 -47.1864 1018.83L-50.0103 1018.28L-49.66 1015.47C-44.7538 974.708 -37.3328 923.854 -27.6235 864.293L-27.1081 861.173L-23.9747 861.785C112.698 888.313 245.825 903.871 350.875 905.584C445.68 907.154 508.615 896.938 526.384 877.445C527.6 875.712 528.796 873.958 530.012 872.184L535.352 875.243C534.342 877.261 533.022 879.178 531.435 880.993C491.794 937.801 442.01 986.208 383.363 1024.93C372.994 1043.53 325.313 1052.72 254.606 1052.72L254.565 1052.74ZM-43.1868 1013.39C167.553 1054.01 360.172 1057.76 378.168 1021.48L378.539 1020.75L379.24 1020.3C432.425 985.29 478.25 942.246 515.747 892.146C478.065 910.518 400.163 912.537 350.751 911.721C246.154 910.009 113.873 894.634 -22.0371 868.412C-31.2723 925.179 -38.3631 973.933 -43.1868 1013.39Z" fill="url(#paint80_linear_771_457)"/>
<path d="M334.857 965.858C238.856 965.858 107.853 951.931 -34.0972 924.363L-32.9014 918.368C95.2161 943.245 220.015 957.824 318.51 959.435C414.489 960.985 475.57 949.749 486.083 928.564L491.628 931.255C480.146 954.399 421.89 965.858 334.877 965.858H334.857Z" fill="url(#paint81_linear_771_457)"/>
<path d="M296.802 1012.86C208.738 1012.86 88.6395 1000.09 -41.4775 974.83L-40.2818 968.835C77.2194 991.652 191.649 1005.03 281.96 1006.5C369.839 1007.94 425.806 997.667 435.412 978.316L440.958 981.008C430.382 1002.32 376.827 1012.86 296.802 1012.86Z" fill="url(#paint82_linear_771_457)"/>
<path d="M158.895 1046.87L154.154 1042.93C185.24 1006.23 213.193 958.64 237.249 901.485L242.96 903.83C218.676 961.576 190.393 1009.7 158.895 1046.87Z" fill="url(#paint83_linear_771_457)"/>
<path d="M311.735 1049.89L308.107 1044.93C358.983 1008.56 402.458 961.27 437.337 904.339L442.635 907.5C407.323 965.124 363.291 1013.02 311.735 1049.87V1049.89Z" fill="url(#paint84_linear_771_457)"/>
<path d="M373.138 1031.66L378.188 1021.48C380.002 1017.85 379.775 1013.92 377.549 1009.43C368.417 991.224 328.322 968.305 264.624 944.876C199.524 920.938 113.213 897.958 21.6031 880.177L18.4697 879.566L19.1914 876.487C33.0442 817.721 47.4531 752.798 62.048 683.491L62.6665 680.534L65.6761 681.125C185.404 704.371 298.267 734.426 383.445 765.746C443.37 787.788 518.221 820.862 534.485 853.344C538.402 861.153 538.691 868.514 535.351 875.264L535.145 875.63C494.761 934.987 443.473 985.372 382.703 1025.4L373.158 1031.68L373.138 1031.66ZM25.9318 874.794C116.676 892.554 202.101 915.372 266.768 939.167C312.882 956.132 370.478 981.62 383.073 1006.74C384.681 1009.94 385.506 1013.06 385.568 1016.06C442.855 977.216 491.36 928.911 529.847 872.388C532.239 867.413 531.929 862.071 528.919 856.056C516.922 832.117 464.479 802.082 381.26 771.476C297.092 740.523 185.754 710.794 67.4492 687.711C53.3284 754.735 39.3517 817.66 25.9112 874.794H25.9318Z" fill="url(#paint85_linear_771_457)"/>
<path d="M491.625 931.256L486.079 928.564C488.388 923.915 488.12 918.92 485.296 913.251C474.061 890.862 424.938 862.723 346.954 834.054C267.383 804.794 161.9 776.696 49.9644 754.96L51.1596 748.965C163.425 770.762 269.238 798.942 349.118 828.325C405.333 849 475.545 880.035 490.841 910.539C494.531 917.92 494.799 924.874 491.645 931.256H491.625Z" fill="url(#paint86_linear_771_457)"/>
<path d="M440.973 981.009L435.428 978.317C437.51 974.137 437.263 969.61 434.707 964.492C424.441 944.02 379.44 918.267 307.97 891.984C234.996 865.15 138.274 839.397 35.6152 819.455L36.8105 813.46C139.779 833.442 236.851 859.297 310.114 886.254C361.712 905.237 426.173 933.743 440.232 961.78C443.654 968.611 443.901 975.095 440.973 981.009Z" fill="url(#paint87_linear_771_457)"/>
<path d="M346.624 979.785L342.687 975.075C398.139 929.604 445.201 875.121 482.595 813.174L487.914 816.314C450.169 878.872 402.633 933.865 346.644 979.785H346.624Z" fill="url(#paint88_linear_771_457)"/>
<path d="M218.426 926.994L213.438 923.365C252.295 871.063 286.37 811.196 314.674 745.457L320.363 747.863C291.874 814.051 257.572 874.325 218.426 926.994Z" fill="url(#paint89_linear_771_457)"/>
<path d="M24.5317 880.768L21.6046 880.197C-190.248 839.07 -384.496 835.114 -402.575 871.552L-404.904 876.221L-407.893 871.939C-449.823 811.991 -479.157 745.967 -495.092 675.681L-495.339 674.641L-494.865 673.682C-477.961 639.61 -371.983 636.205 -310.305 637.224C-204.905 638.937 -71.3866 654.536 65.6157 681.145L68.6872 681.737L68.0485 684.775C53.4537 754.123 39.0236 819.107 25.1708 877.914L24.4904 880.789L24.5317 880.768ZM-278.951 840.293C-200.988 840.293 -95.0104 851.488 19.8728 873.632C33.3133 816.498 47.29 753.572 61.4108 686.549C-74.1691 660.388 -206.1 645.034 -310.367 643.341C-411.398 641.69 -476.25 653.373 -488.784 675.456C-473.302 743.112 -445.246 806.771 -405.358 864.762C-391.361 848.409 -345.288 840.293 -278.931 840.293H-278.951Z" fill="url(#paint90_linear_771_457)"/>
<path d="M49.9467 754.979C-78.1708 730.103 -202.969 715.524 -301.464 713.913C-397.423 712.363 -458.524 723.598 -469.037 744.784L-474.583 742.092C-450.443 693.42 -219.522 696.438 51.1219 748.984L49.9261 754.979H49.9467Z" fill="url(#paint91_linear_771_457)"/>
<path d="M35.628 819.454C-81.8731 796.637 -196.303 783.261 -286.614 781.792C-374.534 780.345 -430.46 790.622 -440.066 809.972L-445.612 807.281C-423.41 762.544 -211.516 765.256 36.8233 813.459L35.628 819.454Z" fill="url(#paint92_linear_771_457)"/>
<path d="M113.569 1122.21C67.2903 1122.21 5.17994 1115.1 -53.5913 1103.68L-55.9828 1103.21L-56.0855 1100.8C-56.7452 1085.06 -54.5809 1056.35 -49.6541 1015.49L-49.2626 1012.21L-45.9847 1012.84C126.948 1046.4 288.151 1055.21 351.375 1037.49C360.817 1032.05 370.093 1026.3 379.246 1020.28L388.769 1014L383.719 1024.18C379.967 1031.76 370.135 1037.82 355.189 1042.36C302.231 1073.07 244.903 1094.85 184.318 1107.25C177.185 1117.69 150.366 1122.21 113.549 1122.21H113.569ZM-49.9631 1098.15C76.8969 1122.52 171.021 1120.5 179.617 1103.19L180.277 1101.84L181.761 1101.54C235.193 1090.75 286.09 1072.56 333.647 1047.34C260.24 1059.96 116.909 1050.46 -43.9027 1019.49C-48.2729 1056.29 -50.3136 1082.72 -49.9838 1098.15H-49.9631Z" fill="url(#paint93_linear_771_457)"/>
<path d="M211.679 1084.72C139.303 1084.72 41.4468 1073.44 -51.1523 1055.48L-49.9566 1049.48C151.651 1088.63 301.887 1085.06 315.719 1057.17L321.264 1059.86C312.627 1077.25 270.574 1084.72 211.679 1084.72Z" fill="url(#paint94_linear_771_457)"/>
<path d="M163.576 1107.9C103.733 1107.9 23.0485 1098.62 -53.3066 1083.8L-52.1109 1077.8C114.184 1110.08 238.035 1107.29 249.372 1084.45L254.918 1087.14C247.703 1101.68 212.638 1107.92 163.576 1107.92V1107.9Z" fill="url(#paint95_linear_771_457)"/>
<path d="M59.7821 1119.58L57.8853 1113.75C90.868 1103.23 123.274 1079.41 154.195 1042.91L158.936 1046.85C127.273 1084.23 93.8987 1108.69 59.8027 1119.56L59.7821 1119.58Z" fill="url(#paint96_linear_771_457)"/>
<path d="M143.817 1121.07L142.745 1115.04C201.661 1104.84 257.298 1081.25 308.133 1044.93L311.761 1049.89C260.164 1086.77 203.66 1110.71 143.817 1121.07Z" fill="url(#paint97_linear_771_457)"/>
<path d="M176.823 1108.77L179.585 1103.19C180.079 1102.17 180.595 1100.5 179.234 1097.78C170.473 1080.29 99.1478 1049.66 -15.7354 1027.36L-19.0127 1026.72L-18.1264 1023.54C-7.20088 984.658 5.33276 935.191 19.1649 876.507L19.8448 873.632L22.7724 874.203C114.691 892.045 201.333 915.127 266.742 939.187C312.856 956.152 370.452 981.64 383.047 1006.76C386.16 1012.96 386.387 1018.83 383.707 1024.22L383.336 1024.95L382.635 1025.4C321.843 1065.4 254.662 1093.05 182.945 1107.53L176.781 1108.77H176.823ZM-11.2617 1021.99C93.0463 1042.55 173.442 1072.46 184.779 1095.05C185.707 1096.93 186.222 1098.78 186.284 1100.6C255.239 1086.1 319.885 1059.25 378.512 1020.77C379.955 1017.32 379.625 1013.61 377.543 1009.45C368.411 991.244 328.316 968.325 264.618 944.897C200.199 921.203 115.041 898.467 24.5449 880.769C11.3312 936.7 -0.707212 984.169 -11.2411 1021.99H-11.2617Z" fill="url(#paint98_linear_771_457)"/>
<path d="M321.254 1059.86L315.709 1057.17C317.214 1054.15 317.028 1050.87 315.152 1047.13C307.319 1031.52 272.79 1011.8 217.915 991.632C161.741 970.976 87.2621 951.136 8.22705 935.802L9.42233 929.808C174.975 961.943 302.969 1009.09 320.697 1044.44C323.439 1049.91 323.625 1055.11 321.275 1059.88L321.254 1059.86Z" fill="url(#paint99_linear_771_457)"/>
<path d="M254.903 1087.14L249.358 1084.45C250.513 1082.12 250.368 1079.56 248.905 1076.64C235.423 1049.77 126.6 1010.35 -4.25879 984.944L-3.063 978.949C133.836 1005.52 239.731 1044.59 254.45 1073.93C256.8 1078.6 256.944 1083.04 254.924 1087.14H254.903Z" fill="url(#paint100_linear_771_457)"/>
<path d="M163.356 1082.43L161.356 1076.64C226.229 1054.7 287.227 1020.53 342.659 975.075L346.596 979.785C290.587 1025.72 228.93 1060.25 163.356 1082.43Z" fill="url(#paint101_linear_771_457)"/>
<path d="M93.3165 1053.25L89.709 1048.28C132.999 1017.61 174.619 975.584 213.436 923.364L218.424 926.993C179.216 979.723 137.122 1022.22 93.3165 1053.25Z" fill="url(#paint102_linear_771_457)"/>
<path d="M-12.8929 1027.91L-15.6967 1027.36C-143.752 1002.5 -239.052 1004.44 -247.689 1021.85L-249.236 1024.97L-252.163 1023.03C-313.552 982.701 -365.933 931.868 -407.841 871.92L-408.872 870.451L-408.068 868.841C-388.196 828.794 -198.916 831.139 22.8519 874.183L25.9853 874.794L25.2641 877.873C11.4113 936.639 -1.16364 986.188 -12.0892 1025.15L-12.8516 1027.89L-12.8929 1027.91ZM-181.683 1002.83C-136.146 1002.83 -75.2719 1009.72 -17.3459 1020.81C-6.79141 983.048 5.24756 935.558 18.4613 879.586C-189.186 839.601 -379.126 835.4 -401.698 870.023C-360.985 927.83 -310.398 977.033 -251.276 1016.3C-242.68 1006.9 -216.706 1002.83 -181.683 1002.83Z" fill="url(#paint103_linear_771_457)"/>
<path d="M8.21262 935.783C-193.395 896.653 -343.632 900.201 -357.464 928.095L-363.009 925.404C-343.776 886.642 -158.556 897.184 9.40839 929.788L8.21262 935.783Z" fill="url(#paint104_linear_771_457)"/>
<path d="M113.56 1122.21C93.5431 1122.21 70.5377 1120.89 46.151 1118.44C17.3323 1117.28 -11.5482 1113.97 -40.3669 1108.49C-43.088 1113.61 -46.1594 1117.77 -50.1174 1116.95C-53.9516 1116.16 -55.6212 1111.63 -56.0747 1100.8L-56.2397 1096.93L-52.3851 1097.68C-17.7326 1104.41 14.5084 1109.16 43.2859 1112.2C89.7504 1114.32 136.05 1110.75 181.752 1101.54L187.915 1100.29L185.153 1105.88C179.484 1117.3 151.964 1122.21 113.58 1122.21H113.56ZM169.775 1110.04C155.097 1112.65 140.358 1114.69 125.578 1116.14C145.429 1115.54 160.539 1113.42 169.775 1110.04ZM-49.6639 1104.43C-49.3959 1107.41 -49.025 1109.12 -48.7157 1110.1C-48.0561 1109.3 -47.0254 1107.84 -45.6236 1105.19C-46.9635 1104.94 -48.324 1104.68 -49.6639 1104.43Z" fill="url(#paint105_linear_771_457)"/>
<path d="M61.3552 1127.58C29.6918 1127.58 -12.506 1122.58 -51.9204 1114.93L-50.7246 1108.94C34.2473 1125.43 99.6973 1124.41 105.263 1113.2L110.809 1115.89C106.727 1124.13 87.6796 1127.58 61.3552 1127.58Z" fill="url(#paint106_linear_771_457)"/>
<path d="M9.62042 1122.86C-8.89117 1122.86 -32.8657 1119.4 -48.2852 1116.4L-47.0894 1110.41C-0.0476799 1119.54 28.2763 1117.2 30.2759 1113.38L35.821 1116.07C33.3267 1121.09 22.8754 1122.86 9.62042 1122.86Z" fill="url(#paint107_linear_771_457)"/>
<path d="M20.6086 1125.88C-1.36621 1125.88 -22.8672 1119.81 -43.667 1107.67L-40.5336 1102.41C-9.11749 1120.74 23.9889 1124.56 57.8581 1113.77L59.755 1119.6C46.5825 1123.8 33.5131 1125.9 20.5879 1125.9L20.6086 1125.88Z" fill="url(#paint108_linear_771_457)"/>
<path d="M77.5816 1126.78C37.322 1126.78 -3.0201 1120.5 -43.0117 1107.98L-41.1355 1102.15C19.8826 1121.25 81.7459 1125.6 142.743 1115.06L143.815 1121.09C121.82 1124.88 99.7213 1126.8 77.6022 1126.8L77.5816 1126.78Z" fill="url(#paint109_linear_771_457)"/>
<path d="M69.2869 1118.91C32.0163 1118.91 -5.37752 1115.3 -42.6687 1108.04L-46.627 1107.27L-44.8539 1103.68C-38.381 1090.61 -29.3727 1063.65 -18.0967 1023.52L-17.3342 1020.79L-14.5304 1021.34C91.3649 1041.89 173.327 1072.21 184.788 1095.05C186.685 1098.8 186.809 1102.56 185.159 1105.88L184.5 1107.22L183.016 1107.53C145.436 1115.12 107.444 1118.91 69.3075 1118.91H69.2869ZM-37.5977 1102.78C35.2118 1116.42 108.392 1116.12 180.047 1101.86C180.233 1100.86 180.13 1099.54 179.243 1097.76C170.544 1080.41 100.312 1050.15 -12.9225 1027.89C-23.0028 1063.59 -31.2897 1088.73 -37.6183 1102.76L-37.5977 1102.78Z" fill="url(#paint110_linear_771_457)"/>
<path d="M110.799 1115.89L105.253 1113.2C105.521 1112.65 105.748 1111.85 105.006 1110.41C99.172 1098.78 51.1822 1078.29 -26.2861 1063.26L-25.0908 1057.27C46.8941 1071.24 102.676 1091.97 110.551 1107.69C112.344 1111.26 111.685 1114.14 110.799 1115.89Z" fill="url(#paint111_linear_771_457)"/>
<path d="M35.8236 1116.05L30.2785 1113.36C30.2785 1113.36 30.2372 1113.49 30.2579 1113.53C29.7425 1109.63 7.39658 1098.5 -35.2749 1090.22L-34.0791 1084.23C-2.88977 1090.28 30.7936 1100.78 35.7204 1110.59C36.6481 1112.43 36.6894 1114.38 35.8442 1116.08L35.8236 1116.05Z" fill="url(#paint112_linear_771_457)"/>
<path d="M-0.305676 1109.92C-14.344 1109.92 -28.3614 1109.31 -42.3379 1108.1L-41.8019 1102.01C25.8953 1107.88 94.2522 1099.33 161.372 1076.64L163.372 1082.43C109.28 1100.72 54.4045 1109.92 -0.305676 1109.92Z" fill="url(#paint113_linear_771_457)"/>
<path d="M-41.7748 1108.1L-42.3521 1102.01C0.64925 1097.99 45.0937 1079.9 89.7441 1048.28L93.3516 1053.25C47.7942 1085.51 2.33969 1103.96 -41.7542 1108.08L-41.7748 1108.1Z" fill="url(#paint114_linear_771_457)"/>
<path d="M59.9881 1124.37C-91.5678 1124.37 -234.053 1066.06 -341.227 960.19C-448.4 854.302 -507.419 713.526 -507.419 563.798C-507.419 414.071 -448.4 273.274 -341.227 167.407C-234.053 61.5191 -91.5678 3.2226 59.9881 3.2226C211.544 3.2226 354.03 61.5395 461.203 167.407C568.377 273.295 627.395 414.071 627.395 563.798C627.395 713.526 568.377 854.322 461.203 960.19C354.03 1066.08 211.544 1124.37 59.9881 1124.37ZM59.9881 9.29893C-249.473 9.29893 -501.214 258.043 -501.214 563.778C-501.214 869.513 -249.452 1118.26 59.9881 1118.26C369.428 1118.26 621.19 869.513 621.19 563.778C621.19 258.043 369.428 9.29893 59.9881 9.29893Z" fill="url(#paint115_linear_771_457)"/>
<defs>
<linearGradient id="paint0_linear_771_457" x1="107.035" y1="111.811" x2="149.705" y2="41.8579" gradientUnits="userSpaceOnUse">
<stop stop-color="#8824DC"/>
<stop offset="1" stop-color="#B1219D"/>
</linearGradient>
<linearGradient id="paint1_linear_771_457" x1="110.977" y1="73.3215" x2="136.564" y2="31.725" gradientUnits="userSpaceOnUse">
<stop stop-color="#8824DC"/>
<stop offset="1" stop-color="#B1219D"/>
</linearGradient>
<linearGradient id="paint2_linear_771_457" x1="109.727" y1="52.6271" x2="116.957" y2="21.7649" gradientUnits="userSpaceOnUse">
<stop stop-color="#8824DC"/>
<stop offset="1" stop-color="#B1219D"/>
</linearGradient>
<linearGradient id="paint3_linear_771_457" x1="127.647" y1="82.355" x2="154.185" y2="40.7824" gradientUnits="userSpaceOnUse">
<stop stop-color="#8824DC"/>
<stop offset="1" stop-color="#B1219D"/>
</linearGradient>
<linearGradient id="paint4_linear_771_457" x1="312.25" y1="130.183" x2="358.839" y2="56.1279" gradientUnits="userSpaceOnUse">
<stop stop-color="#8824DC"/>
<stop offset="1" stop-color="#B1219D"/>
</linearGradient>
<linearGradient id="paint5_linear_771_457" x1="266.166" y1="83.907" x2="269.107" y2="66.1667" gradientUnits="userSpaceOnUse">
<stop stop-color="#8824DC"/>
<stop offset="1" stop-color="#B1219D"/>
</linearGradient>
<linearGradient id="paint6_linear_771_457" x1="226.861" y1="125.81" x2="270.714" y2="98.9992" gradientUnits="userSpaceOnUse">
<stop stop-color="#8824DC"/>
<stop offset="1" stop-color="#B1219D"/>
</linearGradient>
<linearGradient id="paint7_linear_771_457" x1="289.386" y1="128.162" x2="339.375" y2="70.5335" gradientUnits="userSpaceOnUse">
<stop stop-color="#8824DC"/>
<stop offset="1" stop-color="#B1219D"/>
</linearGradient>
<linearGradient id="paint8_linear_771_457" x1="318.948" y1="116.733" x2="364.779" y2="48.7985" gradientUnits="userSpaceOnUse">
<stop stop-color="#8824DC"/>
<stop offset="1" stop-color="#B1219D"/>
</linearGradient>
<linearGradient id="paint9_linear_771_457" x1="273.397" y1="74.2797" x2="298.984" y2="32.6832" gradientUnits="userSpaceOnUse">
<stop stop-color="#8824DC"/>
<stop offset="1" stop-color="#B1219D"/>
</linearGradient>
<linearGradient id="paint10_linear_771_457" x1="303.414" y1="88.0364" x2="328.82" y2="36.8482" gradientUnits="userSpaceOnUse">
<stop stop-color="#8824DC"/>
<stop offset="1" stop-color="#B1219D"/>
</linearGradient>
<linearGradient id="paint11_linear_771_457" x1="250.841" y1="57.7033" x2="264.469" y2="27.438" gradientUnits="userSpaceOnUse">
<stop stop-color="#8824DC"/>
<stop offset="1" stop-color="#B1219D"/>
</linearGradient>
<linearGradient id="paint12_linear_771_457" x1="113.81" y1="31.9277" x2="117.437" y2="7.73902" gradientUnits="userSpaceOnUse">
<stop stop-color="#8824DC"/>
<stop offset="1" stop-color="#B1219D"/>
</linearGradient>
<linearGradient id="paint13_linear_771_457" x1="130.295" y1="19.5959" x2="133.236" y2="1.85495" gradientUnits="userSpaceOnUse">
<stop stop-color="#8824DC"/>
<stop offset="1" stop-color="#B1219D"/>
</linearGradient>
<linearGradient id="paint14_linear_771_457" x1="137.165" y1="26.3492" x2="143.975" y2="5.62711" gradientUnits="userSpaceOnUse">
<stop stop-color="#8824DC"/>
<stop offset="1" stop-color="#B1219D"/>
</linearGradient>
<linearGradient id="paint15_linear_771_457" x1="115.214" y1="26.6951" x2="119.657" y2="3.43431" gradientUnits="userSpaceOnUse">
<stop stop-color="#8824DC"/>
<stop offset="1" stop-color="#B1219D"/>
</linearGradient>
<linearGradient id="paint16_linear_771_457" x1="35.5677" y1="266.013" x2="148.865" y2="131.354" gradientUnits="userSpaceOnUse">
<stop stop-color="#8824DC"/>
<stop offset="1" stop-color="#B1219D"/>
</linearGradient>
<linearGradient id="paint17_linear_771_457" x1="57.5941" y1="154.19" x2="104.319" y2="76.4595" gradientUnits="userSpaceOnUse">
<stop stop-color="#8824DC"/>
<stop offset="1" stop-color="#B1219D"/>
</linearGradient>
<linearGradient id="paint18_linear_771_457" x1="31.3083" y1="204.456" x2="87.3655" y2="110.787" gradientUnits="userSpaceOnUse">
<stop stop-color="#8824DC"/>
<stop offset="1" stop-color="#B1219D"/>
</linearGradient>
<linearGradient id="paint19_linear_771_457" x1="-2.65897" y1="210.869" x2="56.5539" y2="170.339" gradientUnits="userSpaceOnUse">
<stop stop-color="#8824DC"/>
<stop offset="1" stop-color="#B1219D"/>
</linearGradient>
<linearGradient id="paint20_linear_771_457" x1="417.731" y1="296.908" x2="500.18" y2="164.913" gradientUnits="userSpaceOnUse">
<stop stop-color="#8824DC"/>
<stop offset="1" stop-color="#B1219D"/>
</linearGradient>
<linearGradient id="paint21_linear_771_457" x1="352.484" y1="174.297" x2="356.569" y2="145.419" gradientUnits="userSpaceOnUse">
<stop stop-color="#8824DC"/>
<stop offset="1" stop-color="#B1219D"/>
</linearGradient>
<linearGradient id="paint22_linear_771_457" x1="387.803" y1="228.84" x2="392.436" y2="195.013" gradientUnits="userSpaceOnUse">
<stop stop-color="#8824DC"/>
<stop offset="1" stop-color="#B1219D"/>
</linearGradient>
<linearGradient id="paint23_linear_771_457" x1="288.672" y1="288.345" x2="326.59" y2="278.698" gradientUnits="userSpaceOnUse">
<stop stop-color="#8824DC"/>
<stop offset="1" stop-color="#B1219D"/>
</linearGradient>
<linearGradient id="paint24_linear_771_457" x1="424.387" y1="291.81" x2="491.502" y2="255.913" gradientUnits="userSpaceOnUse">
<stop stop-color="#8824DC"/>
<stop offset="1" stop-color="#B1219D"/>
</linearGradient>
<linearGradient id="paint25_linear_771_457" x1="436.198" y1="275.758" x2="553.527" y2="152.026" gradientUnits="userSpaceOnUse">
<stop stop-color="#8824DC"/>
<stop offset="1" stop-color="#B1219D"/>
</linearGradient>
<linearGradient id="paint26_linear_771_457" x1="366.092" y1="157.514" x2="412.816" y2="79.7803" gradientUnits="userSpaceOnUse">
<stop stop-color="#8824DC"/>
<stop offset="1" stop-color="#B1219D"/>
</linearGradient>
<linearGradient id="paint27_linear_771_457" x1="404.211" y1="208.86" x2="460.267" y2="115.188" gradientUnits="userSpaceOnUse">
<stop stop-color="#8824DC"/>
<stop offset="1" stop-color="#B1219D"/>
</linearGradient>
<linearGradient id="paint28_linear_771_457" x1="455.096" y1="220.574" x2="517.724" y2="174.595" gradientUnits="userSpaceOnUse">
<stop stop-color="#8824DC"/>
<stop offset="1" stop-color="#B1219D"/>
</linearGradient>
<linearGradient id="paint29_linear_771_457" x1="341.314" y1="166.563" x2="386.116" y2="142.579" gradientUnits="userSpaceOnUse">
<stop stop-color="#8824DC"/>
<stop offset="1" stop-color="#B1219D"/>
</linearGradient>
<linearGradient id="paint30_linear_771_457" x1="62.432" y1="121.025" x2="96.5591" y2="25.6591" gradientUnits="userSpaceOnUse">
<stop stop-color="#8824DC"/>
<stop offset="1" stop-color="#B1219D"/>
</linearGradient>
<linearGradient id="paint31_linear_771_457" x1="94.4845" y1="51.3013" x2="98.5666" y2="22.4337" gradientUnits="userSpaceOnUse">
<stop stop-color="#8824DC"/>
<stop offset="1" stop-color="#B1219D"/>
</linearGradient>
<linearGradient id="paint32_linear_771_457" x1="75.9382" y1="79.9083" x2="80.5746" y2="46.0706" gradientUnits="userSpaceOnUse">
<stop stop-color="#8824DC"/>
<stop offset="1" stop-color="#B1219D"/>
</linearGradient>
<linearGradient id="paint33_linear_771_457" x1="36.2457" y1="88.5621" x2="73.5645" y2="54.5853" gradientUnits="userSpaceOnUse">
<stop stop-color="#8824DC"/>
<stop offset="1" stop-color="#B1219D"/>
</linearGradient>
<linearGradient id="paint34_linear_771_457" x1="-31.2316" y1="465.074" x2="140.45" y2="289.747" gradientUnits="userSpaceOnUse">
<stop stop-color="#8824DC"/>
<stop offset="1" stop-color="#B1219D"/>
</linearGradient>
<linearGradient id="paint35_linear_771_457" x1="-19.7888" y1="322.71" x2="52.2467" y2="201.73" gradientUnits="userSpaceOnUse">
<stop stop-color="#8824DC"/>
<stop offset="1" stop-color="#B1219D"/>
</linearGradient>
<linearGradient id="paint36_linear_771_457" x1="-43.4445" y1="387.962" x2="34.8777" y2="256.243" gradientUnits="userSpaceOnUse">
<stop stop-color="#8824DC"/>
<stop offset="1" stop-color="#B1219D"/>
</linearGradient>
<linearGradient id="paint37_linear_771_457" x1="471.129" y1="503.024" x2="578.295" y2="331.698" gradientUnits="userSpaceOnUse">
<stop stop-color="#8824DC"/>
<stop offset="1" stop-color="#B1219D"/>
</linearGradient>
<linearGradient id="paint38_linear_771_457" x1="442.277" y1="354.409" x2="447.873" y2="312.072" gradientUnits="userSpaceOnUse">
<stop stop-color="#8824DC"/>
<stop offset="1" stop-color="#B1219D"/>
</linearGradient>
<linearGradient id="paint39_linear_771_457" x1="460.191" y1="422.528" x2="466.163" y2="376.862" gradientUnits="userSpaceOnUse">
<stop stop-color="#8824DC"/>
<stop offset="1" stop-color="#B1219D"/>
</linearGradient>
<linearGradient id="paint40_linear_771_457" x1="316.337" y1="491.708" x2="332.986" y2="490.298" gradientUnits="userSpaceOnUse">
<stop stop-color="#8824DC"/>
<stop offset="1" stop-color="#B1219D"/>
</linearGradient>
<linearGradient id="paint41_linear_771_457" x1="504.383" y1="495.523" x2="549.737" y2="484.647" gradientUnits="userSpaceOnUse">
<stop stop-color="#8824DC"/>
<stop offset="1" stop-color="#B1219D"/>
</linearGradient>
<linearGradient id="paint42_linear_771_457" x1="495.429" y1="479.884" x2="667.91" y2="319.488" gradientUnits="userSpaceOnUse">
<stop stop-color="#8824DC"/>
<stop offset="1" stop-color="#B1219D"/>
</linearGradient>
<linearGradient id="paint43_linear_771_457" x1="463.479" y1="328.889" x2="535.515" y2="207.91" gradientUnits="userSpaceOnUse">
<stop stop-color="#8824DC"/>
<stop offset="1" stop-color="#B1219D"/>
</linearGradient>
<linearGradient id="paint44_linear_771_457" x1="483.308" y1="394.876" x2="561.629" y2="263.153" gradientUnits="userSpaceOnUse">
<stop stop-color="#8824DC"/>
<stop offset="1" stop-color="#B1219D"/>
</linearGradient>
<linearGradient id="paint45_linear_771_457" x1="546.97" y1="403.413" x2="597.202" y2="388.06" gradientUnits="userSpaceOnUse">
<stop stop-color="#8824DC"/>
<stop offset="1" stop-color="#B1219D"/>
</linearGradient>
<linearGradient id="paint46_linear_771_457" x1="389.18" y1="334.06" x2="417.111" y2="329.135" gradientUnits="userSpaceOnUse">
<stop stop-color="#8824DC"/>
<stop offset="1" stop-color="#B1219D"/>
</linearGradient>
<linearGradient id="paint47_linear_771_457" x1="20.346" y1="276.209" x2="92.8336" y2="123.207" gradientUnits="userSpaceOnUse">
<stop stop-color="#8824DC"/>
<stop offset="1" stop-color="#B1219D"/>
</linearGradient>
<linearGradient id="paint48_linear_771_457" x1="38.1137" y1="161.003" x2="43.7026" y2="118.691" gradientUnits="userSpaceOnUse">
<stop stop-color="#8824DC"/>
<stop offset="1" stop-color="#B1219D"/>
</linearGradient>
<linearGradient id="paint49_linear_771_457" x1="19.6697" y1="211.628" x2="25.6419" y2="165.963" gradientUnits="userSpaceOnUse">
<stop stop-color="#8824DC"/>
<stop offset="1" stop-color="#B1219D"/>
</linearGradient>
<linearGradient id="paint50_linear_771_457" x1="-84.5256" y1="686.683" x2="117.234" y2="497.997" gradientUnits="userSpaceOnUse">
<stop stop-color="#8824DC"/>
<stop offset="1" stop-color="#B1219D"/>
</linearGradient>
<linearGradient id="paint51_linear_771_457" x1="-86.0603" y1="529.177" x2="1.13511" y2="382.283" gradientUnits="userSpaceOnUse">
<stop stop-color="#8824DC"/>
<stop offset="1" stop-color="#B1219D"/>
</linearGradient>
<linearGradient id="paint52_linear_771_457" x1="-104.034" y1="602.412" x2="-14.5351" y2="451.581" gradientUnits="userSpaceOnUse">
<stop stop-color="#8824DC"/>
<stop offset="1" stop-color="#B1219D"/>
</linearGradient>
<linearGradient id="paint53_linear_771_457" x1="469.833" y1="726.674" x2="590.676" y2="536.74" gradientUnits="userSpaceOnUse">
<stop stop-color="#8824DC"/>
<stop offset="1" stop-color="#B1219D"/>
</linearGradient>
<linearGradient id="paint54_linear_771_457" x1="476.19" y1="567.58" x2="482.648" y2="517.397" gradientUnits="userSpaceOnUse">
<stop stop-color="#8824DC"/>
<stop offset="1" stop-color="#B1219D"/>
</linearGradient>
<linearGradient id="paint55_linear_771_457" x1="473.445" y1="641.846" x2="480.036" y2="590.461" gradientUnits="userSpaceOnUse">
<stop stop-color="#8824DC"/>
<stop offset="1" stop-color="#B1219D"/>
</linearGradient>
<linearGradient id="paint56_linear_771_457" x1="315.743" y1="714.896" x2="333.927" y2="713.364" gradientUnits="userSpaceOnUse">
<stop stop-color="#8824DC"/>
<stop offset="1" stop-color="#B1219D"/>
</linearGradient>
<linearGradient id="paint57_linear_771_457" x1="525.556" y1="718.481" x2="537.38" y2="717.838" gradientUnits="userSpaceOnUse">
<stop stop-color="#8824DC"/>
<stop offset="1" stop-color="#B1219D"/>
</linearGradient>
<linearGradient id="paint58_linear_771_457" x1="494.724" y1="715.448" x2="703.478" y2="541.539" gradientUnits="userSpaceOnUse">
<stop stop-color="#8824DC"/>
<stop offset="1" stop-color="#B1219D"/>
</linearGradient>
<linearGradient id="paint59_linear_771_457" x1="501.998" y1="537.11" x2="589.193" y2="390.215" gradientUnits="userSpaceOnUse">
<stop stop-color="#8824DC"/>
<stop offset="1" stop-color="#B1219D"/>
</linearGradient>
<linearGradient id="paint60_linear_771_457" x1="499.972" y1="610.589" x2="589.472" y2="459.758" gradientUnits="userSpaceOnUse">
<stop stop-color="#8824DC"/>
<stop offset="1" stop-color="#B1219D"/>
</linearGradient>
<linearGradient id="paint61_linear_771_457" x1="573.872" y1="619.114" x2="584.965" y2="618.528" gradientUnits="userSpaceOnUse">
<stop stop-color="#8824DC"/>
<stop offset="1" stop-color="#B1219D"/>
</linearGradient>
<linearGradient id="paint62_linear_771_457" x1="395.949" y1="544.899" x2="410.726" y2="543.825" gradientUnits="userSpaceOnUse">
<stop stop-color="#8824DC"/>
<stop offset="1" stop-color="#B1219D"/>
</linearGradient>
<linearGradient id="paint63_linear_771_457" x1="-18.391" y1="490.73" x2="92.7896" y2="299.536" gradientUnits="userSpaceOnUse">
<stop stop-color="#8824DC"/>
<stop offset="1" stop-color="#B1219D"/>
</linearGradient>
<linearGradient id="paint64_linear_771_457" x1="-15.5745" y1="332.213" x2="-9.12014" y2="282.042" gradientUnits="userSpaceOnUse">
<stop stop-color="#8824DC"/>
<stop offset="1" stop-color="#B1219D"/>
</linearGradient>
<linearGradient id="paint65_linear_771_457" x1="-31.6247" y1="400.076" x2="-25.0345" y2="348.696" gradientUnits="userSpaceOnUse">
<stop stop-color="#8824DC"/>
<stop offset="1" stop-color="#B1219D"/>
</linearGradient>
<linearGradient id="paint66_linear_771_457" x1="-118.85" y1="890.746" x2="89.9116" y2="716.838" gradientUnits="userSpaceOnUse">
<stop stop-color="#8824DC"/>
<stop offset="1" stop-color="#B1219D"/>
</linearGradient>
<linearGradient id="paint67_linear_771_457" x1="456.733" y1="925.313" x2="567.916" y2="734.117" gradientUnits="userSpaceOnUse">
<stop stop-color="#8824DC"/>
<stop offset="1" stop-color="#B1219D"/>
</linearGradient>
<linearGradient id="paint68_linear_771_457" x1="446.227" y1="786.374" x2="452.819" y2="734.988" gradientUnits="userSpaceOnUse">
<stop stop-color="#8824DC"/>
<stop offset="1" stop-color="#B1219D"/>
</linearGradient>
<linearGradient id="paint69_linear_771_457" x1="422.432" y1="852.865" x2="428.89" y2="802.681" gradientUnits="userSpaceOnUse">
<stop stop-color="#8824DC"/>
<stop offset="1" stop-color="#B1219D"/>
</linearGradient>
<linearGradient id="paint70_linear_771_457" x1="285.215" y1="914.188" x2="326.687" y2="905.035" gradientUnits="userSpaceOnUse">
<stop stop-color="#8824DC"/>
<stop offset="1" stop-color="#B1219D"/>
</linearGradient>
<linearGradient id="paint71_linear_771_457" x1="497.851" y1="917.908" x2="548.778" y2="903.737" gradientUnits="userSpaceOnUse">
<stop stop-color="#8824DC"/>
<stop offset="1" stop-color="#B1219D"/>
</linearGradient>
<linearGradient id="paint72_linear_771_457" x1="478.126" y1="896.889" x2="679.885" y2="708.206" gradientUnits="userSpaceOnUse">
<stop stop-color="#8824DC"/>
<stop offset="1" stop-color="#B1219D"/>
</linearGradient>
<linearGradient id="paint73_linear_771_457" x1="472.662" y1="755.117" x2="562.161" y2="604.286" gradientUnits="userSpaceOnUse">
<stop stop-color="#8824DC"/>
<stop offset="1" stop-color="#B1219D"/>
</linearGradient>
<linearGradient id="paint74_linear_771_457" x1="448.168" y1="822.393" x2="535.364" y2="675.499" gradientUnits="userSpaceOnUse">
<stop stop-color="#8824DC"/>
<stop offset="1" stop-color="#B1219D"/>
</linearGradient>
<linearGradient id="paint75_linear_771_457" x1="545.901" y1="827.08" x2="599.19" y2="812.121" gradientUnits="userSpaceOnUse">
<stop stop-color="#8824DC"/>
<stop offset="1" stop-color="#B1219D"/>
</linearGradient>
<linearGradient id="paint76_linear_771_457" x1="367.489" y1="758.888" x2="413.064" y2="748.488" gradientUnits="userSpaceOnUse">
<stop stop-color="#8824DC"/>
<stop offset="1" stop-color="#B1219D"/>
</linearGradient>
<linearGradient id="paint77_linear_771_457" x1="-46.4409" y1="701.756" x2="74.3971" y2="511.824" gradientUnits="userSpaceOnUse">
<stop stop-color="#8824DC"/>
<stop offset="1" stop-color="#B1219D"/>
</linearGradient>
<linearGradient id="paint78_linear_771_457" x1="-58.8737" y1="544.624" x2="-52.2824" y2="493.24" gradientUnits="userSpaceOnUse">
<stop stop-color="#8824DC"/>
<stop offset="1" stop-color="#B1219D"/>
</linearGradient>
<linearGradient id="paint79_linear_771_457" x1="-69.3382" y1="617.496" x2="-62.8827" y2="567.321" gradientUnits="userSpaceOnUse">
<stop stop-color="#8824DC"/>
<stop offset="1" stop-color="#B1219D"/>
</linearGradient>
<linearGradient id="paint80_linear_771_457" x1="385.742" y1="1062.59" x2="458.241" y2="909.576" gradientUnits="userSpaceOnUse">
<stop stop-color="#8824DC"/>
<stop offset="1" stop-color="#B1219D"/>
</linearGradient>
<linearGradient id="paint81_linear_771_457" x1="357.261" y1="968.299" x2="363.233" y2="922.633" gradientUnits="userSpaceOnUse">
<stop stop-color="#8824DC"/>
<stop offset="1" stop-color="#B1219D"/>
</linearGradient>
<linearGradient id="paint82_linear_771_457" x1="317.655" y1="1015.12" x2="323.245" y2="972.803" gradientUnits="userSpaceOnUse">
<stop stop-color="#8824DC"/>
<stop offset="1" stop-color="#B1219D"/>
</linearGradient>
<linearGradient id="paint83_linear_771_457" x1="220.262" y1="1054.34" x2="271.191" y2="1032.86" gradientUnits="userSpaceOnUse">
<stop stop-color="#8824DC"/>
<stop offset="1" stop-color="#B1219D"/>
</linearGradient>
<linearGradient id="paint84_linear_771_457" x1="408.252" y1="1057.37" x2="472.818" y2="1016.15" gradientUnits="userSpaceOnUse">
<stop stop-color="#8824DC"/>
<stop offset="1" stop-color="#B1219D"/>
</linearGradient>
<linearGradient id="paint85_linear_771_457" x1="404.961" y1="1049.73" x2="576.642" y2="874.398" gradientUnits="userSpaceOnUse">
<stop stop-color="#8824DC"/>
<stop offset="1" stop-color="#B1219D"/>
</linearGradient>
<linearGradient id="paint86_linear_771_457" x1="380.381" y1="940.628" x2="458.702" y2="808.905" gradientUnits="userSpaceOnUse">
<stop stop-color="#8824DC"/>
<stop offset="1" stop-color="#B1219D"/>
</linearGradient>
<linearGradient id="paint87_linear_771_457" x1="338.877" y1="989.623" x2="410.913" y2="868.643" gradientUnits="userSpaceOnUse">
<stop stop-color="#8824DC"/>
<stop offset="1" stop-color="#B1219D"/>
</linearGradient>
<linearGradient id="paint88_linear_771_457" x1="450.796" y1="988.351" x2="522.804" y2="944.996" gradientUnits="userSpaceOnUse">
<stop stop-color="#8824DC"/>
<stop offset="1" stop-color="#B1219D"/>
</linearGradient>
<linearGradient id="paint89_linear_771_457" x1="293.035" y1="936.327" x2="355.012" y2="911.112" gradientUnits="userSpaceOnUse">
<stop stop-color="#8824DC"/>
<stop offset="1" stop-color="#B1219D"/>
</linearGradient>
<linearGradient id="paint90_linear_771_457" x1="-75.4691" y1="893.319" x2="31.7042" y2="721.997" gradientUnits="userSpaceOnUse">
<stop stop-color="#8824DC"/>
<stop offset="1" stop-color="#B1219D"/>
</linearGradient>
<linearGradient id="paint91_linear_771_457" x1="-83.24" y1="757.421" x2="-77.2679" y2="711.755" gradientUnits="userSpaceOnUse">
<stop stop-color="#8824DC"/>
<stop offset="1" stop-color="#B1219D"/>
</linearGradient>
<linearGradient id="paint92_linear_771_457" x1="-86.4796" y1="821.717" x2="-80.8906" y2="779.405" gradientUnits="userSpaceOnUse">
<stop stop-color="#8824DC"/>
<stop offset="1" stop-color="#B1219D"/>
</linearGradient>
<linearGradient id="paint93_linear_771_457" x1="275.042" y1="1127.87" x2="309.178" y2="1032.49" gradientUnits="userSpaceOnUse">
<stop stop-color="#8824DC"/>
<stop offset="1" stop-color="#B1219D"/>
</linearGradient>
<linearGradient id="paint94_linear_771_457" x1="226.08" y1="1086.53" x2="230.714" y2="1052.7" gradientUnits="userSpaceOnUse">
<stop stop-color="#8824DC"/>
<stop offset="1" stop-color="#B1219D"/>
</linearGradient>
<linearGradient id="paint95_linear_771_457" x1="176.14" y1="1109.47" x2="180.225" y2="1080.59" gradientUnits="userSpaceOnUse">
<stop stop-color="#8824DC"/>
<stop offset="1" stop-color="#B1219D"/>
</linearGradient>
<linearGradient id="paint96_linear_771_457" x1="133.109" y1="1123.52" x2="170.438" y2="1089.54" gradientUnits="userSpaceOnUse">
<stop stop-color="#8824DC"/>
<stop offset="1" stop-color="#B1219D"/>
</linearGradient>
<linearGradient id="paint97_linear_771_457" x1="268.563" y1="1124.99" x2="302.637" y2="1072.74" gradientUnits="userSpaceOnUse">
<stop stop-color="#8824DC"/>
<stop offset="1" stop-color="#B1219D"/>
</linearGradient>
<linearGradient id="paint98_linear_771_457" x1="282.159" y1="1120.86" x2="395.458" y2="986.217" gradientUnits="userSpaceOnUse">
<stop stop-color="#8824DC"/>
<stop offset="1" stop-color="#B1219D"/>
</linearGradient>
<linearGradient id="paint99_linear_771_457" x1="242.479" y1="1066.57" x2="298.534" y2="972.894" gradientUnits="userSpaceOnUse">
<stop stop-color="#8824DC"/>
<stop offset="1" stop-color="#B1219D"/>
</linearGradient>
<linearGradient id="paint100_linear_771_457" x1="189.731" y1="1092.7" x2="236.454" y2="1014.97" gradientUnits="userSpaceOnUse">
<stop stop-color="#8824DC"/>
<stop offset="1" stop-color="#B1219D"/>
</linearGradient>
<linearGradient id="paint101_linear_771_457" x1="299.251" y1="1087.95" x2="350.953" y2="1026.33" gradientUnits="userSpaceOnUse">
<stop stop-color="#8824DC"/>
<stop offset="1" stop-color="#B1219D"/>
</linearGradient>
<linearGradient id="paint102_linear_771_457" x1="185.527" y1="1059.93" x2="244.739" y2="1019.4" gradientUnits="userSpaceOnUse">
<stop stop-color="#8824DC"/>
<stop offset="1" stop-color="#B1219D"/>
</linearGradient>
<linearGradient id="paint103_linear_771_457" x1="-85.1575" y1="1037.55" x2="-2.70458" y2="905.552" gradientUnits="userSpaceOnUse">
<stop stop-color="#8824DC"/>
<stop offset="1" stop-color="#B1219D"/>
</linearGradient>
<linearGradient id="paint104_linear_771_457" x1="-85.7757" y1="937.594" x2="-81.1414" y2="903.764" gradientUnits="userSpaceOnUse">
<stop stop-color="#8824DC"/>
<stop offset="1" stop-color="#B1219D"/>
</linearGradient>
<linearGradient id="paint105_linear_771_457" x1="125.513" y1="1123.51" x2="129.139" y2="1099.33" gradientUnits="userSpaceOnUse">
<stop stop-color="#8824DC"/>
<stop offset="1" stop-color="#B1219D"/>
</linearGradient>
<linearGradient id="paint106_linear_771_457" x1="69.2177" y1="1128.53" x2="72.1592" y2="1110.79" gradientUnits="userSpaceOnUse">
<stop stop-color="#8824DC"/>
<stop offset="1" stop-color="#B1219D"/>
</linearGradient>
<linearGradient id="paint107_linear_771_457" x1="14.3248" y1="1123.51" x2="16.8231" y2="1111.86" gradientUnits="userSpaceOnUse">
<stop stop-color="#8824DC"/>
<stop offset="1" stop-color="#B1219D"/>
</linearGradient>
<linearGradient id="paint108_linear_771_457" x1="33.3219" y1="1127.11" x2="40.1394" y2="1106.38" gradientUnits="userSpaceOnUse">
<stop stop-color="#8824DC"/>
<stop offset="1" stop-color="#B1219D"/>
</linearGradient>
<linearGradient id="paint109_linear_771_457" x1="96.0653" y1="1128.07" x2="100.509" y2="1104.81" gradientUnits="userSpaceOnUse">
<stop stop-color="#8824DC"/>
<stop offset="1" stop-color="#B1219D"/>
</linearGradient>
<linearGradient id="paint110_linear_771_457" x1="126.775" y1="1123.95" x2="169.434" y2="1054" gradientUnits="userSpaceOnUse">
<stop stop-color="#8824DC"/>
<stop offset="1" stop-color="#B1219D"/>
</linearGradient>
<linearGradient id="paint111_linear_771_457" x1="76.4221" y1="1118.91" x2="102.01" y2="1077.31" gradientUnits="userSpaceOnUse">
<stop stop-color="#8824DC"/>
<stop offset="1" stop-color="#B1219D"/>
</linearGradient>
<linearGradient id="paint112_linear_771_457" x1="18.1172" y1="1117.71" x2="32.2874" y2="1095.67" gradientUnits="userSpaceOnUse">
<stop stop-color="#8824DC"/>
<stop offset="1" stop-color="#B1219D"/>
</linearGradient>
<linearGradient id="paint113_linear_771_457" x1="110.796" y1="1111.63" x2="118.022" y2="1080.77" gradientUnits="userSpaceOnUse">
<stop stop-color="#8824DC"/>
<stop offset="1" stop-color="#B1219D"/>
</linearGradient>
<linearGradient id="paint114_linear_771_457" x1="58.6679" y1="1111.18" x2="85.2039" y2="1069.6" gradientUnits="userSpaceOnUse">
<stop stop-color="#8824DC"/>
<stop offset="1" stop-color="#B1219D"/>
</linearGradient>
<linearGradient id="paint115_linear_771_457" x1="337.354" y1="1182.01" x2="852.295" y2="821.998" gradientUnits="userSpaceOnUse">
<stop stop-color="#8824DC"/>
<stop offset="1" stop-color="#B1219D"/>
</linearGradient>
</defs>
</svg>
