<svg width="1258" height="1872" viewBox="0 0 1258 1872" fill="none" xmlns="http://www.w3.org/2000/svg">
<path d="M507.296 1004.44C503.727 1004.44 500.168 1004.29 496.599 1003.96C461.914 1000.81 432.918 981.151 404.862 962.137C396.522 956.483 387.899 950.636 379.411 945.458C335.186 918.444 295.436 914.659 250.553 933.186C234.372 939.871 218.791 947.871 203.732 955.599C170.724 972.551 139.541 988.562 101.275 992.8L98.5782 993.094L98.1589 990.42C94.3516 965.888 80.4256 947.452 65.6724 927.928C55.7009 914.727 45.4008 901.084 38.3187 885.266C19.4749 843.136 0.40442 762.401 25.1292 712.657C30.5908 701.666 36.789 691.615 42.7945 681.893C53.8538 663.978 64.3013 647.061 70.0575 625.203C83.4964 574.28 66.9641 539.913 42.1374 496.922C39.6672 492.639 37.0383 488.22 34.4888 483.948C16.7554 454.135 -1.58997 423.314 0.10972 388.142C1.73009 354.443 19.6562 324.653 36.3244 299.384C40.8116 292.586 45.7633 285.753 50.5564 279.147C70.1821 252.077 90.4764 224.1 85.8873 189.177C82.5106 163.5 70.9299 139.818 59.7347 116.907C48.8907 94.7199 37.6728 71.7855 33.4803 46.5848L32.9137 43.1968L36.3471 43.2872C71.5986 44.2164 108.062 48.4318 143.325 52.511C220.593 61.4514 300.489 70.6977 374.902 46.6188C383.615 43.7973 392.442 40.6924 400.975 37.6897C427.626 28.3187 455.184 18.6193 484.135 15.8432C524.497 11.9679 565.334 20.8402 604.835 29.4066C610.059 30.5397 615.26 31.6728 620.427 32.7606C626.047 33.9504 631.713 35.1855 637.412 36.4319C676.007 44.885 715.927 53.6102 754.521 49.1457C780.685 46.1202 805.126 35.6728 828.752 25.5653C836.366 22.3132 844.241 18.9478 852.094 15.8544C916.308 -9.39163 980.907 0.749912 1043.39 10.5628C1072.74 15.1746 1103.08 19.9336 1133.39 21.1234L1135.73 21.2141L1136.08 23.5256C1140.69 54.018 1157.1 78.5728 1174.48 104.567C1184.24 119.161 1194.32 134.254 1202.03 150.413C1213.87 175.228 1251.11 260.87 1233.22 320.733C1227.41 340.188 1215.99 357.82 1204.95 374.885C1195.51 389.468 1185.74 404.561 1179.57 420.663C1165.19 458.18 1176.88 481.908 1193.07 514.769C1194.95 518.587 1196.89 522.519 1198.84 526.587C1221.9 574.631 1225.84 613.77 1212.01 657.463L1211.09 660.341C1200.31 694.38 1189.16 729.575 1183.22 765.438C1178.12 796.191 1173.96 828.723 1183.86 858.592C1187.86 870.671 1192.96 881.289 1197.89 891.555C1206.5 909.515 1214.65 926.489 1216.82 949.73L1217.1 952.619L1214.19 952.823C1173.75 955.622 1131.5 966.466 1090.64 976.958C1011.67 997.219 930.019 1018.17 853.408 984.596C843.969 980.46 834.519 975.814 825.375 971.327C797.942 957.854 769.569 943.917 738.226 942.092C700.346 939.871 663.882 954.613 628.619 968.857C625.288 970.205 621.968 971.542 618.659 972.868C614.455 974.545 610.206 976.279 605.911 978.035C575.464 990.465 541.335 1004.4 507.273 1004.4L507.296 1004.44ZM304.15 915.985C329.996 915.985 355.389 924.132 382.38 940.619C390.981 945.877 399.66 951.758 408.057 957.446C435.512 976.052 463.897 995.304 497.12 998.318C533.312 1001.62 569.153 986.975 603.804 972.822C608.121 971.066 612.382 969.321 616.597 967.633C619.894 966.318 623.203 964.981 626.534 963.633C662.375 949.152 699.44 934.172 738.589 936.46C771.076 938.364 799.959 952.551 827.902 966.273C836.989 970.737 846.383 975.349 855.709 979.44C930.529 1012.23 1011.22 991.53 1089.26 971.508C1129.39 961.208 1170.85 950.568 1210.9 947.429C1208.43 926.625 1200.82 910.784 1192.8 894.048C1187.79 883.623 1182.63 872.836 1178.51 860.417C1168.2 829.324 1172.44 796.01 1177.65 764.554C1183.67 728.294 1194.88 692.896 1205.72 658.664L1206.64 655.786C1220 613.588 1216.14 575.697 1193.76 529.069C1191.82 525.012 1189.89 521.103 1188.02 517.307C1171.83 484.446 1159.03 458.498 1174.3 418.668C1180.69 402 1190.61 386.669 1200.21 371.837C1211.03 355.112 1222.23 337.832 1227.8 319.146C1245.12 261.221 1208.55 177.245 1196.93 152.894C1189.4 137.11 1179.43 122.198 1169.78 107.762C1153.23 83.0147 1136.15 57.4401 1130.87 26.7211C1101.01 25.3727 1071.29 20.7042 1042.53 16.1944C977.961 6.0529 916.977 -3.52198 854.19 21.1688C846.417 24.2282 838.576 27.5709 831.007 30.8117C807.007 41.0664 782.18 51.6838 755.201 54.7999C715.666 59.3778 675.281 50.5393 636.234 41.9956C630.546 40.7492 624.891 39.5141 619.282 38.3243C614.104 37.2252 608.892 36.1034 603.657 34.9589C564.575 26.4718 524.179 17.7128 484.701 21.4974C456.441 24.2169 429.212 33.7917 402.89 43.0493C394.323 46.0634 385.462 49.1797 376.681 52.0238C301.101 76.4766 220.582 67.1623 142.713 58.1539C108.731 54.222 73.6382 50.1654 39.7125 49.0663C44.177 72.148 54.681 93.6319 64.8564 114.436C76.2556 137.756 88.0402 161.857 91.5415 188.452C96.4253 225.607 75.4625 254.524 55.1796 282.478C50.4205 289.039 45.5027 295.826 41.0948 302.512C24.098 328.29 7.36174 356.154 5.80936 388.425C4.20033 421.898 22.0924 451.971 39.3952 481.07C41.9447 485.364 44.5849 489.795 47.0778 494.112C72.5844 538.292 89.5586 573.657 75.5759 626.676C69.593 649.35 58.443 667.423 47.6443 684.896C41.7068 694.505 35.5766 704.453 30.2282 715.207C6.38731 763.195 25.1065 841.833 43.5197 882.977C50.3298 898.218 60.4486 911.6 70.2274 924.54C84.2441 943.089 98.7142 962.25 103.326 986.884C139.371 982.329 169.41 966.896 201.171 950.591C216.332 942.806 232.015 934.749 248.422 927.973C267.686 920.019 286.042 916.008 304.172 916.008L304.15 915.985Z" fill="url(#paint0_linear_1239_4158)"/>
<path d="M1093.49 970.602C1089.98 948.812 1081.27 931.543 1072.03 913.254C1067.63 904.518 1063.07 895.487 1059.01 885.765C1044.01 849.811 1054.63 817.03 1065.87 782.333C1066.89 779.195 1067.91 776.033 1068.92 772.86C1080.26 737.144 1095.68 705.632 1112.02 672.273C1114.63 666.947 1117.26 661.588 1119.87 656.183C1139.91 614.858 1137.23 564.762 1112.34 515.143C1108.37 507.222 1103.57 499.404 1098.48 491.109C1083.09 466.044 1067.19 440.118 1074.12 410.249C1078.95 389.445 1088.19 369.842 1097.13 350.874C1105.52 333.072 1114.2 314.682 1119.07 295.509C1136.72 226.049 1110.43 170.378 1082.61 111.433C1068.16 80.8277 1053.21 49.1795 1044.74 15.2084L1050.23 13.8374C1058.57 47.2759 1073.39 78.6633 1087.73 109.02C1116 168.905 1142.71 225.471 1124.55 296.903C1119.55 316.597 1110.75 335.248 1102.24 353.287C1093.43 371.984 1084.32 391.304 1079.62 411.519C1073.22 439.121 1088.51 464.039 1103.3 488.129C1108.21 496.151 1113.31 504.446 1117.39 512.582C1143.09 563.822 1145.78 615.685 1124.96 658.641C1122.34 664.046 1119.71 669.417 1117.1 674.743C1100.86 707.909 1085.53 739.24 1074.31 774.56C1073.3 777.744 1072.27 780.905 1071.25 784.067C1060.34 817.743 1050.04 849.539 1064.24 883.566C1068.21 893.096 1072.72 902.036 1077.09 910.682C1086.51 929.367 1095.42 947.01 1099.08 969.672L1093.48 970.579L1093.49 970.602Z" fill="url(#paint1_linear_1239_4158)"/>
<path d="M964.84 998.193C964.228 978.307 958.528 960.891 952.488 942.466C949.905 934.58 947.231 926.432 944.987 918.047C935.775 883.691 942.778 849.799 949.554 817.007C950.347 813.188 951.129 809.358 951.899 805.528C960.171 764.249 970.856 716.635 993.1 674.052C1026.28 610.54 1033.08 554.881 1013.89 503.902C1009.61 492.525 1003.84 481.5 998.267 470.849C986.267 447.937 973.87 424.232 976.001 396.153C977.383 377.921 980.273 359.485 983.06 341.661C985.768 324.313 988.579 306.364 989.995 288.665C995.332 221.833 984.148 155.954 973.327 92.2496C968.341 62.913 963.197 32.5679 959.627 2.2115L965.259 1.5542C968.805 31.7633 973.939 62.0291 978.913 91.309C989.791 155.353 1001.03 221.584 995.638 289.13C994.21 307.045 991.389 325.095 988.658 342.545C985.893 360.256 983.026 378.578 981.655 396.595C979.638 423.065 991.128 445.013 1003.29 468.242C1008.94 479.052 1014.79 490.225 1019.2 501.93C1038.98 554.507 1032.09 611.673 998.119 676.703C976.227 718.629 965.655 765.767 957.452 806.673C956.681 810.525 955.888 814.355 955.095 818.185C948.149 851.805 941.588 883.555 950.449 916.608C952.658 924.846 955.31 932.925 957.859 940.732C963.752 958.726 969.859 977.344 970.483 998.046L964.817 998.216L964.84 998.193Z" fill="url(#paint2_linear_1239_4158)"/>
<path d="M873.544 991.417C870.247 963.961 862.031 937.764 854.077 912.427C849.533 897.957 844.842 882.989 841.035 867.782C831.97 831.533 837.443 799.013 843.233 764.577C844.106 759.421 844.978 754.209 845.817 748.917C850.723 718.028 856.287 683.015 870.621 649.962C892.988 598.393 896.184 555.402 880.694 514.644C876.535 503.687 870.655 493.33 864.966 483.313C854.564 464.968 843.811 446.011 843.562 423.167C843.324 400.98 845.307 378.001 847.21 355.769C848.253 343.656 849.329 331.135 850.009 319.044C853.114 264.314 858.077 208.803 862.881 155.115C867.153 107.354 871.572 57.9725 874.666 9.33887L880.32 9.70154C877.227 58.4145 872.807 107.83 868.524 155.625C863.72 209.267 858.757 264.734 855.663 319.373C854.972 331.554 853.896 344.109 852.853 356.267C850.95 378.363 848.989 401.219 849.227 423.122C849.454 444.504 859.38 462.01 869.895 480.537C875.686 490.746 881.669 501.296 885.986 512.65C902.042 554.87 898.801 599.22 875.81 652.239C861.76 684.635 856.253 719.275 851.403 749.835C850.564 755.138 849.68 760.373 848.808 765.54C843.12 799.375 837.737 831.329 846.519 866.434C850.281 881.482 854.949 896.359 859.471 910.75C867.504 936.325 875.799 962.783 879.164 990.76L873.544 991.44V991.417Z" fill="url(#paint3_linear_1239_4158)"/>
<path d="M794.203 955.112C789.364 923.135 778.203 892.711 767.416 863.284C758.396 838.683 749.059 813.233 743.348 786.809C737.059 757.699 742.68 731.83 748.629 704.453C751.178 692.714 753.818 680.567 755.405 668.182C756.844 656.987 758.487 645.384 760.062 634.166C767.563 581.011 775.314 526.055 768.866 474.52C767.325 462.226 764.832 449.761 762.419 437.705C758.94 420.334 755.337 402.374 754.464 384.357C753.32 360.596 754.113 335.848 754.872 311.917C755.314 298.059 755.767 283.736 755.835 269.912L755.858 265.47C755.994 232.326 756.141 198.049 764.673 165.121C768.775 149.28 773.875 133.756 778.804 118.731C787.143 93.3146 795.778 67.0375 799.426 39.3779L805.047 40.1145C801.319 68.2953 792.616 94.8331 784.186 120.498C779.28 135.433 774.214 150.877 770.158 166.537C761.807 198.774 761.659 232.689 761.523 265.481L761.501 269.935C761.433 283.838 760.98 298.206 760.538 312.098C759.778 335.916 758.985 360.539 760.118 384.085C760.968 401.683 764.526 419.428 767.96 436.594C770.396 448.753 772.923 461.319 774.475 473.818C781.002 526.1 773.206 581.442 765.659 634.948C764.084 646.143 762.441 657.724 761.013 668.896C759.393 681.519 756.73 693.779 754.147 705.643C748.334 732.408 742.838 757.699 748.866 785.608C754.487 811.647 763.756 836.904 772.707 861.323C783.597 891.011 794.86 921.707 799.778 954.251L794.18 955.101L794.203 955.112Z" fill="url(#paint4_linear_1239_4158)"/>
<path d="M709.287 940.744C704.483 908.223 692.925 877.3 681.752 847.408C672.71 823.193 663.35 798.163 657.503 772.203C650.591 741.506 656.687 716.057 663.146 689.111C667.191 672.25 671.361 654.811 672.041 635.922C672.494 622.982 670.557 609.962 668.687 597.362C667.339 588.274 665.934 578.881 665.412 569.464C663.577 536.66 666.5 503.075 669.333 470.588C669.696 466.441 670.058 462.316 670.398 458.192C676.03 391.779 680.313 320.03 673.628 245.334C673.197 240.519 672.698 235.703 672.177 230.615C669.152 201.392 666.036 171.16 675.928 143.897C680.88 130.243 687.622 118.719 694.137 107.569C704.109 90.5156 713.536 74.4141 716.188 51.9556L721.819 52.6239C719.021 76.2496 708.856 93.6317 699.032 110.436C692.641 121.359 686.035 132.656 681.253 145.835C671.803 171.874 674.863 201.448 677.82 230.037C678.33 234.921 678.851 239.975 679.282 244.836C686.001 319.962 681.707 392.017 676.052 458.679C675.701 462.803 675.339 466.939 674.987 471.087C672.177 503.369 669.276 536.751 671.089 569.158C671.599 578.314 672.982 587.583 674.319 596.535C676.234 609.384 678.205 622.676 677.729 636.126C677.038 655.571 672.789 673.293 668.687 690.425C662.387 716.714 656.438 741.541 663.067 770.945C668.834 796.531 678.115 821.38 687.089 845.414C698.364 875.589 710.024 906.784 714.919 939.905L709.31 940.732L709.287 940.744Z" fill="url(#paint5_linear_1239_4158)"/>
<path d="M614.818 970.466C612.812 942.07 606.739 913.934 600.858 886.728C595.929 863.941 590.841 840.383 588.122 816.633C585.787 796.271 587.748 776.067 589.651 756.532C591.532 737.156 593.481 717.122 591.147 697.19C589.175 680.318 584.994 663.457 580.949 647.152C576.088 627.526 571.057 607.243 569.731 586.541C567.397 549.839 572.428 512.14 577.062 483.404C581.142 458.135 588.088 435.416 595.43 411.36C598.195 402.295 601.062 392.913 603.725 383.474C614.637 344.846 604.88 305.402 595.442 267.238L594.24 262.377C585.232 225.822 575.918 188.01 586.535 145.892C590.139 131.603 594.875 118.028 599.453 104.884C607.441 81.9836 614.977 60.3522 617.028 35.2988L622.671 35.7634C620.563 61.5307 612.552 84.5216 604.801 106.754C600.257 119.773 595.566 133.235 592.031 147.274C581.753 188.032 590.898 225.142 599.736 261.028L600.937 265.89C610.557 304.756 620.495 344.948 609.175 385.015C606.489 394.51 603.623 403.915 600.847 413.014C593.561 436.878 586.671 459.427 582.649 484.311C578.06 512.763 573.074 550.043 575.374 586.19C576.654 606.382 581.629 626.427 586.433 645.803C590.512 662.279 594.739 679.31 596.756 696.544C599.158 717.077 597.187 737.416 595.272 757.087C593.402 776.339 591.476 796.237 593.742 815.998C596.427 839.465 601.492 862.887 606.388 885.549C612.314 912.948 618.433 941.276 620.461 970.081L614.807 970.477L614.818 970.466Z" fill="url(#paint6_linear_1239_4158)"/>
<path d="M526.015 1000.24L520.35 1000.16C520.588 983.077 521.166 965.332 521.721 948.177C523.942 880.28 526.242 810.072 509.336 746.005C507.07 737.438 504.758 728.906 502.526 720.645C482.39 646.38 465.008 582.234 484.464 504.038C490.934 478.01 502.412 457.885 514.56 436.583C520.293 426.532 526.208 416.141 531.647 404.969C551.941 363.236 533.619 315.259 517.46 272.937C516.429 270.229 515.409 267.555 514.412 264.915C498.809 223.635 490.073 186.253 498.152 138.05C500.373 124.77 503.115 111.546 505.755 98.7534C511.115 72.8049 516.667 45.9838 517.914 18.5396L523.579 18.8001C522.31 46.6863 516.724 73.7454 511.307 99.8979C508.667 112.646 505.948 125.824 503.738 138.991C495.84 186.106 503.988 221.335 519.704 262.92C520.701 265.549 521.721 268.223 522.752 270.92C538.502 312.177 558.106 363.508 536.735 407.45C531.217 418.793 525.245 429.263 519.477 439.393C507.534 460.344 496.248 480.14 489.959 505.409C470.866 582.178 488.067 645.667 507.999 719.172C510.242 727.433 512.554 735.977 514.82 744.566C531.942 809.437 529.63 880.065 527.398 948.369C526.831 965.502 526.253 983.213 526.027 1000.24H526.015Z" fill="url(#paint7_linear_1239_4158)"/>
<path d="M435.489 980.098C435.025 900.054 434.435 800.43 414.844 712.397C399.535 643.617 383.706 572.502 400.192 497.16C404.362 478.124 411.172 459.904 417.767 442.295C422.572 429.468 427.523 416.199 431.387 402.805C443.557 360.585 423.965 321.764 405.031 284.213L403.365 280.915C379.275 233.064 366.516 203.579 384.533 154.051C389.745 139.728 395.694 125.575 401.45 111.876C412.577 85.3947 424.09 58.0072 430.3 29.0898L435.84 30.2797C429.518 59.7182 417.903 87.3552 406.674 114.074C400.94 127.706 395.014 141.802 389.858 155.988C372.601 203.421 384.351 230.571 408.419 278.366L410.085 281.663C429.518 320.189 449.608 360.019 436.826 404.369C432.906 417.978 427.897 431.349 423.07 444.278C416.555 461.705 409.813 479.733 405.722 498.373C389.496 572.491 405.189 642.982 420.362 711.162C440.09 799.784 440.679 899.737 441.144 980.053L435.478 980.086L435.489 980.098Z" fill="url(#paint8_linear_1239_4158)"/>
<path d="M356.375 931.09C353.463 894.886 346.2 858.876 339.163 824.044C335.299 804.916 331.31 785.132 328.058 765.45C322.698 732.974 322.551 702.312 322.393 669.837C322.37 666.234 322.359 662.619 322.336 658.993C322.268 649.293 322.019 639.322 321.781 629.679C320.704 585.85 319.582 540.525 334.222 498.316C336.001 493.194 337.973 487.948 339.877 482.872C346.755 464.572 353.859 445.648 354.46 426.453C355.389 396.346 337.565 371.871 320.319 348.211C317.781 344.732 315.152 341.129 312.648 337.582C288.603 303.589 278.042 276.382 291.084 230.049C297.656 206.695 306.234 183.829 314.529 161.71C327.106 128.17 340.103 93.4963 346.052 57.0664L351.639 57.973C345.61 94.9468 332.5 129.892 319.832 163.693C311.583 185.698 303.05 208.452 296.546 231.579C284.116 275.725 294.246 301.742 317.282 334.296C319.764 337.809 322.381 341.39 324.908 344.857C342.721 369.299 361.134 394.567 360.137 426.612C359.514 446.736 352.239 466.113 345.202 484.843C343.31 489.886 341.35 495.109 339.593 500.152C325.293 541.386 326.392 586.19 327.469 629.509C327.707 639.174 327.956 649.169 328.024 658.925C328.047 662.562 328.07 666.188 328.081 669.78C328.239 702.018 328.387 732.465 333.678 764.487C336.908 784.067 340.896 803.795 344.749 822.876C351.808 857.867 359.117 894.048 362.052 930.591L356.409 931.045L356.375 931.09Z" fill="url(#paint9_linear_1239_4158)"/>
<path d="M270.677 922.297C268.003 885.957 258.054 849.403 248.445 814.049C233.862 760.441 218.78 705.009 228.264 648.364C230.633 634.188 232.865 619.65 235.029 605.577C240.309 571.175 245.771 535.595 253.839 501.443L254.983 496.616C260.23 474.622 265.646 451.892 262.303 429.716C258.881 407.077 246.61 388.947 233.624 369.752C228.989 362.896 224.185 355.814 219.913 348.585C196.288 308.722 201.93 280.518 213.08 237.788C217.194 222.015 221.703 206.14 226.066 190.786C237.748 149.642 249.828 107.094 255.187 63.627L260.808 64.318C255.403 108.227 243.256 150.991 231.516 192.338C227.165 207.669 222.667 223.522 218.553 239.227C207.766 280.529 202.293 307.77 224.774 345.695C228.967 352.777 233.715 359.791 238.304 366.567C251.074 385.445 264.286 404.958 267.89 428.867C271.402 452.118 265.85 475.404 260.479 497.919L259.334 502.735C251.323 536.672 245.873 572.127 240.604 606.427C238.44 620.512 236.207 635.072 233.828 649.293C224.548 704.725 239.471 759.546 253.884 812.565C263.572 848.179 273.589 884.994 276.297 921.877L270.643 922.297H270.677Z" fill="url(#paint10_linear_1239_4158)"/>
<path d="M184.831 961.968C180.9 931.464 166.996 900.892 152.277 868.519C126.51 811.851 99.87 753.269 130.374 694.403C135.756 684.024 142.09 675.05 148.232 666.381C158.872 651.322 168.922 637.113 173.489 616.773C181.647 580.388 168.039 545.556 154.894 511.868L153.478 508.22C126.77 439.677 119.292 380.052 129.229 314.92C131.563 299.646 135.801 284.802 139.903 270.445C145.093 252.293 150.464 233.517 151.812 214.106C154.214 179.512 150.169 144.181 146.26 110.006C144.152 91.559 141.965 72.477 140.821 53.7465L146.475 53.4067C147.608 71.99 149.784 90.9923 151.892 109.372C155.835 143.796 159.914 179.387 157.467 214.503C156.073 234.502 150.623 253.573 145.353 272.009C141.297 286.196 137.104 300.869 134.827 315.781C125.048 379.893 132.424 438.612 158.747 506.18L160.163 509.818C173.625 544.299 187.551 579.947 179.019 618.031C174.214 639.481 163.359 654.823 152.866 669.678C146.838 678.2 140.617 687.004 135.416 697.044C106.181 753.462 132.243 810.786 157.444 866.207C171.687 897.527 186.418 929.923 190.452 961.277L184.831 962.002V961.968Z" fill="url(#paint11_linear_1239_4158)"/>
<path d="M260.037 161.03C246.394 161.03 232.038 159.501 216.4 156.543C199.46 153.337 182.543 149.393 166.169 145.575C133.524 137.96 99.7681 130.096 65.2871 128.045L65.6271 122.391C100.595 124.464 134.589 132.396 167.461 140.056C183.767 143.864 200.627 147.795 217.454 150.98C268.309 160.611 305.192 154.639 348.999 129.677C351.763 128.102 354.54 126.504 357.316 124.918C392.159 104.918 428.193 84.2273 470.209 83.8533C498.934 83.604 528.565 87.638 557.199 91.5586C573.266 93.7569 589.878 96.0231 605.934 97.4622C687.009 104.725 766.011 111.207 841.465 110.765C872.694 110.584 902.156 102.391 930.654 94.4595C953.35 88.148 976.828 81.6211 1001.32 79.0262C1031.08 75.8875 1061.02 78.6864 1089.98 81.3945C1113.06 83.5588 1136.92 85.7796 1160.43 84.9638L1160.62 90.6294C1136.76 91.4679 1112.7 89.2131 1089.45 87.0375C1060.77 84.352 1031.11 81.5757 1001.9 84.6691C977.882 87.2073 954.642 93.6661 932.161 99.9209C903.311 107.943 873.476 116.238 841.488 116.431C765.818 116.873 686.635 110.38 605.413 103.105C589.221 101.655 572.541 99.3771 556.417 97.1675C527.976 93.2809 498.571 89.2697 470.243 89.5189C429.711 89.8815 394.324 110.199 360.115 129.836C357.338 131.433 354.551 133.031 351.786 134.606C320.161 152.623 292.036 161.03 260.026 161.03H260.037Z" fill="url(#paint12_linear_1239_4158)"/>
<path d="M232.683 263.329C219.709 263.329 205.885 260.439 190.712 253.992C179.279 249.131 168.548 243.136 158.169 237.335C136.231 225.086 115.507 213.517 89.2295 212.293L89.4901 206.638C117.104 207.919 139.382 220.361 160.934 232.394C171.177 238.117 181.772 244.031 192.933 248.779C239.085 268.405 272.365 252.972 308.16 223.76C311.084 221.369 314.007 218.978 316.919 216.565C357.882 182.877 400.238 148.033 458.288 151.433C471.534 152.215 484.565 153.37 497.165 154.503C527.046 157.178 555.261 159.693 585.991 157.449C597.39 156.622 609.005 155.138 621.299 153.574C650.5 149.858 680.697 146.005 708.538 151.217C734.929 156.158 758.305 170.175 780.911 183.738C799.052 194.616 817.817 205.868 837.839 212.179C882.937 226.389 920.874 210.151 961.032 192.973C983.525 183.341 1006.79 173.393 1031.76 168.928C1067.21 162.594 1102.58 165.88 1136.8 169.064C1160.59 171.274 1185.19 173.563 1209.55 172.577L1209.78 178.242C1185.04 179.239 1160.26 176.939 1136.28 174.707C1102.43 171.557 1067.44 168.305 1032.76 174.503C1008.43 178.854 985.474 188.679 963.264 198.174C923.922 215.012 883.243 232.417 836.139 217.584C815.482 211.08 796.435 199.647 777.999 188.599C755.823 175.296 732.889 161.54 707.496 156.792C680.539 151.739 650.794 155.534 622.024 159.194C609.651 160.77 597.957 162.265 586.41 163.104C555.227 165.381 526.785 162.843 496.667 160.146C484.112 159.025 471.115 157.869 457.959 157.087C402.13 153.801 360.647 187.93 320.523 220.938C317.599 223.341 314.676 225.754 311.741 228.145C285.985 249.165 261.419 263.329 232.683 263.329Z" fill="url(#paint13_linear_1239_4158)"/>
<path d="M236.502 335.587C224.514 335.587 211.653 333.717 197.478 329.684C178.532 324.279 160.504 317.015 143.065 309.99C113.264 297.979 85.1172 286.625 52.4492 283.611L52.9704 277.968C86.4655 281.061 116.323 293.095 145.184 304.732C162.487 311.712 180.368 318.919 199.03 324.233C250.123 338.794 283.663 323.723 321.226 294.693C372.557 255.011 416.76 225.289 478.685 233.312C520.837 238.773 551.375 241.799 590.377 234.456C597.946 233.028 605.674 231.317 613.855 229.516C643.917 222.875 677.99 215.34 708.075 222.422C733.683 228.45 755.02 244.462 775.654 259.929C794.09 273.753 813.149 288.041 835.041 294.987C874.553 307.508 911.855 294.466 951.333 280.653C977.973 271.339 1005.52 261.708 1033.8 260.676C1077.27 259.09 1119 270.115 1159.34 280.767C1183.81 287.226 1209.1 293.911 1234.49 297.707L1233.65 303.316C1207.94 299.474 1182.49 292.755 1157.89 286.251C1117.95 275.702 1076.65 264.801 1034.01 266.342C1006.58 267.339 979.446 276.824 953.203 286.002C914.575 299.509 874.644 313.48 833.33 300.381C810.52 293.152 791.065 278.569 772.255 264.461C751.156 248.643 731.236 233.697 706.771 227.929C677.945 221.142 645.979 228.201 615.068 235.034C606.841 236.847 599.068 238.569 591.419 240.008C551.692 247.498 519.33 244.28 477.96 238.921C418.188 231.17 374.97 260.291 324.694 299.157C296.082 321.276 269.669 335.576 236.502 335.576V335.587Z" fill="url(#paint14_linear_1239_4158)"/>
<path d="M278.122 391.394C261.363 391.394 243.686 389.49 224.173 385.774C199.641 381.105 175.019 375.133 151.2 369.343C106.975 358.613 61.2416 347.508 14.8516 344.551L15.2142 338.896C62.1029 341.876 108.074 353.038 152.537 363.836C176.288 369.604 200.831 375.553 225.227 380.199C281.181 390.85 321.622 386.329 369.44 364.086C423.275 339.044 464.668 326.33 516.939 335.474C552.564 341.706 575.861 338.76 609.277 323.792C613.163 322.047 617.016 320.268 621.084 318.375C648.211 305.786 678.953 291.52 710.397 298.104C734.759 303.203 754.487 319.044 773.568 334.353C789.795 347.372 806.565 360.834 825.998 367.474C866.179 381.207 903.379 368.505 942.755 355.055C968.534 346.25 995.185 337.151 1022.7 336.199C1057.45 334.998 1091.98 341.095 1125.37 346.998C1152.38 351.769 1180.33 356.709 1208.11 357.706L1207.91 363.372C1179.73 362.363 1151.59 357.389 1124.38 352.585C1091.28 346.738 1057.05 340.687 1022.9 341.865C996.227 342.783 969.973 351.746 944.591 360.426C917.747 369.593 890.246 378.975 861.839 378.986C849.465 378.986 836.921 377.207 824.174 372.845C803.8 365.887 786.633 352.108 770.033 338.783C750.623 323.202 732.277 308.483 709.241 303.656C679.644 297.447 651.089 310.704 623.475 323.52C619.565 325.333 615.52 327.214 611.6 328.97C576.994 344.471 552.87 347.519 515.964 341.072C465.166 332.177 424.657 344.664 371.831 369.23C339.525 384.255 310.529 391.394 278.11 391.394H278.122Z" fill="url(#paint15_linear_1239_4158)"/>
<path d="M284.184 456.469C228.672 456.469 171.835 444.912 116.199 433.592C77.2758 425.671 40.5059 418.204 4.09863 414.374L4.68788 408.742C41.3671 412.595 79.984 420.447 117.332 428.039C203.63 445.591 292.864 463.733 374.698 437.909C408.499 427.235 445.53 418.317 487.24 425.184C531.069 432.402 560.451 423.575 596.394 405.887C600.235 403.994 604.144 402.023 608.122 400.017C640.846 383.485 677.933 364.754 715.53 373.887C737.875 379.315 756.13 393.649 773.784 407.519C789.637 419.972 806.033 432.844 825.251 439.087C860.876 450.668 894.122 442.09 929.328 433.025C956.308 426.068 984.205 418.884 1013.22 421.615C1038.72 424.017 1063.98 429.615 1088.41 435.02C1114.42 440.787 1141.32 446.747 1168.39 448.787L1167.96 454.441C1140.49 452.368 1113.38 446.362 1087.17 440.549C1062.91 435.167 1037.84 429.614 1012.68 427.246C984.647 424.606 957.226 431.677 930.722 438.498C896.275 447.37 860.661 456.549 823.472 444.47C803.302 437.909 786.509 424.731 770.26 411.972C752.289 397.864 735.315 384.539 714.171 379.394C678.591 370.749 642.501 388.98 610.648 405.071C606.66 407.088 602.739 409.071 598.875 410.974C561.901 429.172 531.624 438.249 486.299 430.782C445.756 424.096 409.508 432.855 376.375 443.314C346.37 452.787 315.47 456.469 284.161 456.469H284.184Z" fill="url(#paint16_linear_1239_4158)"/>
<path d="M1195.99 530.542C1174.89 527.822 1153.68 523.868 1133.17 520.038C1107.32 515.222 1080.6 510.236 1054.01 507.721C1025.39 505.013 996.59 508.412 968.715 511.698C931.538 516.083 893.091 520.604 855.108 510.542C834.848 505.171 815.234 496.174 796.265 487.46C769.399 475.132 741.615 462.384 712.052 460.129C668.222 456.775 626.229 471.053 585.618 484.854L580.711 486.52C538.434 500.854 501.257 509.477 457.189 504.956C419.864 501.126 388.228 499.902 357.622 501.114C334.336 502.032 310.461 503.506 287.368 504.933C206.984 509.896 123.858 515.041 44.0186 498.282L45.1857 492.741C124.278 509.341 207.007 504.231 287.017 499.29C310.133 497.863 334.042 496.389 357.395 495.472C388.273 494.259 420.17 495.483 457.767 499.347C500.815 503.755 537.324 495.279 578.887 481.183L583.793 479.517C624.948 465.534 667.497 451.076 712.482 454.509C743.054 456.843 771.303 469.806 798.622 482.339C817.375 490.939 836.763 499.845 856.559 505.092C893.499 514.882 929.702 510.61 968.047 506.1C996.205 502.78 1025.33 499.358 1054.53 502.112C1081.37 504.65 1108.23 509.658 1134.2 514.497C1154.64 518.304 1175.77 522.247 1196.71 524.944L1195.99 530.564V530.542Z" fill="url(#paint17_linear_1239_4158)"/>
<path d="M989.882 626.948C945.486 626.948 902.643 623.616 860.003 606.007C844.026 599.413 827.924 591.367 812.344 583.606C778.418 566.677 743.337 549.181 706.057 544.479C666.035 539.436 625.322 550.518 585.957 561.226C581.651 562.393 577.379 563.561 573.13 564.694L567.465 566.212C528.802 576.58 488.814 587.3 447.886 584.286C420.691 582.291 394.539 574.62 369.236 567.209C361.882 565.056 354.29 562.824 346.777 560.773C309.668 550.62 269.884 543.731 230.508 561.929C175.88 587.164 141.897 600.546 78.9297 581.861L80.5388 576.433C141.682 594.563 173.194 582.167 228.128 556.785C269.159 537.827 310.121 544.875 348.273 555.311C355.831 557.374 363.457 559.617 370.834 561.77C395.842 569.102 421.711 576.682 448.305 578.631C488.271 581.566 527.783 570.983 565.992 560.739L571.657 559.221C575.895 558.088 580.167 556.92 584.461 555.753C624.359 544.898 665.627 533.669 706.759 538.847C745.002 543.663 780.515 561.385 814.871 578.529C830.361 586.257 846.372 594.245 862.156 600.772C916.512 623.219 971.752 621.984 1030.24 620.681C1041.81 620.421 1053.79 620.16 1065.65 620.092C1072.29 620.058 1078.93 620.013 1085.57 619.968C1128.96 619.684 1173.83 619.39 1217.99 620.953L1217.79 626.619C1173.74 625.055 1128.94 625.35 1085.61 625.633C1078.97 625.679 1072.33 625.724 1065.69 625.758C1053.87 625.826 1041.93 626.086 1030.37 626.347C1016.7 626.653 1003.22 626.959 989.87 626.959L989.882 626.948Z" fill="url(#paint18_linear_1239_4158)"/>
<path d="M963.072 729.847C945.566 729.847 928.081 728.397 912.467 723.932C888.15 716.986 864.887 701.054 844.366 687.004C842.712 685.871 841.069 684.749 839.437 683.638C829.182 676.647 818.984 668.942 808.197 660.783C776.911 637.135 744.561 612.682 708.72 604.558C669.435 595.64 628.291 614.948 591.997 631.991C588.62 633.577 585.278 635.141 581.992 636.659L576.768 639.084C542.14 655.14 506.424 671.707 467.897 671.707C464.872 671.707 461.824 671.605 458.764 671.389C427.15 669.191 398.935 654.846 371.638 640.965C362.981 636.557 354.03 632.013 345.169 627.968C297.238 606.065 260.252 605.77 221.522 626.96C211.052 632.693 201.217 638.472 191.71 644.07C148.028 669.792 110.295 691.989 50.2393 683.298L51.0552 677.689C109.128 686.109 144.311 665.395 188.832 639.186C198.373 633.566 208.242 627.764 218.791 621.985C259.278 599.844 297.77 600.082 347.514 622.812C356.477 626.903 365.486 631.481 374.188 635.911C400.975 649.531 428.68 663.616 459.138 665.735C499.738 668.556 537.675 650.959 574.366 633.939L579.601 631.515C582.875 629.996 586.195 628.444 589.572 626.857C626.693 609.43 668.766 589.691 709.955 599.028C746.986 607.436 779.835 632.263 811.596 656.262C822.327 664.375 832.468 672.035 842.61 678.958C844.242 680.069 845.885 681.191 847.539 682.335C867.709 696.148 890.564 711.797 913.997 718.493C944.806 727.286 983.763 723.944 1015.06 721.258L1017.27 721.065C1040.03 719.117 1062.93 715.57 1085.08 712.136C1120.61 706.629 1157.36 700.918 1194.47 701.712L1194.35 707.377C1157.74 706.629 1121.24 712.273 1085.95 717.734C1063.7 721.179 1040.71 724.737 1017.76 726.708L1015.55 726.901C999.378 728.283 981.202 729.847 963.05 729.847H963.072Z" fill="url(#paint19_linear_1239_4158)"/>
<path d="M951.719 825.143C933.498 825.143 914.348 821.619 896.399 810.684C872.91 796.361 852.083 776.623 831.959 757.541C828.797 754.549 825.67 751.58 822.542 748.646C815.29 741.836 807.982 734.459 800.254 726.64C772.855 698.958 741.807 667.594 706.205 657.089C667.78 645.758 632.925 679.027 604.915 705.768C602.252 708.307 599.668 710.777 597.164 713.122C594.762 715.377 592.314 717.7 589.81 720.08C562.717 745.847 529.007 777.948 488.577 773.45C450.583 769.246 414.89 741.065 383.389 716.204C373.191 708.159 363.571 700.556 354.279 694.052C305.351 659.798 263.448 643.685 205.738 669.134C188.696 676.647 172.288 685.474 156.413 694.006C113.332 717.156 72.664 739.014 20.3477 736.884L20.5856 731.218C71.3382 733.303 111.36 711.785 153.739 689.009C169.705 680.432 186.214 671.559 203.46 663.945C263.391 637.509 308.399 655.005 357.531 689.406C366.959 696.001 376.647 703.65 386.902 711.751C417.802 736.136 452.816 763.784 489.2 767.807C527.012 771.988 559.669 740.929 585.912 715.967C588.428 713.576 590.887 711.241 593.3 708.975C595.793 706.641 598.365 704.182 601.017 701.655C628.552 675.378 666.251 639.379 707.825 651.65C744.833 662.562 776.424 694.494 804.299 722.652C811.993 730.425 819.268 737.768 826.44 744.51C829.568 747.445 832.718 750.425 835.879 753.428C855.8 772.305 876.388 791.829 899.38 805.846C929.237 824.055 961.905 820.758 989.927 815.126C1012.44 810.605 1034.53 804.01 1055.89 797.631C1094.89 785.982 1135.24 773.96 1178.63 774.606L1178.54 780.271C1136 779.625 1097.87 791.002 1057.51 803.058C1036.03 809.472 1013.83 816.101 991.049 820.678C979.163 823.069 965.735 825.143 951.764 825.143H951.719Z" fill="url(#paint20_linear_1239_4158)"/>
<path d="M952.103 901.356C933.701 901.356 915.526 896.936 897.124 888.041C872.433 876.11 849.476 857.3 827.278 839.113C822.938 835.555 818.598 831.997 814.224 828.473C807.845 823.329 801.522 818.014 794.837 812.394C762.407 785.131 728.866 756.939 689.116 748.724C646.896 740.01 619.429 770.004 592.857 799.023L591.498 800.508C590.331 801.788 589.141 803.08 587.962 804.383C563.759 830.921 536.315 861.017 496.395 855.68C456.418 850.343 419.761 819.272 387.422 791.851C376.952 782.967 367.06 774.582 357.485 767.398C336.488 751.625 312.693 733.744 286.869 726.605C258.291 718.707 230.802 736.022 208.706 749.925C189.25 762.174 170.474 776.621 152.31 790.593C115.778 818.706 78.0001 847.77 32.2333 861.005L30.6582 855.566C75.3939 842.626 112.742 813.901 148.854 786.106C167.12 772.055 185.998 757.528 205.68 745.132C228.717 730.628 257.385 712.577 288.364 721.144C315.219 728.566 339.468 746.786 360.873 762.865C370.573 770.151 380.533 778.593 391.071 787.533C422.821 814.445 458.798 844.949 497.131 850.059C534.116 854.988 560.484 826.071 583.758 800.553C584.948 799.25 586.127 797.958 587.305 796.666L588.665 795.182C616.302 765.007 644.879 733.801 690.249 743.16C731.416 751.659 767.041 781.619 798.474 808.043C805.137 813.652 811.437 818.944 817.771 824.043C822.156 827.578 826.507 831.147 830.859 834.705C876.195 871.861 919.027 906.942 979.434 892.313C1001.56 886.954 1023.22 879.713 1044.17 872.71C1086.42 858.58 1130.12 843.94 1177.95 845.119L1177.81 850.784C1130.96 849.674 1089.69 863.464 1045.97 878.081C1024.91 885.129 1003.14 892.415 980.771 897.82C971.117 900.155 961.576 901.333 952.103 901.333V901.356Z" fill="url(#paint21_linear_1239_4158)"/>
<path d="M953.951 947.374C912.999 947.374 878.292 931.714 837.057 906.321C830.179 902.083 823.12 897.505 816.287 893.074C785.059 872.826 752.753 851.874 716.323 848.033C675.712 843.75 642.047 865.256 609.504 886.049L605.764 888.429C603.713 889.732 601.651 891.057 599.589 892.383C570.468 911.08 540.462 930.331 505.755 930.331C501.132 930.331 496.429 929.992 491.625 929.255C456.045 923.85 425.643 900.519 396.239 877.958C385.168 869.46 374.709 861.438 364.126 854.469C315.163 822.198 279.073 820.86 230.972 849.54C214.927 859.103 199.404 870.06 184.401 880.655C151.223 904.077 116.912 928.303 75.2586 938.501L73.9102 932.994C114.51 923.057 146.872 900.213 181.126 876.032C196.22 865.37 211.834 854.355 228.072 844.679C254.054 829.189 276.422 822.458 298.45 823.489C319.696 824.475 341.554 832.826 367.242 849.755C377.984 856.837 388.522 864.928 399.683 873.483C428.521 895.613 458.334 918.49 492.475 923.68C531.194 929.561 564.405 908.247 596.518 887.635C598.592 886.31 600.654 884.984 602.716 883.669L606.444 881.29C639.815 859.964 674.33 837.925 716.913 842.412C754.691 846.401 787.574 867.715 819.369 888.338C826.485 892.95 833.216 897.312 840.038 901.516C893.374 934.365 933.18 949.855 990.698 937.663C1014.6 932.598 1038.41 925.754 1061.44 919.148C1105.49 906.491 1151.05 893.403 1198.78 892.372L1198.91 898.037C1151.91 899.057 1106.71 912.043 1063 924.598C1039.88 931.238 1015.97 938.105 991.865 943.215C978.483 946.048 965.95 947.396 953.962 947.396L953.951 947.374Z" fill="url(#paint22_linear_1239_4158)"/>
<path d="M750.704 867C754.273 867 757.832 867.147 761.401 867.476C796.086 870.626 825.082 890.286 853.138 909.299C861.478 914.954 870.101 920.8 878.589 925.979C922.814 952.993 962.564 956.777 1007.45 938.251C1023.63 931.565 1039.21 923.565 1054.27 915.837C1087.28 898.886 1118.46 882.875 1156.72 878.637L1159.42 878.342L1159.84 881.017C1163.65 905.549 1177.57 923.985 1192.33 943.508C1202.3 956.709 1212.6 970.352 1219.68 986.171C1238.53 1028.3 1257.6 1109.04 1232.87 1158.78C1227.41 1169.77 1221.21 1179.82 1215.21 1189.54C1204.15 1207.46 1193.7 1224.38 1187.94 1246.23C1174.5 1297.16 1191.04 1331.52 1215.86 1374.51C1218.33 1378.8 1220.96 1383.22 1223.51 1387.49C1241.24 1417.3 1259.59 1448.12 1257.89 1483.29C1256.27 1516.99 1238.34 1546.78 1221.68 1572.05C1217.19 1578.85 1212.24 1585.68 1207.44 1592.29C1187.82 1619.36 1167.52 1647.34 1172.11 1682.26C1175.49 1707.94 1187.07 1731.62 1198.27 1754.53C1209.11 1776.72 1220.33 1799.65 1224.52 1824.85L1225.09 1828.24L1221.65 1828.15C1186.4 1827.22 1149.94 1823 1114.67 1818.93C1037.41 1809.99 957.511 1800.74 883.098 1824.82C874.385 1827.64 865.558 1830.74 857.025 1833.75C830.374 1843.12 802.816 1852.82 773.865 1855.59C733.503 1859.47 692.666 1850.6 653.165 1842.03C647.941 1840.9 642.74 1839.76 637.573 1838.68C631.953 1837.49 626.287 1836.25 620.588 1835C581.993 1826.55 542.073 1817.83 503.479 1822.29C477.315 1825.32 452.874 1835.76 429.248 1845.87C421.634 1849.12 413.759 1852.49 405.906 1855.58C341.692 1880.83 277.093 1870.69 214.612 1860.87C185.264 1856.26 154.919 1851.5 124.608 1850.31L122.274 1850.22L121.923 1847.91C117.311 1817.42 100.903 1792.86 83.5209 1766.87C73.7648 1752.28 63.6802 1737.18 55.9749 1721.02C44.1338 1696.21 6.88794 1610.57 24.78 1550.7C30.5929 1531.25 42.0148 1513.62 53.0514 1496.55C62.4902 1481.97 72.2577 1466.88 78.4332 1450.77C92.8125 1413.26 81.1188 1389.53 64.9265 1356.67C63.0455 1352.85 61.1078 1348.92 59.1588 1344.85C36.0997 1296.81 32.1566 1257.67 45.9921 1213.97L46.9099 1211.1C57.6859 1177.06 68.8357 1141.86 74.7845 1106C79.8837 1075.25 84.0424 1042.71 74.1389 1012.84C70.139 1000.77 65.0398 990.148 60.1107 979.882C51.4989 961.922 43.3518 944.947 41.1763 921.707L40.9043 918.818L43.8052 918.614C84.2463 915.815 126.5 904.971 167.361 894.478C246.328 874.218 327.981 853.266 404.592 886.841C414.031 890.977 423.481 895.623 432.625 900.11C460.058 913.583 488.431 927.52 519.774 929.344C557.654 931.565 594.118 916.823 629.381 902.58C632.712 901.232 636.032 899.894 639.341 898.569C643.545 896.892 647.794 895.158 652.089 893.402C682.536 880.971 716.665 867.034 750.727 867.034L750.704 867ZM953.85 955.451C928.004 955.451 902.611 947.304 875.62 930.817C867.019 925.56 858.34 919.679 849.943 913.991C822.488 895.385 794.103 876.133 760.88 873.119C724.688 869.821 688.847 884.461 654.196 898.614C649.879 900.37 645.618 902.115 641.403 903.804C638.106 905.118 634.797 906.455 631.466 907.804C595.625 922.285 558.56 937.265 519.411 934.976C486.924 933.072 458.041 918.886 430.098 905.164C421.011 900.699 411.617 896.087 402.291 891.997C327.471 859.204 246.782 879.906 168.743 899.928C128.608 910.228 87.1471 920.868 47.1024 924.007C49.5726 944.811 57.1759 960.653 65.1984 977.389C70.2068 987.814 75.374 998.601 79.4872 1011.02C89.7987 1042.11 85.5608 1075.43 80.3484 1106.88C74.3315 1143.14 63.1249 1178.54 52.2809 1212.77L51.363 1215.65C38.0035 1257.85 41.856 1295.74 64.2351 1342.37C66.1841 1346.42 68.1105 1350.33 69.9801 1354.13C86.1725 1386.99 98.9656 1412.94 83.7024 1452.77C77.3116 1469.44 67.3853 1484.77 57.7877 1499.6C46.9664 1516.32 35.7714 1533.6 30.1964 1552.29C12.8822 1610.22 49.4481 1694.19 61.074 1718.54C68.5979 1734.33 78.5693 1749.24 88.2235 1763.67C104.767 1788.42 121.854 1814 127.135 1844.72C156.993 1846.06 186.715 1850.73 215.473 1855.24C280.039 1865.38 341.023 1874.96 403.81 1850.27C411.583 1847.21 419.424 1843.87 426.993 1840.62C450.993 1830.37 475.82 1819.75 502.799 1816.64C542.334 1812.06 582.719 1820.9 621.766 1829.44C627.454 1830.69 633.109 1831.92 638.718 1833.11C643.896 1834.21 649.108 1835.33 654.343 1836.48C693.425 1844.96 733.821 1853.72 773.299 1849.94C801.559 1847.22 828.788 1837.64 855.11 1828.39C863.677 1825.37 872.538 1822.26 881.319 1819.41C956.899 1794.96 1037.42 1804.27 1115.29 1813.28C1149.27 1817.21 1184.36 1821.27 1218.29 1822.37C1213.82 1799.29 1203.32 1777.8 1193.14 1757C1181.74 1733.68 1169.96 1709.58 1166.46 1682.98C1161.57 1645.83 1182.54 1616.91 1202.82 1588.96C1207.58 1582.4 1212.5 1575.61 1216.91 1568.92C1233.9 1543.15 1250.64 1515.28 1252.19 1483.01C1253.8 1449.54 1235.91 1419.47 1218.6 1390.37C1216.06 1386.07 1213.42 1381.64 1210.92 1377.32C1185.42 1333.14 1168.44 1297.78 1182.42 1244.76C1188.41 1222.09 1199.56 1204.01 1210.36 1186.54C1216.29 1176.93 1222.42 1166.98 1227.77 1156.23C1251.61 1108.24 1232.89 1029.6 1214.48 988.459C1207.67 973.219 1197.55 959.837 1187.77 946.896C1173.76 928.347 1159.29 909.186 1154.67 884.552C1118.63 889.107 1088.59 904.54 1056.83 920.846C1041.67 928.63 1025.99 936.687 1009.58 943.463C990.314 951.418 971.958 955.429 953.828 955.429L953.85 955.451Z" fill="url(#paint23_linear_1239_4158)"/>
<path d="M164.506 900.835C168.018 922.625 176.732 939.894 185.967 958.182C190.375 966.919 194.93 975.95 198.986 985.672C213.989 1021.63 203.372 1054.41 192.131 1089.1C191.111 1092.24 190.091 1095.4 189.083 1098.58C177.74 1134.29 162.319 1165.8 145.979 1199.16C143.373 1204.49 140.744 1209.85 138.126 1215.25C118.093 1256.58 120.767 1306.67 145.662 1356.29C149.628 1364.21 154.432 1372.03 159.52 1380.33C174.908 1405.39 190.805 1431.32 183.882 1461.19C179.055 1481.99 169.808 1501.59 160.868 1520.56C152.483 1538.36 143.803 1556.75 138.931 1575.93C121.277 1645.39 147.565 1701.06 175.395 1760C189.842 1790.61 204.788 1822.26 213.264 1856.23L207.768 1857.6C199.428 1824.16 184.607 1792.77 170.273 1762.42C142.002 1702.53 115.294 1645.97 133.447 1574.53C138.455 1554.84 147.248 1536.19 155.758 1518.15C164.573 1499.45 173.684 1480.13 178.375 1459.92C184.777 1432.32 169.491 1407.4 154.704 1383.31C149.786 1375.29 144.687 1366.99 140.608 1358.85C114.909 1307.61 112.223 1255.75 133.039 1212.8C135.656 1207.39 138.285 1202.02 140.903 1196.69C157.14 1163.53 172.471 1132.2 183.689 1096.88C184.698 1093.69 185.729 1090.53 186.749 1087.37C197.661 1053.69 207.961 1021.9 193.763 987.87C189.785 978.341 185.276 969.4 180.913 960.755C171.486 942.069 162.579 924.427 158.919 901.764L164.517 900.858L164.506 900.835Z" fill="url(#paint24_linear_1239_4158)"/>
<path d="M293.16 873.243C293.772 893.13 299.472 910.546 305.512 928.97C308.095 936.857 310.769 945.004 313.013 953.389C322.225 987.746 315.222 1021.64 308.446 1054.43C307.653 1058.25 306.871 1062.08 306.101 1065.91C297.829 1107.19 287.144 1154.8 264.9 1197.38C231.722 1260.9 224.924 1316.56 244.108 1367.53C248.391 1378.91 254.158 1389.94 259.733 1400.59C271.733 1423.5 284.13 1447.2 281.999 1475.28C280.617 1493.52 277.727 1511.95 274.94 1529.78C272.232 1547.12 269.421 1565.07 268.005 1582.77C262.668 1649.6 273.852 1715.48 284.673 1779.19C289.659 1808.52 294.803 1838.87 298.373 1869.23L292.741 1869.88C289.195 1839.67 284.061 1809.41 279.087 1780.13C268.209 1716.08 256.968 1649.85 262.362 1582.31C263.79 1564.39 266.611 1546.34 269.342 1528.89C272.107 1511.18 274.974 1492.86 276.345 1474.84C278.362 1448.37 266.872 1426.42 254.714 1403.19C249.059 1392.38 243.212 1381.21 238.804 1369.51C219.02 1316.93 225.91 1259.76 259.881 1194.73C281.773 1152.81 292.345 1105.67 300.548 1064.76C301.319 1060.91 302.112 1057.08 302.905 1053.25C309.851 1019.63 316.412 987.881 307.551 954.828C305.342 946.59 302.69 938.511 300.141 930.704C294.248 912.71 288.141 894.093 287.517 873.391L293.183 873.221L293.16 873.243Z" fill="url(#paint25_linear_1239_4158)"/>
<path d="M384.456 880.02C387.753 907.475 395.969 933.673 403.923 959.01C408.467 973.48 413.158 988.448 416.965 1003.65C426.03 1039.9 420.557 1072.42 414.767 1106.86C413.894 1112.02 413.022 1117.23 412.183 1122.52C407.277 1153.41 401.713 1188.42 387.379 1221.47C365.012 1273.04 361.816 1316.03 377.306 1356.79C381.465 1367.75 387.345 1378.11 393.034 1388.12C403.436 1406.47 414.189 1425.43 414.438 1448.27C414.676 1470.46 412.693 1493.44 410.79 1515.67C409.747 1527.78 408.671 1540.3 407.991 1552.39C404.886 1607.12 399.923 1662.63 395.119 1716.32C390.847 1764.08 386.428 1813.46 383.334 1862.1L377.68 1861.73C380.773 1813.02 385.193 1763.61 389.476 1715.81C394.28 1662.17 399.243 1606.7 402.337 1552.06C403.028 1539.88 404.104 1527.33 405.147 1515.17C407.05 1493.07 409.011 1470.22 408.773 1448.31C408.546 1426.93 398.62 1409.43 388.105 1390.9C382.314 1380.69 376.331 1370.14 372.014 1358.79C355.958 1316.57 359.199 1272.22 382.19 1219.2C396.24 1186.8 401.747 1152.16 406.597 1121.6C407.436 1116.3 408.32 1111.06 409.192 1105.9C414.88 1072.06 420.263 1040.11 411.481 1005C407.719 989.955 403.051 975.077 398.529 960.687C390.496 935.112 382.201 908.653 378.836 880.677L384.456 879.997V880.02Z" fill="url(#paint26_linear_1239_4158)"/>
<path d="M463.797 916.325C468.636 948.301 479.797 978.726 490.584 1008.15C499.604 1032.75 508.941 1058.2 514.652 1084.63C520.941 1113.74 515.32 1139.61 509.371 1166.98C506.822 1178.72 504.182 1190.87 502.595 1203.25C501.156 1214.45 499.513 1226.05 497.938 1237.27C490.437 1290.43 482.686 1345.38 489.134 1396.92C490.675 1409.21 493.168 1421.68 495.581 1433.73C499.06 1451.1 502.663 1469.06 503.536 1487.08C504.68 1510.84 503.887 1535.59 503.128 1559.52C502.686 1573.38 502.233 1587.7 502.165 1601.52L502.142 1605.97C502.006 1639.11 501.859 1673.39 493.327 1706.32C489.225 1722.16 484.125 1737.68 479.196 1752.71C470.857 1778.12 462.222 1804.4 458.574 1832.06L452.953 1831.32C456.681 1803.14 465.384 1776.6 473.814 1750.94C478.72 1736 483.786 1720.56 487.842 1704.9C496.193 1672.66 496.341 1638.75 496.477 1605.96L496.499 1601.5C496.567 1587.6 497.02 1573.23 497.462 1559.34C498.222 1535.52 499.015 1510.9 497.882 1487.35C497.032 1469.75 493.474 1452.01 490.04 1434.84C487.604 1422.68 485.077 1410.12 483.525 1397.62C476.998 1345.34 484.794 1289.99 492.341 1236.49C493.916 1225.29 495.559 1213.71 496.987 1202.54C498.607 1189.92 501.27 1177.66 503.853 1165.79C509.666 1139.03 515.162 1113.74 509.134 1085.83C503.513 1059.79 494.244 1034.53 485.293 1010.11C474.403 980.425 463.14 949.729 458.222 917.186L463.82 916.336L463.797 916.325Z" fill="url(#paint27_linear_1239_4158)"/>
<path d="M548.713 930.692C553.517 963.213 565.075 994.136 576.248 1024.03C585.29 1048.24 594.65 1073.27 600.497 1099.23C607.409 1129.93 601.313 1155.38 594.854 1182.33C590.809 1199.19 586.639 1216.62 585.959 1235.51C585.506 1248.45 587.443 1261.47 589.313 1274.07C590.661 1283.16 592.066 1292.56 592.588 1301.97C594.423 1334.78 591.5 1368.36 588.667 1400.85C588.304 1405 587.942 1409.12 587.602 1413.24C581.97 1479.66 577.687 1551.41 584.372 1626.1C584.803 1630.92 585.302 1635.73 585.823 1640.82C588.848 1670.04 591.964 1700.28 582.072 1727.54C577.12 1741.19 570.378 1752.72 563.863 1763.87C553.891 1780.92 544.464 1797.02 541.812 1819.48L536.181 1818.81C538.979 1795.19 549.144 1777.8 558.968 1761C565.359 1750.08 571.965 1738.78 576.747 1725.6C586.197 1699.56 583.137 1669.99 580.18 1641.4C579.67 1636.52 579.149 1631.46 578.718 1626.6C571.999 1551.47 576.293 1479.42 581.948 1412.76C582.299 1408.63 582.661 1404.5 583.013 1400.35C585.823 1368.07 588.724 1334.68 586.911 1302.28C586.401 1293.12 585.018 1283.85 583.681 1274.9C581.766 1262.05 579.795 1248.76 580.271 1235.31C580.962 1215.87 585.211 1198.14 589.313 1181.01C595.613 1154.72 601.562 1129.9 594.933 1100.49C589.166 1074.9 579.885 1050.06 570.911 1026.02C559.636 995.847 547.976 964.652 543.081 931.531L548.69 930.704L548.713 930.692Z" fill="url(#paint28_linear_1239_4158)"/>
<path d="M643.182 900.971C645.188 929.367 651.261 957.502 657.142 984.709C662.071 1007.5 667.159 1031.05 669.878 1054.8C672.213 1075.17 670.252 1095.37 668.349 1114.9C666.468 1134.28 664.519 1154.31 666.853 1174.25C668.825 1191.12 673.006 1207.98 677.051 1224.28C681.912 1243.91 686.943 1264.19 688.269 1284.9C690.603 1321.6 685.572 1359.3 680.938 1388.03C676.858 1413.3 669.912 1436.02 662.57 1460.08C659.805 1469.14 656.938 1478.52 654.275 1487.96C643.363 1526.59 653.12 1566.03 662.558 1604.2L663.76 1609.06C672.768 1645.61 682.082 1683.43 671.465 1725.54C667.861 1739.83 663.125 1753.41 658.547 1766.55C650.559 1789.45 643.023 1811.08 640.972 1836.14L635.329 1835.67C637.437 1809.91 645.448 1786.91 653.199 1764.68C657.743 1751.66 662.434 1738.2 665.969 1724.16C676.247 1683.4 667.102 1646.29 658.264 1610.41L657.063 1605.55C647.443 1566.68 637.505 1526.49 648.825 1486.42C651.511 1476.93 654.377 1467.52 657.153 1458.42C664.439 1434.56 671.329 1412.01 675.351 1387.13C679.94 1358.67 684.926 1321.39 682.626 1285.25C681.346 1265.05 676.371 1245.01 671.567 1225.63C667.488 1209.16 663.261 1192.13 661.244 1174.89C658.842 1154.36 660.813 1134.02 662.728 1114.35C664.598 1095.1 666.524 1075.2 664.258 1055.44C661.573 1031.97 656.508 1008.55 651.612 985.887C645.686 958.488 639.567 930.16 637.539 901.356L643.193 900.96L643.182 900.971Z" fill="url(#paint29_linear_1239_4158)"/>
<path d="M731.985 871.193L737.65 871.272C737.412 888.359 736.834 906.104 736.279 923.26C734.058 991.157 731.758 1061.36 748.664 1125.43C750.93 1134 753.242 1142.53 755.474 1150.79C775.61 1225.06 792.992 1289.2 773.536 1367.4C767.066 1393.43 755.588 1413.55 743.44 1434.85C737.707 1444.9 731.792 1455.3 726.353 1466.47C706.059 1508.2 724.381 1556.18 740.54 1598.5C741.571 1601.21 742.591 1603.88 743.588 1606.52C759.191 1647.8 767.927 1685.18 759.848 1733.39C757.627 1746.67 754.885 1759.89 752.245 1772.68C746.885 1798.63 741.333 1825.45 740.086 1852.9L734.421 1852.64C735.69 1824.75 741.276 1797.69 746.693 1771.54C749.333 1758.79 752.052 1745.61 754.262 1732.45C762.16 1685.33 754.012 1650.1 738.296 1608.52C737.299 1605.89 736.279 1603.21 735.248 1600.52C719.498 1559.26 699.894 1507.93 721.265 1463.99C726.783 1452.64 732.755 1442.17 738.523 1432.04C750.466 1411.09 761.752 1391.3 768.041 1366.03C787.134 1289.26 769.933 1225.77 750.001 1152.26C747.758 1144 745.446 1135.46 743.18 1126.87C726.058 1062 728.37 991.372 730.602 923.067C731.169 905.935 731.747 888.224 731.973 871.193H731.985Z" fill="url(#paint30_linear_1239_4158)"/>
<path d="M822.511 891.339C822.975 971.383 823.565 1071.01 843.156 1159.04C858.465 1227.82 874.294 1298.93 857.808 1374.28C853.638 1393.31 846.828 1411.53 840.233 1429.14C835.428 1441.97 830.477 1455.24 826.613 1468.63C814.443 1510.85 834.035 1549.67 852.969 1587.22L854.635 1590.52C878.725 1638.37 891.484 1667.86 873.467 1717.39C868.255 1731.71 862.306 1745.86 856.55 1759.56C845.423 1786.04 833.91 1813.43 827.7 1842.35L822.16 1841.16C828.482 1811.72 840.097 1784.08 851.326 1757.36C857.06 1743.73 862.986 1729.63 868.142 1715.45C885.399 1668.02 873.649 1640.87 849.581 1593.07L847.915 1589.77C828.482 1551.25 808.392 1511.42 821.174 1467.07C825.094 1453.46 830.103 1440.09 834.93 1427.16C841.445 1409.73 848.187 1391.7 852.278 1373.06C868.504 1298.95 852.811 1228.45 837.638 1160.27C817.91 1071.65 817.321 971.7 816.856 891.384L822.522 891.35L822.511 891.339Z" fill="url(#paint31_linear_1239_4158)"/>
<path d="M901.625 940.347C904.537 976.55 911.8 1012.56 918.837 1047.39C922.701 1066.52 926.69 1086.3 929.942 1105.99C935.302 1138.46 935.449 1169.12 935.607 1201.6C935.63 1205.2 935.641 1208.82 935.664 1212.44C935.732 1222.14 935.981 1232.11 936.219 1241.76C937.296 1285.59 938.418 1330.91 923.778 1373.12C921.999 1378.24 920.027 1383.49 918.123 1388.56C911.245 1406.86 904.141 1425.79 903.54 1444.98C902.611 1475.09 920.435 1499.57 937.681 1523.23C940.219 1526.7 942.848 1530.31 945.352 1533.85C969.397 1567.85 979.958 1595.05 966.916 1641.39C960.344 1664.74 951.766 1687.61 943.471 1709.73C930.894 1743.27 917.897 1777.94 911.948 1814.37L906.361 1813.46C912.39 1776.49 925.5 1741.54 938.168 1707.74C946.417 1685.74 954.95 1662.98 961.454 1639.86C973.884 1595.71 963.754 1569.69 940.718 1537.14C938.236 1533.63 935.619 1530.05 933.092 1526.58C915.279 1502.14 896.866 1476.87 897.863 1444.82C898.486 1424.7 905.761 1405.32 912.798 1386.59C914.69 1381.55 916.65 1376.33 918.407 1371.28C932.707 1330.05 931.608 1285.25 930.531 1241.93C930.293 1232.26 930.044 1222.27 929.976 1212.51C929.953 1208.87 929.93 1205.25 929.919 1201.66C929.761 1169.42 929.613 1138.97 924.322 1106.95C921.092 1087.37 917.104 1067.64 913.251 1048.56C906.192 1013.57 898.883 977.389 895.948 940.845L901.591 940.392L901.625 940.347Z" fill="url(#paint32_linear_1239_4158)"/>
<path d="M987.323 949.14C989.997 985.479 999.946 1022.03 1009.55 1057.39C1024.14 1111 1039.22 1166.43 1029.74 1223.07C1027.37 1237.25 1025.14 1251.79 1022.97 1265.86C1017.69 1300.26 1012.23 1335.84 1004.16 1369.99L1003.02 1374.82C997.77 1396.81 992.354 1419.54 995.697 1441.72C999.119 1464.36 1011.39 1482.49 1024.38 1501.68C1029.01 1508.54 1033.81 1515.62 1038.09 1522.85C1061.71 1562.71 1056.07 1590.92 1044.92 1633.65C1040.81 1649.42 1036.3 1665.3 1031.93 1680.65C1020.25 1721.79 1008.17 1764.34 1002.81 1807.81L997.192 1807.12C1002.6 1763.21 1014.74 1720.45 1026.48 1679.1C1030.83 1663.77 1035.33 1647.91 1039.45 1632.21C1050.23 1590.91 1055.71 1563.67 1033.23 1525.74C1029.03 1518.66 1024.29 1511.65 1019.7 1504.87C1006.93 1485.99 993.714 1466.48 990.11 1442.57C986.598 1419.32 992.15 1396.03 997.521 1373.52L998.666 1368.7C1006.68 1334.76 1012.13 1299.31 1017.4 1265.01C1019.56 1250.92 1021.79 1236.36 1024.17 1222.14C1033.45 1166.71 1018.53 1111.89 1004.12 1058.87C994.428 1023.26 984.411 986.442 981.703 949.559L987.357 949.14H987.323Z" fill="url(#paint33_linear_1239_4158)"/>
<path d="M1073.17 909.469C1077.1 939.973 1091 970.544 1105.72 1002.92C1131.49 1059.59 1158.13 1118.17 1127.63 1177.03C1122.25 1187.41 1115.91 1196.39 1109.77 1205.06C1099.13 1220.11 1089.08 1234.32 1084.51 1254.66C1076.35 1291.05 1089.96 1325.88 1103.11 1359.57L1104.52 1363.22C1131.23 1431.76 1138.71 1491.38 1128.77 1556.52C1126.44 1571.79 1122.2 1586.63 1118.1 1600.99C1112.91 1619.14 1107.54 1637.92 1106.19 1657.33C1103.79 1691.92 1107.83 1727.26 1111.74 1761.43C1113.85 1779.88 1116.04 1798.96 1117.18 1817.69L1111.53 1818.03C1110.39 1799.45 1108.22 1780.44 1106.11 1762.06C1102.17 1727.64 1098.09 1692.05 1100.53 1656.93C1101.93 1636.93 1107.38 1617.86 1112.65 1599.43C1116.7 1585.24 1120.9 1570.57 1123.17 1555.66C1132.95 1491.54 1125.58 1432.82 1099.25 1365.26L1097.84 1361.62C1084.38 1327.14 1070.45 1291.49 1078.98 1253.41C1083.79 1231.96 1094.64 1216.61 1105.13 1201.76C1111.16 1193.24 1117.38 1184.43 1122.58 1174.39C1151.82 1117.97 1125.76 1060.65 1100.56 1005.23C1086.31 973.91 1071.58 941.513 1067.55 910.16L1073.17 909.435V909.469Z" fill="url(#paint34_linear_1239_4158)"/>
<path d="M997.963 1710.41C1011.61 1710.41 1025.96 1711.94 1041.6 1714.89C1058.54 1718.1 1075.46 1722.04 1091.83 1725.86C1124.48 1733.48 1158.23 1741.34 1192.71 1743.39L1192.37 1749.05C1157.4 1746.97 1123.41 1739.04 1090.54 1731.38C1074.23 1727.57 1057.37 1723.64 1040.55 1720.46C989.691 1710.83 952.808 1716.8 909.001 1741.76C906.237 1743.33 903.46 1744.93 900.684 1746.52C865.841 1766.52 829.807 1787.21 787.791 1787.58C759.066 1787.83 729.435 1783.8 700.801 1779.88C684.734 1777.68 668.122 1775.41 652.066 1773.97C570.991 1766.71 491.989 1760.23 416.535 1760.67C385.306 1760.85 355.844 1769.05 327.346 1776.98C304.65 1783.29 281.172 1789.82 256.685 1792.41C226.918 1795.55 196.98 1792.75 168.018 1790.04C144.936 1787.88 121.084 1785.66 97.5715 1786.47L97.3788 1780.81C121.242 1779.97 145.299 1782.22 168.55 1784.4C197.23 1787.08 226.895 1789.86 256.095 1786.77C280.118 1784.23 303.358 1777.77 325.839 1771.52C354.689 1763.49 384.524 1755.2 416.512 1755.01C492.182 1754.56 571.365 1761.06 652.587 1768.33C668.779 1769.78 685.459 1772.06 701.583 1774.27C730.024 1778.16 759.429 1782.17 787.757 1781.92C828.289 1781.55 863.676 1761.24 897.885 1741.6C900.662 1740 903.449 1738.41 906.214 1736.83C937.839 1718.81 965.964 1710.41 997.974 1710.41H997.963Z" fill="url(#paint35_linear_1239_4158)"/>
<path d="M1025.32 1608.11C1038.29 1608.11 1052.12 1611 1067.29 1617.44C1078.72 1622.31 1089.45 1628.3 1099.83 1634.1C1121.77 1646.35 1142.49 1657.92 1168.77 1659.14L1168.51 1664.8C1140.9 1663.52 1118.62 1651.08 1097.07 1639.04C1086.82 1633.32 1076.23 1627.41 1065.07 1622.66C1018.91 1603.03 985.635 1618.46 949.84 1647.68C946.916 1650.07 943.993 1652.46 941.081 1654.87C900.118 1688.56 857.762 1723.4 799.712 1720C786.466 1719.22 773.435 1718.07 760.835 1716.93C730.954 1714.26 702.739 1711.74 672.009 1713.99C660.61 1714.81 648.995 1716.3 636.701 1717.86C607.5 1721.58 577.303 1725.43 549.462 1720.22C523.071 1715.28 499.695 1701.26 477.089 1687.7C458.948 1676.82 440.183 1665.57 420.161 1659.26C375.063 1645.05 337.126 1661.29 296.968 1678.46C274.475 1688.1 251.212 1698.04 226.238 1702.51C190.794 1708.84 155.418 1705.56 121.198 1702.37C97.4133 1700.16 72.8132 1697.87 48.451 1698.86L48.2245 1693.19C72.9606 1692.2 97.7422 1694.5 121.719 1696.73C155.565 1699.88 190.556 1703.13 225.241 1696.93C249.569 1692.58 272.526 1682.76 294.736 1673.26C334.078 1656.42 374.757 1639.02 421.861 1653.85C442.518 1660.36 461.565 1671.79 480.001 1682.84C502.177 1696.14 525.111 1709.9 550.504 1714.64C577.461 1719.7 607.206 1715.9 635.976 1712.24C648.349 1710.67 660.043 1709.17 671.59 1708.33C702.773 1706.06 731.215 1708.59 761.333 1711.29C773.888 1712.41 786.885 1713.57 800.041 1714.35C855.87 1717.64 897.353 1683.51 937.477 1650.5C940.401 1648.1 943.324 1645.68 946.259 1643.29C972.015 1622.27 996.581 1608.11 1025.32 1608.11Z" fill="url(#paint36_linear_1239_4158)"/>
<path d="M1021.5 1535.85C1033.49 1535.85 1046.35 1537.72 1060.52 1541.75C1079.47 1547.16 1097.5 1554.42 1114.93 1561.45C1144.74 1573.46 1172.88 1584.81 1205.55 1587.83L1205.03 1593.47C1171.53 1590.38 1141.68 1578.34 1112.82 1566.7C1095.51 1559.72 1077.63 1552.52 1058.97 1547.2C1007.88 1532.64 974.337 1547.71 936.774 1576.74C885.443 1616.43 841.24 1646.15 779.315 1638.12C737.163 1632.66 706.625 1629.64 667.623 1636.98C660.054 1638.41 652.326 1640.12 644.145 1641.92C614.083 1648.56 580.01 1656.1 549.925 1649.01C524.317 1642.99 502.98 1626.97 482.346 1611.51C463.91 1597.68 444.851 1583.4 422.959 1576.45C383.447 1563.93 346.145 1576.97 306.667 1590.78C280.027 1600.1 252.481 1609.73 224.198 1610.76C180.731 1612.35 138.998 1601.32 98.6589 1590.67C74.1948 1584.21 48.9034 1577.53 23.5101 1573.73L24.3486 1568.12C50.0592 1571.96 75.5093 1578.68 100.109 1585.19C140.052 1595.73 181.354 1606.64 223.994 1605.09C251.416 1604.1 278.554 1594.61 304.797 1585.43C343.425 1571.93 383.356 1557.96 424.67 1571.06C447.48 1578.28 466.935 1592.87 485.745 1606.98C506.844 1622.79 526.764 1637.74 551.229 1643.51C580.055 1650.29 612.021 1643.24 642.932 1636.4C651.159 1634.59 658.932 1632.87 666.581 1631.43C706.308 1623.94 738.67 1627.16 780.04 1632.52C839.812 1640.27 883.03 1611.15 933.306 1572.28C961.918 1550.16 988.331 1535.86 1021.5 1535.86V1535.85Z" fill="url(#paint37_linear_1239_4158)"/>
<path d="M979.878 1480.04C996.637 1480.04 1014.31 1481.95 1033.83 1485.66C1058.36 1490.33 1082.98 1496.3 1106.8 1502.09C1151.03 1512.82 1196.76 1523.93 1243.15 1526.89L1242.79 1532.54C1195.9 1529.56 1149.93 1518.4 1105.46 1507.6C1081.71 1501.83 1057.17 1495.88 1032.77 1491.24C976.819 1480.59 936.378 1485.11 888.56 1507.35C834.725 1532.39 793.332 1545.11 741.061 1535.96C705.436 1529.73 682.139 1532.68 648.723 1547.64C644.837 1549.39 640.984 1551.17 636.916 1553.06C609.789 1565.65 579.047 1579.92 547.603 1573.33C523.241 1568.23 503.513 1552.39 484.432 1537.08C468.205 1524.06 451.435 1510.6 432.002 1503.96C391.821 1490.23 354.621 1502.93 315.245 1516.38C289.466 1525.19 262.815 1534.28 235.303 1535.24C200.55 1536.44 166.024 1530.34 132.631 1524.44C105.617 1519.67 77.6743 1514.73 49.8901 1513.73L50.094 1508.06C78.2748 1509.07 106.41 1514.05 133.617 1518.85C166.715 1524.7 200.947 1530.75 235.099 1529.57C261.773 1528.65 288.027 1519.69 313.409 1511.01C340.253 1501.84 367.754 1492.46 396.161 1492.45C408.535 1492.45 421.079 1494.23 433.826 1498.59C454.2 1505.55 471.367 1519.33 487.967 1532.65C507.377 1548.23 525.723 1562.95 548.759 1567.78C578.356 1573.99 606.911 1560.73 634.525 1547.92C638.435 1546.1 642.48 1544.22 646.4 1542.47C681.006 1526.96 705.13 1523.92 742.036 1530.36C792.834 1539.26 833.343 1526.77 886.169 1502.21C918.475 1487.18 947.471 1480.04 979.89 1480.04H979.878Z" fill="url(#paint38_linear_1239_4158)"/>
<path d="M973.816 1414.97C1029.33 1414.97 1086.17 1426.52 1141.8 1437.84C1180.72 1445.77 1217.49 1453.23 1253.9 1457.06L1253.31 1462.69C1216.63 1458.84 1178.02 1450.99 1140.67 1443.4C1054.37 1425.85 965.136 1407.7 883.302 1433.53C849.501 1444.2 812.47 1453.12 770.76 1446.25C726.931 1439.03 697.549 1447.86 661.606 1465.55C657.765 1467.44 653.856 1469.41 649.878 1471.42C617.154 1487.95 580.067 1506.68 542.47 1497.55C520.125 1492.12 501.87 1477.79 484.216 1463.92C468.363 1451.46 451.967 1438.59 432.749 1432.35C397.124 1420.77 363.878 1429.35 328.672 1438.41C301.692 1445.37 273.795 1452.55 244.775 1449.82C219.28 1447.42 194.023 1441.82 169.593 1436.42C143.576 1430.65 116.676 1424.69 89.6055 1422.65L90.0359 1417C117.514 1419.07 144.619 1425.07 170.828 1430.89C195.088 1436.27 220.164 1441.82 245.319 1444.19C273.353 1446.83 300.774 1439.76 327.278 1432.94C361.725 1424.07 397.339 1414.89 434.528 1426.97C454.698 1433.53 471.491 1446.71 487.74 1459.46C505.711 1473.57 522.685 1486.9 543.829 1492.04C579.409 1500.69 615.499 1482.46 647.352 1466.37C651.34 1464.35 655.261 1462.37 659.125 1460.46C696.099 1442.26 726.376 1433.19 771.701 1440.65C812.244 1447.34 848.492 1438.58 881.625 1428.12C911.63 1418.65 942.53 1414.97 973.839 1414.97H973.816Z" fill="url(#paint39_linear_1239_4158)"/>
<path d="M62.0139 1340.89C83.1127 1343.61 104.325 1347.57 124.834 1351.4C150.681 1356.21 177.4 1361.2 203.994 1363.72C232.606 1366.42 261.41 1363.02 289.285 1359.74C326.462 1355.35 364.909 1350.83 402.892 1360.89C423.152 1366.27 442.766 1375.26 461.735 1383.98C488.601 1396.3 516.385 1409.05 545.948 1411.31C589.778 1414.66 631.771 1400.38 672.382 1386.58L677.289 1384.92C719.566 1370.58 756.743 1361.96 800.811 1366.48C838.136 1370.31 869.772 1371.53 900.378 1370.32C923.664 1369.4 947.539 1367.93 970.632 1366.5C1051.02 1361.54 1134.14 1356.4 1213.98 1373.15L1212.81 1378.7C1133.72 1362.1 1050.99 1367.21 970.983 1372.15C947.867 1373.57 923.958 1375.05 900.605 1375.96C869.727 1377.18 837.83 1375.95 800.233 1372.09C757.185 1367.68 720.676 1376.16 679.113 1390.25L674.207 1391.92C633.052 1405.9 590.503 1420.36 545.518 1416.93C514.946 1414.59 486.697 1401.63 459.378 1389.1C440.625 1380.5 421.237 1371.59 401.441 1366.34C364.501 1356.55 328.298 1360.83 289.953 1365.34C261.795 1368.66 232.674 1372.08 203.473 1369.32C176.63 1366.79 149.774 1361.78 123.803 1356.94C103.362 1353.13 82.229 1349.19 61.2888 1346.49L62.0139 1340.87V1340.89Z" fill="url(#paint40_linear_1239_4158)"/>
<path d="M268.118 1244.49C312.514 1244.49 355.357 1247.82 397.997 1265.43C413.974 1272.02 430.076 1280.07 445.656 1287.83C479.582 1304.76 514.663 1322.26 551.943 1326.96C591.965 1332 632.678 1320.92 672.043 1310.21C676.349 1309.04 680.621 1307.88 684.87 1306.74L690.535 1305.22C729.198 1294.86 769.186 1284.14 810.114 1287.15C837.309 1289.15 863.461 1296.82 888.764 1304.23C896.118 1306.38 903.71 1308.61 911.223 1310.66C948.332 1320.82 988.116 1327.71 1027.49 1309.51C1082.12 1284.27 1116.1 1270.89 1179.07 1289.58L1177.46 1295C1116.32 1276.87 1084.81 1289.27 1029.87 1314.65C988.841 1333.61 947.879 1326.56 909.727 1316.13C902.169 1314.06 894.543 1311.82 887.166 1309.67C862.158 1302.33 836.289 1294.75 809.695 1292.81C769.729 1289.87 730.217 1300.45 692.008 1310.7L686.343 1312.22C682.105 1313.35 677.833 1314.52 673.539 1315.68C633.641 1326.54 592.373 1337.77 551.241 1332.59C512.998 1327.77 477.485 1310.05 443.129 1292.91C427.639 1285.18 411.628 1277.19 395.844 1270.66C341.488 1248.22 286.248 1249.45 227.756 1250.76C216.187 1251.02 204.21 1251.28 192.346 1251.34C185.706 1251.38 179.066 1251.42 172.426 1251.47C129.039 1251.75 84.167 1252.05 40.0092 1250.48L40.213 1244.82C84.2576 1246.38 129.061 1246.09 172.392 1245.8C179.032 1245.76 185.672 1245.71 192.312 1245.68C204.131 1245.61 216.074 1245.35 227.632 1245.09C241.297 1244.78 254.781 1244.48 268.13 1244.48L268.118 1244.49Z" fill="url(#paint41_linear_1239_4158)"/>
<path d="M294.928 1141.59C312.434 1141.59 329.919 1143.04 345.533 1147.5C369.85 1154.45 393.113 1170.38 413.634 1184.43C415.288 1185.57 416.931 1186.69 418.563 1187.8C428.818 1194.79 439.016 1202.49 449.803 1210.65C481.089 1234.3 513.439 1258.75 549.28 1266.88C588.565 1275.8 629.709 1256.49 666.003 1239.45C669.38 1237.86 672.722 1236.3 676.008 1234.78L681.232 1232.35C715.86 1216.3 751.576 1199.73 790.103 1199.73C793.128 1199.73 796.176 1199.83 799.236 1200.05C830.85 1202.25 859.065 1216.59 886.362 1230.47C895.019 1234.88 903.97 1239.42 912.831 1243.47C960.762 1265.37 997.748 1265.67 1036.48 1244.48C1046.95 1238.74 1056.78 1232.96 1066.29 1227.37C1109.97 1201.64 1147.71 1179.45 1207.76 1188.14L1206.94 1193.75C1148.87 1185.33 1113.69 1206.04 1069.17 1232.25C1059.63 1237.87 1049.76 1243.67 1039.21 1249.45C998.722 1271.59 960.23 1271.35 910.486 1248.62C901.523 1244.53 892.514 1239.96 883.812 1235.53C857.025 1221.91 829.32 1207.82 798.862 1205.7C758.262 1202.88 720.325 1220.48 683.634 1237.5L678.399 1239.92C675.125 1241.44 671.805 1242.99 668.428 1244.58C631.307 1262.01 589.234 1281.75 548.045 1272.41C511.014 1264 478.165 1239.17 446.404 1215.17C435.673 1207.06 425.532 1199.4 415.39 1192.48C413.758 1191.37 412.115 1190.25 410.461 1189.1C390.291 1175.29 367.436 1159.64 344.003 1152.94C313.194 1144.15 274.237 1147.49 242.94 1150.18L240.73 1150.37C217.966 1152.32 195.066 1155.87 172.924 1159.3C137.39 1164.81 100.642 1170.52 63.5326 1169.72L63.646 1164.06C100.257 1164.81 136.755 1159.16 172.052 1153.7C194.295 1150.26 217.286 1146.7 240.243 1144.73L242.453 1144.54C258.622 1143.15 276.798 1141.59 294.95 1141.59H294.928Z" fill="url(#paint42_linear_1239_4158)"/>
<path d="M306.281 1046.29C324.502 1046.29 343.652 1049.82 361.601 1060.75C385.09 1075.08 405.917 1094.81 426.041 1113.9C429.203 1116.89 432.33 1119.86 435.458 1122.79C442.71 1129.6 450.018 1136.98 457.746 1144.8C485.145 1172.48 516.193 1203.84 551.795 1214.35C590.22 1225.68 625.075 1192.41 653.085 1165.67C655.748 1163.13 658.332 1160.66 660.836 1158.31C663.238 1156.06 665.686 1153.74 668.19 1151.36C695.283 1125.59 728.993 1093.49 769.423 1097.99C807.417 1102.19 843.11 1130.37 874.611 1155.23C884.809 1163.28 894.429 1170.88 903.721 1177.38C952.649 1211.64 994.552 1227.75 1052.26 1202.3C1069.3 1194.79 1085.71 1185.96 1101.59 1177.43C1144.67 1154.28 1185.34 1132.42 1237.65 1134.55L1237.41 1140.22C1186.66 1138.13 1146.64 1159.65 1104.26 1182.43C1088.3 1191 1071.79 1199.88 1054.54 1207.49C994.609 1233.93 949.601 1216.43 900.469 1182.03C891.041 1175.44 881.353 1167.79 871.098 1159.69C840.198 1135.3 805.184 1107.65 768.8 1103.63C730.988 1099.45 698.331 1130.51 672.088 1155.47C669.572 1157.86 667.113 1160.2 664.7 1162.46C662.207 1164.8 659.635 1167.25 656.983 1169.78C629.448 1196.06 591.749 1232.06 550.175 1219.79C513.167 1208.87 481.576 1176.94 453.701 1148.78C446.007 1141.01 438.732 1133.67 431.56 1126.93C428.432 1123.99 425.282 1121.01 422.121 1118.01C402.2 1099.13 381.612 1079.61 358.62 1065.59C328.763 1047.38 296.095 1050.68 268.073 1056.31C245.557 1060.83 223.473 1067.43 202.113 1073.81C163.111 1085.45 122.761 1097.48 79.3734 1096.83L79.4641 1091.17C122.002 1091.81 160.131 1080.43 200.493 1068.38C221.966 1061.96 244.175 1055.34 266.951 1050.76C278.837 1048.37 292.265 1046.29 306.236 1046.29H306.281Z" fill="url(#paint43_linear_1239_4158)"/>
<path d="M305.897 970.081C324.299 970.081 342.474 974.5 360.876 983.395C385.567 995.327 408.524 1014.14 430.722 1032.32C435.062 1035.88 439.402 1039.44 443.776 1042.96C450.155 1048.11 456.478 1053.42 463.163 1059.04C495.593 1086.31 529.134 1114.5 568.884 1122.71C611.104 1131.43 638.571 1101.43 665.143 1072.41L666.502 1070.93C667.669 1069.65 668.859 1068.36 670.038 1067.05C694.241 1040.52 721.685 1010.42 761.605 1015.76C801.582 1021.09 838.239 1052.16 870.578 1079.59C881.048 1088.47 890.94 1096.85 900.515 1104.04C921.512 1119.81 945.307 1137.69 971.131 1144.83C999.709 1152.73 1027.2 1135.41 1049.29 1121.51C1068.75 1109.26 1087.53 1094.82 1105.69 1080.84C1142.22 1052.73 1180 1023.67 1225.77 1010.43L1227.34 1015.87C1182.61 1028.81 1145.26 1057.54 1109.15 1085.33C1090.88 1099.38 1072 1113.91 1052.32 1126.3C1029.28 1140.81 1000.62 1158.86 969.636 1150.29C942.781 1142.87 918.532 1124.65 897.127 1108.57C887.427 1101.29 877.467 1092.84 866.929 1083.9C835.179 1056.99 799.202 1026.49 760.869 1021.38C723.884 1016.45 697.516 1045.37 674.242 1070.88C673.052 1072.19 671.873 1073.48 670.695 1074.77L669.335 1076.25C641.698 1106.43 613.121 1137.64 567.751 1128.28C526.584 1119.78 490.959 1089.82 459.526 1063.39C452.863 1057.78 446.563 1052.49 440.229 1047.39C435.844 1043.86 431.493 1040.29 427.141 1036.73C381.805 999.576 338.973 964.495 278.566 979.123C256.436 984.483 234.782 991.724 213.831 998.726C171.577 1012.86 127.884 1027.5 80.0543 1026.32L80.1902 1020.65C127.045 1021.76 168.313 1007.97 212.029 993.355C233.094 986.307 254.861 979.021 277.229 973.616C286.883 971.282 296.424 970.104 305.897 970.104V970.081Z" fill="url(#paint44_linear_1239_4158)"/>
<path d="M304.049 924.063C345.001 924.063 379.708 939.723 420.943 965.116C427.821 969.354 434.88 973.932 441.713 978.362C472.941 998.611 505.247 1019.56 541.677 1023.4C582.288 1027.69 615.953 1006.18 648.496 985.388L652.236 983.008C654.287 981.705 656.349 980.379 658.411 979.053C687.532 960.357 717.538 941.105 752.245 941.105C756.868 941.105 761.571 941.445 766.375 942.181C801.955 947.586 832.357 970.918 861.761 993.478C872.832 1001.98 883.291 1010 893.874 1016.97C942.837 1049.24 978.927 1050.58 1027.03 1021.9C1043.07 1012.33 1058.6 1001.38 1073.6 990.781C1106.78 967.36 1141.09 943.133 1182.74 932.935L1184.09 938.442C1143.49 948.38 1111.13 971.223 1076.87 995.404C1061.78 1006.07 1046.17 1017.08 1029.93 1026.76C1003.95 1042.25 981.578 1048.98 959.55 1047.95C938.304 1046.96 916.446 1038.61 890.758 1021.68C880.016 1014.6 869.478 1006.51 858.317 997.954C829.479 975.824 799.666 952.946 765.525 947.756C726.806 941.875 693.595 963.19 661.482 983.801C659.408 985.127 657.346 986.453 655.284 987.767L651.556 990.147C618.185 1011.47 583.67 1033.51 541.087 1029.02C503.309 1025.04 470.426 1003.72 438.631 983.099C431.515 978.487 424.784 974.124 417.962 969.92C364.626 937.071 324.82 921.581 267.302 933.774C243.405 938.839 219.586 945.683 196.561 952.289C152.505 964.946 106.954 978.034 59.2153 979.065L59.0908 973.399C106.093 972.379 151.293 959.394 194.998 946.839C218.125 940.199 242.034 933.332 266.135 928.221C279.517 925.389 292.05 924.04 304.038 924.04L304.049 924.063Z" fill="url(#paint45_linear_1239_4158)"/>
<defs>
<linearGradient id="paint0_linear_1239_4158" x1="921.586" y1="1056.08" x2="1406.49" y2="643.258" gradientUnits="userSpaceOnUse">
<stop stop-color="#8824DC"/>
<stop offset="1" stop-color="#B1219D"/>
</linearGradient>
<linearGradient id="paint1_linear_1239_4158" x1="1114.78" y1="1019.79" x2="1178.06" y2="1015.49" gradientUnits="userSpaceOnUse">
<stop stop-color="#8824DC"/>
<stop offset="1" stop-color="#B1219D"/>
</linearGradient>
<linearGradient id="paint2_linear_1239_4158" x1="1007.28" y1="1049.46" x2="1067.58" y2="1045.71" gradientUnits="userSpaceOnUse">
<stop stop-color="#8824DC"/>
<stop offset="1" stop-color="#B1219D"/>
</linearGradient>
<linearGradient id="paint3_linear_1239_4158" x1="880.701" y1="1041.93" x2="920.998" y2="1040.24" gradientUnits="userSpaceOnUse">
<stop stop-color="#8824DC"/>
<stop offset="1" stop-color="#B1219D"/>
</linearGradient>
<linearGradient id="paint4_linear_1239_4158" x1="788.572" y1="1002.19" x2="832.016" y2="1000.08" gradientUnits="userSpaceOnUse">
<stop stop-color="#8824DC"/>
<stop offset="1" stop-color="#B1219D"/>
</linearGradient>
<linearGradient id="paint5_linear_1239_4158" x1="704.6" y1="986.438" x2="749.99" y2="984.061" gradientUnits="userSpaceOnUse">
<stop stop-color="#8824DC"/>
<stop offset="1" stop-color="#B1219D"/>
</linearGradient>
<linearGradient id="paint6_linear_1239_4158" x1="608.989" y1="1018.56" x2="645.096" y2="1017.13" gradientUnits="userSpaceOnUse">
<stop stop-color="#8824DC"/>
<stop offset="1" stop-color="#B1219D"/>
</linearGradient>
<linearGradient id="paint7_linear_1239_4158" x1="528.203" y1="1050.71" x2="575.485" y2="1048.38" gradientUnits="userSpaceOnUse">
<stop stop-color="#8824DC"/>
<stop offset="1" stop-color="#B1219D"/>
</linearGradient>
<linearGradient id="paint8_linear_1239_4158" x1="424.507" y1="1028.99" x2="468.383" y2="1026.92" gradientUnits="userSpaceOnUse">
<stop stop-color="#8824DC"/>
<stop offset="1" stop-color="#B1219D"/>
</linearGradient>
<linearGradient id="paint9_linear_1239_4158" x1="342.472" y1="976.025" x2="394.037" y2="972.903" gradientUnits="userSpaceOnUse">
<stop stop-color="#8824DC"/>
<stop offset="1" stop-color="#B1219D"/>
</linearGradient>
<linearGradient id="paint10_linear_1239_4158" x1="257.679" y1="966.442" x2="306.723" y2="963.568" gradientUnits="userSpaceOnUse">
<stop stop-color="#8824DC"/>
<stop offset="1" stop-color="#B1219D"/>
</linearGradient>
<linearGradient id="paint11_linear_1239_4158" x1="171.613" y1="1008.71" x2="221.252" y2="1005.93" gradientUnits="userSpaceOnUse">
<stop stop-color="#8824DC"/>
<stop offset="1" stop-color="#B1219D"/>
</linearGradient>
<linearGradient id="paint12_linear_1239_4158" x1="880.671" y1="165.318" x2="889.553" y2="84.7353" gradientUnits="userSpaceOnUse">
<stop stop-color="#8824DC"/>
<stop offset="1" stop-color="#B1219D"/>
</linearGradient>
<linearGradient id="paint13_linear_1239_4158" x1="923.381" y1="269.223" x2="939.634" y2="159.499" gradientUnits="userSpaceOnUse">
<stop stop-color="#8824DC"/>
<stop offset="1" stop-color="#B1219D"/>
</linearGradient>
<linearGradient id="paint14_linear_1239_4158" x1="932.379" y1="341.552" x2="948.184" y2="230.326" gradientUnits="userSpaceOnUse">
<stop stop-color="#8824DC"/>
<stop offset="1" stop-color="#B1219D"/>
</linearGradient>
<linearGradient id="paint15_linear_1239_4158" x1="903.132" y1="396.276" x2="913.69" y2="304.624" gradientUnits="userSpaceOnUse">
<stop stop-color="#8824DC"/>
<stop offset="1" stop-color="#B1219D"/>
</linearGradient>
<linearGradient id="paint16_linear_1239_4158" x1="870.819" y1="460.838" x2="879.505" y2="378.64" gradientUnits="userSpaceOnUse">
<stop stop-color="#8824DC"/>
<stop offset="1" stop-color="#B1219D"/>
</linearGradient>
<linearGradient id="paint17_linear_1239_4158" x1="902.101" y1="534.501" x2="909.236" y2="460.3" gradientUnits="userSpaceOnUse">
<stop stop-color="#8824DC"/>
<stop offset="1" stop-color="#B1219D"/>
</linearGradient>
<linearGradient id="paint18_linear_1239_4158" x1="926.864" y1="631.556" x2="936.676" y2="545.22" gradientUnits="userSpaceOnUse">
<stop stop-color="#8824DC"/>
<stop offset="1" stop-color="#B1219D"/>
</linearGradient>
<linearGradient id="paint19_linear_1239_4158" x1="902.02" y1="736.696" x2="923.376" y2="610.001" gradientUnits="userSpaceOnUse">
<stop stop-color="#8824DC"/>
<stop offset="1" stop-color="#B1219D"/>
</linearGradient>
<linearGradient id="paint20_linear_1239_4158" x1="882.588" y1="834.19" x2="918.696" y2="670.025" gradientUnits="userSpaceOnUse">
<stop stop-color="#8824DC"/>
<stop offset="1" stop-color="#B1219D"/>
</linearGradient>
<linearGradient id="paint21_linear_1239_4158" x1="884.717" y1="910.734" x2="923.723" y2="741.29" gradientUnits="userSpaceOnUse">
<stop stop-color="#8824DC"/>
<stop offset="1" stop-color="#B1219D"/>
</linearGradient>
<linearGradient id="paint22_linear_1239_4158" x1="911.377" y1="953.772" x2="930.252" y2="835.496" gradientUnits="userSpaceOnUse">
<stop stop-color="#8824DC"/>
<stop offset="1" stop-color="#B1219D"/>
</linearGradient>
<linearGradient id="paint23_linear_1239_4158" x1="336.414" y1="815.36" x2="-148.491" y2="1228.18" gradientUnits="userSpaceOnUse">
<stop stop-color="#8824DC"/>
<stop offset="1" stop-color="#B1219D"/>
</linearGradient>
<linearGradient id="paint24_linear_1239_4158" x1="143.218" y1="851.646" x2="79.9421" y2="855.944" gradientUnits="userSpaceOnUse">
<stop stop-color="#8824DC"/>
<stop offset="1" stop-color="#B1219D"/>
</linearGradient>
<linearGradient id="paint25_linear_1239_4158" x1="250.723" y1="821.981" x2="190.416" y2="825.726" gradientUnits="userSpaceOnUse">
<stop stop-color="#8824DC"/>
<stop offset="1" stop-color="#B1219D"/>
</linearGradient>
<linearGradient id="paint26_linear_1239_4158" x1="377.299" y1="829.506" x2="337.002" y2="831.199" gradientUnits="userSpaceOnUse">
<stop stop-color="#8824DC"/>
<stop offset="1" stop-color="#B1219D"/>
</linearGradient>
<linearGradient id="paint27_linear_1239_4158" x1="469.428" y1="869.245" x2="425.984" y2="871.358" gradientUnits="userSpaceOnUse">
<stop stop-color="#8824DC"/>
<stop offset="1" stop-color="#B1219D"/>
</linearGradient>
<linearGradient id="paint28_linear_1239_4158" x1="553.4" y1="884.998" x2="508.01" y2="887.375" gradientUnits="userSpaceOnUse">
<stop stop-color="#8824DC"/>
<stop offset="1" stop-color="#B1219D"/>
</linearGradient>
<linearGradient id="paint29_linear_1239_4158" x1="649.011" y1="852.881" x2="612.904" y2="854.308" gradientUnits="userSpaceOnUse">
<stop stop-color="#8824DC"/>
<stop offset="1" stop-color="#B1219D"/>
</linearGradient>
<linearGradient id="paint30_linear_1239_4158" x1="729.797" y1="820.722" x2="682.515" y2="823.056" gradientUnits="userSpaceOnUse">
<stop stop-color="#8824DC"/>
<stop offset="1" stop-color="#B1219D"/>
</linearGradient>
<linearGradient id="paint31_linear_1239_4158" x1="833.493" y1="842.446" x2="789.617" y2="844.52" gradientUnits="userSpaceOnUse">
<stop stop-color="#8824DC"/>
<stop offset="1" stop-color="#B1219D"/>
</linearGradient>
<linearGradient id="paint32_linear_1239_4158" x1="915.528" y1="895.412" x2="863.963" y2="898.534" gradientUnits="userSpaceOnUse">
<stop stop-color="#8824DC"/>
<stop offset="1" stop-color="#B1219D"/>
</linearGradient>
<linearGradient id="paint33_linear_1239_4158" x1="1000.32" y1="904.995" x2="951.277" y2="907.868" gradientUnits="userSpaceOnUse">
<stop stop-color="#8824DC"/>
<stop offset="1" stop-color="#B1219D"/>
</linearGradient>
<linearGradient id="paint34_linear_1239_4158" x1="1086.39" y1="862.723" x2="1036.75" y2="865.504" gradientUnits="userSpaceOnUse">
<stop stop-color="#8824DC"/>
<stop offset="1" stop-color="#B1219D"/>
</linearGradient>
<linearGradient id="paint35_linear_1239_4158" x1="377.329" y1="1706.12" x2="368.447" y2="1786.7" gradientUnits="userSpaceOnUse">
<stop stop-color="#8824DC"/>
<stop offset="1" stop-color="#B1219D"/>
</linearGradient>
<linearGradient id="paint36_linear_1239_4158" x1="334.619" y1="1602.21" x2="318.366" y2="1711.94" gradientUnits="userSpaceOnUse">
<stop stop-color="#8824DC"/>
<stop offset="1" stop-color="#B1219D"/>
</linearGradient>
<linearGradient id="paint37_linear_1239_4158" x1="325.621" y1="1529.88" x2="309.816" y2="1641.11" gradientUnits="userSpaceOnUse">
<stop stop-color="#8824DC"/>
<stop offset="1" stop-color="#B1219D"/>
</linearGradient>
<linearGradient id="paint38_linear_1239_4158" x1="354.868" y1="1475.16" x2="344.31" y2="1566.81" gradientUnits="userSpaceOnUse">
<stop stop-color="#8824DC"/>
<stop offset="1" stop-color="#B1219D"/>
</linearGradient>
<linearGradient id="paint39_linear_1239_4158" x1="387.181" y1="1410.6" x2="378.495" y2="1492.8" gradientUnits="userSpaceOnUse">
<stop stop-color="#8824DC"/>
<stop offset="1" stop-color="#B1219D"/>
</linearGradient>
<linearGradient id="paint40_linear_1239_4158" x1="355.899" y1="1336.94" x2="348.764" y2="1411.14" gradientUnits="userSpaceOnUse">
<stop stop-color="#8824DC"/>
<stop offset="1" stop-color="#B1219D"/>
</linearGradient>
<linearGradient id="paint41_linear_1239_4158" x1="331.136" y1="1239.88" x2="321.324" y2="1326.22" gradientUnits="userSpaceOnUse">
<stop stop-color="#8824DC"/>
<stop offset="1" stop-color="#B1219D"/>
</linearGradient>
<linearGradient id="paint42_linear_1239_4158" x1="355.98" y1="1134.74" x2="334.624" y2="1261.44" gradientUnits="userSpaceOnUse">
<stop stop-color="#8824DC"/>
<stop offset="1" stop-color="#B1219D"/>
</linearGradient>
<linearGradient id="paint43_linear_1239_4158" x1="375.412" y1="1037.25" x2="339.304" y2="1201.41" gradientUnits="userSpaceOnUse">
<stop stop-color="#8824DC"/>
<stop offset="1" stop-color="#B1219D"/>
</linearGradient>
<linearGradient id="paint44_linear_1239_4158" x1="373.283" y1="960.702" x2="334.277" y2="1130.15" gradientUnits="userSpaceOnUse">
<stop stop-color="#8824DC"/>
<stop offset="1" stop-color="#B1219D"/>
</linearGradient>
<linearGradient id="paint45_linear_1239_4158" x1="346.623" y1="917.665" x2="327.748" y2="1035.94" gradientUnits="userSpaceOnUse">
<stop stop-color="#8824DC"/>
<stop offset="1" stop-color="#B1219D"/>
</linearGradient>
</defs>
</svg>
