<svg width="1239" height="289" viewBox="0 0 1239 289" fill="none" xmlns="http://www.w3.org/2000/svg">
<path d="M0.0301548 288.915L1.74201 285.41C23.8114 240.299 48.828 189.161 65.7132 135.861C68.2226 127.945 70.3332 119.561 72.3855 111.451C77.1126 92.7167 82.005 73.35 92.2665 56.846C102.839 39.8453 116.836 25.3567 130.375 11.3453C133.643 7.95688 137.028 4.46138 140.296 0.985301L141.016 0.225793H142.066C434.046 -0.134473 746.344 -0.0663332 1096.81 0.449723H1098.31L1098.98 1.79342C1103.19 10.2548 1103.92 19.3004 1104.63 28.0442C1105.25 35.7461 1105.89 43.7109 1108.98 51.0622C1117.41 71.169 1130.93 88.189 1144 104.654C1152.27 115.063 1160.81 125.822 1168.11 137.37C1176.31 150.34 1181.2 164.828 1185.91 178.84C1189.56 189.687 1193.34 200.894 1198.62 211.195C1203.7 221.127 1209.05 231.137 1214.22 240.805C1221.97 255.304 1229.98 270.299 1237.31 285.42L1239 288.915H1235.11C842.101 288.536 439.376 288.536 3.90129 288.915H0.000976562H0.0301548ZM143.126 5.09425C140.062 8.33664 136.921 11.5888 133.876 14.7338C120.512 28.5602 106.691 42.8637 96.4002 59.4262C86.5376 75.2876 81.7424 94.2746 77.1126 112.648C75.0506 120.827 72.9108 129.279 70.3624 137.341C53.7982 189.599 29.5501 239.647 7.84053 284.047C224.255 283.862 432.635 283.765 635.734 283.765C838.833 283.765 1036.09 283.862 1231.26 284.047C1224.45 270.201 1217.1 256.443 1209.97 243.103C1204.78 233.415 1199.42 223.386 1194.33 213.415C1188.89 202.792 1185.06 191.41 1181.34 180.398C1176.71 166.659 1171.93 152.453 1164.04 139.98C1156.87 128.656 1148.41 117.994 1140.23 107.692C1126.95 90.9738 1113.22 73.6811 1104.52 52.9512C1101.14 44.889 1100.47 36.525 1099.8 28.4433C1099.14 20.2838 1098.52 12.5527 1095.28 5.31818C745.877 4.81186 434.376 4.73398 143.136 5.09425H143.126Z" fill="url(#paint0_linear_1412_3884)"/>
<path d="M334.184 270.211C304.907 270.211 275.844 267.202 247.618 264.281C228.155 262.265 208.041 260.182 188.063 259.101C143.263 256.686 97.6064 257.553 53.4481 258.39C42.0098 258.604 30.1726 258.838 18.5398 258.994L18.4717 254.125C30.0948 253.96 41.9222 253.736 53.3606 253.522C97.6064 252.684 143.36 251.808 188.335 254.242C208.43 255.323 228.613 257.416 248.134 259.442C280.503 262.791 313.982 266.258 347.461 265.128C394.595 263.531 442.391 257.884 488.621 252.421L489.292 252.344C501.363 250.922 513.57 249.179 525.368 247.504C555.705 243.191 587.082 238.741 618.703 239.17C671.644 239.9 725.374 245.07 777.323 250.075C813.778 253.58 851.468 257.212 888.526 259.266C959.15 263.19 1030.78 260.386 1100.05 257.679C1139.48 256.141 1180.25 254.544 1220.46 254.203L1220.5 259.072C1180.37 259.413 1139.63 261.009 1100.23 262.548C1030.85 265.255 959.111 268.059 888.254 264.125C851.098 262.061 813.359 258.429 776.856 254.914C725.004 249.919 671.372 244.759 618.635 244.028C587.403 243.6 556.21 248.03 526.058 252.314C514.231 253.999 501.995 255.732 489.866 257.163L489.195 257.241C442.868 262.713 394.965 268.38 347.636 269.977C343.161 270.133 338.677 270.201 334.213 270.201L334.184 270.211Z" fill="url(#paint1_linear_1412_3884)"/>
<path d="M313.554 254.593C298.779 254.593 284.754 253.659 271.214 251.779C257.004 249.803 242.91 246.414 229.274 243.133C215.9 239.92 202.059 236.59 188.218 234.633C143.768 228.352 98.0246 229.287 53.7691 230.183C46.4645 230.329 39.1696 230.475 31.8845 230.592L31.8066 225.723C39.0918 225.607 46.3769 225.46 53.6718 225.314C98.1121 224.409 144.06 223.484 188.899 229.813C202.983 231.799 216.931 235.158 230.412 238.401C243.932 241.653 257.909 245.012 271.886 246.95C295.142 250.182 319.866 250.582 347.48 248.186C393.642 244.175 439.716 233.162 484.273 222.51C487.989 221.624 491.695 220.738 495.41 219.852C507.471 216.98 519.746 213.328 531.612 209.794C559.906 201.371 589.173 192.667 619.296 193.251C676.945 194.38 734.769 206.98 790.687 219.151C820.975 225.743 852.285 232.568 883.001 237.417C961.241 249.774 1035.75 242.393 1114.64 234.584C1144.32 231.643 1175.01 228.605 1205.6 226.765L1205.89 231.624C1175.4 233.454 1144.76 236.492 1115.12 239.423C1039.4 246.921 961.105 254.681 882.252 242.218C851.4 237.349 820.012 230.504 789.666 223.903C733.972 211.77 676.391 199.229 619.209 198.109C589.845 197.535 560.947 206.133 533.003 214.448C521.069 218.002 508.735 221.673 496.538 224.574C492.833 225.46 489.117 226.347 485.411 227.233C440.679 237.924 394.42 248.985 347.908 253.026C335.973 254.058 324.564 254.584 313.564 254.584L313.554 254.593Z" fill="url(#paint2_linear_1412_3884)"/>
<path d="M311.881 238.225C296.475 238.225 281.875 236.891 267.849 234.213C253.493 231.477 239.701 226.56 226.356 221.799C216.143 218.157 205.59 214.389 194.93 211.663C149.011 199.93 100.739 201.371 54.0612 202.773C50.8417 202.87 47.632 202.968 44.4125 203.055L44.2764 198.187C47.4861 198.099 50.6958 198.002 53.9153 197.904C100.933 196.493 149.546 195.042 196.136 206.94C207.02 209.715 217.68 213.522 227.99 217.203C241.16 221.896 254.777 226.755 268.764 229.423C294.772 234.379 322.824 234.632 354.503 230.211C397.008 224.272 438.403 210.455 478.447 197.086C485.567 194.711 492.677 192.335 499.797 189.998C511.77 186.074 523.958 180.641 536.855 174.886C563.661 162.929 591.372 150.564 619.092 151.391C654.973 152.452 691.292 162.559 726.405 172.335C733.213 174.224 740.246 176.191 747.044 178.012C765.496 182.958 784.093 188.518 802.077 193.893C824.817 200.689 848.336 207.729 871.728 213.561C924.067 226.609 971.26 230.951 1015.99 226.833C1047.84 223.902 1079.95 218.566 1111.01 213.406C1137.44 209.014 1164.76 204.467 1191.86 201.419L1192.4 206.259C1165.43 209.297 1138.17 213.824 1111.81 218.206C1080.66 223.386 1048.46 228.731 1016.44 231.682C971.152 235.849 923.425 231.468 870.551 218.284C847.042 212.422 823.475 205.373 800.686 198.557C782.731 193.192 764.173 187.642 745.78 182.715C738.962 180.884 731.91 178.927 725.092 177.028C690.251 167.331 654.234 157.301 618.937 156.26C592.345 155.481 565.14 167.603 538.829 179.336C525.806 185.139 513.511 190.621 501.305 194.623C494.195 196.95 487.085 199.326 479.984 201.702C439.736 215.139 398.126 229.033 355.174 235.031C339.991 237.154 325.615 238.215 311.891 238.215L311.881 238.225Z" fill="url(#paint3_linear_1412_3884)"/>
<path d="M307.348 210.786C298.39 210.786 289.773 210.25 281.408 209.189C261.809 206.696 245.128 199.987 227.465 192.889C220.024 189.9 212.33 186.804 204.452 184.087C157.298 167.807 107.527 171.672 59.4007 175.402L55.7241 175.684L55.3447 170.825L59.0213 170.543C107.644 166.765 157.93 162.86 206.037 179.472C214.032 182.227 221.784 185.343 229.274 188.361C246.636 195.343 263.034 201.935 282.021 204.349C305.471 207.339 331.12 206.044 360.406 200.396C395.256 193.678 429.669 182.13 462.953 170.952C476.978 166.239 491.49 161.371 505.817 156.94C516.643 153.591 527.79 149.122 538.566 144.808C564.721 134.331 591.761 123.504 619.987 125.5C650.314 127.642 680.671 135.208 710.025 142.53C720.286 145.091 730.908 147.739 741.257 150.076C746.11 151.176 750.964 152.276 755.808 153.377C795.54 162.403 836.625 171.741 877.428 178.44C963.011 192.49 1045.21 186.015 1132.22 179.15C1148.7 177.855 1165.73 176.512 1182.6 175.333L1182.94 180.192C1166.1 181.361 1149.08 182.704 1132.61 183.999C1045.29 190.883 962.807 197.388 876.65 183.24C835.701 176.512 794.539 167.164 754.738 158.119C749.884 157.018 745.04 155.918 740.187 154.818C729.78 152.461 719.139 149.813 708.858 147.242C679.698 139.969 649.546 132.452 619.647 130.339C592.529 128.421 566.015 139.044 540.376 149.307C529.501 153.659 518.267 158.158 507.257 161.575C492.988 165.996 478.505 170.854 464.499 175.548C431.069 186.765 396.492 198.371 361.33 205.158C341.926 208.897 324.068 210.756 307.348 210.756V210.786Z" fill="url(#paint4_linear_1412_3884)"/>
<path d="M298.39 171.302C295.472 171.302 292.593 171.234 289.724 171.097C266.73 169.997 248.318 162.665 228.836 154.895C223.438 152.743 217.855 150.513 212.067 148.381C164.339 130.786 117.72 137.047 66.0922 146.346L65.2266 141.556C117.565 132.13 164.865 125.791 213.74 143.814C219.576 145.966 225.188 148.206 230.626 150.367C249.719 157.982 267.761 165.168 289.947 166.229C312.172 167.29 335.642 164.165 366.048 156.103C387.796 150.338 409.447 142.977 430.388 135.859C456.377 127.028 483.252 117.895 510.661 111.683C514.513 110.806 518.345 109.92 522.158 109.034C555.568 101.274 587.131 93.9421 621.942 100.037C640.675 103.319 659.467 107.759 677.645 112.062C698.372 116.96 719.8 122.033 741.159 125.373C783.226 131.945 826.801 132.13 863.878 131.429C879.548 131.137 895.529 130.446 910.974 129.784C938.909 128.586 967.796 127.34 996.188 128.362C1036.28 129.803 1076.86 134.185 1116.12 138.42C1134.04 140.358 1152.57 142.354 1170.78 144.038L1170.33 148.887C1152.08 147.193 1133.54 145.197 1115.59 143.26C1076.42 139.034 1035.93 134.662 996.013 133.23C967.806 132.218 939.025 133.454 911.178 134.652C895.704 135.314 879.694 136.006 863.966 136.298C826.675 136.999 782.837 136.814 740.401 130.183C718.866 126.814 697.341 121.721 676.517 116.804C658.406 112.52 639.683 108.1 621.096 104.838C587.257 98.9176 556.171 106.133 523.247 113.786C519.424 114.672 515.592 115.568 511.731 116.444C484.574 122.608 457.817 131.692 431.954 140.484C410.945 147.622 389.216 155.012 367.302 160.825C340.292 167.982 318.611 171.312 298.39 171.312V171.302Z" fill="url(#paint5_linear_1412_3884)"/>
<path d="M292.671 131.781C269.327 131.781 251.042 124.449 230.091 116.036C227.212 114.878 224.284 113.709 221.288 112.531C173.045 93.5832 128.225 100.039 75.7606 115.559L74.3794 110.895C127.797 95.0923 173.531 88.5492 223.059 108.003C226.064 109.182 229.011 110.37 231.9 111.528C253.843 120.33 272.79 127.935 297.583 126.805C323.718 125.627 349.62 117.857 371.514 110.418C384.616 105.968 397.824 100.896 410.605 95.9979C442.235 83.8657 474.946 71.3246 509.377 66.7385C548.517 61.5195 585.847 63.9148 623.498 74.0606C632.184 76.3975 641.025 78.9194 649.575 81.3633C679.357 89.8539 710.161 98.6463 741.228 101.743C775.747 105.199 810.441 97.4876 842.782 88.6465C877.69 79.1043 913.785 69.2409 951.407 71.2662C998.882 73.8172 1046.68 85.8423 1092.91 97.4682C1110.62 101.918 1128.93 106.524 1146.73 110.457L1145.67 115.209C1127.8 111.265 1109.45 106.65 1091.71 102.181C1045.71 90.6134 998.143 78.6467 951.135 76.1151C914.281 74.1288 878.585 83.8949 844.046 93.3397C811.249 102.307 776.039 110.116 740.732 106.582C709.228 103.437 678.219 94.586 648.223 86.037C639.693 83.6028 630.861 81.0907 622.214 78.7538C585.195 68.7832 548.487 66.4269 510 71.5583C476.132 76.0762 443.694 88.5102 412.326 100.545C399.507 105.462 386.25 110.545 373.061 115.024C350.845 122.57 324.525 130.457 297.787 131.664C296.046 131.742 294.344 131.781 292.661 131.781H292.671Z" fill="url(#paint6_linear_1412_3884)"/>
<path d="M289.159 98.3243C271.477 98.3243 253.522 94.9262 235.07 86.4843C186.068 64.0602 140.801 63.8654 83.6873 85.8221L81.9463 81.275C140.393 58.8022 186.788 59.0359 237.094 82.0539C286.164 104.507 332.209 89.7851 378.984 71.3142C386.512 68.3347 394.235 65.1312 401.705 62.0251C436.419 47.595 472.309 32.6781 510.389 31.7238C550.374 30.7209 589.105 41.7626 625.356 53.1548C686.642 72.4144 756.099 94.2543 823.426 55.1898C855.912 36.3392 884.576 24.0901 918.998 25.6091C971.055 27.8875 1023.35 45.2874 1073.92 62.1225C1090.89 67.7699 1106.89 73.096 1123.01 77.9255L1121.62 82.5895C1105.45 77.7405 1088.64 72.1515 1072.39 66.7475C1022.14 50.0293 970.179 32.7365 918.794 30.4775C885.568 29.0267 857.624 40.9934 825.877 59.4059C795.579 76.9908 762.752 84.1474 725.509 81.2945C692.663 78.7824 660.06 69.172 623.906 57.7993C588.045 46.524 549.752 35.6089 510.515 36.5923C473.35 37.527 437.878 52.2688 403.582 66.5236C396.093 69.6297 388.36 72.8526 380.783 75.8418C350.349 87.8571 320.187 98.3146 289.169 98.3146L289.159 98.3243Z" fill="url(#paint7_linear_1412_3884)"/>
<path d="M285.114 75.5026C271.176 75.5026 257.072 73.4968 242.92 68.6088C239.963 67.5864 237.036 66.5544 234.128 65.532C211.27 57.4893 189.687 49.8945 164.768 49.5732C139.839 49.2324 115.746 55.8925 93.4144 63.1173L91.9165 58.4825C114.638 51.1311 139.207 44.3639 164.826 44.7047C190.543 45.0358 212.496 52.7571 235.742 60.9361C238.641 61.9585 241.559 62.9809 244.506 64.0033C291.679 80.3321 339.193 63.0978 381.105 47.8985C387.514 45.5713 394.099 43.0884 400.47 40.6931C436.711 27.0322 474.177 12.904 513.21 14.0043C549.529 15.0364 585.176 25.0654 619.637 34.7633L625.463 36.3992C698.315 56.8369 759.183 69.7578 823.825 35.5228C851.05 21.1025 878.138 8.05501 910.158 6.6821C961.669 4.47182 1014.91 22.0177 1066.38 38.9892C1081.09 43.8381 1094.99 48.4145 1108.72 52.504L1107.34 57.168C1093.54 53.0687 1079.61 48.4729 1064.87 43.6142C1013.81 26.7791 961.018 9.37923 910.372 11.5506C879.325 12.8845 853.841 25.153 826.101 39.8363C795.395 56.0969 762.597 63.0783 725.831 61.1796C691.798 59.4172 656.938 50.2937 624.15 41.0923L618.314 39.4565C584.126 29.8364 548.78 19.8853 513.064 18.8824C474.985 17.8016 437.975 31.7644 402.172 45.2597C395.792 47.6648 389.187 50.1574 382.748 52.4943C352.441 63.4872 319.264 75.5221 285.094 75.5221L285.114 75.5026Z" fill="url(#paint8_linear_1412_3884)"/>
<path d="M286.018 57.7811C275.766 57.7811 265.554 56.8951 255.477 54.8211C246.13 52.8932 237.016 50.3811 228.194 47.9566C212.019 43.4971 196.729 39.2907 179.863 38.2586C153.154 36.6228 127.146 41.131 105.232 45.7463L104.23 40.9849C126.465 36.2917 152.862 31.7251 180.155 33.3999C197.536 34.4612 213.77 38.9402 229.478 43.2634C238.222 45.6684 247.268 48.161 256.45 50.0597C297.768 58.5795 340.234 46.8952 381.309 35.5907L386.113 34.2665C389.936 33.2149 393.758 32.1536 397.581 31.0922C435.543 20.5472 474.8 9.64182 515.242 11.0634C549.985 12.2805 584.621 19.2814 618.119 26.0485L623.868 27.2072C690.592 40.6539 756.274 50.8874 826.286 28.7749C828.97 27.9277 831.655 27.0709 834.339 26.2238C861.914 17.4508 890.422 8.38575 920.458 6.12679C970.656 2.35861 1021.84 15.3866 1071.34 27.9862C1081.68 30.6249 1092.39 33.3414 1102.71 35.8049L1101.58 40.5371C1091.23 38.0639 1080.51 35.3375 1070.14 32.6988C1021.02 20.1966 970.228 7.26599 920.827 10.9758C891.356 13.186 864.385 21.774 835.818 30.8586C833.133 31.7154 830.449 32.5625 827.755 33.4194C756.644 55.8824 690.28 45.5515 622.915 31.9783L617.166 30.8196C583.863 24.0914 549.421 17.1295 515.087 15.9319C475.393 14.5395 436.506 25.3377 398.894 35.7854C395.062 36.8468 391.239 37.9081 387.407 38.9597L382.602 40.2839C352.333 48.6187 318.981 57.7908 286.018 57.7908V57.7811Z" fill="url(#paint9_linear_1412_3884)"/>
<path d="M292.068 41.7158C281.768 41.7158 271.477 41.1414 261.225 39.8074C250.983 38.4734 240.829 36.4579 231.015 34.5105C217.116 31.7452 202.75 28.8923 188.131 28.016C162.686 26.497 138.156 28.7073 117.516 31.0734L116.962 26.2341C137.806 23.8486 162.599 21.6188 188.422 23.1572C203.372 24.0433 217.903 26.9352 231.958 29.7297C241.694 31.6673 251.761 33.6731 261.848 34.9779C303.166 40.3429 345.398 33.0889 386.24 26.0686L390.422 25.3481C431.04 18.3862 470.86 12.174 511.361 12.6803C548.235 13.138 585.419 17.3735 621.368 21.463L621.884 21.5215C684.454 28.6489 758.969 34.3158 837.267 22.3783C841.391 21.7454 845.515 21.1125 849.639 20.4699C879.276 15.8838 909.934 11.1419 940.601 10.0806C995.031 8.19162 1049.24 16.4875 1101.65 24.5204L1100.91 29.3305C1048.72 21.3365 994.749 13.0698 940.767 14.949C910.381 16.0006 879.879 20.723 850.378 25.2896C846.254 25.9323 842.121 26.5652 837.997 27.1981C759.134 39.2232 684.221 33.5174 621.329 26.3607L620.814 26.3023C584.981 22.2225 547.923 18.0064 511.293 17.5488C471.201 17.0327 431.624 23.2157 391.23 30.1483L387.047 30.8689C355.903 36.2242 323.951 41.7061 292.058 41.7061L292.068 41.7158Z" fill="url(#paint10_linear_1412_3884)"/>
<path d="M302.242 25.1621C292.312 25.1621 282.391 24.9187 272.499 24.3442C259.173 23.575 245.809 22.5623 232.883 21.5886C197.877 18.9499 164.817 16.4573 129.928 17.947L129.724 13.0786C164.895 11.5694 199.647 14.1983 233.252 16.7299C246.159 17.7036 259.504 18.7065 272.781 19.4855C311.551 21.7347 351.04 18.872 389.236 16.097L394.469 15.7172C460.619 10.9364 532.361 10.4107 620.26 14.062C695.125 17.1778 771.166 15.2402 844.708 13.3804C928.755 11.248 1015.66 9.03774 1101.26 14.3444L1100.96 19.2031C1015.57 13.9062 928.774 16.1067 844.835 18.2391C771.215 20.1086 695.086 22.0463 620.065 18.9207C532.361 15.2694 460.784 15.7952 394.829 20.5663L389.596 20.946C360.951 23.0297 331.577 25.1621 302.252 25.1621H302.242Z" fill="url(#paint11_linear_1412_3884)"/>
<path d="M1130.34 287.503C1125.18 276.491 1117.76 266.511 1110.58 256.861C1103.17 246.9 1095.5 236.609 1090.26 225.1C1086.25 216.307 1085.42 207.797 1084.52 198.771C1084.26 196.113 1083.99 193.377 1083.63 190.631C1080.29 165.101 1072.73 144.02 1060.52 126.172C1051.68 113.252 1040.94 101.343 1030.56 89.8246C1021.1 79.3283 1011.31 68.4716 1002.86 56.7678C1002.67 56.4952 1002.36 56.0863 1001.97 55.5702C988.066 36.924 982.687 25.3468 985.031 19.1249C987.512 12.5622 996.285 12.017 1004.03 11.5399C1008.8 11.2477 1014.76 10.8777 1015.93 8.8622C1016.47 7.95667 1016.15 6.19431 1015.05 3.8964L1019.43 1.78345C1021.34 5.74637 1021.56 8.87196 1020.13 11.3159C1017.64 15.571 1011.18 15.9701 1004.33 16.3888C998.055 16.7783 990.955 17.2165 989.583 20.8386C988.834 22.8249 988.912 29.9037 1005.88 52.6491C1006.28 53.1944 1006.6 53.6228 1006.81 53.9052C1015.12 65.4045 1024.8 76.154 1034.18 86.553C1044.66 98.1886 1055.51 110.214 1064.55 123.417C1077.2 141.917 1085.03 163.699 1088.47 189.998C1088.84 192.812 1089.11 195.597 1089.39 198.294C1090.23 206.901 1091.04 215.022 1094.71 223.074C1099.74 234.116 1107.24 244.194 1114.5 253.95C1121.82 263.794 1129.4 273.969 1134.77 285.439L1130.36 287.503H1130.34Z" fill="url(#paint12_linear_1412_3884)"/>
<path d="M1027.74 287.572C1023.52 278.838 1016.14 271.428 1009 264.272C1000.72 255.966 992.161 247.388 988.271 236.521C985.207 227.982 986.675 218.596 988.095 209.511C988.786 205.13 989.428 200.982 989.564 197.048C990.605 166.552 983.29 140.876 967.193 118.559C965.413 116.095 959.431 110.068 951.845 102.434C927.752 78.1701 887.416 37.5672 887.776 17.4702C887.835 14.0136 889.021 11.1801 891.297 9.04776C895.1 5.48405 903.708 7.12958 913.668 9.04776C921.78 10.6057 932.888 12.738 935.504 9.7196C936.642 8.40512 936.049 5.68853 935.349 3.64378L939.949 2.06641C941.574 6.80828 941.311 10.4499 939.181 12.9133C934.726 18.0447 924.056 15.9999 912.754 13.8286C905.945 12.5238 896.618 10.7323 894.624 12.6018C893.33 13.8189 892.678 15.4449 892.64 17.5578C892.319 35.6003 933.287 76.8459 955.298 99.0071C963.332 107.098 969.129 112.941 971.132 115.716C987.881 138.938 995.497 165.598 994.418 197.223C994.272 201.449 993.571 205.938 992.891 210.271C991.568 218.752 990.196 227.515 992.832 234.886C996.363 244.73 1004.16 252.558 1012.42 260.844C1019.84 268.283 1027.52 275.985 1032.1 285.459L1027.72 287.582L1027.74 287.572Z" fill="url(#paint13_linear_1412_3884)"/>
<path d="M925.058 287.455C921.732 278.993 916.703 270.814 911.84 262.908C904.652 251.233 897.231 239.159 894.624 225.391C893 216.794 893.632 207.904 894.255 199.306C894.663 193.61 895.081 187.719 894.809 182.121C894.031 166.249 890.821 143.134 879.957 123.105C877.982 119.473 873.08 113.193 867.39 105.929C849.085 82.5315 821.432 47.1768 835.049 29.222C838.405 24.8014 843.385 22.7274 847.791 20.8968C855.592 17.6545 860.299 15.6876 855.913 3.75991L860.475 2.07544C866.476 18.3945 857.537 22.114 849.659 25.3953C845.642 27.07 841.488 28.7935 838.93 32.1722C827.58 47.1378 854.901 82.0641 871.222 102.93C877.282 110.671 882.067 116.796 884.236 120.788C895.529 141.625 898.865 165.509 899.663 181.887C899.954 187.778 899.517 193.824 899.098 199.667C898.505 207.953 897.892 216.521 899.4 224.505C901.832 237.387 909.019 249.072 915.974 260.376C920.954 268.458 926.089 276.822 929.581 285.692L925.058 287.474V287.455Z" fill="url(#paint14_linear_1412_3884)"/>
<path d="M822.347 287.027C820.45 277.855 818.203 268.527 816.034 259.501C811.531 240.797 806.881 221.449 804.936 201.976C803.964 192.258 804.061 182.482 804.158 173.028C804.314 156.913 804.469 141.704 799.869 126.339C797.884 119.699 795.745 113.331 793.683 107.177C787.886 89.8941 782.41 73.575 780.921 53.7214C780.552 48.8238 780.299 44.004 780.046 39.3497C779.404 27.2078 778.791 15.7475 776.321 3.44002L781.087 2.47607C783.625 15.1341 784.248 26.7696 784.9 39.0868C785.143 43.7216 785.396 48.5122 785.765 53.3514C787.214 72.5916 792.593 88.638 798.293 105.629C800.374 111.822 802.514 118.228 804.528 124.947C809.333 141.013 809.177 157.322 809.021 173.086C808.934 182.414 808.836 192.054 809.78 201.499C811.696 220.641 816.306 239.823 820.771 258.372C822.95 267.427 825.206 276.794 827.113 286.044L822.347 287.027Z" fill="url(#paint15_linear_1412_3884)"/>
<path d="M719.626 286.802C718.264 279.101 716.825 271.272 715.434 263.687C706.505 215.08 697.274 164.809 700.98 114.576C701.35 109.523 701.856 104.401 702.342 99.4545C703.742 85.2191 705.201 70.5067 703.597 56.1447C702.741 48.4623 701.593 40.702 700.484 33.1948C699.035 23.4092 697.537 13.2829 696.662 3.16624L701.505 2.74756C702.371 12.7182 703.859 22.7666 705.299 32.4841C706.417 40.0399 707.575 47.8489 708.44 55.6092C710.094 70.4775 708.615 85.4529 707.186 99.9317C706.699 104.849 706.194 109.941 705.834 114.936C702.177 164.546 711.349 214.496 720.219 262.811C721.61 270.396 723.05 278.234 724.421 285.955L719.636 286.802H719.626Z" fill="url(#paint16_linear_1412_3884)"/>
<path d="M617.03 286.238C614.929 228.936 615.697 166.659 619.384 95.8322C619.705 89.7175 620.356 83.2911 620.988 77.0692C622.282 64.3723 623.615 51.2372 622.35 39.1439C621.844 34.3241 620.872 29.6505 619.919 25.1228C618.45 18.1122 616.942 10.868 617.098 2.85449L621.961 2.95184C621.805 10.4103 623.196 17.0703 624.675 24.1199C625.647 28.7644 626.649 33.555 627.184 38.6279C628.507 51.2177 627.145 64.6059 625.823 77.556C625.171 84.0019 624.548 90.0777 624.237 96.0757C620.551 166.756 619.782 228.897 621.883 286.053L617.02 286.228L617.03 286.238Z" fill="url(#paint17_linear_1412_3884)"/>
<path d="M519.425 286.88L514.669 285.848C518.9 266.238 524.639 246.783 530.192 227.971C534.171 214.476 538.285 200.513 541.806 186.648C548.274 161.157 546.494 134.507 544.782 108.743C544.5 104.449 544.208 100.145 543.955 95.8513C543.44 87.0881 543.547 77.5654 543.654 68.3542C543.829 52.1325 544.014 35.3559 541.008 20.9063C540.503 18.4721 539.841 17.3037 539.131 16.0671C537.439 13.0876 536.495 10.6923 537.594 2.54248L542.419 3.19484C541.456 10.3125 542.263 11.7146 543.372 13.662C544.15 15.0349 545.113 16.7291 545.774 19.9131C548.897 34.8787 548.702 51.9281 548.527 68.4127C548.42 77.9646 548.323 86.981 548.828 95.5787C549.081 99.8629 549.363 104.147 549.645 108.431C551.386 134.585 553.186 161.624 546.533 187.865C542.992 201.828 538.859 215.83 534.871 229.374C529.346 248.107 523.637 267.474 519.435 286.899L519.425 286.88Z" fill="url(#paint18_linear_1412_3884)"/>
<path d="M416.732 287.398L412.093 285.928C415.886 273.952 420.078 261.907 424.134 250.262C427.587 240.349 431.147 230.106 434.454 219.96C442.352 195.677 443.363 168.316 444.336 141.861C444.599 134.694 444.871 127.275 445.28 120.177C447.818 76.2825 453.43 34.2483 458.041 2.52539L462.855 3.22648C458.264 34.8422 452.662 76.7499 450.143 120.459C449.734 127.508 449.472 134.568 449.199 142.046C448.217 168.842 447.196 196.543 439.084 221.479C435.767 231.664 432.197 241.937 428.735 251.878C424.689 263.494 420.516 275.5 416.732 287.418V287.398Z" fill="url(#paint19_linear_1412_3884)"/>
<path d="M314.041 287.592L309.499 285.859C323.972 247.837 333.727 208.052 342.15 152.824C343.57 143.515 344.699 133.798 345.788 124.402C348.327 102.601 350.943 80.0502 357.44 59.1937C360.271 50.0995 363.899 41.2876 367.41 32.7678C371.437 22.9724 375.609 12.8461 378.518 2.36914L383.206 3.67385C380.22 14.4234 375.999 24.6861 371.913 34.6178C368.451 43.0402 364.862 51.7547 362.09 60.6445C355.729 81.0726 353.132 103.39 350.622 124.967C349.523 134.402 348.395 144.158 346.955 153.554C338.483 209.142 328.64 249.229 314.041 287.592Z" fill="url(#paint20_linear_1412_3884)"/>
<path d="M211.494 286.998L206.786 285.79C209.869 273.707 211.007 261.39 212.116 249.481C212.962 240.28 213.848 230.767 215.618 221.303C219.158 202.335 226.628 184.176 233.855 166.62C236.296 160.681 238.825 154.547 241.13 148.519C245.546 137.001 249.378 124.976 253.075 113.35C257.451 99.5818 261.984 85.3561 267.548 71.7634C271.779 61.4228 276.739 51.3549 281.524 41.6277C287.74 28.9989 294.169 15.9417 298.993 2.30029L303.574 3.92634C298.653 17.8306 292.165 31.0242 285.882 43.7795C281.126 53.4385 276.214 63.4286 272.041 73.6134C266.555 87.0211 262.052 101.159 257.704 114.83C253.979 126.524 250.137 138.607 245.663 150.262C243.329 156.348 240.79 162.511 238.339 168.47C231.209 185.802 223.837 203.718 220.384 222.199C218.662 231.439 217.787 240.835 216.95 249.929C215.832 262.032 214.674 274.544 211.494 286.998Z" fill="url(#paint21_linear_1412_3884)"/>
<path d="M108.841 287.222L104.279 285.528C121.193 239.764 131.688 191.732 141.833 145.277C143.36 138.277 144.897 131.266 146.443 124.255C147.698 118.598 148.719 112.454 149.809 105.94C153.505 83.7694 157.697 58.6384 173.113 43.9551C178.774 38.5706 184.95 33.8385 190.932 29.2622C201.845 20.9079 212.146 13.021 219.635 1.42432L223.72 4.06304C215.774 16.3705 204.646 24.8903 193.889 33.1277C188.014 37.6262 181.945 42.2804 176.469 47.48C162.22 61.0435 158.173 85.3176 154.604 106.739C153.505 113.311 152.474 119.514 151.19 125.297C149.633 132.308 148.106 139.309 146.579 146.31C136.396 192.93 125.872 241.128 108.831 287.212L108.841 287.222Z" fill="url(#paint22_linear_1412_3884)"/>
<defs>
<linearGradient id="paint0_linear_1412_3884" x1="922.331" y1="303.769" x2="1007.97" y2="50.1036" gradientUnits="userSpaceOnUse">
<stop stop-color="#8824DC"/>
<stop offset="1" stop-color="#B1219D"/>
</linearGradient>
<linearGradient id="paint1_linear_1412_3884" x1="913.281" y1="271.808" x2="914.416" y2="241.462" gradientUnits="userSpaceOnUse">
<stop stop-color="#8824DC"/>
<stop offset="1" stop-color="#B1219D"/>
</linearGradient>
<linearGradient id="paint2_linear_1412_3884" x1="905.813" y1="257.748" x2="910.33" y2="198.066" gradientUnits="userSpaceOnUse">
<stop stop-color="#8824DC"/>
<stop offset="1" stop-color="#B1219D"/>
</linearGradient>
<linearGradient id="paint3_linear_1412_3884" x1="898.958" y1="242.691" x2="908.155" y2="158.732" gradientUnits="userSpaceOnUse">
<stop stop-color="#8824DC"/>
<stop offset="1" stop-color="#B1219D"/>
</linearGradient>
<linearGradient id="paint4_linear_1412_3884" x1="894.742" y1="215.183" x2="903.818" y2="132.531" gradientUnits="userSpaceOnUse">
<stop stop-color="#8824DC"/>
<stop offset="1" stop-color="#B1219D"/>
</linearGradient>
<linearGradient id="paint5_linear_1412_3884" x1="888.217" y1="175.092" x2="895.079" y2="103.832" gradientUnits="userSpaceOnUse">
<stop stop-color="#8824DC"/>
<stop offset="1" stop-color="#B1219D"/>
</linearGradient>
<linearGradient id="paint6_linear_1412_3884" x1="872.65" y1="135.263" x2="878.656" y2="69.5777" gradientUnits="userSpaceOnUse">
<stop stop-color="#8824DC"/>
<stop offset="1" stop-color="#B1219D"/>
</linearGradient>
<linearGradient id="paint7_linear_1412_3884" x1="856.932" y1="102.069" x2="864.075" y2="31.5491" gradientUnits="userSpaceOnUse">
<stop stop-color="#8824DC"/>
<stop offset="1" stop-color="#B1219D"/>
</linearGradient>
<linearGradient id="paint8_linear_1412_3884" x1="848.844" y1="79.071" x2="855.416" y2="12.2025" gradientUnits="userSpaceOnUse">
<stop stop-color="#8824DC"/>
<stop offset="1" stop-color="#B1219D"/>
</linearGradient>
<linearGradient id="paint9_linear_1412_3884" x1="847.516" y1="60.4809" x2="851.377" y2="9.59723" gradientUnits="userSpaceOnUse">
<stop stop-color="#8824DC"/>
<stop offset="1" stop-color="#B1219D"/>
</linearGradient>
<linearGradient id="paint10_linear_1412_3884" x1="849.981" y1="43.3562" x2="851.442" y2="12.2179" gradientUnits="userSpaceOnUse">
<stop stop-color="#8824DC"/>
<stop offset="1" stop-color="#B1219D"/>
</linearGradient>
<linearGradient id="paint11_linear_1412_3884" x1="852.953" y1="25.8874" x2="853.243" y2="12.0947" gradientUnits="userSpaceOnUse">
<stop stop-color="#8824DC"/>
<stop offset="1" stop-color="#B1219D"/>
</linearGradient>
<linearGradient id="paint12_linear_1412_3884" x1="1096.36" y1="302.193" x2="1186.05" y2="269.613" gradientUnits="userSpaceOnUse">
<stop stop-color="#8824DC"/>
<stop offset="1" stop-color="#B1219D"/>
</linearGradient>
<linearGradient id="paint13_linear_1412_3884" x1="995.211" y1="302.261" x2="1082.12" y2="271.917" gradientUnits="userSpaceOnUse">
<stop stop-color="#8824DC"/>
<stop offset="1" stop-color="#B1219D"/>
</linearGradient>
<linearGradient id="paint14_linear_1412_3884" x1="904.49" y1="302.147" x2="967.268" y2="287.231" gradientUnits="userSpaceOnUse">
<stop stop-color="#8824DC"/>
<stop offset="1" stop-color="#B1219D"/>
</linearGradient>
<linearGradient id="paint15_linear_1412_3884" x1="814.131" y1="301.657" x2="847.93" y2="297.489" gradientUnits="userSpaceOnUse">
<stop stop-color="#8824DC"/>
<stop offset="1" stop-color="#B1219D"/>
</linearGradient>
<linearGradient id="paint16_linear_1412_3884" x1="717.326" y1="301.406" x2="735.994" y2="300.146" gradientUnits="userSpaceOnUse">
<stop stop-color="#8824DC"/>
<stop offset="1" stop-color="#B1219D"/>
</linearGradient>
<linearGradient id="paint17_linear_1412_3884" x1="624.697" y1="300.807" x2="632.693" y2="300.576" gradientUnits="userSpaceOnUse">
<stop stop-color="#8824DC"/>
<stop offset="1" stop-color="#B1219D"/>
</linearGradient>
<linearGradient id="paint18_linear_1412_3884" x1="541.905" y1="301.518" x2="566.429" y2="299.339" gradientUnits="userSpaceOnUse">
<stop stop-color="#8824DC"/>
<stop offset="1" stop-color="#B1219D"/>
</linearGradient>
<linearGradient id="paint19_linear_1412_3884" x1="449.881" y1="302.064" x2="483.663" y2="297.907" gradientUnits="userSpaceOnUse">
<stop stop-color="#8824DC"/>
<stop offset="1" stop-color="#B1219D"/>
</linearGradient>
<linearGradient id="paint20_linear_1412_3884" x1="364.367" y1="302.256" x2="412.624" y2="293.643" gradientUnits="userSpaceOnUse">
<stop stop-color="#8824DC"/>
<stop offset="1" stop-color="#B1219D"/>
</linearGradient>
<linearGradient id="paint21_linear_1412_3884" x1="278.837" y1="301.635" x2="340.807" y2="287.083" gradientUnits="userSpaceOnUse">
<stop stop-color="#8824DC"/>
<stop offset="1" stop-color="#B1219D"/>
</linearGradient>
<linearGradient id="paint22_linear_1412_3884" x1="193.193" y1="301.915" x2="267.677" y2="280.414" gradientUnits="userSpaceOnUse">
<stop stop-color="#8824DC"/>
<stop offset="1" stop-color="#B1219D"/>
</linearGradient>
</defs>
</svg>
