<svg width="393" height="393" viewBox="0 0 393 393" fill="none" xmlns="http://www.w3.org/2000/svg">
<path d="M3.05176e-05 393H393V0H3.05176e-05V393ZM390.774 390.769H2.23511V2.23062H390.774V390.769Z" fill="url(#paint0_linear_1825_333)"/>
<path d="M1.11929 360.71H391.889V362.94H1.11929V360.71Z" fill="url(#paint1_linear_1825_333)"/>
<path d="M1.11929 330.65H391.889V332.88H1.11929V330.65Z" fill="url(#paint2_linear_1825_333)"/>
<path d="M1.11929 300.594H391.889V302.825H1.11929V300.594Z" fill="url(#paint3_linear_1825_333)"/>
<path d="M1.11929 270.534H391.889V272.765H1.11929V270.534Z" fill="url(#paint4_linear_1825_333)"/>
<path d="M1.11929 240.475H391.889V242.705H1.11929V240.475Z" fill="url(#paint5_linear_1825_333)"/>
<path d="M1.11929 210.415H391.889V212.645H1.11929V210.415Z" fill="url(#paint6_linear_1825_333)"/>
<path d="M1.11929 180.355H391.889V182.585H1.11929V180.355Z" fill="url(#paint7_linear_1825_333)"/>
<path d="M1.11929 150.295H391.889V152.525H1.11929V150.295Z" fill="url(#paint8_linear_1825_333)"/>
<path d="M1.11929 120.235H391.889V122.466H1.11929V120.235Z" fill="url(#paint9_linear_1825_333)"/>
<path d="M1.11929 90.1796H391.889V92.4102H1.11929V90.1796Z" fill="url(#paint10_linear_1825_333)"/>
<path d="M1.11929 60.1198H391.889V62.3504H1.11929V60.1198Z" fill="url(#paint11_linear_1825_333)"/>
<path d="M1.11929 30.0599H391.889V32.2905H1.11929V30.0599Z" fill="url(#paint12_linear_1825_333)"/>
<path d="M30.0604 1.1153H32.291V391.885H30.0604V1.1153Z" fill="url(#paint13_linear_1825_333)"/>
<path d="M60.119 1.1153H62.3496V391.885H60.119V1.1153Z" fill="url(#paint14_linear_1825_333)"/>
<path d="M90.1795 1.1153H92.4102V391.885H90.1795V1.1153Z" fill="url(#paint15_linear_1825_333)"/>
<path d="M120.239 1.1153H122.47V391.885H120.239V1.1153Z" fill="url(#paint16_linear_1825_333)"/>
<path d="M150.3 1.1153H152.53V391.885H150.3V1.1153Z" fill="url(#paint17_linear_1825_333)"/>
<path d="M180.359 1.1153H182.59V391.885H180.359V1.1153Z" fill="url(#paint18_linear_1825_333)"/>
<path d="M210.419 1.1153H212.649V391.885H210.419V1.1153Z" fill="url(#paint19_linear_1825_333)"/>
<path d="M240.474 1.1153H242.705V391.885H240.474V1.1153Z" fill="url(#paint20_linear_1825_333)"/>
<path d="M270.535 1.1153H272.766V391.885H270.535V1.1153Z" fill="url(#paint21_linear_1825_333)"/>
<path d="M300.594 1.1153H302.824V391.885H300.594V1.1153Z" fill="url(#paint22_linear_1825_333)"/>
<path d="M330.654 1.1153H332.885V391.885H330.654V1.1153Z" fill="url(#paint23_linear_1825_333)"/>
<path d="M360.714 1.1153H362.944V391.885H360.714V1.1153Z" fill="url(#paint24_linear_1825_333)"/>
<defs>
<linearGradient id="paint0_linear_1825_333" x1="100.445" y1="413.205" x2="-79.298" y2="289.052" gradientUnits="userSpaceOnUse">
<stop stop-color="#8824DC"/>
<stop offset="1" stop-color="#B1219D"/>
</linearGradient>
<linearGradient id="paint1_linear_1825_333" x1="100.994" y1="363.055" x2="100.976" y2="360.873" gradientUnits="userSpaceOnUse">
<stop stop-color="#8824DC"/>
<stop offset="1" stop-color="#B1219D"/>
</linearGradient>
<linearGradient id="paint2_linear_1825_333" x1="100.994" y1="332.995" x2="100.976" y2="330.813" gradientUnits="userSpaceOnUse">
<stop stop-color="#8824DC"/>
<stop offset="1" stop-color="#B1219D"/>
</linearGradient>
<linearGradient id="paint3_linear_1825_333" x1="100.994" y1="302.94" x2="100.976" y2="300.758" gradientUnits="userSpaceOnUse">
<stop stop-color="#8824DC"/>
<stop offset="1" stop-color="#B1219D"/>
</linearGradient>
<linearGradient id="paint4_linear_1825_333" x1="100.994" y1="272.88" x2="100.976" y2="270.698" gradientUnits="userSpaceOnUse">
<stop stop-color="#8824DC"/>
<stop offset="1" stop-color="#B1219D"/>
</linearGradient>
<linearGradient id="paint5_linear_1825_333" x1="100.994" y1="242.82" x2="100.976" y2="240.638" gradientUnits="userSpaceOnUse">
<stop stop-color="#8824DC"/>
<stop offset="1" stop-color="#B1219D"/>
</linearGradient>
<linearGradient id="paint6_linear_1825_333" x1="100.994" y1="212.76" x2="100.976" y2="210.578" gradientUnits="userSpaceOnUse">
<stop stop-color="#8824DC"/>
<stop offset="1" stop-color="#B1219D"/>
</linearGradient>
<linearGradient id="paint7_linear_1825_333" x1="100.994" y1="182.7" x2="100.976" y2="180.519" gradientUnits="userSpaceOnUse">
<stop stop-color="#8824DC"/>
<stop offset="1" stop-color="#B1219D"/>
</linearGradient>
<linearGradient id="paint8_linear_1825_333" x1="100.994" y1="152.64" x2="100.976" y2="150.459" gradientUnits="userSpaceOnUse">
<stop stop-color="#8824DC"/>
<stop offset="1" stop-color="#B1219D"/>
</linearGradient>
<linearGradient id="paint9_linear_1825_333" x1="100.994" y1="122.58" x2="100.976" y2="120.399" gradientUnits="userSpaceOnUse">
<stop stop-color="#8824DC"/>
<stop offset="1" stop-color="#B1219D"/>
</linearGradient>
<linearGradient id="paint10_linear_1825_333" x1="100.994" y1="92.5249" x2="100.976" y2="90.3433" gradientUnits="userSpaceOnUse">
<stop stop-color="#8824DC"/>
<stop offset="1" stop-color="#B1219D"/>
</linearGradient>
<linearGradient id="paint11_linear_1825_333" x1="100.994" y1="62.4651" x2="100.976" y2="60.2836" gradientUnits="userSpaceOnUse">
<stop stop-color="#8824DC"/>
<stop offset="1" stop-color="#B1219D"/>
</linearGradient>
<linearGradient id="paint12_linear_1825_333" x1="100.994" y1="32.4052" x2="100.976" y2="30.2237" gradientUnits="userSpaceOnUse">
<stop stop-color="#8824DC"/>
<stop offset="1" stop-color="#B1219D"/>
</linearGradient>
<linearGradient id="paint13_linear_1825_333" x1="30.6305" y1="411.975" x2="29.1236" y2="411.969" gradientUnits="userSpaceOnUse">
<stop stop-color="#8824DC"/>
<stop offset="1" stop-color="#B1219D"/>
</linearGradient>
<linearGradient id="paint14_linear_1825_333" x1="60.6891" y1="411.975" x2="59.1822" y2="411.969" gradientUnits="userSpaceOnUse">
<stop stop-color="#8824DC"/>
<stop offset="1" stop-color="#B1219D"/>
</linearGradient>
<linearGradient id="paint15_linear_1825_333" x1="90.7496" y1="411.975" x2="89.2427" y2="411.969" gradientUnits="userSpaceOnUse">
<stop stop-color="#8824DC"/>
<stop offset="1" stop-color="#B1219D"/>
</linearGradient>
<linearGradient id="paint16_linear_1825_333" x1="120.809" y1="411.975" x2="119.302" y2="411.969" gradientUnits="userSpaceOnUse">
<stop stop-color="#8824DC"/>
<stop offset="1" stop-color="#B1219D"/>
</linearGradient>
<linearGradient id="paint17_linear_1825_333" x1="150.87" y1="411.975" x2="149.363" y2="411.969" gradientUnits="userSpaceOnUse">
<stop stop-color="#8824DC"/>
<stop offset="1" stop-color="#B1219D"/>
</linearGradient>
<linearGradient id="paint18_linear_1825_333" x1="180.929" y1="411.975" x2="179.422" y2="411.969" gradientUnits="userSpaceOnUse">
<stop stop-color="#8824DC"/>
<stop offset="1" stop-color="#B1219D"/>
</linearGradient>
<linearGradient id="paint19_linear_1825_333" x1="210.989" y1="411.975" x2="209.482" y2="411.969" gradientUnits="userSpaceOnUse">
<stop stop-color="#8824DC"/>
<stop offset="1" stop-color="#B1219D"/>
</linearGradient>
<linearGradient id="paint20_linear_1825_333" x1="241.045" y1="411.975" x2="239.538" y2="411.969" gradientUnits="userSpaceOnUse">
<stop stop-color="#8824DC"/>
<stop offset="1" stop-color="#B1219D"/>
</linearGradient>
<linearGradient id="paint21_linear_1825_333" x1="271.105" y1="411.975" x2="269.598" y2="411.969" gradientUnits="userSpaceOnUse">
<stop stop-color="#8824DC"/>
<stop offset="1" stop-color="#B1219D"/>
</linearGradient>
<linearGradient id="paint22_linear_1825_333" x1="301.164" y1="411.975" x2="299.657" y2="411.969" gradientUnits="userSpaceOnUse">
<stop stop-color="#8824DC"/>
<stop offset="1" stop-color="#B1219D"/>
</linearGradient>
<linearGradient id="paint23_linear_1825_333" x1="331.224" y1="411.975" x2="329.717" y2="411.969" gradientUnits="userSpaceOnUse">
<stop stop-color="#8824DC"/>
<stop offset="1" stop-color="#B1219D"/>
</linearGradient>
<linearGradient id="paint24_linear_1825_333" x1="361.284" y1="411.975" x2="359.777" y2="411.969" gradientUnits="userSpaceOnUse">
<stop stop-color="#8824DC"/>
<stop offset="1" stop-color="#B1219D"/>
</linearGradient>
</defs>
</svg>
