<svg width="2400" height="904" viewBox="0 0 2400 904" fill="none" xmlns="http://www.w3.org/2000/svg">
<path d="M476.003 316C476.003 259.507 476 203.514 476.005 147.521C476.006 136.296 480.462 131.837 491.741 131.824C511.239 131.801 530.737 131.793 550.234 131.828C560.184 131.846 564.975 136.629 564.988 146.469C565.007 160.537 564.993 174.606 565.559 189.087C581.616 148.48 609.872 125.105 654.517 124.32C700.059 123.518 727.111 148.721 743.512 187.663C749.187 178.411 753.901 168.632 760.5 160.356C781.735 133.728 810.455 123.004 843.786 124.648C873.313 126.104 898.162 137.805 916.441 161.75C926.656 175.131 931.222 190.73 932.869 207.133C934.065 219.043 934.571 231.071 934.566 243.046C934.528 325.034 934.273 407.022 934.093 489.01C934.066 500.936 929.812 505.233 917.87 505.245C897.372 505.266 876.875 505.265 856.378 505.245C845.422 505.233 840.861 500.705 840.865 489.819C840.89 415.828 841.03 341.838 840.843 267.848C840.819 258.425 840.039 248.802 837.997 239.631C834.089 222.081 822.687 213.205 804.739 212.07C779.393 210.466 759.493 225.634 755.227 251.354C752.925 265.238 752.1 279.5 752.03 293.598C751.708 358.422 751.888 423.248 751.887 488.073C751.887 501.011 747.737 505.241 734.995 505.247C714.664 505.258 694.334 505.267 674.003 505.244C663.083 505.231 658.401 500.652 658.411 489.812C658.474 421.655 658.61 353.498 658.644 285.341C658.651 270.022 658.622 254.669 654.131 239.788C648.662 221.67 637.622 212.442 620.015 211.171C600.596 209.768 585.857 217.955 578.11 234.639C572.619 246.461 570.819 259.161 570.117 271.991C569.526 282.8 569.358 293.642 569.345 304.469C569.277 365.795 569.314 427.121 569.311 488.446C569.31 501.171 565.283 505.24 552.658 505.247C532.16 505.259 511.663 505.272 491.165 505.241C480.611 505.225 476.005 500.554 476.005 489.977C476.001 432.151 476.003 374.326 476.003 316Z" fill="#FEFEFE"/>
<path d="M1209.25 462.809C1207.05 459.364 1206.1 462.458 1205.09 463.334C1196.65 470.623 1188.61 478.409 1179.86 485.292C1159.11 501.606 1134.97 508.616 1108.91 509.81C1092.54 510.561 1076.29 510.063 1060.45 505.105C1031.17 495.939 1010.78 477.222 1000.83 448.144C990.325 417.464 990.577 386.485 1002.42 356.248C1015.8 322.077 1042.04 301.229 1075.79 288.976C1099.26 280.457 1123.79 276.902 1148.42 274.012C1163.47 272.246 1178.54 270.719 1194.18 269.022C1193.74 253.556 1195.77 238.047 1191.37 222.912C1185.86 203.963 1171.94 195.48 1153.35 193.576C1130.7 191.256 1103.28 200.489 1094.48 228.571C1093.59 231.42 1093.06 234.395 1092.04 237.19C1089.49 244.125 1085.17 246.855 1077.87 246.109C1057.66 244.044 1037.45 241.984 1017.26 239.727C1007.55 238.64 1003.48 232.468 1005.49 222.921C1015.23 176.73 1043.41 146.813 1087.52 132.072C1132.61 117.007 1178.14 116.197 1223.12 132.723C1265.13 148.157 1287.19 179.093 1288.84 223.555C1290.13 258.169 1289.65 292.85 1289.87 327.502C1289.98 343.998 1290.13 360.499 1289.83 376.991C1289.48 396.552 1295.16 413.988 1306.93 429.544C1310.14 433.788 1313.35 438.06 1316.18 442.559C1320.88 450.027 1319.95 455.242 1313.35 460.951C1297.48 474.684 1281.62 488.427 1265.72 502.136C1256.98 509.68 1251.22 509.517 1242.48 502.279C1229.09 491.195 1218.79 477.575 1209.25 462.809ZM1111.02 434.542C1128.02 445.476 1149.94 443.341 1166.42 429.159C1175.97 420.936 1182.42 410.593 1187.03 398.995C1196.67 374.705 1193.54 349.271 1194.25 322.956C1181.08 324.173 1168.45 324.693 1156.07 326.698C1146.98 328.17 1137.82 330.695 1129.35 334.304C1100.22 346.721 1090.37 371.7 1093.55 401.412C1094.94 414.385 1099.63 425.887 1111.02 434.542Z" fill="#FEFEFE"/>
<path d="M103.134 429.722C99.1374 404.687 100.2 380.43 109.415 357.064C122.948 322.745 148.905 301.477 182.806 289.085C206.403 280.459 231.108 276.885 255.916 274.004C270.957 272.256 286.021 270.702 301.632 269C301.471 252.292 303.49 235.539 297.677 219.55C291.074 201.387 276.208 194.415 258.252 193.376C234.206 191.984 207.31 202.707 200.213 234.327C198.044 243.987 193.596 246.949 183.763 245.977C164.046 244.028 144.342 241.941 124.653 239.731C115.143 238.664 110.97 232.69 112.84 223.445C121.141 182.409 144.361 152.842 182.89 136.867C233.579 115.851 285.309 114.395 336.461 135.234C373.529 150.336 392.942 179.287 395.929 219.062C396.876 231.669 397.077 244.354 397.119 257.005C397.25 296.496 397.337 335.989 397.046 375.479C396.894 396.069 402.516 414.483 415.155 430.767C418.214 434.708 421.229 438.718 423.872 442.941C428.132 449.748 427.151 455.413 421.175 460.6C405.073 474.578 388.969 488.553 372.836 502.495C364.573 509.636 358.053 509.739 349.977 502.247C343.397 496.143 336.88 489.871 331.111 483.021C325.348 476.178 320.548 468.525 315.144 460.975C309.297 466.338 303.467 471.721 297.6 477.062C273.07 499.39 243.955 509.517 211.047 510.061C192.718 510.364 174.771 508.837 157.773 501.455C127.776 488.426 110.816 464.974 103.965 433.556C103.717 432.418 103.455 431.284 103.134 429.722ZM281.184 421.676C284.064 417.417 287.251 413.33 289.765 408.864C296.822 396.331 300.383 382.658 300.869 368.391C301.371 353.651 300.981 338.879 300.981 323.775C278.415 323.81 255.957 325.35 234.918 335.05C217.918 342.889 206.619 355.729 202.361 374.185C199.747 385.514 199.625 396.975 202.129 408.35C207.159 431.2 224.009 443.461 247.255 441.069C261.062 439.648 271.803 432.46 281.184 421.676Z" fill="#FEFEFE"/>
<path d="M2301 292C2301 358.319 2301 424.138 2301 489.957C2301 500.534 2296.45 505.205 2285.86 505.234C2264.53 505.292 2243.2 505.294 2221.87 505.232C2212.25 505.205 2207.56 500.398 2207.56 490.715C2207.59 424.063 2207.88 357.41 2207.52 290.76C2207.43 275.017 2206.3 259.101 2203.69 243.595C2200.34 223.725 2188.21 212.782 2170.62 210.764C2152.29 208.662 2135.78 218.012 2126.85 235.797C2118.37 252.66 2115.19 270.855 2115.1 289.458C2114.79 355.609 2114.88 421.761 2114.82 487.913C2114.81 500.96 2110.54 505.245 2097.48 505.25C2077.32 505.257 2057.16 505.267 2037 505.245C2025.93 505.234 2021.29 500.555 2021.29 489.377C2021.25 375.235 2021.22 261.093 2021.19 146.952C2021.19 136.645 2025.83 131.86 2036.02 131.833C2055.85 131.779 2075.68 131.784 2095.51 131.832C2105.21 131.856 2109.75 136.534 2109.75 146.31C2109.75 160.807 2109.75 175.304 2109.75 189.801C2109.75 191.392 2109.75 192.984 2109.75 194.576C2110.07 194.658 2110.4 194.739 2110.72 194.821C2112.82 190.264 2114.85 185.674 2117.02 181.156C2123.36 168.024 2131.13 155.885 2141.91 145.894C2158.73 130.311 2179.21 124.656 2201.5 124.385C2229.89 124.041 2254.95 132.144 2274.48 153.908C2287.63 168.571 2293.77 186.276 2296.97 205.258C2301.8 233.838 2300.92 262.694 2301 292Z" fill="#FEFEFE"/>
<path d="M1829.71 511.889C1803.43 513.995 1778.42 510.96 1754.69 500.064C1723.93 485.934 1702.2 462.572 1686.87 432.883C1669.98 400.184 1662.96 365.049 1661.77 328.559C1660.45 287.811 1665.68 248.168 1683.06 210.854C1700.02 174.44 1725.61 146.389 1764.33 132.961C1826.72 111.329 1905.36 127.358 1944.91 204.851C1959.41 233.255 1966.69 263.599 1969.25 295.236C1971.98 328.894 1969.92 362.112 1959.95 394.538C1948.25 432.608 1928.37 465.142 1895.07 488.286C1875.55 501.859 1853.73 509.314 1829.71 511.889ZM1776.62 219.174C1769 232.792 1765.62 247.735 1764.17 262.989C1760.53 301.391 1760.55 339.813 1766.09 378.068C1768.31 393.429 1772.28 408.376 1780.99 421.568C1791.52 437.513 1807.51 443.663 1826.03 439.201C1842.29 435.285 1851.6 423.917 1857.96 409.472C1865.16 393.095 1867.62 375.618 1868.83 358.005C1870.8 329.554 1870.59 301.076 1867.92 272.671C1866.29 255.436 1863.77 238.313 1857 222.177C1852.23 210.78 1844.56 201.877 1832.44 198.296C1810.61 191.85 1789.39 196.612 1776.62 219.174Z" fill="#FEFEFE"/>
<path d="M826.389 685.71C853.1 688.931 879.334 692.547 905.671 695.096C948.496 699.242 991.452 700.553 1034.48 699.264C1177.02 694.993 1314.04 665.266 1445.67 610.438C1450.74 608.326 1457.26 607.453 1462.56 608.569C1475.33 611.258 1479.52 625.513 1470.44 634.947C1465.31 640.276 1458.93 644.486 1452.79 648.732C1396.45 687.687 1335.01 716.249 1270.24 737.976C1219.99 754.833 1168.59 766.975 1116.18 774.713C1057.49 783.378 998.536 785.983 939.259 782.322C863.618 777.652 789.805 763.746 717.899 739.865C637.69 713.226 562.813 675.814 494.314 626.302C467.635 607.019 442.632 585.409 417.016 564.672C410.416 559.329 408.911 552.918 412.172 548.196C415.683 543.112 421.844 542.536 429.655 547.03C478.7 575.25 529.572 599.625 582.314 620.135C646.758 645.195 712.941 664.222 780.751 677.613C795.762 680.577 810.886 682.97 826.389 685.71Z" fill="#FEFEFE"/>
<path d="M1442 205.965C1423.51 205.965 1405.51 205.988 1387.51 205.955C1377.39 205.937 1372.79 201.43 1372.75 191.42C1372.7 175.924 1372.68 160.428 1372.76 144.933C1372.81 135.345 1377.3 130.888 1386.86 130.885C1460.51 130.866 1534.16 130.864 1607.8 130.889C1617.26 130.893 1621.96 135.587 1622 144.958C1622.05 156.122 1621.54 167.311 1622.16 178.441C1622.69 188.139 1619.85 196.432 1614.48 204.152C1603.17 220.401 1591.86 236.65 1580.5 252.87C1551.21 294.723 1521.89 336.559 1492.59 378.404C1491.67 379.719 1490.79 381.062 1488.82 383.976C1500.75 383.976 1511.35 383.402 1521.88 384.083C1554.41 386.189 1585.51 393.789 1614.51 409.226C1624.24 414.407 1628.84 422.144 1628.83 432.96C1628.8 448.955 1629.02 464.955 1628.67 480.943C1628.59 484.527 1627.3 488.551 1625.31 491.524C1621.82 496.729 1616.89 497.163 1610.28 493.793C1587.01 481.915 1562.46 473.977 1536.67 469.833C1481.05 460.9 1427.93 468.553 1377.72 494.311C1369.23 498.669 1362.57 493.46 1360.49 486.915C1360.04 485.525 1359.98 483.968 1359.98 482.488C1359.97 464.16 1359.89 445.831 1360.06 427.504C1360.16 415.749 1363.56 405.066 1370.4 395.284C1413.42 333.799 1456.29 272.2 1499.2 210.639C1500.12 209.319 1501.04 207.997 1502.45 205.965C1481.96 205.965 1462.23 205.965 1442 205.965Z" fill="#FEFEFE"/>
<path d="M1576.42 543.815C1580.07 563.474 1577.01 582.398 1572.91 601.126C1564.06 641.608 1548.42 679.086 1521.71 711.253C1515.67 718.521 1508.65 725.017 1501.69 731.454C1499.26 733.709 1495.82 735.344 1492.57 736.158C1486.87 737.586 1483.02 733.524 1484.44 727.805C1485.39 723.961 1487.03 720.277 1488.49 716.57C1500.35 686.427 1512.38 656.306 1519.21 624.537C1521.54 613.733 1522.38 602.512 1522.86 591.436C1523.28 581.785 1518.06 575.214 1508.76 571.954C1493.7 566.673 1477.96 565.738 1462.4 566.571C1432 568.197 1401.66 571.142 1371.3 573.539C1369.81 573.657 1368.3 573.92 1366.82 573.828C1359.85 573.393 1357.03 568.255 1360.92 562.469C1362.72 559.798 1365.34 557.486 1368.02 555.64C1391.3 539.609 1417.36 530.58 1444.96 525.633C1479.05 519.523 1513.19 518.889 1547.19 526.108C1554.28 527.611 1561.12 530.397 1567.92 533.001C1572.53 534.77 1575.38 538.443 1576.42 543.815Z" fill="#FDFDFD"/>
</svg>
