<svg width="318" height="75" viewBox="0 0 318 75" fill="none" xmlns="http://www.w3.org/2000/svg">
<g clip-path="url(#clip0_4520_7)">
<path d="M13.767 26.0156H17.9135V52.2656H13.767V26.0156ZM20.835 26.0156H24.9815V52.2656H20.8585L20.835 26.0156ZM27.903 26.0156H32.0495V52.2656H27.9265L27.903 26.0156ZM34.971 26.0156H39.1176V52.2656H34.9945L34.971 26.0156ZM56.175 26.0156H60.3216V52.2656H56.1986L56.175 26.0156ZM49.107 26.0156H53.2536V52.2656H49.1306L49.107 26.0156ZM42.039 26.0156H46.1856V52.2656H42.0626L42.039 26.0156ZM65.7875 67.2891C66.5974 65.4286 67.0987 63.4498 67.2718 61.4297C67.2718 59.8125 67.2718 59.2969 65.387 58.6875C65.387 58.6875 65.1749 58.6875 65.1749 58.2891C65.1717 58.246 65.1771 58.2026 65.1908 58.1616C65.2045 58.1206 65.2262 58.0826 65.2546 58.05C65.2831 58.0173 65.3177 57.9905 65.3566 57.9712C65.3955 57.9519 65.4379 57.9405 65.4812 57.9375C65.4812 57.7031 65.4812 57.2813 64.1618 57.2813C62.8425 57.2813 62.866 57.7031 62.8425 57.9375C62.8858 57.9405 62.9282 57.9519 62.9671 57.9712C63.006 57.9905 63.0406 58.0173 63.0691 58.05C63.0975 58.0826 63.1192 58.1206 63.1329 58.1616C63.1466 58.2026 63.152 58.246 63.1488 58.2891C63.1488 58.6172 62.9367 58.6875 62.9367 58.6875C60.9341 59.2969 60.9812 59.7891 61.0519 61.4297C61.2397 63.4398 61.7404 65.4086 62.5362 67.2656H53.3007V70.5703H40.9552V57.9609H33.1804V70.6875H20.835V67.3828H11.411C12.2093 65.5266 12.7102 63.5574 12.8953 61.5469C12.8953 59.9297 13.0131 59.4141 11.0105 58.8047C11.0105 58.8047 10.7984 58.8047 10.7984 58.4063C10.7952 58.3631 10.8006 58.3198 10.8143 58.2788C10.8279 58.2377 10.8496 58.1998 10.8781 58.1671C10.9066 58.1345 10.9412 58.1077 10.9801 58.0884C11.019 58.0691 11.0613 58.0577 11.1047 58.0547C11.1047 58.0547 11.1047 57.3984 9.78533 57.3984C8.46597 57.3984 8.46597 57.8203 8.46597 58.0547C8.50932 58.0577 8.55166 58.0691 8.59055 58.0884C8.62943 58.1077 8.6641 58.1345 8.69257 58.1671C8.72103 58.1998 8.74272 58.2377 8.75639 58.2788C8.77007 58.3198 8.77546 58.3631 8.77225 58.4063C8.77225 58.7344 8.56021 58.8047 8.56021 58.8047C6.55761 59.4141 6.58117 59.9063 6.67541 61.5469C6.85098 63.559 7.3522 65.5297 8.15969 67.3828H0.549805V75H73.5859V67.3828H65.7875V67.2891ZM47.929 13.6172L37.0678 9.75L26.2067 13.6172V15H47.929V13.6172ZM0.549805 0V52.4766H4.29585L6.46337 50.25V24.3281H9.05497V15.0938H22.3664V11.2734L34.382 6.77344V5.15625H39.7066V6.75L51.7222 11.25V15.0938H65.0336V24.3281H67.6487V50.25L69.8163 52.4766H73.5859V0H0.549805Z" fill="white"/>
<path d="M90.2901 73.7812H86.4263V57.7969H90.3372C93.9419 57.7969 95.5911 59.4375 95.5911 61.9688C95.5983 62.6934 95.374 63.4016 94.9506 63.9913C94.5272 64.581 93.9265 65.0217 93.2351 65.25C94.1087 65.4552 94.884 65.9547 95.4294 66.6639C95.9748 67.3731 96.2567 68.2482 96.2272 69.1406C96.2272 72.2813 93.8712 73.8281 90.2194 73.8281M90.2194 59.625H88.5702V64.5469H90.0781C92.1749 64.5469 93.3765 63.6562 93.3765 62.0156C93.3765 60.375 92.4341 59.6719 90.1723 59.6719L90.2194 59.625ZM90.3608 66.3516H88.5702V72.0234H90.3608C92.7168 72.0234 93.9655 71.1328 93.9655 69.1875C93.9655 67.2422 92.7168 66.3516 90.3137 66.3516H90.3608Z" fill="white"/>
<path d="M110.858 73.9219L108.926 69H102.329L100.539 73.6875H98.1826L104.497 57.5625H106.853L113.002 73.4063L110.905 73.8516M105.651 60.2578L103.107 66.9844H108.219L105.651 60.2578Z" fill="white"/>
<path d="M127.091 73.7812L118.232 61.2422V73.7812H116.112V57.7969H118.067L126.643 69.75V57.7969H128.74V73.7812H127.091Z" fill="white"/>
<path d="M142.994 73.9453L135.337 65.7188V73.7812H133.24V57.7969H135.337V64.9687L142.24 57.7969H144.95L137.74 65.2734L145.256 73.5L142.994 73.9453Z" fill="white"/>
<path d="M159.674 74.0859C155.174 74.0859 152.324 70.8047 152.324 65.7188C152.324 60.6328 155.174 57.3516 159.839 57.3516C164.504 57.3516 167.19 60.6328 167.19 65.7188C167.19 70.8047 164.198 74.0859 159.674 74.0859ZM159.674 59.4375C156.517 59.4375 154.562 61.9688 154.562 65.7188C154.562 69.4688 156.517 72 159.674 72C162.832 72 164.763 69.4688 164.763 65.625C164.763 61.7813 162.832 59.4375 159.674 59.4375Z" fill="white"/>
<path d="M173.033 59.7422V64.6875H177.98L178.287 66.6094H173.033V73.7812H170.936V57.7969H179.347V59.7422H173.033Z" fill="white"/>
<path d="M194.543 74.086C190.043 74.086 187.027 70.8047 187.027 65.7188C187.027 60.6329 190.019 57.3516 194.543 57.3516C196.217 57.2801 197.87 57.7487 199.255 58.6875L198.949 61.0313C197.711 60.0507 196.173 59.5213 194.59 59.5313C191.292 59.5313 189.336 62.0625 189.336 65.8125C189.336 69.5625 191.292 72.0938 194.59 72.0938C196.23 72.0501 197.81 71.4739 199.09 70.4532L199.396 72.5391C198.059 73.6041 196.397 74.1829 194.684 74.1797" fill="white"/>
<path d="M213.721 73.9219L211.765 69H205.169L203.378 73.6875H201.022L207.336 57.5625H209.692L215.841 73.4063L213.744 73.8516M208.491 60.2578L205.946 66.9844H211.106L208.491 60.2578Z" fill="white"/>
<path d="M229.789 73.7812L220.931 61.2422V73.7812H218.975V57.7969H220.931L229.506 69.75V57.7969H231.603V73.7812H229.789Z" fill="white"/>
<path d="M247.223 73.9219L245.268 69H238.671L236.88 73.6875H234.524L240.862 57.6328H243.218L249.367 73.4766L247.27 73.9219M242.016 60.3281L239.472 67.0547H244.585L242.016 60.3281Z" fill="white"/>
<path d="M256.977 73.7812H252.265V57.7969H256.977C262.537 57.7969 265.529 61.0781 265.529 65.8594C265.529 70.6406 262.537 73.7812 256.977 73.7812ZM257.119 59.7187H254.621V71.8125H257.166C258.007 71.9262 258.864 71.8442 259.668 71.5727C260.473 71.3012 261.203 70.8478 261.801 70.248C262.399 69.6483 262.85 68.9186 263.116 68.1164C263.383 67.3142 263.459 66.4614 263.338 65.625C263.414 64.8068 263.303 63.9821 263.013 63.2129C262.722 62.4437 262.26 61.7499 261.662 61.1838C261.063 60.6176 260.343 60.1937 259.557 59.9441C258.77 59.6944 257.936 59.6254 257.119 59.7422V59.7187Z" fill="white"/>
<path d="M279.053 73.9219L277.097 69H270.501L268.71 73.6875H266.354L272.668 57.5625H275.024L281.338 73.4063L278.982 73.8516M273.846 60.3281L271.302 67.0547H276.555L273.846 60.3281Z" fill="white"/>
<path d="M90.2901 49.2188H86.4263V33H90.3372C93.9419 33 95.5911 34.6406 95.5911 37.1719C95.5983 37.8965 95.374 38.6047 94.9506 39.1944C94.5272 39.7841 93.9265 40.2248 93.2351 40.4531C94.1087 40.6583 94.884 41.1579 95.4294 41.867C95.9748 42.5762 96.2567 43.4513 96.2272 44.3438C96.2272 47.625 93.8712 49.0313 90.2194 49.0313M90.2194 34.8281H88.5702V39.8438H90.0781C92.1749 39.8438 93.3765 38.9531 93.3765 37.3125C93.3765 35.6719 92.4341 34.9688 90.1723 34.9688L90.2194 34.8281ZM90.3608 41.5547H88.5702V47.3438H90.3608C92.7168 47.3438 93.9655 46.4531 93.9655 44.5078C93.9655 42.5625 92.7168 41.6719 90.3137 41.6719L90.3608 41.5547Z" fill="white"/>
<path d="M110.858 49.2187L108.926 44.3672H102.329L100.539 49.0547H98.1826L104.497 32.9297H106.853L113.002 48.7734L110.905 49.2187M105.651 35.4844L103.107 42.4219H108.219L105.651 35.4844Z" fill="white"/>
<path d="M127.091 49.1484L118.232 36.5859V49.1484H116.112V33H118.067L126.643 45.1172V33H128.74V49.1484H127.091Z" fill="white"/>
<path d="M141.91 48.9844L146.622 50.625L146.174 52.9688L137.339 49.2188C135.663 48.6685 134.221 47.5752 133.243 46.1137C132.265 44.6522 131.808 42.9067 131.944 41.1562C131.92 36.3047 134.842 32.8125 139.554 32.8125C144.266 32.8125 146.905 36.2578 146.905 41.1797C147.111 42.8115 146.758 44.4648 145.903 45.8725C145.048 47.2801 143.741 48.3599 142.193 48.9375M139.554 34.8047C136.397 34.8047 134.441 37.1484 134.441 41.0859C134.441 45.0234 136.397 47.5078 139.554 47.5078C142.711 47.5078 144.666 44.9766 144.666 41.0859C144.666 37.1953 142.829 34.8047 139.507 34.8047H139.554Z" fill="white"/>
<path d="M156.517 49.4297C155.664 49.4755 154.811 49.3396 154.014 49.0311C153.218 48.7227 152.497 48.2487 151.899 47.6408C151.301 47.033 150.841 46.3053 150.549 45.5064C150.256 44.7074 150.138 43.8556 150.203 43.0078V33H152.559V42.7031C152.559 45.5391 153.761 47.3906 156.612 47.3906C159.462 47.3906 160.664 45.75 160.664 42.7031V32.8125H163.02V42.6797C163.137 43.5522 163.058 44.4396 162.788 45.278C162.519 46.1164 162.066 46.885 161.462 47.5283C160.858 48.1716 160.118 48.6737 159.296 48.9985C158.474 49.3232 157.589 49.4625 156.706 49.4062" fill="white"/>
<path d="M167.167 49.1484V33H175.884V35.1094H169.428V39.7266H174.376L174.682 41.6719H169.428V47.2031H176.19V49.1484H167.167Z" fill="white"/>
<path d="M190.608 49.2188H185.896V33H190.608C196.169 33 199.161 36.2813 199.161 41.0625C199.161 45.8438 196.098 49.2188 190.608 49.2188ZM190.915 35.1563H188.347V47.25H190.891C191.733 47.3658 192.591 47.2888 193.399 47.0249C194.206 46.761 194.943 46.3171 195.552 45.727C196.161 45.137 196.626 44.4164 196.913 43.6203C197.199 42.8241 197.299 41.9733 197.205 41.1328C197.276 39.6196 196.74 38.1404 195.715 37.0199C194.69 35.8994 193.26 35.2291 191.739 35.1563H190.915Z" fill="white"/>
<path d="M208.067 49.4297C207.213 49.4755 206.36 49.3396 205.563 49.0311C204.767 48.7227 204.046 48.2487 203.448 47.6408C202.851 47.033 202.39 46.3053 202.098 45.5064C201.805 44.7074 201.688 43.8556 201.753 43.0078V33H204.109V42.7031C204.109 45.5391 205.31 47.3906 208.161 47.3906C211.012 47.3906 212.213 45.75 212.213 42.7031V32.8125H214.569V42.6797C214.686 43.5522 214.607 44.4396 214.338 45.278C214.068 46.1164 213.615 46.885 213.011 47.5283C212.407 48.1716 211.668 48.6737 210.845 48.9985C210.023 49.3232 209.138 49.4625 208.255 49.4062" fill="white"/>
<path d="M230.684 49.4297C226.184 49.4297 223.168 46.1485 223.168 41.0625C223.168 35.9766 226.184 32.8125 230.684 32.8125C232.358 32.741 234.011 33.2096 235.396 34.1485L235.137 36.4922C233.899 35.5116 232.361 34.9823 230.778 34.9922C227.48 34.9922 225.524 37.336 225.524 41.2735C225.524 45.211 227.48 47.5547 230.778 47.5547C232.431 47.5839 234.036 46.9989 235.278 45.9141L235.585 48C234.248 49.0651 232.585 49.6439 230.873 49.6407" fill="white"/>
<path d="M249.909 49.2188L247.954 44.2969H241.357L239.59 48.9844H237.234L243.501 32.8594H245.857L252.171 48.7031L249.815 49.1484M244.561 35.4141L242.111 42.1875H247.365L244.561 35.4141Z" fill="white"/>
<path d="M265.977 49.1484L257.118 36.5859V49.1484H255.021V33H256.977L265.694 45.1172V33H267.65V49.1484H265.977Z" fill="white"/>
<path d="M283.412 49.2187L281.456 44.2969H274.859L273.069 48.9844H270.713L277.074 32.8594H279.43L285.626 48.8437L283.53 49.2891M278.276 35.5547L275.637 42.1875H280.749L278.276 35.5547Z" fill="white"/>
<path d="M293.166 49.2188H288.454V33H293.166C298.726 33 301.718 36.2813 301.718 41.0625C301.718 45.8438 298.726 49.2188 293.166 49.2188ZM293.307 35.1563H290.763V47.25H293.307C294.14 47.3574 294.987 47.2731 295.782 47.0036C296.577 46.7341 297.3 46.2867 297.894 45.6958C298.488 45.1048 298.938 44.3861 299.208 43.5951C299.479 42.804 299.564 41.9616 299.456 41.1328C299.55 40.313 299.454 39.4826 299.176 38.7052C298.898 37.9278 298.445 37.2239 297.852 36.6472C297.259 36.0706 296.541 35.6365 295.753 35.3781C294.965 35.1196 294.129 35.0438 293.307 35.1563Z" fill="white"/>
<path d="M315.241 49.2188L313.286 44.2969H306.689L304.898 48.9844H302.684L308.998 32.8594H311.354L317.668 48.7031L315.312 49.1484M310.058 35.4141L307.466 42.1875H312.579L310.058 35.4141Z" fill="white"/>
</g>
<defs>
<clipPath id="clip0_4520_7">
<rect width="317" height="75" fill="white" transform="translate(0.549805)"/>
</clipPath>
</defs>
</svg>
