<svg width="898" height="898" viewBox="0 0 898 898" fill="none" xmlns="http://www.w3.org/2000/svg">
<path d="M540.703 163.185C568.624 163.167 596.108 163.156 623.593 163.161C630.333 163.163 630.982 163.838 631 170.636C631.01 174.3 631.012 177.965 631.001 181.629C630.98 188.154 630.267 188.897 623.908 188.9C605.918 188.911 587.928 188.905 569.938 188.906C568.306 188.906 566.673 188.906 564.813 188.906C564.813 200.37 564.813 211.454 564.813 223.092C571.401 223.092 578.017 223.088 584.634 223.093C594.461 223.101 604.292 223.259 614.116 223.066C618.875 222.973 620.772 225.031 620.667 229.588C620.567 233.917 620.555 238.252 620.664 242.58C620.779 247.116 619.07 249.127 614.177 249.046C599.356 248.803 584.529 248.957 569.704 248.957C568.076 248.957 566.449 248.957 564.725 248.957C564.725 261.238 564.725 273.02 564.725 285.423C566.569 285.518 568.31 285.682 570.051 285.684C588.041 285.705 606.031 285.689 624.021 285.707C630.163 285.713 630.972 286.53 630.993 292.575C631.009 297.072 631.004 301.57 630.987 306.067C630.974 309.492 629.409 311.259 625.804 311.254C597.82 311.212 569.836 311.207 541.852 311.246C538.026 311.252 536.492 309.48 536.498 305.75C536.582 259.944 536.579 214.138 536.818 168.333C536.827 166.616 539.067 164.91 540.703 163.185Z" fill="#FCFCFC"/>
<path d="M303.347 212.535C290.356 238.44 299.514 268.883 323.932 280.482C341.244 288.705 357.913 286.392 373.469 275.517C379.896 271.024 379.782 270.939 385.194 276.743C387.915 279.662 390.812 282.416 393.577 285.295C397.277 289.147 397.215 290.881 392.937 294.681C380.594 305.645 366.223 311.974 349.698 313.101C312.189 315.659 279.285 292.729 269.706 257.432C256.518 208.831 292.961 161.232 343.253 161.005C362.073 160.92 378.453 166.727 392.702 178.894C397.167 182.707 397.336 184.345 393.297 188.6C390.202 191.862 386.831 194.89 383.984 198.353C381.012 201.967 378.555 202.116 374.922 199.067C365.525 191.181 354.519 187.326 342.219 187.931C324.857 188.786 312.129 197.264 303.347 212.535Z" fill="#FBFBFB"/>
<path d="M468.415 255.502C462.327 252.433 456.405 249.804 450.743 246.699C443.201 242.563 435.297 238.785 428.553 233.557C414.726 222.836 409.919 208.13 414.419 191.336C418.853 174.79 430.939 165.559 447.317 162.294C466.907 158.389 484.914 163.049 501.365 174.083C505.892 177.12 506.24 179.457 503.25 184.011C501.063 187.342 498.913 190.701 496.645 193.977C494.138 197.597 491.41 198.662 486.976 196.238C480.185 192.526 472.953 189.601 465.818 186.555C464.046 185.799 461.934 185.66 459.964 185.577C451.179 185.207 444.078 189.552 441.72 196.597C439.582 202.983 442.517 210.668 450.017 215.148C457.102 219.379 464.921 222.358 472.208 226.277C479.647 230.278 487.366 234.057 494.011 239.17C506.567 248.832 512.264 262.127 509.416 277.884C506.393 294.606 495.635 305.603 479.727 310.372C456.768 317.256 435.435 312.799 416.216 298.342C412.418 295.485 411.9 292.477 414.461 288.552C416.547 285.354 418.253 281.911 420.283 278.673C423.385 273.726 425.022 273.526 429.958 276.596C438.988 282.211 448.065 287.874 459.103 288.511C466.706 288.95 473.336 286.711 477.374 279.802C480.848 273.858 479.931 267.829 475.933 262.507C473.978 259.904 471.136 257.968 468.415 255.502Z" fill="#FBFBFB"/>
<path d="M814.06 354.339C814.308 356.575 814.557 358.812 814.858 361.521C570.901 361.521 327.481 361.521 83.4266 361.521C83.4266 359.901 83.4266 358.297 83.9344 356.232C87.0661 355.519 89.6901 355.046 92.3141 355.045C331.284 355.01 570.255 355.013 809.225 354.983C810.837 354.982 812.448 354.563 814.06 354.339Z" fill="#93CC1A"/>
<path d="M626.861 682C626.861 699.83 627.077 717.163 626.784 734.487C626.584 746.262 628.097 756.678 641.493 761.376C632.772 762.221 624.056 763.477 615.324 763.606C613.282 763.636 611.184 759.847 608.809 757.518C600.567 764.479 589.659 763.808 579.03 762.508C569.689 761.366 561.978 756.404 555.777 749.124C543.653 734.888 543.93 710.728 556.575 694.504C568.395 679.339 589.463 677.212 612.756 689.296C612.756 684.037 612.804 679.148 612.745 674.26C612.665 667.603 612.924 660.907 612.281 654.302C611.323 644.455 609.1 642.299 599.517 639.775C598.646 639.546 597.81 639.187 597.09 637.708C605.661 637.708 614.233 637.753 622.804 637.686C626.242 637.659 626.907 639.574 626.891 642.509C626.82 655.505 626.861 668.503 626.861 682ZM564.252 718.922C563.847 731.567 565.867 743.488 575.251 752.9C585.835 763.515 603.539 759.514 607.609 745.214C611.87 730.247 611.578 714.958 607.615 699.9C605.788 692.961 601.56 687.706 594.129 686.116C586.171 684.414 579.422 686.563 574.054 692.941C567.922 700.227 565.285 708.78 564.252 718.922Z" fill="#F7F7F7"/>
<path d="M282.895 728.676C283.92 726.185 284.815 724.05 285.709 721.915C286.151 722.018 286.592 722.121 287.034 722.224C287.229 723.07 287.734 723.98 287.574 724.753C282.85 747.506 264.332 762.532 241.029 762.933C224.694 763.214 209.721 759.452 196.777 749.119C184.321 739.175 177.761 725.814 175.325 710.394C169.687 674.702 191.435 642.706 226.685 634.654C238.077 632.052 249.419 632.777 260.609 636.09C263.951 637.079 267.25 638.327 270.662 638.943C274.68 639.669 278.854 639.948 279.703 633.858C280.254 634.005 280.806 634.151 281.358 634.297C282.33 648.768 283.303 663.238 284.275 677.708C283.73 677.845 283.185 677.982 282.639 678.119C282.046 676.763 281.541 675.36 280.846 674.058C276.878 666.63 273.703 658.596 268.703 651.936C255.52 634.375 233.941 632.859 217.752 647.811C204.746 659.822 198.504 675.01 197.901 692.553C197.343 708.757 199.675 724.396 208.35 738.487C225.194 765.844 262.196 765.268 278.43 737.436C280.016 734.717 281.326 731.838 282.895 728.676Z" fill="#F6F6F6"/>
<path d="M381.121 720C381.121 713.503 381.019 707.504 381.147 701.509C381.3 694.321 381.722 687.095 371.02 686.315C371.286 685.88 371.551 685.446 371.817 685.012C379.422 684.049 387.015 682.728 394.645 682.461C395.992 682.413 397.493 686.768 398.99 689.199C410.395 679.937 424.355 679.5 438.564 682.065C448.595 683.875 453.779 690.45 454.007 700.634C454.298 713.62 454.463 726.627 454.047 739.604C453.747 748.974 454.944 757.027 464.938 761.209C451.58 761.209 438.223 761.209 424.81 761.209C424.845 760.854 424.8 760.387 424.906 760.35C434.698 756.914 438.869 750.424 438.045 739.731C437.126 727.803 437.916 715.753 437.306 703.79C436.649 690.894 432 686.173 420.483 685.22C410.523 684.395 401.36 691.163 398.959 701.419C398.211 704.617 397.93 707.983 397.89 711.277C397.759 721.937 398.247 732.62 397.703 743.254C397.31 750.951 400.62 755.506 407.201 758.457C408.508 759.043 409.723 759.836 412.162 761.19C397.299 761.19 383.789 761.19 369.343 761.19C370.868 760.127 371.682 759.505 372.548 758.966C378.47 755.28 381.871 750.541 381.253 742.978C380.644 735.532 381.121 727.996 381.121 720Z" fill="#F8F8F8"/>
<path d="M680.701 685.74C670.22 682.723 665.145 685.143 661.221 695.088C659.549 699.327 657.244 702.748 652.302 702.05C649.994 701.723 647.092 700.159 646.009 698.268C645.084 696.653 645.521 692.814 646.848 691.628C650.576 688.296 654.721 684.754 659.34 683.226C670.509 679.532 681.99 680.274 693.127 684.022C701.871 686.965 704.605 691.131 704.606 700.357C704.609 715.016 704.511 729.675 704.695 744.332C704.731 747.225 705.244 750.426 706.581 752.928C709.941 759.216 715.776 759.564 720.52 754.254C721.068 753.641 722.019 753.388 723.38 752.639C723.688 758.217 720.449 760.29 716.704 761.755C707.483 765.363 697.075 762.524 690.564 755.62C682.109 758.258 674.454 761.81 666.467 762.872C653.822 764.553 642.306 755.458 640.832 744.274C639.637 735.212 644.124 727.636 653.617 724.156C658.216 722.471 663.247 721.669 668.154 721.173C687.096 719.257 690.946 707.54 686.629 692.608C685.888 690.048 682.989 688.111 680.701 685.74ZM674.402 758.219C682.222 755.656 687.24 750.393 687.876 742.165C688.462 734.595 688.001 726.943 688.001 718.298C681.887 721.377 675.893 723.569 670.898 727.154C666.323 730.437 662.259 734.826 659.014 739.46C655.689 744.209 656.462 749.788 660.174 754.28C663.597 758.424 668.257 759.901 674.402 758.219Z" fill="#F5F5F5"/>
<path d="M474.92 725.844C480.603 724.133 485.958 722.55 491.356 721.131C492.947 720.712 494.671 720.826 496.315 720.577C514.486 717.823 515.663 703.168 511.091 690.949C509.312 686.195 505.11 684.496 500.279 684.34C495.317 684.18 491.008 685.474 488.584 690.286C487.54 692.359 486.765 694.567 485.751 696.656C483.91 700.449 480.89 702.982 476.649 701.954C474.391 701.407 471.531 699.405 470.849 697.409C470.172 695.426 471.209 692.072 472.674 690.289C477.073 684.935 483.259 682.417 490.038 681.554C499.873 680.301 509.617 680.605 519.046 684.098C526.769 686.959 529.783 691.325 529.788 699.522C529.796 714.684 529.636 729.85 529.927 745.007C529.987 748.118 531.078 751.63 532.815 754.199C536.193 759.194 541.248 759.07 545.313 754.617C545.989 753.876 546.914 753.363 548.444 752.194C548.78 758.015 545.594 760.133 541.889 761.593C532.7 765.214 522.026 762.265 514.76 754.292C510.549 756.46 506.471 758.954 502.101 760.731C490.565 765.425 478.377 762.966 471.325 754.867C462.804 745.081 464.087 733.807 474.92 725.844ZM508.961 720.148C506.841 721.095 504.653 721.914 502.614 723.01C495.415 726.879 488.289 730.961 484.323 738.548C479.154 748.434 485.244 759.01 495.752 758.686C503.934 758.433 512.262 751.433 512.847 743.313C513.425 735.294 512.974 727.2 512.974 718.667C511.508 719.214 510.618 719.547 508.961 720.148Z" fill="#F6F6F6"/>
<path d="M295.925 701.138C291.549 696.811 291.372 692.226 296.392 688.884C301.09 685.757 306.555 683.215 312.036 681.957C321.9 679.694 331.878 680.725 341.454 684.188C349.201 686.989 351.889 690.989 351.897 699.194C351.911 714.019 351.787 728.845 351.989 743.667C352.031 746.714 352.703 750.013 354.034 752.731C357.16 759.115 363.347 759.635 368.034 754.332C368.594 753.699 369.453 753.33 370.861 752.37C371.093 758.034 367.891 760.204 364.144 761.674C354.956 765.279 344.461 762.391 336.761 754.187C328.792 759.596 320.298 763.687 310.188 762.958C302.548 762.407 296.424 759.106 292.002 752.999C284.593 742.768 287.601 730.365 299.088 724.997C303.492 722.939 308.574 722.289 313.386 721.169C315.638 720.645 318.019 720.692 320.283 720.204C334.686 717.103 340.786 701.146 332.274 688.956C327.86 682.633 315.797 682.832 311.513 689.413C310.264 691.332 309.512 693.586 308.62 695.722C306.227 701.452 302.523 703.143 295.925 701.138ZM329.413 753.968C331.217 751.042 334.325 748.224 334.577 745.17C335.288 736.565 334.826 727.863 334.826 718.347C328.736 721.521 322.728 723.802 317.766 727.49C313.242 730.852 309.235 735.337 306.141 740.072C303.255 744.489 304.136 749.699 307.531 753.988C310.825 758.149 315.31 759.759 320.395 758.386C323.366 757.584 326.082 755.838 329.413 753.968Z" fill="#F6F6F6"/>
<path d="M261.641 502.115C271.957 509.586 271.45 518.338 260.551 525.713C263.239 530.768 265.933 535.834 268.671 540.983C261.436 543.122 260.359 542.693 257.406 536.783C256.366 534.703 255.111 532.683 254.414 530.489C253.102 526.361 250.49 525.04 246.005 526.299C246.005 531.149 246.005 536.244 246.005 541.659C243.323 541.659 241.071 541.659 238.432 541.659C238.432 528.396 238.432 515.003 238.432 500.331C246.012 500.882 253.646 501.437 261.641 502.115ZM254.903 508.108C251.975 508.108 249.047 508.108 246.164 508.108C246.164 512.175 246.164 515.613 246.164 519.347C248.868 519.347 251.34 519.248 253.801 519.37C257.483 519.553 260.203 518.029 260.808 514.443C261.402 510.924 258.996 509.012 254.903 508.108Z" fill="#F5F5F5"/>
<path d="M250.994 416.035C251.681 414.455 252.315 413.248 252.949 412.04C253.449 412.084 253.949 412.128 254.45 412.172C257.967 429.258 261.483 446.344 264.999 463.423C261.223 464.406 261.013 464.254 260.198 459.933C258.135 449 256.09 438.063 254.013 427.133C253.769 425.847 253.373 424.59 252.768 422.234C247.662 437.237 242.896 451.24 238.129 465.244C237.47 465.257 236.811 465.27 236.152 465.282C231.364 451.197 226.575 437.111 221.34 421.713C218.694 435.501 216.395 447.877 213.864 460.206C213.522 461.872 212.018 463.299 211.052 464.836C210.451 464.51 209.85 464.184 209.249 463.858C212.749 446.664 216.248 429.47 219.747 412.277C220.457 412.174 221.167 412.071 221.876 411.968C226.807 426.435 231.738 440.903 237.085 456.592C241.967 442.433 246.454 429.42 250.994 416.035Z" fill="#E5E5E5"/>
<path d="M286.04 414.346C288.638 412.172 288.718 412.145 289.87 415.542C293.595 426.527 297.258 437.533 300.94 448.533C301.73 450.894 302.501 453.261 303.678 456.83C309.008 441.316 314.007 426.765 319.005 412.215C319.717 412.265 320.429 412.315 321.141 412.365C324.671 429.51 328.2 446.655 331.73 463.8C331.289 464.136 330.849 464.473 330.408 464.809C329.315 463.566 327.528 462.465 327.237 461.056C324.597 448.248 322.218 435.386 319.607 421.727C314.511 436.703 309.654 450.974 304.797 465.245C304.142 465.254 303.487 465.263 302.833 465.271C298.093 451.373 293.354 437.475 288.614 423.576C288.305 423.58 287.996 423.583 287.686 423.587C286.113 431.632 284.528 439.675 282.972 447.724C282.122 452.119 281.508 456.572 280.391 460.897C280.015 462.356 278.417 463.501 277.378 464.789C276.876 464.456 276.375 464.122 275.873 463.788C279.243 447.433 282.614 431.078 286.04 414.346Z" fill="#E5E5E5"/>
<path d="M208.046 542.032C199.362 539.131 195.692 534.29 195.605 525.79C195.521 517.66 195.586 509.529 195.586 501.087C198.38 501.087 200.781 501.087 203.852 501.087C203.852 508.97 203.839 516.722 203.855 524.475C203.869 530.912 206.587 534.35 211.688 534.44C217.053 534.535 220.082 530.99 220.108 524.485C220.139 516.835 220.115 509.185 220.115 501.149C222.777 501.149 225.184 501.149 227.727 501.149C227.727 511.104 228.58 521.258 227.458 531.188C226.556 539.168 216.762 543.965 208.046 542.032Z" fill="#F5F5F5"/>
<path d="M130.02 532.985C134.046 533.796 138.046 534.159 142.052 534.415C143.87 534.531 145.7 534.435 148.057 534.435C148.057 536.971 148.057 539.304 148.057 541.818C139.508 541.818 131.225 541.818 122.533 541.818C122.533 528.385 122.533 515.002 122.533 501.185C130.876 501.185 139.386 501.185 148.249 501.185C148.249 503.27 148.249 505.329 148.249 507.871C142.192 507.871 136.3 507.871 130.207 507.871C130.207 511.095 130.207 513.845 130.207 517.158C133.323 517.158 136.418 517.157 139.512 517.158C146.289 517.16 146.411 517.314 145.058 524.704C140.277 524.704 135.376 524.704 129.997 524.704C129.997 527.612 129.997 530.053 130.02 532.985Z" fill="#F2F2F2"/>
<path d="M708.845 637.456C710.95 637.455 712.587 637.455 714.646 637.455C714.646 650.247 714.646 662.597 714.646 675.687C709.397 675.687 704.127 675.854 698.886 675.533C697.948 675.475 696.399 673.415 696.378 672.256C696.183 661.786 696.151 651.309 696.425 640.844C696.455 639.683 698.553 637.861 699.928 637.603C702.657 637.09 705.551 637.454 708.845 637.456Z" fill="#DE232A"/>
<path d="M650.612 637.463C654.563 637.165 656.1 638.429 656.005 642.27C655.766 651.89 655.771 661.525 656.014 671.146C656.111 675.005 654.662 675.829 651.083 675.824C636.84 675.805 636.84 675.919 636.84 661.576C636.84 653.804 636.84 646.032 636.84 637.461C641.639 637.461 645.899 637.461 650.612 637.463Z" fill="#DE232A"/>
<path d="M813.603 354.19C812.448 354.562 810.836 354.982 809.225 354.982C570.255 355.013 331.284 355.01 92.314 355.045C89.69 355.046 87.0661 355.519 84.0798 355.827C84.0207 355.267 84.2381 354.196 84.6434 354.119C85.9325 353.876 87.2917 353.988 88.6238 353.988C329.132 353.987 569.641 353.989 810.149 353.992C811.148 353.992 812.147 354.025 813.603 354.19Z" fill="#9FC25A"/>
<path d="M178.146 542.137C168.232 543.799 159.126 538.919 154.982 530.057C151.057 521.662 153.39 511.536 160.711 505.196C167.729 499.118 178.013 498.251 185.65 503.44C186.949 504.323 188.382 507.084 187.9 508.092C186.818 510.357 185.107 512.241 181.61 510.109C175.343 506.288 168.944 507.499 165 512.422C160.957 517.468 160.855 524.565 164.753 529.504C168.918 534.783 175.162 536.087 181.651 532.269C185.09 530.245 186.895 531.937 187.929 534.304C188.412 535.412 187.055 538.118 185.772 539.02C183.689 540.485 180.982 541.062 178.146 542.137Z" fill="#F2F2F2"/>
<path d="M407.013 438.003C407.013 445.828 407.104 453.156 406.926 460.477C406.895 461.757 405.73 463.009 405.089 464.274C404.481 463.103 403.354 461.936 403.344 460.76C403.226 445.943 403.236 431.125 403.333 416.307C403.341 415.055 404.205 413.808 404.671 412.558C405.818 413.386 407.238 414.002 408.07 415.074C418.358 428.326 428.559 441.644 438.788 454.94C439.062 455.295 439.399 455.601 440.587 456.872C440.587 451.356 440.587 446.848 440.587 442.34C440.588 433.682 440.517 425.023 440.681 416.368C440.701 415.27 441.953 414.195 442.635 413.109C443.217 413.96 444.301 414.807 444.306 415.661C444.407 431.94 444.381 448.22 444.381 466.257C442.12 464.337 440.755 463.522 439.845 462.352C429.138 448.596 418.498 434.786 407.013 419.918C407.013 426.464 407.013 431.983 407.013 438.003Z" fill="#EAEAEA"/>
<path d="M759.763 431.003C759.763 442.608 759.763 453.714 759.763 464.819C759.214 465.106 758.665 465.392 758.116 465.679C745.645 451.657 735.252 435.927 722.926 420.629C722.745 422.577 722.519 423.898 722.516 425.22C722.489 437.044 722.549 448.868 722.429 460.691C722.416 461.899 721.387 463.095 720.829 464.297C720.154 463.226 718.898 462.16 718.89 461.084C718.764 445.597 718.8 430.109 718.827 414.621C718.828 414.012 719.118 413.403 719.724 411.027C732.839 426.343 743.556 441.986 756.037 457.332C756.037 443.604 755.982 430.694 756.11 417.787C756.125 416.241 757.135 414.704 757.684 413.163C758.38 414.78 759.561 416.363 759.676 418.02C759.963 422.163 759.766 426.34 759.763 431.003Z" fill="#EAEAEA"/>
<path d="M88.7457 538.12C89.0687 535.71 89.6766 533.546 90.4023 530.962C93.6551 532.584 95.924 534.482 98.3483 534.707C100.771 534.932 104.444 534.255 105.613 532.595C107.583 529.797 104.977 527.391 102.343 525.948C99.5813 524.435 96.5564 523.367 93.9089 521.689C89.0268 518.596 86.9918 513.702 88.1999 508.94C89.4017 504.203 93.5905 500.841 99.1503 500.149C104.255 499.514 109.489 501.301 113.881 505.316C113.35 506.214 112.838 507.208 112.204 508.118C111.563 509.037 110.801 509.873 110.1 510.734C107.607 509.669 105.389 508.037 103.106 507.942C100.88 507.849 98.5876 509.327 96.3242 510.115C97.4608 512.09 98.1724 514.611 99.8371 515.909C102.126 517.694 105.236 518.38 107.818 519.846C114.057 523.389 116.448 528.735 114.536 534.342C112.725 539.653 105.575 543.863 99.5117 542.525C95.8884 541.726 92.5159 539.79 88.7457 538.12Z" fill="#F2F2F2"/>
<path d="M650.986 433.058C655.033 419.847 664 412.686 676.295 412.472C687.83 412.271 697.508 418.982 701.516 429.96C705.039 439.608 702.411 451.051 695.098 457.906C687.286 465.231 675.461 467.262 665.948 462.914C655.858 458.302 649.882 448.757 650.353 437.91C650.418 436.424 650.738 434.949 650.986 433.058ZM654.18 436.89C653.616 446.362 657.224 453.819 665.506 458.467C673.942 463.202 682.467 462.61 690.267 456.884C697.771 451.376 700.483 443.662 698.945 434.572C697.162 424.031 687.505 416.152 676.677 416.137C665.179 416.122 656.597 423.755 654.18 436.89Z" fill="#E8E8E8"/>
<path d="M195.14 427.009C202.745 444.366 192.595 460.364 178.348 464.14C165.771 467.473 151.886 460.912 147.075 449.091C141.816 436.171 146.908 421.788 159.058 415.245C170.485 409.091 185.338 412.616 192.856 423.286C193.62 424.371 194.268 425.537 195.14 427.009ZM178.027 416.988C177.216 416.806 176.409 416.599 175.592 416.447C166.306 414.71 156.532 419.03 152.026 426.853C147.036 435.516 147.874 445.951 154.161 453.428C160.025 460.403 170.332 463.093 179.124 459.943C187.654 456.886 193.647 448.87 194.029 440.008C194.471 429.727 189.244 421.879 178.027 416.988Z" fill="#E8E8E8"/>
<path d="M694.728 528.515C693.482 522.095 692.305 516.092 691.128 510.089C690.837 510.039 690.546 509.989 690.256 509.939C686.463 520.953 682.671 531.967 678.878 542.982C678.351 542.939 677.824 542.896 677.297 542.854C673.466 531.704 669.636 520.555 665.454 508.382C664.151 515.102 663.49 520.938 661.81 526.464C660.236 531.641 661.637 537.954 657.38 542.197C656.788 542.024 656.196 541.851 655.604 541.678C658.461 527.906 661.318 514.134 664.175 500.361C664.772 500.278 665.37 500.195 665.968 500.111C669.85 511.503 673.732 522.896 678.074 535.637C682.448 522.94 686.36 511.585 690.273 500.23C690.873 500.235 691.474 500.24 692.075 500.244C694.914 513.975 697.752 527.705 700.612 541.539C697.045 541.43 697.045 541.43 694.728 528.515Z" fill="#E1E1E1"/>
<path d="M561.981 450.257C560.652 450.257 559.801 450.373 558.991 450.24C549.766 448.726 542.95 450.91 540.854 461.306C540.579 462.673 538.39 463.654 537.087 464.814C536.652 464.415 536.216 464.016 535.781 463.617C543.461 446.351 551.141 429.085 558.82 411.818C559.345 411.802 559.87 411.785 560.395 411.769C567.999 429.075 575.602 446.38 583.206 463.686C582.882 464.05 582.557 464.413 582.232 464.777C580.938 463.962 579.512 463.292 578.399 462.279C577.724 461.665 577.357 460.557 577.154 459.606C575.421 451.49 570.44 448.553 561.981 450.257ZM557.538 447.066C561.994 447.066 566.449 447.066 571.68 447.066C567.567 437.396 563.707 428.323 559.568 418.594C555.368 428.378 551.473 437.45 547.345 447.066C550.951 447.066 553.755 447.066 557.538 447.066Z" fill="#EAEAEA"/>
<path d="M317.264 508.054C314.375 508.107 311.881 508.107 308.822 508.107C308.822 519.225 308.822 530.273 308.822 541.18C300.51 543.062 300.216 542.849 300.211 535.346C300.205 526.382 300.21 517.417 300.21 508.1C297.044 508.1 294.105 508.1 290.891 508.1C290.891 505.653 290.891 503.554 290.891 501.1C300.02 501.1 309.062 501.1 319.109 501.1C318.587 503.589 318.123 505.795 317.264 508.054Z" fill="#F2F2F2"/>
<path d="M344.867 504.819C347.245 499.676 351.174 500.484 356.21 501.321C353.452 505.462 351.394 509.38 348.564 512.624C343.101 518.885 340.758 525.841 341.887 534.084C342.218 536.502 341.938 539.003 341.938 541.718C339.199 541.718 336.94 541.718 334.679 541.724C333.9 534.453 334.406 526.709 331.982 520.029C329.588 513.432 324.232 507.911 319.897 501.507C325.162 500.129 328.918 500.202 331.514 505.076C333.188 508.217 335.635 510.946 338.05 514.296C340.462 510.957 342.568 508.041 344.867 504.819Z" fill="#F5F5F5"/>
<path d="M518.98 413.92C521.498 415.281 523.764 416.367 525.733 417.847C526.552 418.463 526.738 419.921 527.212 420.996C525.964 420.97 524.374 421.433 523.524 420.839C518.065 417.018 512.187 415.511 505.592 416.667C496.996 418.173 489.704 425.059 487.94 433.468C485.94 443.002 489.615 452.557 497.219 457.594C504.625 462.499 514.86 462.446 522.11 457.45C522.654 457.075 523.077 456.361 523.653 456.229C524.749 455.978 525.916 456.035 527.054 455.964C526.738 457.062 526.775 458.572 526.051 459.194C519.372 464.929 511.503 466.363 503.189 464.285C488.646 460.652 480.269 446.285 484.023 432.048C487.965 417.094 502.488 409.433 518.98 413.92Z" fill="#E8E8E8"/>
<path d="M120.232 412.769C123.835 414.154 127.152 415.251 130.139 416.934C131.391 417.64 131.941 419.59 132.811 420.974C131.296 420.712 129.524 420.868 128.306 420.121C118.726 414.245 108.351 414.746 100.587 421.661C91.7401 429.54 90.3841 442.849 97.4688 452.262C104.553 461.675 117.066 463.825 127.32 457.567C128.872 456.619 130.923 456.487 132.743 455.977C131.525 457.687 130.668 459.951 129.03 461.015C119.055 467.498 106.113 466.049 96.8386 457.706C88.9395 450.6 86.5447 437.427 91.3232 427.367C96.4301 416.617 107.598 410.874 120.232 412.769Z" fill="#EAEAEA"/>
<path d="M372.602 463.899C356.946 468.087 346.122 459.777 346.108 443.97C346.1 434.98 346.025 425.99 346.194 417.004C346.218 415.698 347.435 414.414 348.101 413.121C348.729 414.399 349.879 415.668 349.902 416.958C350.061 426.111 349.955 435.268 350.001 444.423C350.053 454.734 355.764 460.984 365.11 461.059C374.79 461.135 380.874 454.853 380.941 444.554C381.009 434.116 380.956 423.678 380.956 413.239C381.491 413.027 382.025 412.815 382.56 412.604C383.299 413.827 384.661 415.041 384.678 416.275C384.826 426.76 385.118 437.268 384.575 447.728C384.188 455.188 380.149 460.807 372.602 463.899Z" fill="#E8E8E8"/>
<path d="M528.586 507.894C529.448 515.032 529.087 516.07 525.155 519.923C526.908 523.437 529.42 526.513 529.915 529.886C530.872 536.402 526.692 541.316 520.17 541.86C514.752 542.311 509.266 541.952 503.475 541.952C503.475 528.149 503.475 514.762 503.475 501.421C518.332 499.57 525.893 500.86 528.586 507.894ZM525.39 526.205C520.022 520.653 513.293 523.608 506.998 522.761C506.998 528.471 506.998 533.659 506.998 539.1C510.804 539.1 514.281 539.205 517.75 539.078C524.953 538.813 528.321 533.653 525.39 526.205ZM519.926 519.238C524.471 517.823 526.204 514.666 525.33 510.116C524.457 505.571 521.209 504.002 516.959 503.954C513.678 503.917 510.398 503.947 507.175 503.947C507.175 509.418 507.175 514.434 507.175 519.421C511.4 519.421 515.22 519.421 519.926 519.238Z" fill="#DDDDDD"/>
<path d="M794.434 412.766C798.239 413.884 801.634 414.949 805.028 416.014C805.022 416.757 805.016 417.499 805.009 418.241C803.594 418.414 802.149 418.86 800.769 418.71C796.109 418.204 791.45 416.869 786.835 417.04C782.963 417.183 780.362 420.182 779.74 424.277C779.119 428.374 780.83 431.396 784.356 433.387C786.079 434.36 787.886 435.207 789.718 435.957C791.708 436.773 793.807 437.322 795.796 438.139C805.346 442.061 809.403 447.759 807.617 454.629C805.744 461.83 796.82 466.695 787.772 464.791C784.162 464.032 780.767 461.952 777.496 460.086C776.607 459.579 776.523 457.662 775.673 455.282C780.838 457.743 784.229 459.903 787.934 460.941C790.597 461.686 794.245 461.897 796.437 460.612C799.439 458.853 802.637 455.815 803.632 452.657C804.86 448.756 801.73 445.497 798.043 443.684C795.071 442.223 791.981 440.976 788.87 439.833C778.827 436.14 774.519 430.845 775.843 423.632C777.214 416.157 783.233 412.542 794.434 412.766Z" fill="#EAEAEA"/>
<path d="M690.611 652.695C690.605 656.464 689.781 659.224 686.521 661.23C685.133 662.084 684.672 664.445 683.604 666.474C681.956 666.312 679.876 666.108 677.493 665.875C677.283 668.423 677.098 670.677 676.912 672.931C676.448 672.937 675.984 672.944 675.52 672.95C675.26 670.682 674.999 668.414 674.703 665.835C672.53 666.005 670.596 666.156 668.543 666.317C668.411 660.346 658.352 659.025 662.452 651.09C664.544 650.824 667.316 650.472 670.599 650.054C670.509 649.06 670.342 647.201 670.254 646.222C672.603 644.348 674.451 642.875 676.233 641.453C677.778 642.754 679.485 644.191 682 646.307C681.96 646.795 681.816 648.561 681.759 649.253C685.065 650.396 687.865 651.365 690.611 652.695Z" fill="#D5242C"/>
<path d="M743.905 522.999C743.905 515.241 743.905 507.983 743.905 500.725C744.499 500.438 745.092 500.151 745.685 499.865C754.701 511.47 763.716 523.075 772.732 534.68C773.127 534.613 773.522 534.546 773.917 534.479C773.917 523.369 773.917 512.258 773.917 500.621C777.274 502.725 778.179 536.768 775.511 543.649C766.053 531.33 756.935 519.453 747.074 506.608C747.074 516.731 747.075 525.773 747.074 534.815C747.074 535.982 747.26 537.189 747.018 538.304C746.743 539.568 746.084 540.75 745.591 541.967C745.027 540.81 744.017 539.669 743.974 538.494C743.795 533.501 743.903 528.498 743.905 522.999Z" fill="#E8E8E8"/>
<path d="M375.874 500.749C383.849 500.729 391.391 500.729 398.933 500.729C398.964 501.465 398.994 502.2 399.024 502.936C392.073 505.342 384.57 502.925 377.235 504.264C377.235 509.11 377.235 514.003 377.235 519.563C383.561 519.563 389.738 519.563 396.901 519.563C393.944 524.134 390.35 522.195 387.493 522.479C384.2 522.806 380.85 522.555 377.252 522.555C377.252 527.906 377.252 533.164 377.252 538.954C384.405 539.508 391.821 538.693 399.069 539.389C399.026 540.068 398.983 540.747 398.94 541.427C390.689 541.427 382.437 541.427 373.72 541.427C373.72 528.643 373.694 515.697 373.793 502.751C373.798 502.086 374.867 501.429 375.874 500.749Z" fill="#E5E5E5"/>
<path d="M599.795 429.044C599.796 424.888 599.796 421.223 599.796 416.942C595.864 416.942 591.942 417.059 588.036 416.862C587.03 416.811 586.075 415.771 585.096 415.185C586.117 414.479 587.128 413.178 588.16 413.16C597.323 412.998 606.49 413.009 615.653 413.136C616.692 413.151 617.716 414.194 618.746 414.76C617.698 415.491 616.688 416.777 615.594 416.853C611.818 417.114 608.012 416.954 603.816 416.954C603.816 430.811 603.816 444.259 603.816 457.706C603.816 458.873 604.081 460.123 603.745 461.183C603.377 462.339 602.453 463.319 601.771 464.375C601.102 463.261 599.866 462.153 599.852 461.03C599.713 450.534 599.784 440.035 599.795 429.044Z" fill="#E5E5E5"/>
<path d="M709.52 541.481C709.193 528.007 709.193 514.879 709.193 501.427C717.671 501.427 725.97 501.427 734.27 501.427C734.314 501.967 734.357 502.507 734.401 503.047C727.442 505.293 719.967 502.993 712.646 504.325C712.646 509.028 712.646 513.783 712.646 519.696C718.918 519.696 725.269 519.696 731.62 519.696C731.621 520.433 731.622 521.17 731.623 521.908C725.444 521.908 719.264 521.908 712.74 521.908C712.74 528.185 712.74 533.412 712.74 538.784C719.716 539.092 726.784 539.394 733.848 539.767C734.072 539.779 734.257 540.532 734.903 541.827C726.192 541.827 718.019 541.827 709.52 541.481Z" fill="#E1E1E1"/>
<path d="M466.164 533.951C464.186 536.96 464.489 541.389 458.893 542.328C465.481 527.515 471.657 513.631 477.832 499.747C478.3 499.746 478.767 499.745 479.234 499.744C485.32 513.59 491.406 527.435 497.552 541.418C493.865 541.569 493.865 541.569 489.4 530.902C482.791 530.902 475.987 530.794 469.194 531.021C468.207 531.054 467.274 532.684 466.164 533.951ZM471.296 521.9C470.573 523.86 469.85 525.819 469.117 527.804C475.519 527.804 481.577 527.804 488.005 527.804C484.826 520.35 481.787 513.226 478.454 505.413C475.976 511.231 473.844 516.237 471.296 521.9Z" fill="#E1E1E1"/>
<path d="M284.856 520.001C284.856 527.464 284.856 534.428 284.856 541.688C282.032 541.688 279.631 541.688 276.995 541.688C276.995 528.225 276.995 514.937 276.995 501.207C279.498 501.207 281.86 501.207 284.857 501.207C284.857 507.315 284.857 513.408 284.856 520.001Z" fill="#F5F5F5"/>
<path d="M618.125 517.859C620.787 518.674 623.459 519.215 626.143 519.282C631.933 519.425 637.729 519.326 643.479 519.326C643.994 513.059 644.48 507.102 645.033 501.151C645.037 501.106 645.95 501.146 646.722 501.146C646.722 514.757 646.722 528.294 646.722 542.951C642.51 539.858 644.39 536.209 644.095 533.297C643.747 529.87 644.013 526.381 644.013 522.726C635.328 522.726 627.059 522.726 618.125 522.726C618.125 529.082 618.125 535.442 618.125 541.803C617.63 541.948 617.134 542.094 616.638 542.239C616.095 541.259 615.088 540.284 615.078 539.299C614.966 527.485 614.963 515.67 615.067 503.857C615.076 502.817 616.043 501.786 616.565 500.75C617.09 500.878 617.615 501.005 618.14 501.132C618.14 506.544 618.14 511.956 618.125 517.859Z" fill="#EAEAEA"/>
<path d="M586.738 520.317C581.222 516.311 579.752 512.898 581.164 507.926C582.378 503.652 587.321 500.049 592.859 500.258C596.067 500.379 599.27 501.602 602.382 502.616C603.077 502.843 603.38 504.274 603.863 505.15C602.87 505.229 601.859 505.468 600.886 505.361C597.091 504.941 593.152 503.57 589.58 504.236C587.421 504.639 584.557 508.027 584.362 510.278C584.168 512.518 586.398 515.749 588.495 517.222C591.535 519.357 595.462 520.189 598.917 521.782C604.512 524.362 607.176 528.266 606.656 532.743C606.108 537.463 602.421 541.13 596.659 542.446C591.441 543.639 586.801 542.006 582.656 538.948C581.894 538.386 581.806 536.909 581.407 535.854C582.421 535.996 583.64 535.825 584.415 536.333C588.252 538.845 592.313 541.27 596.814 539.002C599.297 537.751 602.419 535.127 602.676 532.833C602.939 530.482 600.628 526.96 598.419 525.421C595.101 523.11 590.89 522.08 586.738 520.317Z" fill="#E1E1E1"/>
<path d="M409.146 512.529C411.298 514.688 413.152 516.83 415.473 518.151C418.324 519.773 421.602 520.627 424.63 521.961C429.299 524.018 432.324 527.468 431.728 532.777C431.142 537.989 427.589 540.755 422.647 542.08C416.349 543.768 410.004 541.79 404.951 535.278C407.482 535.938 408.847 535.993 409.868 536.614C413.804 539.005 417.97 541.034 422.421 538.904C424.68 537.823 427.49 535.399 427.749 533.299C428.038 530.951 426.351 527.463 424.386 525.946C421.474 523.699 417.552 522.77 414.075 521.246C407.306 518.278 404.973 514.599 406.076 508.694C406.987 503.812 412.383 499.915 418.61 500.18C421.344 500.297 424.113 501.208 426.706 502.182C427.699 502.555 428.247 504.112 428.998 505.13C427.853 505.109 426.698 505.18 425.565 505.051C422.083 504.654 418.515 503.469 415.158 503.918C410.967 504.479 408.65 507.587 409.146 512.529Z" fill="#E1E1E1"/>
<path d="M460.555 501.009C460.14 502.101 459.455 503.706 458.584 503.815C455.835 504.159 453.015 503.942 449.737 503.942C449.737 514.568 449.737 524.818 449.737 535.068C449.737 536.398 449.972 537.786 449.665 539.041C449.405 540.109 448.52 541.024 447.912 542.006C447.305 541.026 446.183 540.051 446.171 539.063C446.059 530.087 446.141 521.108 446.164 512.129C446.17 509.638 446.165 507.146 446.165 504.202C442.229 504.007 438.287 503.812 433.61 503.581C436.751 500.248 441.011 499.938 460.555 501.009Z" fill="#D6D6D6"/>
<path d="M634.781 431.003C634.783 441.143 634.854 450.785 634.705 460.423C634.685 461.755 633.58 463.069 632.978 464.392C632.225 463.036 630.833 461.687 630.818 460.324C630.659 445.865 630.668 431.402 630.807 416.943C630.82 415.659 632.068 414.387 632.743 413.109C633.424 414.419 634.617 415.701 634.692 417.045C634.938 421.519 634.783 426.016 634.781 431.003Z" fill="#E1E1E1"/>
<path d="M464.468 413.477C465.783 414.157 467.631 415.09 467.642 416.046C467.825 431.207 467.808 446.371 467.69 461.533C467.682 462.487 466.463 463.431 465.807 464.38C465.118 463.472 463.827 462.564 463.828 461.656C463.84 445.684 464.01 429.712 464.468 413.477Z" fill="#E1E1E1"/>
<path d="M796.997 501.014C801.668 501.014 805.845 501.014 810.021 501.014C810.075 501.797 810.128 502.58 810.181 503.363C806.402 503.664 802.622 503.965 798.478 504.294C798.478 516.779 798.478 529.192 798.478 541.605C797.92 541.817 797.362 542.029 796.803 542.241C796.226 541.001 795.162 539.767 795.148 538.521C795.018 527.223 795.072 515.923 795.072 503.971C791.099 503.971 787.236 503.971 783.068 503.971C784.53 501.013 784.53 501.013 796.997 501.014Z" fill="#E8E8E8"/>
<path d="M539.938 531.969C539.938 521.381 539.938 511.288 539.938 501.195C540.56 501.067 541.182 500.94 541.804 500.812C542.187 502.267 542.888 503.72 542.901 505.178C542.993 516.286 542.951 527.395 542.951 539.534C549.467 539.534 555.825 539.534 562.183 539.534C562.167 540.118 562.15 540.703 562.134 541.288C554.956 541.288 547.778 541.288 539.938 541.288C539.938 538.645 539.938 535.554 539.938 531.969Z" fill="#EAEAEA"/>
<path d="M568.066 505.328C568.694 503.586 569.322 502.303 569.951 501.021C570.535 502.21 571.614 503.394 571.628 504.59C571.76 515.88 571.762 527.173 571.636 538.463C571.623 539.644 570.538 540.813 569.951 541.987C569.322 540.714 568.165 539.449 568.148 538.167C568.002 527.376 568.066 516.581 568.066 505.328Z" fill="#D6D6D6"/>
</svg>
