<svg width="380" height="92" viewBox="0 0 380 92" fill="none" xmlns="http://www.w3.org/2000/svg">
<path d="M51.0696 4.922H88.7341C94.8309 4.922 99.7736 10.0294 99.7736 16.3296V60.6176C99.7736 66.918 94.8309 72.0253 88.7341 72.0253H34.835L51.0696 4.922Z" fill="white"/>
<path d="M41.2866 17.6346H10.9455C4.90046 17.6346 0 22.7419 0 29.0421V73.3302C0 79.6305 4.90046 84.7378 10.9455 84.7378H48.2888L49.7863 78.495H26.6878L41.2866 17.6346Z" fill="white"/>
<path d="M145.001 71.9981L128.396 17.6543H137.777L149.53 59.1669L162.253 17.6543H171.095L183.818 59.1669L195.463 17.6543H205.06L188.347 71.9981H179.397L166.674 30.7012L153.95 71.9981H145.001ZM246.426 36.6315C246.426 29.1916 241.142 24.4473 233.163 24.4473C225.723 24.4473 220.44 28.8681 219.685 36.2002L211.167 34.5829C212.784 23.8004 221.734 16.7917 233.163 16.7917C246.318 16.7917 255.483 24.5551 255.483 37.1707V71.9981H246.426V62.7253C243.299 68.9791 236.182 72.8607 228.311 72.8607C217.421 72.8607 209.981 66.1756 209.981 56.7948C209.981 46.3358 218.499 40.621 235.859 38.8959L246.426 37.7098V36.6315ZM219.146 56.687C219.146 61.7547 223.459 65.313 229.713 65.313C240.28 65.313 246.426 58.3043 246.426 47.414V44.8263L235.859 46.0124C224.861 47.1985 219.146 50.9722 219.146 56.687ZM317.181 36.0924L308.016 37.8176C307.584 29.7307 302.517 25.0943 294.322 25.0943C284.294 25.0943 277.825 34.1516 277.825 48.7079V71.9981H268.66V17.6543H277.825V28.329C281.814 20.5656 288.499 16.7917 296.478 16.7917C308.555 16.7917 316.75 24.3395 317.181 36.0924ZM326.95 91.6222V17.6543H336.115V25.5256C339.027 20.5656 346.143 16.7917 354.014 16.7917C370.727 16.7917 380 28.8681 380 44.8263C380 60.7844 370.512 72.8607 353.799 72.8607C346.898 72.8607 339.781 69.4103 336.115 64.4504V91.6222H326.95ZM352.936 64.666C363.719 64.666 370.727 56.7949 370.727 44.8263C370.727 32.8577 363.719 24.9864 352.936 24.9864C342.369 24.9864 335.361 32.8577 335.361 44.8263C335.361 56.7949 342.369 64.666 352.936 64.666Z" fill="white"/>
</svg>
