<svg width="25" height="25" viewBox="0 0 25 25" fill="none" xmlns="http://www.w3.org/2000/svg">
<g id="discord 2" clip-path="url(#clip0_567_3867)">
<path id="Vector" d="M21.1638 4.5422C19.5429 3.7978 17.8323 3.2668 16.0748 2.96251C16.0589 2.95983 16.0425 2.96215 16.0279 2.96914C16.0134 2.97614 16.0014 2.98747 15.9935 3.00157C15.7732 3.3922 15.5295 3.90314 15.3591 4.30314C13.4648 4.01589 11.5379 4.01589 9.64353 4.30314C9.45434 3.85717 9.2394 3.42259 8.99978 3.00157C8.99193 2.98747 8.9799 2.97614 8.96535 2.96914C8.9508 2.96215 8.93445 2.95983 8.91853 2.96251C7.16071 3.26564 5.44978 3.79689 3.82946 4.5422C3.81553 4.54737 3.8039 4.55735 3.79665 4.57032C0.556026 9.41251 -0.333037 14.1359 0.102901 18.8C0.106026 18.8229 0.116963 18.8422 0.135713 18.8578C2.02316 20.255 4.13378 21.3222 6.3779 22.0141C6.39375 22.0191 6.41077 22.0189 6.42651 22.0136C6.44225 22.0082 6.45587 21.998 6.4654 21.9844C6.94769 21.3281 7.37373 20.6359 7.74353 19.9078C7.75121 19.8928 7.75384 19.8757 7.75103 19.8591C7.74821 19.8425 7.7401 19.8273 7.7279 19.8156L7.69978 19.7984C7.0269 19.539 6.37498 19.2282 5.74978 18.8688C5.73232 18.8589 5.71934 18.8426 5.71353 18.8234C5.70771 18.8042 5.7095 18.7836 5.71853 18.7656L5.74196 18.7359C5.87425 18.637 6.00342 18.5354 6.12946 18.4313C6.14051 18.4224 6.15375 18.4167 6.16779 18.4147C6.18183 18.4128 6.19612 18.4147 6.20915 18.4203C10.3013 20.2891 14.731 20.2891 18.7732 18.4203C18.7866 18.4141 18.8015 18.4119 18.8162 18.4138C18.8309 18.4157 18.8447 18.4218 18.856 18.4313C18.9821 18.5354 19.1112 18.637 19.2435 18.7359C19.2545 18.7435 19.2634 18.7537 19.2694 18.7656C19.2753 18.7775 19.2781 18.7908 19.2774 18.8041C19.2768 18.8174 19.2728 18.8303 19.2658 18.8417C19.2587 18.853 19.2489 18.8623 19.2373 18.8688C18.6148 19.2339 17.9618 19.5444 17.2857 19.7969C17.2749 19.8008 17.2652 19.807 17.2571 19.8151C17.249 19.8232 17.2427 19.833 17.2388 19.8438C17.235 19.8542 17.2335 19.8653 17.2343 19.8763C17.2351 19.8873 17.2382 19.8981 17.2435 19.9078C17.6185 20.6344 18.0482 21.3281 18.5201 21.9844C18.5296 21.998 18.5432 22.0082 18.559 22.0136C18.5747 22.0189 18.5917 22.0191 18.6076 22.0141C20.8561 21.326 22.9705 20.2586 24.8591 18.8578C24.8685 18.8512 24.8763 18.8426 24.882 18.8326C24.8877 18.8226 24.8911 18.8115 24.892 18.8C25.4138 13.4078 24.0185 8.72345 21.1951 4.57189C21.1926 4.5648 21.1885 4.5584 21.1831 4.55324C21.1776 4.54807 21.171 4.54429 21.1638 4.5422ZM8.35446 15.9594C7.12165 15.9594 6.10759 14.8281 6.10759 13.4406C6.10759 12.0531 7.1029 10.9203 8.35446 10.9203C9.6154 10.9203 10.6201 12.0609 10.6013 13.4406C10.6013 14.8281 9.60603 15.9594 8.35446 15.9594ZM16.6607 15.9594C15.4295 15.9594 14.4138 14.8281 14.4138 13.4406C14.4138 12.0531 15.4092 10.9203 16.6607 10.9203C17.9216 10.9203 18.9279 12.0609 18.9076 13.4406C18.9076 14.8281 17.9216 15.9594 16.6607 15.9594Z" fill="url(#paint0_linear_567_3867)"/>
</g>
<defs>
<linearGradient id="paint0_linear_567_3867" x1="18.6101" y1="22.9974" x2="27.8841" y2="14.5935" gradientUnits="userSpaceOnUse">
<stop stop-color="#8824DC"/>
<stop offset="1" stop-color="#B1219D"/>
</linearGradient>
<clipPath id="clip0_567_3867">
<rect width="25" height="25" fill="white"/>
</clipPath>
</defs>
</svg>
