<svg width="25" height="26" viewBox="0 0 25 26" fill="none" xmlns="http://www.w3.org/2000/svg">
<g id="instagram 2" clip-path="url(#clip0_1197_7195)">
<path id="Vector" d="M12.5 0.5C9.10781 0.5 8.68125 0.515625 7.34844 0.575C6.01562 0.6375 5.10781 0.846875 4.3125 1.15625C3.47788 1.46926 2.7221 1.96156 2.09844 2.59844C1.46156 3.2221 0.969259 3.97788 0.65625 4.8125C0.346875 5.60625 0.135937 6.51562 0.075 7.84375C0.015625 9.17969 0 9.60469 0 13.0016C0 16.3953 0.015625 16.8203 0.075 18.1531C0.1375 19.4844 0.346875 20.3922 0.65625 21.1875C0.976562 22.0094 1.40313 22.7062 2.09844 23.4016C2.79219 24.0969 3.48906 24.525 4.31094 24.8438C5.10781 25.1531 6.01406 25.3641 7.34531 25.425C8.67969 25.4844 9.10469 25.5 12.5 25.5C15.8953 25.5 16.3188 25.4844 17.6531 25.425C18.9828 25.3625 19.8938 25.1531 20.6891 24.8438C21.5231 24.5305 22.2784 24.0382 22.9016 23.4016C23.5969 22.7062 24.0234 22.0094 24.3438 21.1875C24.6516 20.3922 24.8625 19.4844 24.925 18.1531C24.9844 16.8203 25 16.3953 25 13C25 9.60469 24.9844 9.17969 24.925 7.84531C24.8625 6.51563 24.6516 5.60625 24.3438 4.8125C24.0307 3.97788 23.5384 3.2221 22.9016 2.59844C22.2779 1.96156 21.5221 1.46926 20.6875 1.15625C19.8906 0.846875 18.9813 0.635937 17.6516 0.575C16.3172 0.515625 15.8938 0.5 12.4969 0.5H12.5ZM11.3797 2.75312H12.5016C15.8391 2.75312 16.2344 2.76406 17.5516 2.825C18.7703 2.87969 19.4328 3.08437 19.8734 3.25469C20.4562 3.48125 20.8734 3.75312 21.3109 4.19062C21.7484 4.62813 22.0188 5.04375 22.2453 5.62813C22.4172 6.06719 22.6203 6.72969 22.675 7.94844C22.7359 9.26562 22.7484 9.66094 22.7484 12.9969C22.7484 16.3328 22.7359 16.7297 22.675 18.0469C22.6203 19.2656 22.4156 19.9266 22.2453 20.3672C22.0435 20.9092 21.7238 21.3997 21.3094 21.8031C20.8719 22.2406 20.4563 22.5109 19.8719 22.7375C19.4344 22.9094 18.7719 23.1125 17.5516 23.1688C16.2344 23.2281 15.8391 23.2422 12.5016 23.2422C9.16406 23.2422 8.76719 23.2281 7.45 23.1688C6.23125 23.1125 5.57031 22.9094 5.12969 22.7375C4.58724 22.5363 4.09625 22.2172 3.69219 21.8031C3.27699 21.3994 2.95676 20.9084 2.75469 20.3656C2.58437 19.9266 2.37969 19.2641 2.325 18.0453C2.26562 16.7281 2.25312 16.3328 2.25312 12.9937C2.25312 9.65469 2.26562 9.2625 2.325 7.94531C2.38125 6.72656 2.58438 6.06406 2.75625 5.62344C2.98281 5.04063 3.25469 4.62344 3.69219 4.18594C4.12969 3.74844 4.54531 3.47813 5.12969 3.25156C5.57031 3.07969 6.23125 2.87656 7.45 2.82031C8.60313 2.76719 9.05 2.75156 11.3797 2.75V2.75312ZM19.1734 4.82812C18.9765 4.82812 18.7814 4.86692 18.5994 4.94231C18.4174 5.01769 18.2521 5.12818 18.1128 5.26746C17.9735 5.40675 17.863 5.57211 17.7876 5.7541C17.7122 5.93609 17.6734 6.13114 17.6734 6.32812C17.6734 6.52511 17.7122 6.72016 17.7876 6.90215C17.863 7.08414 17.9735 7.2495 18.1128 7.38879C18.2521 7.52807 18.4174 7.63856 18.5994 7.71394C18.7814 7.78933 18.9765 7.82812 19.1734 7.82812C19.5713 7.82812 19.9528 7.67009 20.2341 7.38879C20.5154 7.10748 20.6734 6.72595 20.6734 6.32812C20.6734 5.9303 20.5154 5.54877 20.2341 5.26746C19.9528 4.98616 19.5713 4.82812 19.1734 4.82812ZM12.5016 6.58125C11.6501 6.56797 10.8045 6.7242 10.014 7.04085C9.22353 7.35749 8.50393 7.82824 7.89711 8.42566C7.29029 9.02309 6.80838 9.73526 6.47944 10.5207C6.1505 11.3062 5.98109 12.1492 5.98109 13.0008C5.98109 13.8523 6.1505 14.6954 6.47944 15.4808C6.80838 16.2663 7.29029 16.9785 7.89711 17.5759C8.50393 18.1733 9.22353 18.6441 10.014 18.9607C10.8045 19.2774 11.6501 19.4336 12.5016 19.4203C14.1868 19.394 15.7941 18.7061 16.9765 17.5051C18.159 16.304 18.8217 14.6862 18.8217 13.0008C18.8217 11.3154 18.159 9.69752 16.9765 8.49648C15.7941 7.29545 14.1868 6.60754 12.5016 6.58125ZM12.5016 8.83281C13.0488 8.83281 13.5907 8.9406 14.0963 9.15002C14.6019 9.35944 15.0613 9.66639 15.4482 10.0534C15.8352 10.4403 16.1421 10.8997 16.3515 11.4053C16.561 11.9109 16.6688 12.4528 16.6688 13C16.6688 13.5472 16.561 14.0891 16.3515 14.5947C16.1421 15.1003 15.8352 15.5597 15.4482 15.9466C15.0613 16.3336 14.6019 16.6406 14.0963 16.85C13.5907 17.0594 13.0488 17.1672 12.5016 17.1672C11.3964 17.1672 10.3364 16.7281 9.55492 15.9466C8.77342 15.1651 8.33438 14.1052 8.33438 13C8.33438 11.8948 8.77342 10.8349 9.55492 10.0534C10.3364 9.27185 11.3964 8.83281 12.5016 8.83281Z" fill="white"/>
</g>
<defs>
<clipPath id="clip0_1197_7195">
<rect width="25" height="25" fill="white" transform="translate(0 0.5)"/>
</clipPath>
</defs>
</svg>
