<svg width="25" height="26" viewBox="0 0 25 26" fill="none" xmlns="http://www.w3.org/2000/svg">
<g id="linkedin 2" clip-path="url(#clip0_1197_7205)">
<path id="Vector" d="M0 2.29063C0 1.30156 0.821875 0.5 1.83594 0.5H23.1641C24.1781 0.5 25 1.30156 25 2.29063V23.7094C25 24.6984 24.1781 25.5 23.1641 25.5H1.83594C0.821875 25.5 0 24.6984 0 23.7094V2.29063ZM7.72344 21.4281V10.1391H3.97188V21.4281H7.72344ZM5.84844 8.59688C7.15625 8.59688 7.97031 7.73125 7.97031 6.64687C7.94687 5.53906 7.15781 4.69688 5.87344 4.69688C4.58906 4.69688 3.75 5.54063 3.75 6.64687C3.75 7.73125 4.56406 8.59688 5.82344 8.59688H5.84844ZM13.5172 21.4281V15.1234C13.5172 14.7859 13.5422 14.4484 13.6422 14.2078C13.9125 13.5344 14.5297 12.8359 15.5672 12.8359C16.925 12.8359 17.4672 13.8703 17.4672 15.3891V21.4281H21.2188V14.9531C21.2188 11.4844 19.3687 9.87187 16.9 9.87187C14.9094 9.87187 14.0172 10.9656 13.5172 11.7359V11.775H13.4922L13.5172 11.7359V10.1391H9.76719C9.81406 11.1984 9.76719 21.4281 9.76719 21.4281H13.5172Z" fill="white"/>
</g>
<defs>
<clipPath id="clip0_1197_7205">
<rect width="25" height="25" fill="white" transform="translate(0 0.5)"/>
</clipPath>
</defs>
</svg>
