<svg width="25" height="25" viewBox="0 0 25 25" fill="none" xmlns="http://www.w3.org/2000/svg">
<path d="M4.16683 20.8334C3.59391 20.8334 3.10346 20.6294 2.69548 20.2214C2.28749 19.8134 2.0835 19.323 2.0835 18.7501V6.25008C2.0835 5.67716 2.28749 5.18671 2.69548 4.77873C3.10346 4.37074 3.59391 4.16675 4.16683 4.16675H20.8335C21.4064 4.16675 21.8969 4.37074 22.3049 4.77873C22.7128 5.18671 22.9168 5.67716 22.9168 6.25008V18.7501C22.9168 19.323 22.7128 19.8134 22.3049 20.2214C21.8969 20.6294 21.4064 20.8334 20.8335 20.8334H4.16683ZM12.5002 13.5417L4.16683 8.33341V18.7501H20.8335V8.33341L12.5002 13.5417ZM12.5002 11.4584L20.8335 6.25008H4.16683L12.5002 11.4584ZM4.16683 8.33341V6.25008V18.7501V8.33341Z" fill="white"/>
</svg>
