<svg width="25" height="25" viewBox="0 0 25 25" fill="none" xmlns="http://www.w3.org/2000/svg">
<path d="M5.88525 10.4427L7.9165 11.3021C8.15956 10.816 8.4113 10.3472 8.67171 9.89585C8.93213 9.44446 9.21859 8.99307 9.53109 8.54169L8.07275 8.25523L5.88525 10.4427ZM9.58317 12.6042L12.5519 15.5469C13.2811 15.2691 14.0623 14.8438 14.8957 14.2709C15.729 13.6979 16.5103 13.0469 17.2394 12.3177C18.4547 11.1024 19.4052 9.75262 20.091 8.26825C20.7767 6.78387 21.0762 5.41668 20.9894 4.16668C19.7394 4.07988 18.3679 4.37936 16.8748 5.06512C15.3818 5.75089 14.0276 6.70141 12.8123 7.91669C12.0832 8.64585 11.4321 9.4271 10.8592 10.2604C10.2863 11.0938 9.86095 11.875 9.58317 12.6042ZM14.2186 10.9115C13.8193 10.5122 13.6196 10.0217 13.6196 9.44012C13.6196 8.85852 13.8193 8.36807 14.2186 7.96877C14.6179 7.56946 15.1127 7.36981 15.703 7.36981C16.2932 7.36981 16.788 7.56946 17.1873 7.96877C17.5866 8.36807 17.7863 8.85852 17.7863 9.44012C17.7863 10.0217 17.5866 10.5122 17.1873 10.9115C16.788 11.3108 16.2932 11.5104 15.703 11.5104C15.1127 11.5104 14.6179 11.3108 14.2186 10.9115ZM14.7134 19.2709L16.9009 17.0834L16.6144 15.625C16.163 15.9375 15.7116 16.2196 15.2603 16.4714C14.8089 16.7231 14.3401 16.9705 13.854 17.2136L14.7134 19.2709ZM22.8644 2.26564C23.1943 4.36634 22.9903 6.41061 22.2524 8.39846C21.5146 10.3863 20.2429 12.283 18.4373 14.0886L18.9582 16.6667C19.0276 17.0139 19.0103 17.3524 18.9061 17.6823C18.8019 18.0122 18.6283 18.2986 18.3853 18.5417L14.0103 22.9167L11.8228 17.7865L7.36963 13.3334L2.23942 11.1459L6.58838 6.77085C6.83143 6.5278 7.12223 6.35419 7.46077 6.25002C7.79932 6.14585 8.1422 6.12849 8.48942 6.19794L11.0675 6.71877C12.8731 4.91321 14.7655 3.63717 16.7446 2.89064C18.7238 2.14412 20.7637 1.93578 22.8644 2.26564ZM4.08838 16.6406C4.69602 16.033 5.43821 15.7248 6.31494 15.7162C7.19168 15.7075 7.93387 16.007 8.5415 16.6146C9.14914 17.2222 9.44862 17.9644 9.43994 18.8412C9.43126 19.7179 9.1231 20.4601 8.51546 21.0677C8.08143 21.5018 7.35661 21.875 6.34098 22.1875C5.32536 22.5 3.92345 22.7778 2.13525 23.0209C2.37831 21.2327 2.65609 19.8307 2.96859 18.8151C3.28109 17.7995 3.65435 17.0747 4.08838 16.6406ZM5.57275 18.099C5.39914 18.2726 5.22553 18.5894 5.05192 19.0495C4.87831 19.5096 4.75678 19.974 4.68734 20.4427C5.15609 20.3733 5.6205 20.2561 6.08057 20.0912C6.54064 19.9262 6.85748 19.757 7.03109 19.5834C7.23942 19.375 7.35227 19.1233 7.36963 18.8281C7.38699 18.533 7.2915 18.2813 7.08317 18.0729C6.87484 17.8646 6.6231 17.7648 6.32796 17.7735C6.03282 17.7821 5.78109 17.8906 5.57275 18.099Z" fill="white"/>
</svg>
