<svg width="25" height="25" viewBox="0 0 25 25" fill="none" xmlns="http://www.w3.org/2000/svg">
<path d="M12.5 6.24992C11.9271 6.24992 11.4366 6.04593 11.0286 5.63794C10.6207 5.22995 10.4167 4.7395 10.4167 4.16659C10.4167 3.59367 10.6207 3.10322 11.0286 2.69523C11.4366 2.28725 11.9271 2.08325 12.5 2.08325C13.0729 2.08325 13.5634 2.28725 13.9714 2.69523C14.3793 3.10322 14.5833 3.59367 14.5833 4.16659C14.5833 4.7395 14.3793 5.22995 13.9714 5.63794C13.5634 6.04593 13.0729 6.24992 12.5 6.24992ZM9.375 22.9166V9.37492C8.33333 9.28811 7.27431 9.15791 6.19792 8.98429C5.12153 8.81068 4.09722 8.59367 3.125 8.33325L3.64583 6.24992C5 6.6145 6.44097 6.87926 7.96875 7.04419C9.49653 7.20912 11.0069 7.29159 12.5 7.29159C13.9931 7.29159 15.5035 7.20912 17.0312 7.04419C18.559 6.87926 20 6.6145 21.3542 6.24992L21.875 8.33325C20.9028 8.59367 19.8785 8.81068 18.8021 8.98429C17.7257 9.15791 16.6667 9.28811 15.625 9.37492V22.9166H13.5417V16.6666H11.4583V22.9166H9.375Z" fill="#AB9DB6"/>
</svg>
