<svg width="25" height="25" viewBox="0 0 25 25" fill="none" xmlns="http://www.w3.org/2000/svg">
<g id="language_24dp_E3E3E3_FILL0_wght400_GRAD0_opsz24 1">
<path id="Vector" d="M12.5 22.9168C11.0764 22.9168 9.73094 22.6434 8.46358 22.0965C7.19622 21.5496 6.08945 20.8031 5.14327 19.8569C4.19709 18.9108 3.45056 17.804 2.90369 16.5366C2.35681 15.2693 2.08337 13.9238 2.08337 12.5002C2.08337 11.0592 2.35681 9.70936 2.90369 8.45068C3.45056 7.192 4.19709 6.08957 5.14327 5.14339C6.08945 4.19721 7.19622 3.45068 8.46358 2.90381C9.73094 2.35693 11.0764 2.0835 12.5 2.0835C13.941 2.0835 15.2908 2.35693 16.5495 2.90381C17.8082 3.45068 18.9106 4.19721 19.8568 5.14339C20.803 6.08957 21.5495 7.192 22.0964 8.45068C22.6433 9.70936 22.9167 11.0592 22.9167 12.5002C22.9167 13.9238 22.6433 15.2693 22.0964 16.5366C21.5495 17.804 20.803 18.9108 19.8568 19.8569C18.9106 20.8031 17.8082 21.5496 16.5495 22.0965C15.2908 22.6434 13.941 22.9168 12.5 22.9168ZM12.5 20.7814C12.9514 20.1564 13.3421 19.5054 13.6719 18.8283C14.0018 18.1512 14.2709 17.4307 14.4792 16.6668H10.5209C10.7292 17.4307 10.9983 18.1512 11.3282 18.8283C11.658 19.5054 12.0487 20.1564 12.5 20.7814ZM9.79171 20.3647C9.47921 19.7918 9.20577 19.1972 8.9714 18.5809C8.73702 17.9646 8.54171 17.3266 8.38546 16.6668H5.31254C5.81601 17.5349 6.44535 18.2901 7.20056 18.9325C7.95577 19.5748 8.81949 20.0522 9.79171 20.3647ZM15.2084 20.3647C16.1806 20.0522 17.0443 19.5748 17.7995 18.9325C18.5547 18.2901 19.1841 17.5349 19.6875 16.6668H16.6146C16.4584 17.3266 16.2631 17.9646 16.0287 18.5809C15.7943 19.1972 15.5209 19.7918 15.2084 20.3647ZM4.42712 14.5835H7.96879C7.91671 14.2363 7.87765 13.8934 7.8516 13.5549C7.82556 13.2163 7.81254 12.8647 7.81254 12.5002C7.81254 12.1356 7.82556 11.784 7.8516 11.4455C7.87765 11.1069 7.91671 10.7641 7.96879 10.4168H4.42712C4.34032 10.7641 4.27521 11.1069 4.23181 11.4455C4.18841 11.784 4.16671 12.1356 4.16671 12.5002C4.16671 12.8647 4.18841 13.2163 4.23181 13.5549C4.27521 13.8934 4.34032 14.2363 4.42712 14.5835ZM10.0521 14.5835H14.948C15 14.2363 15.0391 13.8934 15.0651 13.5549C15.0912 13.2163 15.1042 12.8647 15.1042 12.5002C15.1042 12.1356 15.0912 11.784 15.0651 11.4455C15.0391 11.1069 15 10.7641 14.948 10.4168H10.0521C10 10.7641 9.96098 11.1069 9.93494 11.4455C9.9089 11.784 9.89587 12.1356 9.89587 12.5002C9.89587 12.8647 9.9089 13.2163 9.93494 13.5549C9.96098 13.8934 10 14.2363 10.0521 14.5835ZM17.0313 14.5835H20.573C20.6598 14.2363 20.7249 13.8934 20.7683 13.5549C20.8117 13.2163 20.8334 12.8647 20.8334 12.5002C20.8334 12.1356 20.8117 11.784 20.7683 11.4455C20.7249 11.1069 20.6598 10.7641 20.573 10.4168H17.0313C17.0834 10.7641 17.1224 11.1069 17.1485 11.4455C17.1745 11.784 17.1875 12.1356 17.1875 12.5002C17.1875 12.8647 17.1745 13.2163 17.1485 13.5549C17.1224 13.8934 17.0834 14.2363 17.0313 14.5835ZM16.6146 8.3335H19.6875C19.1841 7.46544 18.5547 6.71023 17.7995 6.06787C17.0443 5.42551 16.1806 4.94808 15.2084 4.63558C15.5209 5.2085 15.7943 5.80311 16.0287 6.41943C16.2631 7.03575 16.4584 7.67377 16.6146 8.3335ZM10.5209 8.3335H14.4792C14.2709 7.56961 14.0018 6.84912 13.6719 6.17204C13.3421 5.49495 12.9514 4.84391 12.5 4.21891C12.0487 4.84391 11.658 5.49495 11.3282 6.17204C10.9983 6.84912 10.7292 7.56961 10.5209 8.3335ZM5.31254 8.3335H8.38546C8.54171 7.67377 8.73702 7.03575 8.9714 6.41943C9.20577 5.80311 9.47921 5.2085 9.79171 4.63558C8.81949 4.94808 7.95577 5.42551 7.20056 6.06787C6.44535 6.71023 5.81601 7.46544 5.31254 8.3335Z" fill="#AB9DB6"/>
</g>
</svg>
