<svg width="25" height="25" viewBox="0 0 25 25" fill="none" xmlns="http://www.w3.org/2000/svg">
<g id="link_24dp_E3E3E3_FILL0_wght400_GRAD0_opsz24 1">
<path id="Vector" d="M11.4584 17.7082H7.29171C5.85074 17.7082 4.62244 17.2004 3.60681 16.1847C2.59119 15.1691 2.08337 13.9408 2.08337 12.4998C2.08337 11.0589 2.59119 9.83057 3.60681 8.81494C4.62244 7.79932 5.85074 7.2915 7.29171 7.2915H11.4584V9.37484H7.29171C6.42365 9.37484 5.6858 9.67866 5.07817 10.2863C4.47053 10.8939 4.16671 11.6318 4.16671 12.4998C4.16671 13.3679 4.47053 14.1057 5.07817 14.7134C5.6858 15.321 6.42365 15.6248 7.29171 15.6248H11.4584V17.7082ZM8.33337 13.5415V11.4582H16.6667V13.5415H8.33337ZM13.5417 17.7082V15.6248H17.7084C18.5764 15.6248 19.3143 15.321 19.9219 14.7134C20.5296 14.1057 20.8334 13.3679 20.8334 12.4998C20.8334 11.6318 20.5296 10.8939 19.9219 10.2863C19.3143 9.67866 18.5764 9.37484 17.7084 9.37484H13.5417V7.2915H17.7084C19.1493 7.2915 20.3776 7.79932 21.3933 8.81494C22.4089 9.83057 22.9167 11.0589 22.9167 12.4998C22.9167 13.9408 22.4089 15.1691 21.3933 16.1847C20.3776 17.2004 19.1493 17.7082 17.7084 17.7082H13.5417Z" fill="white"/>
</g>
</svg>
