<svg width="19" height="19" viewBox="0 0 19 19" fill="none" xmlns="http://www.w3.org/2000/svg">
<path id="Vector" d="M2.08333 18.75C1.51042 18.75 1.01997 18.546 0.611979 18.138C0.203993 17.73 0 17.2396 0 16.6667V2.08333C0 1.51042 0.203993 1.01997 0.611979 0.611979C1.01997 0.203993 1.51042 0 2.08333 0H9.375V2.08333H2.08333V16.6667H16.6667V9.375H18.75V16.6667C18.75 17.2396 18.546 17.73 18.138 18.138C17.73 18.546 17.2396 18.75 16.6667 18.75H2.08333ZM6.97917 13.2292L5.52083 11.7708L15.2083 2.08333H11.4583V0H18.75V7.29167H16.6667V3.54167L6.97917 13.2292Z" fill="url(#paint0_linear_2237_189)"/>
<defs>
<linearGradient id="paint0_linear_2237_189" x1="13.9578" y1="19.714" x2="22.5333" y2="13.7907" gradientUnits="userSpaceOnUse">
<stop stop-color="#8824DC"/>
<stop offset="1" stop-color="#B1219D"/>
</linearGradient>
</defs>
</svg>
