<svg width="25" height="25" viewBox="0 0 25 25" fill="none" xmlns="http://www.w3.org/2000/svg">
<g id="savings_24dp_E3E3E3_FILL0_wght400_GRAD0_opsz24 1">
<path id="Vector" d="M16.6667 11.4585C16.9618 11.4585 17.2092 11.3587 17.4089 11.159C17.6085 10.9594 17.7084 10.712 17.7084 10.4168C17.7084 10.1217 17.6085 9.87429 17.4089 9.67464C17.2092 9.47499 16.9618 9.37516 16.6667 9.37516C16.3716 9.37516 16.1242 9.47499 15.9245 9.67464C15.7249 9.87429 15.625 10.1217 15.625 10.4168C15.625 10.712 15.7249 10.9594 15.9245 11.159C16.1242 11.3587 16.3716 11.4585 16.6667 11.4585ZM8.33337 9.37516H13.5417V7.29183H8.33337V9.37516ZM4.68754 21.8752C4.09726 19.896 3.51567 17.9212 2.94275 15.9507C2.36983 13.9802 2.08337 11.962 2.08337 9.896C2.08337 8.29877 2.63893 6.94461 3.75004 5.8335C4.86115 4.72238 6.21532 4.16683 7.81254 4.16683H13.0209C13.5243 3.50711 14.1363 2.99495 14.8568 2.63037C15.5773 2.26579 16.3542 2.0835 17.1875 2.0835C17.6216 2.0835 17.9905 2.23541 18.2943 2.53923C18.5981 2.84304 18.75 3.21197 18.75 3.646C18.75 3.75016 18.737 3.85433 18.711 3.9585C18.6849 4.06266 18.6546 4.15815 18.6198 4.24495C18.5504 4.43593 18.4853 4.63124 18.4245 4.83089C18.3638 5.03054 18.316 5.23454 18.2813 5.44287L20.6511 7.81266H22.9167V15.0783L19.974 16.0418L18.2292 21.8752H12.5V19.7918H10.4167V21.8752H4.68754ZM6.25004 19.7918H8.33337V17.7085H14.5834V19.7918H16.6667L18.2813 14.4272L20.8334 13.5679V9.896H19.7917L16.1459 6.25016C16.1459 5.90294 16.1676 5.56874 16.211 5.24756C16.2544 4.92638 16.3195 4.60086 16.4063 4.271C15.9028 4.40988 15.4601 4.6486 15.0782 4.98714C14.6962 5.32568 14.4184 5.74669 14.2448 6.25016H7.81254C6.8056 6.25016 5.94622 6.60607 5.23442 7.31787C4.52261 8.02968 4.16671 8.88905 4.16671 9.896C4.16671 11.5974 4.40108 13.2597 4.86983 14.883C5.33858 16.5062 5.79865 18.1425 6.25004 19.7918Z" fill="#AB9DB6"/>
</g>
</svg>
