<svg width="25" height="26" viewBox="0 0 25 26" fill="none" xmlns="http://www.w3.org/2000/svg">
<path d="M4.16683 22.3749C3.59391 22.3749 3.10346 22.1709 2.69548 21.7629C2.28749 21.355 2.0835 20.8645 2.0835 20.2916V8.83325C2.0835 8.26033 2.28749 7.76988 2.69548 7.3619C3.10346 6.95391 3.59391 6.74992 4.16683 6.74992H8.3335V4.66659C8.3335 4.09367 8.53749 3.60322 8.94548 3.19523C9.35346 2.78724 9.84391 2.58325 10.4168 2.58325H14.5835C15.1564 2.58325 15.6469 2.78724 16.0549 3.19523C16.4628 3.60322 16.6668 4.09367 16.6668 4.66659V6.74992H20.8335C21.4064 6.74992 21.8969 6.95391 22.3049 7.3619C22.7128 7.76988 22.9168 8.26033 22.9168 8.83325V20.2916C22.9168 20.8645 22.7128 21.355 22.3049 21.7629C21.8969 22.1709 21.4064 22.3749 20.8335 22.3749H4.16683ZM4.16683 20.2916H20.8335V8.83325H4.16683V20.2916ZM10.4168 6.74992H14.5835V4.66659H10.4168V6.74992Z" fill="white"/>
</svg>
