<svg width="25" height="26" viewBox="0 0 25 26" fill="none" xmlns="http://www.w3.org/2000/svg">
<g id="discord 2" clip-path="url(#clip0_1197_7200)">
<path id="Vector" d="M21.1643 5.04171C19.5434 4.29731 17.8328 3.76632 16.0753 3.46202C16.0593 3.45934 16.043 3.46166 16.0284 3.46865C16.0139 3.47565 16.0019 3.48698 15.994 3.50109C15.7737 3.89171 15.53 4.40265 15.3596 4.80265C13.4653 4.5154 11.5384 4.5154 9.64401 4.80265C9.45483 4.35669 9.23989 3.9221 9.00026 3.50109C8.99242 3.48698 8.98039 3.47565 8.96584 3.46865C8.95129 3.46166 8.93493 3.45934 8.91901 3.46202C7.1612 3.76515 5.45026 4.2964 3.82995 5.04171C3.81602 5.04689 3.80438 5.05686 3.79714 5.06984C0.556514 9.91202 -0.332549 14.6355 0.103389 19.2995C0.106514 19.3224 0.117451 19.3417 0.136201 19.3573C2.02365 20.7546 4.13427 21.8218 6.37839 22.5136C6.39423 22.5186 6.41126 22.5184 6.427 22.5131C6.44273 22.5077 6.45636 22.4975 6.46589 22.4839C6.94818 21.8276 7.37422 21.1355 7.74401 20.4073C7.7517 20.3923 7.75433 20.3753 7.75152 20.3586C7.7487 20.342 7.74059 20.3268 7.72839 20.3151L7.70026 20.298C7.02739 20.0385 6.37546 19.7277 5.75026 19.3683C5.73281 19.3584 5.71983 19.3422 5.71401 19.323C5.7082 19.3038 5.70999 19.2831 5.71901 19.2651L5.74245 19.2355C5.87474 19.1365 6.00391 19.0349 6.12995 18.9308C6.14099 18.9219 6.15424 18.9162 6.16828 18.9143C6.18232 18.9123 6.19661 18.9143 6.20964 18.9198C10.3018 20.7886 14.7315 20.7886 18.7737 18.9198C18.7871 18.9136 18.802 18.9114 18.8167 18.9133C18.8314 18.9152 18.8452 18.9213 18.8565 18.9308C18.9826 19.0349 19.1117 19.1365 19.244 19.2355C19.255 19.243 19.2639 19.2532 19.2698 19.2651C19.2758 19.2771 19.2786 19.2903 19.2779 19.3036C19.2773 19.3169 19.2733 19.3298 19.2663 19.3412C19.2592 19.3525 19.2494 19.3618 19.2378 19.3683C18.6153 19.7334 17.9623 20.0439 17.2862 20.2964C17.2754 20.3003 17.2656 20.3065 17.2575 20.3146C17.2494 20.3227 17.2432 20.3325 17.2393 20.3433C17.2355 20.3537 17.234 20.3648 17.2348 20.3758C17.2356 20.3869 17.2387 20.3976 17.244 20.4073C17.619 21.1339 18.0487 21.8276 18.5206 22.4839C18.5301 22.4975 18.5437 22.5077 18.5595 22.5131C18.5752 22.5184 18.5922 22.5186 18.6081 22.5136C20.8566 21.8256 22.9709 20.7581 24.8596 19.3573C24.869 19.3507 24.8768 19.3421 24.8825 19.3321C24.8882 19.3221 24.8916 19.311 24.8925 19.2995C25.4143 13.9073 24.019 9.22296 21.1956 5.0714C21.1931 5.06431 21.189 5.05792 21.1836 5.05275C21.1781 5.04758 21.1715 5.0438 21.1643 5.04171ZM8.35495 16.4589C7.12214 16.4589 6.10808 15.3276 6.10808 13.9401C6.10808 12.5526 7.10339 11.4198 8.35495 11.4198C9.61589 11.4198 10.6206 12.5605 10.6018 13.9401C10.6018 15.3276 9.60651 16.4589 8.35495 16.4589ZM16.6612 16.4589C15.43 16.4589 14.4143 15.3276 14.4143 13.9401C14.4143 12.5526 15.4096 11.4198 16.6612 11.4198C17.9221 11.4198 18.9284 12.5605 18.9081 13.9401C18.9081 15.3276 17.9221 16.4589 16.6612 16.4589Z" fill="white"/>
</g>
<defs>
<clipPath id="clip0_1197_7200">
<rect width="25" height="25" fill="white" transform="translate(0 0.5)"/>
</clipPath>
</defs>
</svg>
