<svg width="25" height="26" viewBox="0 0 25 26" fill="none" xmlns="http://www.w3.org/2000/svg">
<g id="github 1" clip-path="url(#clip0_1393_4033)">
<path id="Vector" d="M12.5 0.5C5.59375 0.5 0 6.09375 0 13C0 18.5312 3.57812 23.2031 8.54688 24.8594C9.17188 24.9688 9.40625 24.5938 9.40625 24.2656C9.40625 23.9688 9.39062 22.9844 9.39062 21.9375C6.25 22.5156 5.4375 21.1719 5.1875 20.4688C5.04688 20.1094 4.4375 19 3.90625 18.7031C3.46875 18.4688 2.84375 17.8906 3.89062 17.875C4.875 17.8594 5.57812 18.7812 5.8125 19.1562C6.9375 21.0469 8.73438 20.5156 9.45312 20.1875C9.5625 19.375 9.89062 18.8281 10.25 18.5156C7.46875 18.2031 4.5625 17.125 4.5625 12.3438C4.5625 10.9844 5.04688 9.85938 5.84375 8.98438C5.71875 8.67188 5.28125 7.39062 5.96875 5.67188C5.96875 5.67188 7.01562 5.34375 9.40625 6.95312C10.4062 6.67188 11.4688 6.53125 12.5313 6.53125C13.5938 6.53125 14.6563 6.67188 15.6563 6.95312C18.0469 5.32812 19.0938 5.67188 19.0938 5.67188C19.7812 7.39062 19.3438 8.67188 19.2188 8.98438C20.0156 9.85938 20.5 10.9688 20.5 12.3438C20.5 17.1406 17.5781 18.2031 14.7969 18.5156C15.25 18.9062 15.6406 19.6562 15.6406 20.8281C15.6406 22.5 15.625 23.8438 15.625 24.2656C15.625 24.5938 15.8594 24.9844 16.4844 24.8594C18.9662 24.0223 21.1229 22.4276 22.6506 20.3C24.1783 18.1725 25 15.6192 25 13C25 6.09375 19.4062 0.5 12.5 0.5Z" fill="white"/>
</g>
<defs>
<clipPath id="clip0_1393_4033">
<rect width="25" height="25" fill="white" transform="translate(0 0.5)"/>
</clipPath>
</defs>
</svg>
