<svg width="25" height="25" viewBox="0 0 25 25" fill="none" xmlns="http://www.w3.org/2000/svg">
<path d="M12.5002 22.9168C11.0766 22.9168 9.73107 22.6434 8.4637 22.0965C7.19634 21.5496 6.08957 20.8031 5.14339 19.8569C4.19721 18.9108 3.45068 17.804 2.90381 16.5366C2.35693 15.2693 2.0835 13.9238 2.0835 12.5002C2.0835 11.0592 2.35693 9.70936 2.90381 8.45068C3.45068 7.192 4.19721 6.08957 5.14339 5.14339C6.08957 4.19721 7.19634 3.45068 8.4637 2.90381C9.73107 2.35693 11.0766 2.0835 12.5002 2.0835C13.9411 2.0835 15.291 2.35693 16.5496 2.90381C17.8083 3.45068 18.9108 4.19721 19.8569 5.14339C20.8031 6.08957 21.5496 7.192 22.0965 8.45068C22.6434 9.70936 22.9168 11.0592 22.9168 12.5002C22.9168 13.9238 22.6434 15.2693 22.0965 16.5366C21.5496 17.804 20.8031 18.9108 19.8569 19.8569C18.9108 20.8031 17.8083 21.5496 16.5496 22.0965C15.291 22.6434 13.9411 22.9168 12.5002 22.9168ZM12.5002 20.7814C12.9516 20.1564 13.3422 19.5054 13.672 18.8283C14.0019 18.1512 14.271 17.4307 14.4793 16.6668H10.521C10.7293 17.4307 10.9984 18.1512 11.3283 18.8283C11.6581 19.5054 12.0488 20.1564 12.5002 20.7814ZM9.79183 20.3647C9.47933 19.7918 9.20589 19.1972 8.97152 18.5809C8.73714 17.9646 8.54183 17.3266 8.38558 16.6668H5.31266C5.81614 17.5349 6.44548 18.2901 7.20068 18.9325C7.95589 19.5748 8.81961 20.0522 9.79183 20.3647ZM15.2085 20.3647C16.1807 20.0522 17.0444 19.5748 17.7996 18.9325C18.5549 18.2901 19.1842 17.5349 19.6877 16.6668H16.6147C16.4585 17.3266 16.2632 17.9646 16.0288 18.5809C15.7944 19.1972 15.521 19.7918 15.2085 20.3647ZM4.42725 14.5835H7.96891C7.91683 14.2363 7.87777 13.8934 7.85173 13.5549C7.82568 13.2163 7.81266 12.8647 7.81266 12.5002C7.81266 12.1356 7.82568 11.784 7.85173 11.4455C7.87777 11.1069 7.91683 10.7641 7.96891 10.4168H4.42725C4.34044 10.7641 4.27534 11.1069 4.23193 11.4455C4.18853 11.784 4.16683 12.1356 4.16683 12.5002C4.16683 12.8647 4.18853 13.2163 4.23193 13.5549C4.27534 13.8934 4.34044 14.2363 4.42725 14.5835ZM10.0522 14.5835H14.9481C15.0002 14.2363 15.0392 13.8934 15.0653 13.5549C15.0913 13.2163 15.1043 12.8647 15.1043 12.5002C15.1043 12.1356 15.0913 11.784 15.0653 11.4455C15.0392 11.1069 15.0002 10.7641 14.9481 10.4168H10.0522C10.0002 10.7641 9.9611 11.1069 9.93506 11.4455C9.90902 11.784 9.896 12.1356 9.896 12.5002C9.896 12.8647 9.90902 13.2163 9.93506 13.5549C9.9611 13.8934 10.0002 14.2363 10.0522 14.5835ZM17.0314 14.5835H20.5731C20.6599 14.2363 20.725 13.8934 20.7684 13.5549C20.8118 13.2163 20.8335 12.8647 20.8335 12.5002C20.8335 12.1356 20.8118 11.784 20.7684 11.4455C20.725 11.1069 20.6599 10.7641 20.5731 10.4168H17.0314C17.0835 10.7641 17.1226 11.1069 17.1486 11.4455C17.1746 11.784 17.1877 12.1356 17.1877 12.5002C17.1877 12.8647 17.1746 13.2163 17.1486 13.5549C17.1226 13.8934 17.0835 14.2363 17.0314 14.5835ZM16.6147 8.3335H19.6877C19.1842 7.46544 18.5549 6.71023 17.7996 6.06787C17.0444 5.42551 16.1807 4.94808 15.2085 4.63558C15.521 5.2085 15.7944 5.80311 16.0288 6.41943C16.2632 7.03575 16.4585 7.67377 16.6147 8.3335ZM10.521 8.3335H14.4793C14.271 7.56961 14.0019 6.84912 13.672 6.17204C13.3422 5.49495 12.9516 4.84391 12.5002 4.21891C12.0488 4.84391 11.6581 5.49495 11.3283 6.17204C10.9984 6.84912 10.7293 7.56961 10.521 8.3335ZM5.31266 8.3335H8.38558C8.54183 7.67377 8.73714 7.03575 8.97152 6.41943C9.20589 5.80311 9.47933 5.2085 9.79183 4.63558C8.81961 4.94808 7.95589 5.42551 7.20068 6.06787C6.44548 6.71023 5.81614 7.46544 5.31266 8.3335Z" fill="white"/>
</svg>
