<svg width="25" height="26" viewBox="0 0 25 26" fill="none" xmlns="http://www.w3.org/2000/svg">
<g id="youtube 1">
<path id="Vector" d="M12.5797 3.62305H12.7188C14.0031 3.62773 20.5109 3.67461 22.2656 4.14648C22.7961 4.2905 23.2795 4.57121 23.6674 4.96056C24.0554 5.34991 24.3344 5.83427 24.4766 6.36523C24.6344 6.95898 24.7453 7.74492 24.8203 8.55586L24.8359 8.71836L24.8703 9.12461L24.8828 9.28711C24.9844 10.7152 24.9969 12.0527 24.9984 12.3449V12.4621C24.9969 12.7652 24.9828 14.1934 24.8703 15.6809L24.8578 15.8449L24.8438 16.0074C24.7656 16.9012 24.65 17.7887 24.4766 18.4418C24.3344 18.9728 24.0554 19.4571 23.6674 19.8465C23.2795 20.2358 22.7961 20.5165 22.2656 20.6605C20.4531 21.148 13.5641 21.1824 12.6094 21.184H12.3875C11.9047 21.184 9.90781 21.1746 7.81406 21.1027L7.54844 21.0934L7.4125 21.0871L7.14531 21.0762L6.87812 21.0652C5.14375 20.9887 3.49219 20.8652 2.73125 20.659C2.20098 20.5151 1.71773 20.2346 1.32977 19.8456C0.941801 19.4565 0.662693 18.9725 0.520312 18.4418C0.346875 17.7902 0.23125 16.9012 0.153125 16.0074L0.140625 15.8434L0.128125 15.6809C0.0505678 14.6221 0.00783643 13.5611 0 12.4996L0 12.3074C0.003125 11.9715 0.015625 10.8105 0.1 9.5293L0.110938 9.36836L0.115625 9.28711L0.128125 9.12461L0.1625 8.71836L0.178125 8.55586C0.253125 7.74492 0.364062 6.95742 0.521875 6.36523C0.664016 5.83427 0.943019 5.34991 1.331 4.96056C1.71898 4.57121 2.20235 4.2905 2.73281 4.14648C3.49375 3.94336 5.14531 3.81836 6.87969 3.74023L7.14531 3.7293L7.41406 3.71992L7.54844 3.71523L7.81562 3.7043C9.30267 3.65649 10.7903 3.62992 12.2781 3.62461L12.5797 3.62305ZM10 8.63867V16.1668L16.4953 12.4043L10 8.63867Z" fill="white"/>
</g>
</svg>
