<svg width="109" height="22" viewBox="0 0 109 22" fill="none" xmlns="http://www.w3.org/2000/svg">
<path d="M5.624 17.336C4.072 17.336 2.8 17 1.808 16.328C0.816 15.656 0.216 14.696 0.00800008 13.448L2.792 12.728C2.904 13.288 3.088 13.728 3.344 14.048C3.616 14.368 3.944 14.6 4.328 14.744C4.728 14.872 5.16 14.936 5.624 14.936C6.328 14.936 6.848 14.816 7.184 14.576C7.52 14.32 7.688 14.008 7.688 13.64C7.688 13.272 7.528 12.992 7.208 12.8C6.888 12.592 6.376 12.424 5.672 12.296L5 12.176C4.168 12.016 3.408 11.8 2.72 11.528C2.032 11.24 1.48 10.848 1.064 10.352C0.648 9.856 0.44 9.216 0.44 8.432C0.44 7.248 0.872 6.344 1.736 5.72C2.6 5.08 3.736 4.76 5.144 4.76C6.472 4.76 7.576 5.056 8.456 5.648C9.336 6.24 9.912 7.016 10.184 7.976L7.376 8.84C7.248 8.232 6.984 7.8 6.584 7.544C6.2 7.288 5.72 7.16 5.144 7.16C4.568 7.16 4.128 7.264 3.824 7.472C3.52 7.664 3.368 7.936 3.368 8.288C3.368 8.672 3.528 8.96 3.848 9.152C4.168 9.328 4.6 9.464 5.144 9.56L5.816 9.68C6.712 9.84 7.52 10.056 8.24 10.328C8.976 10.584 9.552 10.96 9.968 11.456C10.4 11.936 10.616 12.592 10.616 13.424C10.616 14.672 10.16 15.64 9.248 16.328C8.352 17 7.144 17.336 5.624 17.336ZM18.6899 17.336C17.5059 17.336 16.4579 17.088 15.5459 16.592C14.6499 16.08 13.9459 15.368 13.4339 14.456C12.9379 13.528 12.6899 12.44 12.6899 11.192V10.904C12.6899 9.656 12.9379 8.576 13.4339 7.664C13.9299 6.736 14.6259 6.024 15.5219 5.528C16.4179 5.016 17.4579 4.76 18.6419 4.76C19.8099 4.76 20.8259 5.024 21.6899 5.552C22.5539 6.064 23.2259 6.784 23.7059 7.712C24.1859 8.624 24.4259 9.688 24.4259 10.904V11.936H15.7619C15.7939 12.752 16.0979 13.416 16.6739 13.928C17.2499 14.44 17.9539 14.696 18.7859 14.696C19.6339 14.696 20.2579 14.512 20.6579 14.144C21.0579 13.776 21.3619 13.368 21.5699 12.92L24.0419 14.216C23.8179 14.632 23.4899 15.088 23.0579 15.584C22.6419 16.064 22.0819 16.48 21.3779 16.832C20.6739 17.168 19.7779 17.336 18.6899 17.336ZM15.7859 9.68H21.3539C21.2899 8.992 21.0099 8.44 20.5139 8.024C20.0339 7.608 19.4019 7.4 18.6179 7.4C17.8019 7.4 17.1539 7.608 16.6739 8.024C16.1939 8.44 15.8979 8.992 15.7859 9.68ZM32.0615 17.336C30.5095 17.336 29.2375 17 28.2455 16.328C27.2535 15.656 26.6535 14.696 26.4455 13.448L29.2295 12.728C29.3415 13.288 29.5255 13.728 29.7815 14.048C30.0535 14.368 30.3815 14.6 30.7655 14.744C31.1655 14.872 31.5975 14.936 32.0615 14.936C32.7655 14.936 33.2855 14.816 33.6215 14.576C33.9575 14.32 34.1255 14.008 34.1255 13.64C34.1255 13.272 33.9655 12.992 33.6455 12.8C33.3255 12.592 32.8135 12.424 32.1095 12.296L31.4375 12.176C30.6055 12.016 29.8455 11.8 29.1575 11.528C28.4695 11.24 27.9175 10.848 27.5015 10.352C27.0855 9.856 26.8775 9.216 26.8775 8.432C26.8775 7.248 27.3095 6.344 28.1735 5.72C29.0375 5.08 30.1735 4.76 31.5815 4.76C32.9095 4.76 34.0135 5.056 34.8935 5.648C35.7735 6.24 36.3495 7.016 36.6215 7.976L33.8135 8.84C33.6855 8.232 33.4215 7.8 33.0215 7.544C32.6375 7.288 32.1575 7.16 31.5815 7.16C31.0055 7.16 30.5655 7.264 30.2615 7.472C29.9575 7.664 29.8055 7.936 29.8055 8.288C29.8055 8.672 29.9655 8.96 30.2855 9.152C30.6055 9.328 31.0375 9.464 31.5815 9.56L32.2535 9.68C33.1495 9.84 33.9575 10.056 34.6775 10.328C35.4135 10.584 35.9895 10.96 36.4055 11.456C36.8375 11.936 37.0535 12.592 37.0535 13.424C37.0535 14.672 36.5975 15.64 35.6855 16.328C34.7895 17 33.5815 17.336 32.0615 17.336ZM43.3057 17.336C42.4577 17.336 41.6977 17.192 41.0257 16.904C40.3537 16.6 39.8177 16.168 39.4177 15.608C39.0337 15.032 38.8417 14.336 38.8417 13.52C38.8417 12.704 39.0337 12.024 39.4177 11.48C39.8177 10.92 40.3617 10.504 41.0497 10.232C41.7537 9.944 42.5537 9.8 43.4497 9.8H46.7137V9.128C46.7137 8.568 46.5377 8.112 46.1857 7.76C45.8337 7.392 45.2737 7.208 44.5057 7.208C43.7537 7.208 43.1937 7.384 42.8257 7.736C42.4577 8.072 42.2177 8.512 42.1057 9.056L39.3217 8.12C39.5137 7.512 39.8177 6.96 40.2337 6.464C40.6657 5.952 41.2337 5.544 41.9377 5.24C42.6577 4.92 43.5297 4.76 44.5537 4.76C46.1217 4.76 47.3617 5.152 48.2737 5.936C49.1857 6.72 49.6417 7.856 49.6417 9.344V13.784C49.6417 14.264 49.8657 14.504 50.3137 14.504H51.2737V17H49.2577C48.6657 17 48.1777 16.856 47.7937 16.568C47.4097 16.28 47.2177 15.896 47.2177 15.416V15.392H46.7617C46.6977 15.584 46.5537 15.84 46.3297 16.16C46.1057 16.464 45.7537 16.736 45.2737 16.976C44.7937 17.216 44.1377 17.336 43.3057 17.336ZM43.8337 14.888C44.6817 14.888 45.3697 14.656 45.8977 14.192C46.4417 13.712 46.7137 13.08 46.7137 12.296V12.056H43.6657C43.1057 12.056 42.6657 12.176 42.3457 12.416C42.0257 12.656 41.8657 12.992 41.8657 13.424C41.8657 13.856 42.0337 14.208 42.3697 14.48C42.7057 14.752 43.1937 14.888 43.8337 14.888ZM51.4207 21.8L58.4767 0.199999H61.5007L54.4447 21.8H51.4207ZM66.1573 17.336C65.3093 17.336 64.5493 17.192 63.8773 16.904C63.2053 16.6 62.6693 16.168 62.2693 15.608C61.8853 15.032 61.6933 14.336 61.6933 13.52C61.6933 12.704 61.8853 12.024 62.2693 11.48C62.6693 10.92 63.2133 10.504 63.9013 10.232C64.6053 9.944 65.4053 9.8 66.3013 9.8H69.5653V9.128C69.5653 8.568 69.3893 8.112 69.0373 7.76C68.6853 7.392 68.1253 7.208 67.3573 7.208C66.6053 7.208 66.0453 7.384 65.6773 7.736C65.3093 8.072 65.0693 8.512 64.9573 9.056L62.1733 8.12C62.3653 7.512 62.6693 6.96 63.0853 6.464C63.5173 5.952 64.0853 5.544 64.7893 5.24C65.5093 4.92 66.3813 4.76 67.4053 4.76C68.9733 4.76 70.2133 5.152 71.1253 5.936C72.0373 6.72 72.4933 7.856 72.4933 9.344V13.784C72.4933 14.264 72.7173 14.504 73.1653 14.504H74.1253V17H72.1093C71.5173 17 71.0293 16.856 70.6453 16.568C70.2613 16.28 70.0693 15.896 70.0693 15.416V15.392H69.6133C69.5493 15.584 69.4053 15.84 69.1813 16.16C68.9573 16.464 68.6053 16.736 68.1253 16.976C67.6453 17.216 66.9893 17.336 66.1573 17.336ZM66.6853 14.888C67.5333 14.888 68.2213 14.656 68.7493 14.192C69.2933 13.712 69.5653 13.08 69.5653 12.296V12.056H66.5173C65.9573 12.056 65.5173 12.176 65.1973 12.416C64.8773 12.656 64.7173 12.992 64.7173 13.424C64.7173 13.856 64.8853 14.208 65.2213 14.48C65.5573 14.752 66.0453 14.888 66.6853 14.888ZM81.5259 17.336C80.3419 17.336 79.2939 17.088 78.3819 16.592C77.4859 16.08 76.7819 15.368 76.2699 14.456C75.7739 13.528 75.5259 12.44 75.5259 11.192V10.904C75.5259 9.656 75.7739 8.576 76.2699 7.664C76.7659 6.736 77.4619 6.024 78.3579 5.528C79.2539 5.016 80.2939 4.76 81.4779 4.76C82.6459 4.76 83.6619 5.024 84.5259 5.552C85.3899 6.064 86.0619 6.784 86.5419 7.712C87.0219 8.624 87.2619 9.688 87.2619 10.904V11.936H78.5979C78.6299 12.752 78.9339 13.416 79.5099 13.928C80.0859 14.44 80.7899 14.696 81.6219 14.696C82.4699 14.696 83.0939 14.512 83.4939 14.144C83.8939 13.776 84.1979 13.368 84.4059 12.92L86.8779 14.216C86.6539 14.632 86.3259 15.088 85.8939 15.584C85.4779 16.064 84.9179 16.48 84.2139 16.832C83.5099 17.168 82.6139 17.336 81.5259 17.336ZM78.6219 9.68H84.1899C84.1259 8.992 83.8459 8.44 83.3499 8.024C82.8699 7.608 82.2379 7.4 81.4539 7.4C80.6379 7.4 79.9899 7.608 79.5099 8.024C79.0299 8.44 78.7339 8.992 78.6219 9.68ZM79.6539 3.752L81.4299 0.199999H84.8379L82.2939 3.752H79.6539ZM89.3774 11.096V10.712C89.3774 9.464 89.6254 8.4 90.1214 7.52C90.6174 6.624 91.2734 5.944 92.0894 5.48C92.9214 5 93.8254 4.76 94.8014 4.76C95.8894 4.76 96.7134 4.952 97.2734 5.336C97.8334 5.72 98.2414 6.12 98.4974 6.536H98.9294V5.096H101.905V19.112C101.905 19.928 101.665 20.576 101.185 21.056C100.705 21.552 100.065 21.8 99.2654 21.8H91.2974V19.16H98.2094C98.6574 19.16 98.8814 18.92 98.8814 18.44V15.344H98.4494C98.2894 15.6 98.0654 15.864 97.7774 16.136C97.4894 16.392 97.1054 16.608 96.6254 16.784C96.1454 16.96 95.5374 17.048 94.8014 17.048C93.8254 17.048 92.9214 16.816 92.0894 16.352C91.2734 15.872 90.6174 15.192 90.1214 14.312C89.6254 13.416 89.3774 12.344 89.3774 11.096ZM95.6654 14.408C96.5934 14.408 97.3694 14.112 97.9934 13.52C98.6174 12.928 98.9294 12.096 98.9294 11.024V10.784C98.9294 9.696 98.6174 8.864 97.9934 8.288C97.3854 7.696 96.6094 7.4 95.6654 7.4C94.7374 7.4 93.9614 7.696 93.3374 8.288C92.7134 8.864 92.4014 9.696 92.4014 10.784V11.024C92.4014 12.096 92.7134 12.928 93.3374 13.52C93.9614 14.112 94.7374 14.408 95.6654 14.408ZM105.258 17V0.199999H108.282V17H105.258Z" fill="url(#paint0_linear_1030_4069)"/>
<defs>
<linearGradient id="paint0_linear_1030_4069" x1="81.6301" y1="22.2339" x2="88.3222" y2="0.855329" gradientUnits="userSpaceOnUse">
<stop stop-color="#8824DC"/>
<stop offset="1" stop-color="#B1219D"/>
</linearGradient>
</defs>
</svg>
