<svg width="18" height="21" viewBox="0 0 18 21" fill="none" xmlns="http://www.w3.org/2000/svg">
<path d="M6.375 16.75C5.80208 16.75 5.31163 16.546 4.90365 16.138C4.49566 15.73 4.29167 15.2396 4.29167 14.6667V2.16667C4.29167 1.59375 4.49566 1.1033 4.90365 0.695312C5.31163 0.287326 5.80208 0.083333 6.375 0.083333H15.75C16.3229 0.083333 16.8134 0.287326 17.2214 0.695312C17.6293 1.1033 17.8333 1.59375 17.8333 2.16667V14.6667C17.8333 15.2396 17.6293 15.73 17.2214 16.138C16.8134 16.546 16.3229 16.75 15.75 16.75H6.375ZM6.375 14.6667H15.75V2.16667H6.375V14.6667ZM2.20833 20.9167C1.63542 20.9167 1.14497 20.7127 0.736979 20.3047C0.328993 19.8967 0.125 19.4063 0.125 18.8333V4.25H2.20833V18.8333H13.6667V20.9167H2.20833Z" fill="white"/>
</svg>
