<?xml version="1.0" encoding="UTF-8"?>
<svg version="1.1" xmlns="http://www.w3.org/2000/svg" width="21" height="22">
<path d="M0 0 C2.92837797 2.45027545 4.56680768 4.19920878 5.47265625 7.96484375 C5.76870317 11.91972697 5.12212999 14.33838332 2.625 17.4375 C-0.97703864 20.95377581 -0.97703864 20.95377581 -3.98828125 21.08984375 C-8.47456398 20.79578488 -10.5149646 20.40584595 -14.0625 17.4375 C-16.35369145 13.37248291 -17.15928921 10.55564431 -16 6 C-11.95134825 -0.89163883 -7.41263316 -2.04486432 0 0 Z M-13 6 C-13.72307113 8.8228697 -13.71046028 11.17548716 -13 14 C-11.08817732 16.74612994 -11.08817732 16.74612994 -8 18 C-4.53241058 17.94021398 -2.11173251 17.60965977 0.9375 15.9375 C2.69816113 12.72688264 2.75353146 9.50004798 2 6 C-0.39421995 3.26374862 -1.94269804 2.21146039 -5.5 1.5 C-9.05730196 2.21146039 -10.60578005 3.26374862 -13 6 Z " fill="#FFFFFF" transform="translate(16,1)"/>
<path d="M0 0 C1.8125 1.1875 1.8125 1.1875 3 3 C3.42478586 7.07794425 3.31282587 8.53076119 1 12 C-2.16912098 12.89562115 -4.17702854 13.28915213 -7.3125 12.1875 C-9 11 -9 11 -10 9 C-10.25860135 4.94857881 -10.30441554 3.45662331 -8 0 C-4.65044556 -1.11651815 -3.32740404 -0.99822121 0 0 Z M-5 2 C-5.66 2.66 -6.32 3.32 -7 4 C-6.67958603 6.60280568 -6.67958603 6.60280568 -6 9 C-4.10820797 9.6814823 -4.10820797 9.6814823 -2 10 C-1.34 9.34 -0.68 8.68 0 8 C-0.32041397 5.39719432 -0.32041397 5.39719432 -1 3 C-2.89179203 2.3185177 -2.89179203 2.3185177 -5 2 Z " fill="#FFFFFF" transform="translate(14,5)"/>
<path d="M0 0 C0.99 0.33 1.98 0.66 3 1 C3 2.32 3 3.64 3 5 C2.01 5.33 1.02 5.66 0 6 C-0.66 5.67 -1.32 5.34 -2 5 C-2 3.68 -2 2.36 -2 1 C-1.34 0.67 -0.68 0.34 0 0 Z " fill="#FFFFFF" transform="translate(10,8)"/>
</svg>
