<svg width="21" height="22" viewBox="0 0 21 22" fill="none" xmlns="http://www.w3.org/2000/svg">
<path d="M10.5002 21.4163C9.05919 21.4163 7.70502 21.1429 6.43766 20.596C5.1703 20.0492 4.06787 19.307 3.13037 18.3695C2.19287 17.432 1.45068 16.3295 0.903809 15.0622C0.356934 13.7948 0.0834961 12.4406 0.0834961 10.9997C0.0834961 9.5587 0.356934 8.20454 0.903809 6.93717C1.45068 5.66981 2.19287 4.56738 3.13037 3.62988C4.06787 2.69238 5.1703 1.9502 6.43766 1.40332C7.70502 0.856445 9.05919 0.583008 10.5002 0.583008C11.9411 0.583008 13.2953 0.856445 14.5627 1.40332C15.83 1.9502 16.9325 2.69238 17.87 3.62988C18.8075 4.56738 19.5496 5.66981 20.0965 6.93717C20.6434 8.20454 20.9168 9.5587 20.9168 10.9997C20.9168 12.4406 20.6434 13.7948 20.0965 15.0622C19.5496 16.3295 18.8075 17.432 17.87 18.3695C16.9325 19.307 15.83 20.0492 14.5627 20.596C13.2953 21.1429 11.9411 21.4163 10.5002 21.4163ZM10.5002 19.333C12.8266 19.333 14.797 18.5257 16.4116 16.9111C18.0262 15.2965 18.8335 13.3261 18.8335 10.9997C18.8335 8.67329 18.0262 6.7028 16.4116 5.08822C14.797 3.47363 12.8266 2.66634 10.5002 2.66634C8.17377 2.66634 6.20329 3.47363 4.5887 5.08822C2.97412 6.7028 2.16683 8.67329 2.16683 10.9997C2.16683 13.3261 2.97412 15.2965 4.5887 16.9111C6.20329 18.5257 8.17377 19.333 10.5002 19.333ZM10.5002 17.2497C8.76405 17.2497 7.28836 16.642 6.07308 15.4268C4.8578 14.2115 4.25016 12.7358 4.25016 10.9997C4.25016 9.26356 4.8578 7.78787 6.07308 6.57259C7.28836 5.35731 8.76405 4.74967 10.5002 4.74967C12.2363 4.74967 13.712 5.35731 14.9272 6.57259C16.1425 7.78787 16.7502 9.26356 16.7502 10.9997C16.7502 12.7358 16.1425 14.2115 14.9272 15.4268C13.712 16.642 12.2363 17.2497 10.5002 17.2497ZM10.5002 15.1663C11.646 15.1663 12.6269 14.7584 13.4429 13.9424C14.2588 13.1264 14.6668 12.1455 14.6668 10.9997C14.6668 9.85384 14.2588 8.87294 13.4429 8.05697C12.6269 7.24099 11.646 6.83301 10.5002 6.83301C9.35433 6.83301 8.37343 7.24099 7.55745 8.05697C6.74148 8.87294 6.3335 9.85384 6.3335 10.9997C6.3335 12.1455 6.74148 13.1264 7.55745 13.9424C8.37343 14.7584 9.35433 15.1663 10.5002 15.1663ZM10.5002 13.083C9.92725 13.083 9.4368 12.879 9.02881 12.471C8.62082 12.063 8.41683 11.5726 8.41683 10.9997C8.41683 10.4268 8.62082 9.93631 9.02881 9.52832C9.4368 9.12033 9.92725 8.91634 10.5002 8.91634C11.0731 8.91634 11.5635 9.12033 11.9715 9.52832C12.3795 9.93631 12.5835 10.4268 12.5835 10.9997C12.5835 11.5726 12.3795 12.063 11.9715 12.471C11.5635 12.879 11.0731 13.083 10.5002 13.083Z" fill="white"/>
</svg>
