<svg width="25" height="25" viewBox="0 0 25 25" fill="none" xmlns="http://www.w3.org/2000/svg">
<g id="description_24dp_E8EAED_FILL0_wght400_GRAD0_opsz24 (1) 1">
<path id="Vector" d="M8.33329 18.75H16.6666V16.6667H8.33329V18.75ZM8.33329 14.5833H16.6666V12.5H8.33329V14.5833ZM6.24996 22.9167C5.67704 22.9167 5.18659 22.7127 4.77861 22.3047C4.37062 21.8967 4.16663 21.4062 4.16663 20.8333V4.16666C4.16663 3.59374 4.37062 3.10329 4.77861 2.69531C5.18659 2.28732 5.67704 2.08333 6.24996 2.08333H14.5833L20.8333 8.33333V20.8333C20.8333 21.4062 20.6293 21.8967 20.2213 22.3047C19.8133 22.7127 19.3229 22.9167 18.75 22.9167H6.24996ZM13.5416 9.375V4.16666H6.24996V20.8333H18.75V9.375H13.5416Z" fill="#AB9DB6"/>
</g>
</svg>
