<svg width="249" height="250" viewBox="0 0 249 250" fill="none" xmlns="http://www.w3.org/2000/svg">
<g id="Group 814">
<path id="Vector" d="M129.882 111.382C125.784 81.0266 124.6 49.1868 126.064 16.1979C121.689 48.904 114.914 79.9707 105.537 109.017C77.6285 113.711 48.3789 115.243 18.0944 113.901C48.097 118.416 76.5758 125.556 103.179 135.546C107.277 165.901 108.461 197.741 106.998 230.73C111.372 198.024 118.147 166.957 127.524 137.911C155.433 133.216 184.682 131.684 214.967 133.026C184.964 128.512 156.485 121.372 129.882 111.382Z" fill="url(#paint0_linear_1093_3761)"/>
<path id="Vector_2" opacity="0.5" d="M180.487 200.368C192.46 200.201 204.764 201.43 217.293 203.916C205.109 200.134 193.749 195.362 183.375 189.528C183.847 176.692 185.639 163.427 188.619 149.854C184.446 163.124 179.391 175.562 173.396 186.997C161.423 187.164 149.119 185.935 136.59 183.449C148.774 187.231 160.134 192.003 170.508 197.837C170.036 210.673 168.244 223.938 165.264 237.51C169.437 224.24 174.492 211.803 180.487 200.368Z" fill="url(#paint1_linear_1093_3761)"/>
</g>
<defs>
<linearGradient id="paint0_linear_1093_3761" x1="191.942" y1="164.004" x2="216.291" y2="83.3329" gradientUnits="userSpaceOnUse">
<stop stop-color="#8824DC"/>
<stop offset="1" stop-color="#B1219D"/>
</linearGradient>
<linearGradient id="paint1_linear_1093_3761" x1="155.261" y1="225.42" x2="185.071" y2="238.962" gradientUnits="userSpaceOnUse">
<stop stop-color="#8824DC"/>
<stop offset="1" stop-color="#B1219D"/>
</linearGradient>
</defs>
</svg>
