<svg width="25" height="25" viewBox="0 0 25 25" fill="none" xmlns="http://www.w3.org/2000/svg">
<path d="M12.5 21.875C11.1979 21.875 9.9783 21.6276 8.84115 21.1328C7.70399 20.638 6.71441 19.9696 5.8724 19.1276C5.03038 18.2856 4.36198 17.296 3.86719 16.1589C3.3724 15.0217 3.125 13.8021 3.125 12.5C3.125 11.1979 3.3724 9.9783 3.86719 8.84115C4.36198 7.70399 5.03038 6.71441 5.8724 5.8724C6.71441 5.03038 7.70399 4.36198 8.84115 3.86719C9.9783 3.3724 11.1979 3.125 12.5 3.125C13.9236 3.125 15.2734 3.42882 16.5495 4.03646C17.8255 4.6441 18.9062 5.50347 19.7917 6.61458V4.16667H21.875V10.4167H15.625V8.33333H18.4896C17.7778 7.36111 16.901 6.59722 15.8594 6.04167C14.8177 5.48611 13.6979 5.20833 12.5 5.20833C10.4687 5.20833 8.74566 5.9158 7.33073 7.33073C5.9158 8.74566 5.20833 10.4687 5.20833 12.5C5.20833 14.5312 5.9158 16.2543 7.33073 17.6693C8.74566 19.0842 10.4687 19.7917 12.5 19.7917C14.3229 19.7917 15.9158 19.2014 17.2786 18.0208C18.6415 16.8403 19.4444 15.3472 19.6875 13.5417H21.8229C21.5625 15.9201 20.5425 17.9036 18.763 19.4922C16.9835 21.0807 14.8958 21.875 12.5 21.875ZM15.4167 16.875L11.4583 12.9167V7.29167H13.5417V12.0833L16.875 15.4167L15.4167 16.875Z" fill="#AB9DB6"/>
</svg>
