<svg width="25" height="25" viewBox="0 0 25 25" fill="none" xmlns="http://www.w3.org/2000/svg">
<g id="thumb_up_24dp_000000_FILL0_wght400_GRAD0_opsz24 1">
<path id="Vector" d="M18.75 21.875H7.29171V8.33334L14.5834 1.04167L15.8855 2.34376C16.007 2.46528 16.1068 2.63021 16.1849 2.83855C16.2631 3.04688 16.3021 3.24653 16.3021 3.43751V3.80209L15.1563 8.33334H21.875C22.4306 8.33334 22.9167 8.54167 23.3334 8.95834C23.75 9.37501 23.9584 9.86112 23.9584 10.4167V12.5C23.9584 12.6215 23.941 12.7517 23.9063 12.8906C23.8716 13.0295 23.8368 13.1597 23.8021 13.2813L20.6771 20.625C20.5209 20.9722 20.2605 21.2674 19.8959 21.5104C19.5313 21.7535 19.1493 21.875 18.75 21.875ZM9.37504 19.7917H18.75L21.875 12.5V10.4167H12.5L13.9063 4.68751L9.37504 9.21876V19.7917ZM7.29171 8.33334V10.4167H4.16671V19.7917H7.29171V21.875H2.08337V8.33334H7.29171Z" fill="#AB9DB6"/>
</g>
</svg>
