<svg width="20" height="17" viewBox="0 0 20 17" fill="none" xmlns="http://www.w3.org/2000/svg">
<path d="M7 14.5H18V11.825H7V14.5ZM2 5.175H5V2.5H2V5.175ZM2 9.85H5V7.175H2V9.85ZM2 14.5H5V11.825H2V14.5ZM7 9.85H18V7.175H7V9.85ZM7 5.175H18V2.5H7V5.175ZM2 16.5C1.45 16.5 0.979167 16.3042 0.5875 15.9125C0.195833 15.5208 0 15.05 0 14.5V2.5C0 1.95 0.195833 1.47917 0.5875 1.0875C0.979167 0.695833 1.45 0.5 2 0.5H18C18.55 0.5 19.0208 0.695833 19.4125 1.0875C19.8042 1.47917 20 1.95 20 2.5V14.5C20 15.05 19.8042 15.5208 19.4125 15.9125C19.0208 16.3042 18.55 16.5 18 16.5H2Z" fill="white"/>
</svg>
